<?xml version="1.0" encoding="utf-8" standalone="no"?>
<!DOCTYPE svg PUBLIC "-//W3C//DTD SVG 1.1//EN"
  "http://www.w3.org/Graphics/SVG/1.1/DTD/svg11.dtd">
<svg xmlns:xlink="http://www.w3.org/1999/xlink" width="1144.58pt" height="383.82025pt" viewBox="0 0 1144.58 383.82025" xmlns="http://www.w3.org/2000/svg" version="1.1">
 <metadata>
  <rdf:RDF xmlns:dc="http://purl.org/dc/elements/1.1/" xmlns:cc="http://creativecommons.org/ns#" xmlns:rdf="http://www.w3.org/1999/02/22-rdf-syntax-ns#">
   <cc:Work>
    <dc:type rdf:resource="http://purl.org/dc/dcmitype/StillImage"/>
    <dc:date>2026-04-15T12:46:18.809840</dc:date>
    <dc:format>image/svg+xml</dc:format>
    <dc:creator>
     <cc:Agent>
      <dc:title>Matplotlib v3.10.8, https://matplotlib.org/</dc:title>
     </cc:Agent>
    </dc:creator>
   </cc:Work>
  </rdf:RDF>
 </metadata>
 <defs>
  <style type="text/css">*{stroke-linejoin: round; stroke-linecap: butt}</style>
 </defs>
 <g id="figure_1">
  <g id="patch_1">
   <path d="M 0 383.82025 
L 1144.58 383.82025 
L 1144.58 0 
L 0 0 
z
" style="fill: #ffffff"/>
  </g>
  <g id="axes_1">
   <g id="patch_2">
    <path d="M 115.725 346.264 
L 619.4025 346.264 
L 619.4025 47.544 
L 115.725 47.544 
z
" style="fill: #ffffff"/>
   </g>
   <g id="patch_3">
    <path d="M 193.849456 346.264 
L 448.303425 346.264 
L 448.303425 47.544 
L 193.849456 47.544 
z
" clip-path="url(#p57943eba0d)" style="fill: #66a3c8; opacity: 0.2; stroke: #66a3c8; stroke-linejoin: miter"/>
   </g>
   <g id="matplotlib.axis_1">
    <g id="xtick_1">
     <g id="line2d_1">
      <defs>
       <path id="m4969dff272" d="M 0 0 
L 0 3.5 
" style="stroke: #000000; stroke-width: 0.8"/>
      </defs>
      <g>
       <use xlink:href="#m4969dff272" x="123.032962" y="346.264" style="stroke: #000000; stroke-width: 0.8"/>
      </g>
     </g>
     <g id="text_1">
      <!-- −3 -->
      <g transform="translate(115.661869 360.862437) scale(0.1 -0.1)">
       <defs>
        <path id="DejaVuSans-2212" d="M 678 2272 
L 4684 2272 
L 4684 1741 
L 678 1741 
L 678 2272 
z
" transform="scale(0.015625)"/>
        <path id="DejaVuSans-33" d="M 2597 2516 
Q 3050 2419 3304 2112 
Q 3559 1806 3559 1356 
Q 3559 666 3084 287 
Q 2609 -91 1734 -91 
Q 1441 -91 1130 -33 
Q 819 25 488 141 
L 488 750 
Q 750 597 1062 519 
Q 1375 441 1716 441 
Q 2309 441 2620 675 
Q 2931 909 2931 1356 
Q 2931 1769 2642 2001 
Q 2353 2234 1838 2234 
L 1294 2234 
L 1294 2753 
L 1863 2753 
Q 2328 2753 2575 2939 
Q 2822 3125 2822 3475 
Q 2822 3834 2567 4026 
Q 2313 4219 1838 4219 
Q 1578 4219 1281 4162 
Q 984 4106 628 3988 
L 628 4550 
Q 988 4650 1302 4700 
Q 1616 4750 1894 4750 
Q 2613 4750 3031 4423 
Q 3450 4097 3450 3541 
Q 3450 3153 3228 2886 
Q 3006 2619 2597 2516 
z
" transform="scale(0.015625)"/>
       </defs>
       <use xlink:href="#DejaVuSans-2212"/>
       <use xlink:href="#DejaVuSans-33" transform="translate(83.789062 0)"/>
      </g>
     </g>
    </g>
    <g id="xtick_2">
     <g id="line2d_2">
      <g>
       <use xlink:href="#m4969dff272" x="188.864731" y="346.264" style="stroke: #000000; stroke-width: 0.8"/>
      </g>
     </g>
     <g id="text_2">
      <!-- −2 -->
      <g transform="translate(181.493637 360.862437) scale(0.1 -0.1)">
       <defs>
        <path id="DejaVuSans-32" d="M 1228 531 
L 3431 531 
L 3431 0 
L 469 0 
L 469 531 
Q 828 903 1448 1529 
Q 2069 2156 2228 2338 
Q 2531 2678 2651 2914 
Q 2772 3150 2772 3378 
Q 2772 3750 2511 3984 
Q 2250 4219 1831 4219 
Q 1534 4219 1204 4116 
Q 875 4013 500 3803 
L 500 4441 
Q 881 4594 1212 4672 
Q 1544 4750 1819 4750 
Q 2544 4750 2975 4387 
Q 3406 4025 3406 3419 
Q 3406 3131 3298 2873 
Q 3191 2616 2906 2266 
Q 2828 2175 2409 1742 
Q 1991 1309 1228 531 
z
" transform="scale(0.015625)"/>
       </defs>
       <use xlink:href="#DejaVuSans-2212"/>
       <use xlink:href="#DejaVuSans-32" transform="translate(83.789062 0)"/>
      </g>
     </g>
    </g>
    <g id="xtick_3">
     <g id="line2d_3">
      <g>
       <use xlink:href="#m4969dff272" x="254.6965" y="346.264" style="stroke: #000000; stroke-width: 0.8"/>
      </g>
     </g>
     <g id="text_3">
      <!-- −1 -->
      <g transform="translate(247.325406 360.862437) scale(0.1 -0.1)">
       <defs>
        <path id="DejaVuSans-31" d="M 794 531 
L 1825 531 
L 1825 4091 
L 703 3866 
L 703 4441 
L 1819 4666 
L 2450 4666 
L 2450 531 
L 3481 531 
L 3481 0 
L 794 0 
L 794 531 
z
" transform="scale(0.015625)"/>
       </defs>
       <use xlink:href="#DejaVuSans-2212"/>
       <use xlink:href="#DejaVuSans-31" transform="translate(83.789062 0)"/>
      </g>
     </g>
    </g>
    <g id="xtick_4">
     <g id="line2d_4">
      <g>
       <use xlink:href="#m4969dff272" x="320.528268" y="346.264" style="stroke: #000000; stroke-width: 0.8"/>
      </g>
     </g>
     <g id="text_4">
      <!-- 0 -->
      <g transform="translate(317.347018 360.862437) scale(0.1 -0.1)">
       <defs>
        <path id="DejaVuSans-30" d="M 2034 4250 
Q 1547 4250 1301 3770 
Q 1056 3291 1056 2328 
Q 1056 1369 1301 889 
Q 1547 409 2034 409 
Q 2525 409 2770 889 
Q 3016 1369 3016 2328 
Q 3016 3291 2770 3770 
Q 2525 4250 2034 4250 
z
M 2034 4750 
Q 2819 4750 3233 4129 
Q 3647 3509 3647 2328 
Q 3647 1150 3233 529 
Q 2819 -91 2034 -91 
Q 1250 -91 836 529 
Q 422 1150 422 2328 
Q 422 3509 836 4129 
Q 1250 4750 2034 4750 
z
" transform="scale(0.015625)"/>
       </defs>
       <use xlink:href="#DejaVuSans-30"/>
      </g>
     </g>
    </g>
    <g id="xtick_5">
     <g id="line2d_5">
      <g>
       <use xlink:href="#m4969dff272" x="386.360037" y="346.264" style="stroke: #000000; stroke-width: 0.8"/>
      </g>
     </g>
     <g id="text_5">
      <!-- 1 -->
      <g transform="translate(383.178787 360.862437) scale(0.1 -0.1)">
       <use xlink:href="#DejaVuSans-31"/>
      </g>
     </g>
    </g>
    <g id="xtick_6">
     <g id="line2d_6">
      <g>
       <use xlink:href="#m4969dff272" x="452.191806" y="346.264" style="stroke: #000000; stroke-width: 0.8"/>
      </g>
     </g>
     <g id="text_6">
      <!-- 2 -->
      <g transform="translate(449.010556 360.862437) scale(0.1 -0.1)">
       <use xlink:href="#DejaVuSans-32"/>
      </g>
     </g>
    </g>
    <g id="xtick_7">
     <g id="line2d_7">
      <g>
       <use xlink:href="#m4969dff272" x="518.023574" y="346.264" style="stroke: #000000; stroke-width: 0.8"/>
      </g>
     </g>
     <g id="text_7">
      <!-- 3 -->
      <g transform="translate(514.842324 360.862437) scale(0.1 -0.1)">
       <use xlink:href="#DejaVuSans-33"/>
      </g>
     </g>
    </g>
    <g id="xtick_8">
     <g id="line2d_8">
      <g>
       <use xlink:href="#m4969dff272" x="583.855343" y="346.264" style="stroke: #000000; stroke-width: 0.8"/>
      </g>
     </g>
     <g id="text_8">
      <!-- 4 -->
      <g transform="translate(580.674093 360.862437) scale(0.1 -0.1)">
       <defs>
        <path id="DejaVuSans-34" d="M 2419 4116 
L 825 1625 
L 2419 1625 
L 2419 4116 
z
M 2253 4666 
L 3047 4666 
L 3047 1625 
L 3713 1625 
L 3713 1100 
L 3047 1100 
L 3047 0 
L 2419 0 
L 2419 1100 
L 313 1100 
L 313 1709 
L 2253 4666 
z
" transform="scale(0.015625)"/>
       </defs>
       <use xlink:href="#DejaVuSans-34"/>
      </g>
     </g>
    </g>
    <g id="text_9">
     <!-- Koeffisient (prosentpoeng) -->
     <g transform="translate(301.159844 374.540562) scale(0.1 -0.1)">
      <defs>
       <path id="DejaVuSans-4b" d="M 628 4666 
L 1259 4666 
L 1259 2694 
L 3353 4666 
L 4166 4666 
L 1850 2491 
L 4331 0 
L 3500 0 
L 1259 2247 
L 1259 0 
L 628 0 
L 628 4666 
z
" transform="scale(0.015625)"/>
       <path id="DejaVuSans-6f" d="M 1959 3097 
Q 1497 3097 1228 2736 
Q 959 2375 959 1747 
Q 959 1119 1226 758 
Q 1494 397 1959 397 
Q 2419 397 2687 759 
Q 2956 1122 2956 1747 
Q 2956 2369 2687 2733 
Q 2419 3097 1959 3097 
z
M 1959 3584 
Q 2709 3584 3137 3096 
Q 3566 2609 3566 1747 
Q 3566 888 3137 398 
Q 2709 -91 1959 -91 
Q 1206 -91 779 398 
Q 353 888 353 1747 
Q 353 2609 779 3096 
Q 1206 3584 1959 3584 
z
" transform="scale(0.015625)"/>
       <path id="DejaVuSans-65" d="M 3597 1894 
L 3597 1613 
L 953 1613 
Q 991 1019 1311 708 
Q 1631 397 2203 397 
Q 2534 397 2845 478 
Q 3156 559 3463 722 
L 3463 178 
Q 3153 47 2828 -22 
Q 2503 -91 2169 -91 
Q 1331 -91 842 396 
Q 353 884 353 1716 
Q 353 2575 817 3079 
Q 1281 3584 2069 3584 
Q 2775 3584 3186 3129 
Q 3597 2675 3597 1894 
z
M 3022 2063 
Q 3016 2534 2758 2815 
Q 2500 3097 2075 3097 
Q 1594 3097 1305 2825 
Q 1016 2553 972 2059 
L 3022 2063 
z
" transform="scale(0.015625)"/>
       <path id="DejaVuSans-66" d="M 2375 4863 
L 2375 4384 
L 1825 4384 
Q 1516 4384 1395 4259 
Q 1275 4134 1275 3809 
L 1275 3500 
L 2222 3500 
L 2222 3053 
L 1275 3053 
L 1275 0 
L 697 0 
L 697 3053 
L 147 3053 
L 147 3500 
L 697 3500 
L 697 3744 
Q 697 4328 969 4595 
Q 1241 4863 1831 4863 
L 2375 4863 
z
" transform="scale(0.015625)"/>
       <path id="DejaVuSans-69" d="M 603 3500 
L 1178 3500 
L 1178 0 
L 603 0 
L 603 3500 
z
M 603 4863 
L 1178 4863 
L 1178 4134 
L 603 4134 
L 603 4863 
z
" transform="scale(0.015625)"/>
       <path id="DejaVuSans-73" d="M 2834 3397 
L 2834 2853 
Q 2591 2978 2328 3040 
Q 2066 3103 1784 3103 
Q 1356 3103 1142 2972 
Q 928 2841 928 2578 
Q 928 2378 1081 2264 
Q 1234 2150 1697 2047 
L 1894 2003 
Q 2506 1872 2764 1633 
Q 3022 1394 3022 966 
Q 3022 478 2636 193 
Q 2250 -91 1575 -91 
Q 1294 -91 989 -36 
Q 684 19 347 128 
L 347 722 
Q 666 556 975 473 
Q 1284 391 1588 391 
Q 1994 391 2212 530 
Q 2431 669 2431 922 
Q 2431 1156 2273 1281 
Q 2116 1406 1581 1522 
L 1381 1569 
Q 847 1681 609 1914 
Q 372 2147 372 2553 
Q 372 3047 722 3315 
Q 1072 3584 1716 3584 
Q 2034 3584 2315 3537 
Q 2597 3491 2834 3397 
z
" transform="scale(0.015625)"/>
       <path id="DejaVuSans-6e" d="M 3513 2113 
L 3513 0 
L 2938 0 
L 2938 2094 
Q 2938 2591 2744 2837 
Q 2550 3084 2163 3084 
Q 1697 3084 1428 2787 
Q 1159 2491 1159 1978 
L 1159 0 
L 581 0 
L 581 3500 
L 1159 3500 
L 1159 2956 
Q 1366 3272 1645 3428 
Q 1925 3584 2291 3584 
Q 2894 3584 3203 3211 
Q 3513 2838 3513 2113 
z
" transform="scale(0.015625)"/>
       <path id="DejaVuSans-74" d="M 1172 4494 
L 1172 3500 
L 2356 3500 
L 2356 3053 
L 1172 3053 
L 1172 1153 
Q 1172 725 1289 603 
Q 1406 481 1766 481 
L 2356 481 
L 2356 0 
L 1766 0 
Q 1100 0 847 248 
Q 594 497 594 1153 
L 594 3053 
L 172 3053 
L 172 3500 
L 594 3500 
L 594 4494 
L 1172 4494 
z
" transform="scale(0.015625)"/>
       <path id="DejaVuSans-20" transform="scale(0.015625)"/>
       <path id="DejaVuSans-28" d="M 1984 4856 
Q 1566 4138 1362 3434 
Q 1159 2731 1159 2009 
Q 1159 1288 1364 580 
Q 1569 -128 1984 -844 
L 1484 -844 
Q 1016 -109 783 600 
Q 550 1309 550 2009 
Q 550 2706 781 3412 
Q 1013 4119 1484 4856 
L 1984 4856 
z
" transform="scale(0.015625)"/>
       <path id="DejaVuSans-70" d="M 1159 525 
L 1159 -1331 
L 581 -1331 
L 581 3500 
L 1159 3500 
L 1159 2969 
Q 1341 3281 1617 3432 
Q 1894 3584 2278 3584 
Q 2916 3584 3314 3078 
Q 3713 2572 3713 1747 
Q 3713 922 3314 415 
Q 2916 -91 2278 -91 
Q 1894 -91 1617 61 
Q 1341 213 1159 525 
z
M 3116 1747 
Q 3116 2381 2855 2742 
Q 2594 3103 2138 3103 
Q 1681 3103 1420 2742 
Q 1159 2381 1159 1747 
Q 1159 1113 1420 752 
Q 1681 391 2138 391 
Q 2594 391 2855 752 
Q 3116 1113 3116 1747 
z
" transform="scale(0.015625)"/>
       <path id="DejaVuSans-72" d="M 2631 2963 
Q 2534 3019 2420 3045 
Q 2306 3072 2169 3072 
Q 1681 3072 1420 2755 
Q 1159 2438 1159 1844 
L 1159 0 
L 581 0 
L 581 3500 
L 1159 3500 
L 1159 2956 
Q 1341 3275 1631 3429 
Q 1922 3584 2338 3584 
Q 2397 3584 2469 3576 
Q 2541 3569 2628 3553 
L 2631 2963 
z
" transform="scale(0.015625)"/>
       <path id="DejaVuSans-67" d="M 2906 1791 
Q 2906 2416 2648 2759 
Q 2391 3103 1925 3103 
Q 1463 3103 1205 2759 
Q 947 2416 947 1791 
Q 947 1169 1205 825 
Q 1463 481 1925 481 
Q 2391 481 2648 825 
Q 2906 1169 2906 1791 
z
M 3481 434 
Q 3481 -459 3084 -895 
Q 2688 -1331 1869 -1331 
Q 1566 -1331 1297 -1286 
Q 1028 -1241 775 -1147 
L 775 -588 
Q 1028 -725 1275 -790 
Q 1522 -856 1778 -856 
Q 2344 -856 2625 -561 
Q 2906 -266 2906 331 
L 2906 616 
Q 2728 306 2450 153 
Q 2172 0 1784 0 
Q 1141 0 747 490 
Q 353 981 353 1791 
Q 353 2603 747 3093 
Q 1141 3584 1784 3584 
Q 2172 3584 2450 3431 
Q 2728 3278 2906 2969 
L 2906 3500 
L 3481 3500 
L 3481 434 
z
" transform="scale(0.015625)"/>
       <path id="DejaVuSans-29" d="M 513 4856 
L 1013 4856 
Q 1481 4119 1714 3412 
Q 1947 2706 1947 2009 
Q 1947 1309 1714 600 
Q 1481 -109 1013 -844 
L 513 -844 
Q 928 -128 1133 580 
Q 1338 1288 1338 2009 
Q 1338 2731 1133 3434 
Q 928 4138 513 4856 
z
" transform="scale(0.015625)"/>
      </defs>
      <use xlink:href="#DejaVuSans-4b"/>
      <use xlink:href="#DejaVuSans-6f" transform="translate(60.576172 0)"/>
      <use xlink:href="#DejaVuSans-65" transform="translate(121.757812 0)"/>
      <use xlink:href="#DejaVuSans-66" transform="translate(183.28125 0)"/>
      <use xlink:href="#DejaVuSans-66" transform="translate(218.486328 0)"/>
      <use xlink:href="#DejaVuSans-69" transform="translate(253.691406 0)"/>
      <use xlink:href="#DejaVuSans-73" transform="translate(281.474609 0)"/>
      <use xlink:href="#DejaVuSans-69" transform="translate(333.574219 0)"/>
      <use xlink:href="#DejaVuSans-65" transform="translate(361.357422 0)"/>
      <use xlink:href="#DejaVuSans-6e" transform="translate(422.880859 0)"/>
      <use xlink:href="#DejaVuSans-74" transform="translate(486.259766 0)"/>
      <use xlink:href="#DejaVuSans-20" transform="translate(525.46875 0)"/>
      <use xlink:href="#DejaVuSans-28" transform="translate(557.255859 0)"/>
      <use xlink:href="#DejaVuSans-70" transform="translate(596.269531 0)"/>
      <use xlink:href="#DejaVuSans-72" transform="translate(659.746094 0)"/>
      <use xlink:href="#DejaVuSans-6f" transform="translate(698.609375 0)"/>
      <use xlink:href="#DejaVuSans-73" transform="translate(759.791016 0)"/>
      <use xlink:href="#DejaVuSans-65" transform="translate(811.890625 0)"/>
      <use xlink:href="#DejaVuSans-6e" transform="translate(873.414062 0)"/>
      <use xlink:href="#DejaVuSans-74" transform="translate(936.792969 0)"/>
      <use xlink:href="#DejaVuSans-70" transform="translate(976.001953 0)"/>
      <use xlink:href="#DejaVuSans-6f" transform="translate(1039.478516 0)"/>
      <use xlink:href="#DejaVuSans-65" transform="translate(1100.660156 0)"/>
      <use xlink:href="#DejaVuSans-6e" transform="translate(1162.183594 0)"/>
      <use xlink:href="#DejaVuSans-67" transform="translate(1225.5625 0)"/>
      <use xlink:href="#DejaVuSans-29" transform="translate(1289.039062 0)"/>
     </g>
    </g>
   </g>
   <g id="matplotlib.axis_2">
    <g id="ytick_1">
     <g id="line2d_9">
      <defs>
       <path id="m10d8137672" d="M 0 0 
L -3.5 0 
" style="stroke: #000000; stroke-width: 0.8"/>
      </defs>
      <g>
       <use xlink:href="#m10d8137672" x="115.725" y="332.685818" style="stroke: #000000; stroke-width: 0.8"/>
      </g>
     </g>
     <g id="text_10">
      <!-- Nav Vest-Viken -->
      <g transform="translate(49.215 335.725193) scale(0.08 -0.08)">
       <defs>
        <path id="DejaVuSans-4e" d="M 628 4666 
L 1478 4666 
L 3547 763 
L 3547 4666 
L 4159 4666 
L 4159 0 
L 3309 0 
L 1241 3903 
L 1241 0 
L 628 0 
L 628 4666 
z
" transform="scale(0.015625)"/>
        <path id="DejaVuSans-61" d="M 2194 1759 
Q 1497 1759 1228 1600 
Q 959 1441 959 1056 
Q 959 750 1161 570 
Q 1363 391 1709 391 
Q 2188 391 2477 730 
Q 2766 1069 2766 1631 
L 2766 1759 
L 2194 1759 
z
M 3341 1997 
L 3341 0 
L 2766 0 
L 2766 531 
Q 2569 213 2275 61 
Q 1981 -91 1556 -91 
Q 1019 -91 701 211 
Q 384 513 384 1019 
Q 384 1609 779 1909 
Q 1175 2209 1959 2209 
L 2766 2209 
L 2766 2266 
Q 2766 2663 2505 2880 
Q 2244 3097 1772 3097 
Q 1472 3097 1187 3025 
Q 903 2953 641 2809 
L 641 3341 
Q 956 3463 1253 3523 
Q 1550 3584 1831 3584 
Q 2591 3584 2966 3190 
Q 3341 2797 3341 1997 
z
" transform="scale(0.015625)"/>
        <path id="DejaVuSans-76" d="M 191 3500 
L 800 3500 
L 1894 563 
L 2988 3500 
L 3597 3500 
L 2284 0 
L 1503 0 
L 191 3500 
z
" transform="scale(0.015625)"/>
        <path id="DejaVuSans-56" d="M 1831 0 
L 50 4666 
L 709 4666 
L 2188 738 
L 3669 4666 
L 4325 4666 
L 2547 0 
L 1831 0 
z
" transform="scale(0.015625)"/>
        <path id="DejaVuSans-2d" d="M 313 2009 
L 1997 2009 
L 1997 1497 
L 313 1497 
L 313 2009 
z
" transform="scale(0.015625)"/>
        <path id="DejaVuSans-6b" d="M 581 4863 
L 1159 4863 
L 1159 1991 
L 2875 3500 
L 3609 3500 
L 1753 1863 
L 3688 0 
L 2938 0 
L 1159 1709 
L 1159 0 
L 581 0 
L 581 4863 
z
" transform="scale(0.015625)"/>
       </defs>
       <use xlink:href="#DejaVuSans-4e"/>
       <use xlink:href="#DejaVuSans-61" transform="translate(74.804688 0)"/>
       <use xlink:href="#DejaVuSans-76" transform="translate(136.083984 0)"/>
       <use xlink:href="#DejaVuSans-20" transform="translate(195.263672 0)"/>
       <use xlink:href="#DejaVuSans-56" transform="translate(227.050781 0)"/>
       <use xlink:href="#DejaVuSans-65" transform="translate(287.708984 0)"/>
       <use xlink:href="#DejaVuSans-73" transform="translate(349.232422 0)"/>
       <use xlink:href="#DejaVuSans-74" transform="translate(401.332031 0)"/>
       <use xlink:href="#DejaVuSans-2d" transform="translate(440.541016 0)"/>
       <use xlink:href="#DejaVuSans-56" transform="translate(470.75 0)"/>
       <use xlink:href="#DejaVuSans-69" transform="translate(536.908203 0)"/>
       <use xlink:href="#DejaVuSans-6b" transform="translate(564.691406 0)"/>
       <use xlink:href="#DejaVuSans-65" transform="translate(618.976562 0)"/>
       <use xlink:href="#DejaVuSans-6e" transform="translate(680.5 0)"/>
      </g>
     </g>
    </g>
    <g id="ytick_2">
     <g id="line2d_10">
      <g>
       <use xlink:href="#m10d8137672" x="115.725" y="307.998215" style="stroke: #000000; stroke-width: 0.8"/>
      </g>
     </g>
     <g id="text_11">
      <!-- Nav Troms og Finnmark -->
      <g transform="translate(14.83125 311.03759) scale(0.08 -0.08)">
       <defs>
        <path id="DejaVuSans-54" d="M -19 4666 
L 3928 4666 
L 3928 4134 
L 2272 4134 
L 2272 0 
L 1638 0 
L 1638 4134 
L -19 4134 
L -19 4666 
z
" transform="scale(0.015625)"/>
        <path id="DejaVuSans-6d" d="M 3328 2828 
Q 3544 3216 3844 3400 
Q 4144 3584 4550 3584 
Q 5097 3584 5394 3201 
Q 5691 2819 5691 2113 
L 5691 0 
L 5113 0 
L 5113 2094 
Q 5113 2597 4934 2840 
Q 4756 3084 4391 3084 
Q 3944 3084 3684 2787 
Q 3425 2491 3425 1978 
L 3425 0 
L 2847 0 
L 2847 2094 
Q 2847 2600 2669 2842 
Q 2491 3084 2119 3084 
Q 1678 3084 1418 2786 
Q 1159 2488 1159 1978 
L 1159 0 
L 581 0 
L 581 3500 
L 1159 3500 
L 1159 2956 
Q 1356 3278 1631 3431 
Q 1906 3584 2284 3584 
Q 2666 3584 2933 3390 
Q 3200 3197 3328 2828 
z
" transform="scale(0.015625)"/>
        <path id="DejaVuSans-46" d="M 628 4666 
L 3309 4666 
L 3309 4134 
L 1259 4134 
L 1259 2759 
L 3109 2759 
L 3109 2228 
L 1259 2228 
L 1259 0 
L 628 0 
L 628 4666 
z
" transform="scale(0.015625)"/>
       </defs>
       <use xlink:href="#DejaVuSans-4e"/>
       <use xlink:href="#DejaVuSans-61" transform="translate(74.804688 0)"/>
       <use xlink:href="#DejaVuSans-76" transform="translate(136.083984 0)"/>
       <use xlink:href="#DejaVuSans-20" transform="translate(195.263672 0)"/>
       <use xlink:href="#DejaVuSans-54" transform="translate(227.050781 0)"/>
       <use xlink:href="#DejaVuSans-72" transform="translate(273.384766 0)"/>
       <use xlink:href="#DejaVuSans-6f" transform="translate(312.248047 0)"/>
       <use xlink:href="#DejaVuSans-6d" transform="translate(373.429688 0)"/>
       <use xlink:href="#DejaVuSans-73" transform="translate(470.841797 0)"/>
       <use xlink:href="#DejaVuSans-20" transform="translate(522.941406 0)"/>
       <use xlink:href="#DejaVuSans-6f" transform="translate(554.728516 0)"/>
       <use xlink:href="#DejaVuSans-67" transform="translate(615.910156 0)"/>
       <use xlink:href="#DejaVuSans-20" transform="translate(679.386719 0)"/>
       <use xlink:href="#DejaVuSans-46" transform="translate(711.173828 0)"/>
       <use xlink:href="#DejaVuSans-69" transform="translate(761.443359 0)"/>
       <use xlink:href="#DejaVuSans-6e" transform="translate(789.226562 0)"/>
       <use xlink:href="#DejaVuSans-6e" transform="translate(852.605469 0)"/>
       <use xlink:href="#DejaVuSans-6d" transform="translate(915.984375 0)"/>
       <use xlink:href="#DejaVuSans-61" transform="translate(1013.396484 0)"/>
       <use xlink:href="#DejaVuSans-72" transform="translate(1074.675781 0)"/>
       <use xlink:href="#DejaVuSans-6b" transform="translate(1115.789062 0)"/>
      </g>
     </g>
    </g>
    <g id="ytick_3">
     <g id="line2d_11">
      <g>
       <use xlink:href="#m10d8137672" x="115.725" y="283.310612" style="stroke: #000000; stroke-width: 0.8"/>
      </g>
     </g>
     <g id="text_12">
      <!-- Nav Vestland -->
      <g transform="translate(56.2075 286.349987) scale(0.08 -0.08)">
       <defs>
        <path id="DejaVuSans-6c" d="M 603 4863 
L 1178 4863 
L 1178 0 
L 603 0 
L 603 4863 
z
" transform="scale(0.015625)"/>
        <path id="DejaVuSans-64" d="M 2906 2969 
L 2906 4863 
L 3481 4863 
L 3481 0 
L 2906 0 
L 2906 525 
Q 2725 213 2448 61 
Q 2172 -91 1784 -91 
Q 1150 -91 751 415 
Q 353 922 353 1747 
Q 353 2572 751 3078 
Q 1150 3584 1784 3584 
Q 2172 3584 2448 3432 
Q 2725 3281 2906 2969 
z
M 947 1747 
Q 947 1113 1208 752 
Q 1469 391 1925 391 
Q 2381 391 2643 752 
Q 2906 1113 2906 1747 
Q 2906 2381 2643 2742 
Q 2381 3103 1925 3103 
Q 1469 3103 1208 2742 
Q 947 2381 947 1747 
z
" transform="scale(0.015625)"/>
       </defs>
       <use xlink:href="#DejaVuSans-4e"/>
       <use xlink:href="#DejaVuSans-61" transform="translate(74.804688 0)"/>
       <use xlink:href="#DejaVuSans-76" transform="translate(136.083984 0)"/>
       <use xlink:href="#DejaVuSans-20" transform="translate(195.263672 0)"/>
       <use xlink:href="#DejaVuSans-56" transform="translate(227.050781 0)"/>
       <use xlink:href="#DejaVuSans-65" transform="translate(287.708984 0)"/>
       <use xlink:href="#DejaVuSans-73" transform="translate(349.232422 0)"/>
       <use xlink:href="#DejaVuSans-74" transform="translate(401.332031 0)"/>
       <use xlink:href="#DejaVuSans-6c" transform="translate(440.541016 0)"/>
       <use xlink:href="#DejaVuSans-61" transform="translate(468.324219 0)"/>
       <use xlink:href="#DejaVuSans-6e" transform="translate(529.603516 0)"/>
       <use xlink:href="#DejaVuSans-64" transform="translate(592.982422 0)"/>
      </g>
     </g>
    </g>
    <g id="ytick_4">
     <g id="line2d_12">
      <g>
       <use xlink:href="#m10d8137672" x="115.725" y="258.623008" style="stroke: #000000; stroke-width: 0.8"/>
      </g>
     </g>
     <g id="text_13">
      <!-- Nav Vestfold og Telemark -->
      <g transform="translate(7.2 261.662383) scale(0.08 -0.08)">
       <use xlink:href="#DejaVuSans-4e"/>
       <use xlink:href="#DejaVuSans-61" transform="translate(74.804688 0)"/>
       <use xlink:href="#DejaVuSans-76" transform="translate(136.083984 0)"/>
       <use xlink:href="#DejaVuSans-20" transform="translate(195.263672 0)"/>
       <use xlink:href="#DejaVuSans-56" transform="translate(227.050781 0)"/>
       <use xlink:href="#DejaVuSans-65" transform="translate(287.708984 0)"/>
       <use xlink:href="#DejaVuSans-73" transform="translate(349.232422 0)"/>
       <use xlink:href="#DejaVuSans-74" transform="translate(401.332031 0)"/>
       <use xlink:href="#DejaVuSans-66" transform="translate(440.541016 0)"/>
       <use xlink:href="#DejaVuSans-6f" transform="translate(475.746094 0)"/>
       <use xlink:href="#DejaVuSans-6c" transform="translate(536.927734 0)"/>
       <use xlink:href="#DejaVuSans-64" transform="translate(564.710938 0)"/>
       <use xlink:href="#DejaVuSans-20" transform="translate(628.1875 0)"/>
       <use xlink:href="#DejaVuSans-6f" transform="translate(659.974609 0)"/>
       <use xlink:href="#DejaVuSans-67" transform="translate(721.15625 0)"/>
       <use xlink:href="#DejaVuSans-20" transform="translate(784.632812 0)"/>
       <use xlink:href="#DejaVuSans-54" transform="translate(816.419922 0)"/>
       <use xlink:href="#DejaVuSans-65" transform="translate(860.503906 0)"/>
       <use xlink:href="#DejaVuSans-6c" transform="translate(922.027344 0)"/>
       <use xlink:href="#DejaVuSans-65" transform="translate(949.810547 0)"/>
       <use xlink:href="#DejaVuSans-6d" transform="translate(1011.333984 0)"/>
       <use xlink:href="#DejaVuSans-61" transform="translate(1108.746094 0)"/>
       <use xlink:href="#DejaVuSans-72" transform="translate(1170.025391 0)"/>
       <use xlink:href="#DejaVuSans-6b" transform="translate(1211.138672 0)"/>
      </g>
     </g>
    </g>
    <g id="ytick_5">
     <g id="line2d_13">
      <g>
       <use xlink:href="#m10d8137672" x="115.725" y="233.935405" style="stroke: #000000; stroke-width: 0.8"/>
      </g>
     </g>
     <g id="text_14">
      <!-- Nav Agder -->
      <g transform="translate(66.71875 236.97478) scale(0.08 -0.08)">
       <defs>
        <path id="DejaVuSans-41" d="M 2188 4044 
L 1331 1722 
L 3047 1722 
L 2188 4044 
z
M 1831 4666 
L 2547 4666 
L 4325 0 
L 3669 0 
L 3244 1197 
L 1141 1197 
L 716 0 
L 50 0 
L 1831 4666 
z
" transform="scale(0.015625)"/>
       </defs>
       <use xlink:href="#DejaVuSans-4e"/>
       <use xlink:href="#DejaVuSans-61" transform="translate(74.804688 0)"/>
       <use xlink:href="#DejaVuSans-76" transform="translate(136.083984 0)"/>
       <use xlink:href="#DejaVuSans-20" transform="translate(195.263672 0)"/>
       <use xlink:href="#DejaVuSans-41" transform="translate(227.050781 0)"/>
       <use xlink:href="#DejaVuSans-67" transform="translate(295.458984 0)"/>
       <use xlink:href="#DejaVuSans-64" transform="translate(358.935547 0)"/>
       <use xlink:href="#DejaVuSans-65" transform="translate(422.412109 0)"/>
       <use xlink:href="#DejaVuSans-72" transform="translate(483.935547 0)"/>
      </g>
     </g>
    </g>
    <g id="ytick_6">
     <g id="line2d_14">
      <g>
       <use xlink:href="#m10d8137672" x="115.725" y="209.247802" style="stroke: #000000; stroke-width: 0.8"/>
      </g>
     </g>
     <g id="text_15">
      <!-- Nav Trøndelag -->
      <g transform="translate(51.395 212.287177) scale(0.08 -0.08)">
       <defs>
        <path id="DejaVuSans-f8" d="M 2828 2503 
L 1306 653 
Q 1434 522 1595 459 
Q 1756 397 1959 397 
Q 2419 397 2687 759 
Q 2956 1122 2956 1747 
Q 2956 1994 2925 2176 
Q 2894 2359 2828 2503 
z
M 2606 2841 
Q 2475 2969 2314 3033 
Q 2153 3097 1959 3097 
Q 1488 3097 1223 2730 
Q 959 2363 959 1703 
Q 959 1478 989 1306 
Q 1019 1134 1081 991 
L 2606 2841 
z
M 691 519 
Q 522 759 437 1067 
Q 353 1375 353 1747 
Q 353 2609 779 3096 
Q 1206 3584 1959 3584 
Q 2250 3584 2498 3504 
Q 2747 3425 2956 3263 
L 3391 3788 
L 3688 3541 
L 3231 2981 
Q 3397 2741 3481 2431 
Q 3566 2122 3566 1747 
Q 3566 888 3137 398 
Q 2709 -91 1959 -91 
Q 1659 -91 1407 -9 
Q 1156 72 959 231 
L 525 -294 
L 225 -50 
L 691 519 
z
" transform="scale(0.015625)"/>
       </defs>
       <use xlink:href="#DejaVuSans-4e"/>
       <use xlink:href="#DejaVuSans-61" transform="translate(74.804688 0)"/>
       <use xlink:href="#DejaVuSans-76" transform="translate(136.083984 0)"/>
       <use xlink:href="#DejaVuSans-20" transform="translate(195.263672 0)"/>
       <use xlink:href="#DejaVuSans-54" transform="translate(227.050781 0)"/>
       <use xlink:href="#DejaVuSans-72" transform="translate(273.384766 0)"/>
       <use xlink:href="#DejaVuSans-f8" transform="translate(314.498047 0)"/>
       <use xlink:href="#DejaVuSans-6e" transform="translate(375.679688 0)"/>
       <use xlink:href="#DejaVuSans-64" transform="translate(439.058594 0)"/>
       <use xlink:href="#DejaVuSans-65" transform="translate(502.535156 0)"/>
       <use xlink:href="#DejaVuSans-6c" transform="translate(564.058594 0)"/>
       <use xlink:href="#DejaVuSans-61" transform="translate(591.841797 0)"/>
       <use xlink:href="#DejaVuSans-67" transform="translate(653.121094 0)"/>
      </g>
     </g>
    </g>
    <g id="ytick_7">
     <g id="line2d_15">
      <g>
       <use xlink:href="#m10d8137672" x="115.725" y="184.560198" style="stroke: #000000; stroke-width: 0.8"/>
      </g>
     </g>
     <g id="text_16">
      <!-- Nav Øst-Viken -->
      <g transform="translate(52.6925 187.599573) scale(0.08 -0.08)">
       <defs>
        <path id="DejaVuSans-d8" d="M 3769 3475 
L 1528 831 
Q 1722 631 1973 526 
Q 2225 422 2522 422 
Q 3209 422 3611 934 
Q 4013 1447 4013 2328 
Q 4013 2678 3952 2965 
Q 3891 3253 3769 3475 
z
M 3513 3828 
Q 3322 4028 3070 4133 
Q 2819 4238 2522 4238 
Q 1834 4238 1429 3725 
Q 1025 3213 1025 2328 
Q 1025 1978 1086 1684 
Q 1147 1391 1269 1178 
L 3513 3828 
z
M 850 684 
Q 606 1003 482 1415 
Q 359 1828 359 2328 
Q 359 3434 948 4092 
Q 1538 4750 2522 4750 
Q 2928 4750 3273 4629 
Q 3619 4509 3891 4275 
L 4397 4872 
L 4716 4594 
L 4184 3975 
Q 4428 3653 4553 3237 
Q 4678 2822 4678 2328 
Q 4678 1225 4090 567 
Q 3503 -91 2522 -91 
Q 2122 -91 1776 26 
Q 1431 144 1147 378 
L 641 -219 
L 319 56 
L 850 684 
z
" transform="scale(0.015625)"/>
       </defs>
       <use xlink:href="#DejaVuSans-4e"/>
       <use xlink:href="#DejaVuSans-61" transform="translate(74.804688 0)"/>
       <use xlink:href="#DejaVuSans-76" transform="translate(136.083984 0)"/>
       <use xlink:href="#DejaVuSans-20" transform="translate(195.263672 0)"/>
       <use xlink:href="#DejaVuSans-d8" transform="translate(227.050781 0)"/>
       <use xlink:href="#DejaVuSans-73" transform="translate(305.761719 0)"/>
       <use xlink:href="#DejaVuSans-74" transform="translate(357.861328 0)"/>
       <use xlink:href="#DejaVuSans-2d" transform="translate(397.070312 0)"/>
       <use xlink:href="#DejaVuSans-56" transform="translate(427.279297 0)"/>
       <use xlink:href="#DejaVuSans-69" transform="translate(493.4375 0)"/>
       <use xlink:href="#DejaVuSans-6b" transform="translate(521.220703 0)"/>
       <use xlink:href="#DejaVuSans-65" transform="translate(575.505859 0)"/>
       <use xlink:href="#DejaVuSans-6e" transform="translate(637.029297 0)"/>
      </g>
     </g>
    </g>
    <g id="ytick_8">
     <g id="line2d_16">
      <g>
       <use xlink:href="#m10d8137672" x="115.725" y="159.872595" style="stroke: #000000; stroke-width: 0.8"/>
      </g>
     </g>
     <g id="text_17">
      <!-- Nav Oslo -->
      <g transform="translate(72.9775 162.91197) scale(0.08 -0.08)">
       <defs>
        <path id="DejaVuSans-4f" d="M 2522 4238 
Q 1834 4238 1429 3725 
Q 1025 3213 1025 2328 
Q 1025 1447 1429 934 
Q 1834 422 2522 422 
Q 3209 422 3611 934 
Q 4013 1447 4013 2328 
Q 4013 3213 3611 3725 
Q 3209 4238 2522 4238 
z
M 2522 4750 
Q 3503 4750 4090 4092 
Q 4678 3434 4678 2328 
Q 4678 1225 4090 567 
Q 3503 -91 2522 -91 
Q 1538 -91 948 565 
Q 359 1222 359 2328 
Q 359 3434 948 4092 
Q 1538 4750 2522 4750 
z
" transform="scale(0.015625)"/>
       </defs>
       <use xlink:href="#DejaVuSans-4e"/>
       <use xlink:href="#DejaVuSans-61" transform="translate(74.804688 0)"/>
       <use xlink:href="#DejaVuSans-76" transform="translate(136.083984 0)"/>
       <use xlink:href="#DejaVuSans-20" transform="translate(195.263672 0)"/>
       <use xlink:href="#DejaVuSans-4f" transform="translate(227.050781 0)"/>
       <use xlink:href="#DejaVuSans-73" transform="translate(305.761719 0)"/>
       <use xlink:href="#DejaVuSans-6c" transform="translate(357.861328 0)"/>
       <use xlink:href="#DejaVuSans-6f" transform="translate(385.644531 0)"/>
      </g>
     </g>
    </g>
    <g id="ytick_9">
     <g id="line2d_17">
      <g>
       <use xlink:href="#m10d8137672" x="115.725" y="135.184992" style="stroke: #000000; stroke-width: 0.8"/>
      </g>
     </g>
     <g id="text_18">
      <!-- Nav Rogaland -->
      <g transform="translate(53.21125 138.224367) scale(0.08 -0.08)">
       <defs>
        <path id="DejaVuSans-52" d="M 2841 2188 
Q 3044 2119 3236 1894 
Q 3428 1669 3622 1275 
L 4263 0 
L 3584 0 
L 2988 1197 
Q 2756 1666 2539 1819 
Q 2322 1972 1947 1972 
L 1259 1972 
L 1259 0 
L 628 0 
L 628 4666 
L 2053 4666 
Q 2853 4666 3247 4331 
Q 3641 3997 3641 3322 
Q 3641 2881 3436 2590 
Q 3231 2300 2841 2188 
z
M 1259 4147 
L 1259 2491 
L 2053 2491 
Q 2509 2491 2742 2702 
Q 2975 2913 2975 3322 
Q 2975 3731 2742 3939 
Q 2509 4147 2053 4147 
L 1259 4147 
z
" transform="scale(0.015625)"/>
       </defs>
       <use xlink:href="#DejaVuSans-4e"/>
       <use xlink:href="#DejaVuSans-61" transform="translate(74.804688 0)"/>
       <use xlink:href="#DejaVuSans-76" transform="translate(136.083984 0)"/>
       <use xlink:href="#DejaVuSans-20" transform="translate(195.263672 0)"/>
       <use xlink:href="#DejaVuSans-52" transform="translate(227.050781 0)"/>
       <use xlink:href="#DejaVuSans-6f" transform="translate(292.033203 0)"/>
       <use xlink:href="#DejaVuSans-67" transform="translate(353.214844 0)"/>
       <use xlink:href="#DejaVuSans-61" transform="translate(416.691406 0)"/>
       <use xlink:href="#DejaVuSans-6c" transform="translate(477.970703 0)"/>
       <use xlink:href="#DejaVuSans-61" transform="translate(505.753906 0)"/>
       <use xlink:href="#DejaVuSans-6e" transform="translate(567.033203 0)"/>
       <use xlink:href="#DejaVuSans-64" transform="translate(630.412109 0)"/>
      </g>
     </g>
    </g>
    <g id="ytick_10">
     <g id="line2d_18">
      <g>
       <use xlink:href="#m10d8137672" x="115.725" y="110.497388" style="stroke: #000000; stroke-width: 0.8"/>
      </g>
     </g>
     <g id="text_19">
      <!-- Nav Møre og Romsdal -->
      <g transform="translate(21.415 113.536763) scale(0.08 -0.08)">
       <defs>
        <path id="DejaVuSans-4d" d="M 628 4666 
L 1569 4666 
L 2759 1491 
L 3956 4666 
L 4897 4666 
L 4897 0 
L 4281 0 
L 4281 4097 
L 3078 897 
L 2444 897 
L 1241 4097 
L 1241 0 
L 628 0 
L 628 4666 
z
" transform="scale(0.015625)"/>
       </defs>
       <use xlink:href="#DejaVuSans-4e"/>
       <use xlink:href="#DejaVuSans-61" transform="translate(74.804688 0)"/>
       <use xlink:href="#DejaVuSans-76" transform="translate(136.083984 0)"/>
       <use xlink:href="#DejaVuSans-20" transform="translate(195.263672 0)"/>
       <use xlink:href="#DejaVuSans-4d" transform="translate(227.050781 0)"/>
       <use xlink:href="#DejaVuSans-f8" transform="translate(313.330078 0)"/>
       <use xlink:href="#DejaVuSans-72" transform="translate(374.511719 0)"/>
       <use xlink:href="#DejaVuSans-65" transform="translate(413.375 0)"/>
       <use xlink:href="#DejaVuSans-20" transform="translate(474.898438 0)"/>
       <use xlink:href="#DejaVuSans-6f" transform="translate(506.685547 0)"/>
       <use xlink:href="#DejaVuSans-67" transform="translate(567.867188 0)"/>
       <use xlink:href="#DejaVuSans-20" transform="translate(631.34375 0)"/>
       <use xlink:href="#DejaVuSans-52" transform="translate(663.130859 0)"/>
       <use xlink:href="#DejaVuSans-6f" transform="translate(728.113281 0)"/>
       <use xlink:href="#DejaVuSans-6d" transform="translate(789.294922 0)"/>
       <use xlink:href="#DejaVuSans-73" transform="translate(886.707031 0)"/>
       <use xlink:href="#DejaVuSans-64" transform="translate(938.806641 0)"/>
       <use xlink:href="#DejaVuSans-61" transform="translate(1002.283203 0)"/>
       <use xlink:href="#DejaVuSans-6c" transform="translate(1063.5625 0)"/>
      </g>
     </g>
    </g>
    <g id="ytick_11">
     <g id="line2d_19">
      <g>
       <use xlink:href="#m10d8137672" x="115.725" y="85.809785" style="stroke: #000000; stroke-width: 0.8"/>
      </g>
     </g>
     <g id="text_20">
      <!-- Nav Innlandet -->
      <g transform="translate(52.7275 88.84916) scale(0.08 -0.08)">
       <defs>
        <path id="DejaVuSans-49" d="M 628 4666 
L 1259 4666 
L 1259 0 
L 628 0 
L 628 4666 
z
" transform="scale(0.015625)"/>
       </defs>
       <use xlink:href="#DejaVuSans-4e"/>
       <use xlink:href="#DejaVuSans-61" transform="translate(74.804688 0)"/>
       <use xlink:href="#DejaVuSans-76" transform="translate(136.083984 0)"/>
       <use xlink:href="#DejaVuSans-20" transform="translate(195.263672 0)"/>
       <use xlink:href="#DejaVuSans-49" transform="translate(227.050781 0)"/>
       <use xlink:href="#DejaVuSans-6e" transform="translate(256.542969 0)"/>
       <use xlink:href="#DejaVuSans-6e" transform="translate(319.921875 0)"/>
       <use xlink:href="#DejaVuSans-6c" transform="translate(383.300781 0)"/>
       <use xlink:href="#DejaVuSans-61" transform="translate(411.083984 0)"/>
       <use xlink:href="#DejaVuSans-6e" transform="translate(472.363281 0)"/>
       <use xlink:href="#DejaVuSans-64" transform="translate(535.742188 0)"/>
       <use xlink:href="#DejaVuSans-65" transform="translate(599.21875 0)"/>
       <use xlink:href="#DejaVuSans-74" transform="translate(660.742188 0)"/>
      </g>
     </g>
    </g>
    <g id="ytick_12">
     <g id="line2d_20">
      <g>
       <use xlink:href="#m10d8137672" x="115.725" y="61.122182" style="stroke: #000000; stroke-width: 0.8"/>
      </g>
     </g>
     <g id="text_21">
      <!-- Nav Nordland -->
      <g transform="translate(54.17875 64.161557) scale(0.08 -0.08)">
       <use xlink:href="#DejaVuSans-4e"/>
       <use xlink:href="#DejaVuSans-61" transform="translate(74.804688 0)"/>
       <use xlink:href="#DejaVuSans-76" transform="translate(136.083984 0)"/>
       <use xlink:href="#DejaVuSans-20" transform="translate(195.263672 0)"/>
       <use xlink:href="#DejaVuSans-4e" transform="translate(227.050781 0)"/>
       <use xlink:href="#DejaVuSans-6f" transform="translate(301.855469 0)"/>
       <use xlink:href="#DejaVuSans-72" transform="translate(363.037109 0)"/>
       <use xlink:href="#DejaVuSans-64" transform="translate(402.400391 0)"/>
       <use xlink:href="#DejaVuSans-6c" transform="translate(465.876953 0)"/>
       <use xlink:href="#DejaVuSans-61" transform="translate(493.660156 0)"/>
       <use xlink:href="#DejaVuSans-6e" transform="translate(554.939453 0)"/>
       <use xlink:href="#DejaVuSans-64" transform="translate(618.318359 0)"/>
      </g>
     </g>
    </g>
   </g>
   <g id="line2d_21">
    <path d="M 321.07644 346.264 
L 321.07644 47.544 
" clip-path="url(#p57943eba0d)" style="fill: none; stroke-dasharray: 5.55,2.4; stroke-dashoffset: 0; stroke: #003366; stroke-width: 1.5"/>
   </g>
   <g id="line2d_22">
    <path d="M 320.528268 346.264 
L 320.528268 47.544 
" clip-path="url(#p57943eba0d)" style="fill: none; stroke: #000000; stroke-width: 0.8; stroke-linecap: square"/>
   </g>
   <g id="line2d_23">
    <path d="M 172.371605 332.685818 
L 408.426807 332.685818 
" clip-path="url(#p57943eba0d)" style="fill: none; stroke: #66a3c8; stroke-width: 1.5; stroke-linecap: square"/>
   </g>
   <g id="line2d_24">
    <path d="M 171.217002 307.998215 
L 434.90121 307.998215 
" clip-path="url(#p57943eba0d)" style="fill: none; stroke: #66a3c8; stroke-width: 1.5; stroke-linecap: square"/>
   </g>
   <g id="line2d_25">
    <path d="M 163.936341 283.310612 
L 453.249685 283.310612 
" clip-path="url(#p57943eba0d)" style="fill: none; stroke: #66a3c8; stroke-width: 1.5; stroke-linecap: square"/>
   </g>
   <g id="line2d_26">
    <path d="M 189.567202 258.623008 
L 431.538297 258.623008 
" clip-path="url(#p57943eba0d)" style="fill: none; stroke: #66a3c8; stroke-width: 1.5; stroke-linecap: square"/>
   </g>
   <g id="line2d_27">
    <path d="M 194.862094 233.935405 
L 440.255977 233.935405 
" clip-path="url(#p57943eba0d)" style="fill: none; stroke: #66a3c8; stroke-width: 1.5; stroke-linecap: square"/>
   </g>
   <g id="line2d_28">
    <path d="M 176.841733 209.247802 
L 459.846913 209.247802 
" clip-path="url(#p57943eba0d)" style="fill: none; stroke: #66a3c8; stroke-width: 1.5; stroke-linecap: square"/>
   </g>
   <g id="line2d_29">
    <path d="M 199.939509 184.560198 
L 438.58764 184.560198 
" clip-path="url(#p57943eba0d)" style="fill: none; stroke: #66a3c8; stroke-width: 1.5; stroke-linecap: square"/>
   </g>
   <g id="line2d_30">
    <path d="M 206.136859 159.872595 
L 436.50952 159.872595 
" clip-path="url(#p57943eba0d)" style="fill: none; stroke: #66a3c8; stroke-width: 1.5; stroke-linecap: square"/>
   </g>
   <g id="line2d_31">
    <path d="M 195.640954 135.184992 
L 454.851055 135.184992 
" clip-path="url(#p57943eba0d)" style="fill: none; stroke: #66a3c8; stroke-width: 1.5; stroke-linecap: square"/>
   </g>
   <g id="line2d_32">
    <path d="M 195.118042 110.497388 
L 471.718734 110.497388 
" clip-path="url(#p57943eba0d)" style="fill: none; stroke: #66a3c8; stroke-width: 1.5; stroke-linecap: square"/>
   </g>
   <g id="line2d_33">
    <path d="M 185.58106 85.809785 
L 537.967193 85.809785 
" clip-path="url(#p57943eba0d)" style="fill: none; stroke: #66a3c8; stroke-width: 1.5; stroke-linecap: square"/>
   </g>
   <g id="line2d_34">
    <path d="M 138.619432 61.122182 
L 596.508068 61.122182 
" clip-path="url(#p57943eba0d)" style="fill: none; stroke: #66a3c8; stroke-width: 1.5; stroke-linecap: square"/>
   </g>
   <g id="patch_4">
    <path d="M 115.725 346.264 
L 115.725 47.544 
" style="fill: none; stroke: #000000; stroke-width: 0.8; stroke-linejoin: miter; stroke-linecap: square"/>
   </g>
   <g id="patch_5">
    <path d="M 115.725 346.264 
L 619.4025 346.264 
" style="fill: none; stroke: #000000; stroke-width: 0.8; stroke-linejoin: miter; stroke-linecap: square"/>
   </g>
   <g id="PathCollection_1">
    <defs>
     <path id="m1b473ebf0c" d="M 0 3.162278 
C 0.838646 3.162278 1.643056 2.82908 2.236068 2.236068 
C 2.82908 1.643056 3.162278 0.838646 3.162278 0 
C 3.162278 -0.838646 2.82908 -1.643056 2.236068 -2.236068 
C 1.643056 -2.82908 0.838646 -3.162278 0 -3.162278 
C -0.838646 -3.162278 -1.643056 -2.82908 -2.236068 -2.236068 
C -2.82908 -1.643056 -3.162278 -0.838646 -3.162278 0 
C -3.162278 0.838646 -2.82908 1.643056 -2.236068 2.236068 
C -1.643056 2.82908 -0.838646 3.162278 0 3.162278 
z
" style="stroke: #66a3c8"/>
    </defs>
    <g clip-path="url(#p57943eba0d)">
     <use xlink:href="#m1b473ebf0c" x="290.399206" y="332.685818" style="fill: #66a3c8; stroke: #66a3c8"/>
    </g>
   </g>
   <g id="PathCollection_2">
    <g clip-path="url(#p57943eba0d)">
     <use xlink:href="#m1b473ebf0c" x="303.059106" y="307.998215" style="fill: #66a3c8; stroke: #66a3c8"/>
    </g>
   </g>
   <g id="PathCollection_3">
    <g clip-path="url(#p57943eba0d)">
     <use xlink:href="#m1b473ebf0c" x="308.593013" y="283.310612" style="fill: #66a3c8; stroke: #66a3c8"/>
    </g>
   </g>
   <g id="PathCollection_4">
    <g clip-path="url(#p57943eba0d)">
     <use xlink:href="#m1b473ebf0c" x="310.55275" y="258.623008" style="fill: #66a3c8; stroke: #66a3c8"/>
    </g>
   </g>
   <g id="PathCollection_5">
    <g clip-path="url(#p57943eba0d)">
     <use xlink:href="#m1b473ebf0c" x="317.559036" y="233.935405" style="fill: #66a3c8; stroke: #66a3c8"/>
    </g>
   </g>
   <g id="PathCollection_6">
    <g clip-path="url(#p57943eba0d)">
     <use xlink:href="#m1b473ebf0c" x="318.344323" y="209.247802" style="fill: #66a3c8; stroke: #66a3c8"/>
    </g>
   </g>
   <g id="PathCollection_7">
    <g clip-path="url(#p57943eba0d)">
     <use xlink:href="#m1b473ebf0c" x="319.263575" y="184.560198" style="fill: #66a3c8; stroke: #66a3c8"/>
    </g>
   </g>
   <g id="PathCollection_8">
    <g clip-path="url(#p57943eba0d)">
     <use xlink:href="#m1b473ebf0c" x="321.323189" y="159.872595" style="fill: #66a3c8; stroke: #66a3c8"/>
    </g>
   </g>
   <g id="PathCollection_9">
    <g clip-path="url(#p57943eba0d)">
     <use xlink:href="#m1b473ebf0c" x="325.246005" y="135.184992" style="fill: #66a3c8; stroke: #66a3c8"/>
    </g>
   </g>
   <g id="PathCollection_10">
    <g clip-path="url(#p57943eba0d)">
     <use xlink:href="#m1b473ebf0c" x="333.418388" y="110.497388" style="fill: #66a3c8; stroke: #66a3c8"/>
    </g>
   </g>
   <g id="PathCollection_11">
    <g clip-path="url(#p57943eba0d)">
     <use xlink:href="#m1b473ebf0c" x="361.774127" y="85.809785" style="fill: #66a3c8; stroke: #66a3c8"/>
    </g>
   </g>
   <g id="PathCollection_12">
    <g clip-path="url(#p57943eba0d)">
     <use xlink:href="#m1b473ebf0c" x="367.56375" y="61.122182" style="fill: #66a3c8; stroke: #66a3c8"/>
    </g>
   </g>
   <g id="text_22">
    <!-- Basis -->
    <g transform="translate(353.161484 41.544) scale(0.11 -0.11)">
     <defs>
      <path id="DejaVuSans-42" d="M 1259 2228 
L 1259 519 
L 2272 519 
Q 2781 519 3026 730 
Q 3272 941 3272 1375 
Q 3272 1813 3026 2020 
Q 2781 2228 2272 2228 
L 1259 2228 
z
M 1259 4147 
L 1259 2741 
L 2194 2741 
Q 2656 2741 2882 2914 
Q 3109 3088 3109 3444 
Q 3109 3797 2882 3972 
Q 2656 4147 2194 4147 
L 1259 4147 
z
M 628 4666 
L 2241 4666 
Q 2963 4666 3353 4366 
Q 3744 4066 3744 3513 
Q 3744 3084 3544 2831 
Q 3344 2578 2956 2516 
Q 3422 2416 3680 2098 
Q 3938 1781 3938 1306 
Q 3938 681 3513 340 
Q 3088 0 2303 0 
L 628 0 
L 628 4666 
z
" transform="scale(0.015625)"/>
     </defs>
     <use xlink:href="#DejaVuSans-42"/>
     <use xlink:href="#DejaVuSans-61" transform="translate(68.603516 0)"/>
     <use xlink:href="#DejaVuSans-73" transform="translate(129.882812 0)"/>
     <use xlink:href="#DejaVuSans-69" transform="translate(181.982422 0)"/>
     <use xlink:href="#DejaVuSans-73" transform="translate(209.765625 0)"/>
    </g>
   </g>
   <g id="legend_1">
    <g id="patch_6">
     <path d="M 517.6225 325.65775 
L 533.6225 325.65775 
L 533.6225 320.05775 
L 517.6225 320.05775 
z
" style="fill: #66a3c8; opacity: 0.2; stroke: #66a3c8; stroke-linejoin: miter"/>
    </g>
    <g id="text_23">
     <!-- Full-utvalg 95% KI -->
     <g transform="translate(540.0225 325.65775) scale(0.08 -0.08)">
      <defs>
       <path id="DejaVuSans-75" d="M 544 1381 
L 544 3500 
L 1119 3500 
L 1119 1403 
Q 1119 906 1312 657 
Q 1506 409 1894 409 
Q 2359 409 2629 706 
Q 2900 1003 2900 1516 
L 2900 3500 
L 3475 3500 
L 3475 0 
L 2900 0 
L 2900 538 
Q 2691 219 2414 64 
Q 2138 -91 1772 -91 
Q 1169 -91 856 284 
Q 544 659 544 1381 
z
M 1991 3584 
L 1991 3584 
z
" transform="scale(0.015625)"/>
       <path id="DejaVuSans-39" d="M 703 97 
L 703 672 
Q 941 559 1184 500 
Q 1428 441 1663 441 
Q 2288 441 2617 861 
Q 2947 1281 2994 2138 
Q 2813 1869 2534 1725 
Q 2256 1581 1919 1581 
Q 1219 1581 811 2004 
Q 403 2428 403 3163 
Q 403 3881 828 4315 
Q 1253 4750 1959 4750 
Q 2769 4750 3195 4129 
Q 3622 3509 3622 2328 
Q 3622 1225 3098 567 
Q 2575 -91 1691 -91 
Q 1453 -91 1209 -44 
Q 966 3 703 97 
z
M 1959 2075 
Q 2384 2075 2632 2365 
Q 2881 2656 2881 3163 
Q 2881 3666 2632 3958 
Q 2384 4250 1959 4250 
Q 1534 4250 1286 3958 
Q 1038 3666 1038 3163 
Q 1038 2656 1286 2365 
Q 1534 2075 1959 2075 
z
" transform="scale(0.015625)"/>
       <path id="DejaVuSans-35" d="M 691 4666 
L 3169 4666 
L 3169 4134 
L 1269 4134 
L 1269 2991 
Q 1406 3038 1543 3061 
Q 1681 3084 1819 3084 
Q 2600 3084 3056 2656 
Q 3513 2228 3513 1497 
Q 3513 744 3044 326 
Q 2575 -91 1722 -91 
Q 1428 -91 1123 -41 
Q 819 9 494 109 
L 494 744 
Q 775 591 1075 516 
Q 1375 441 1709 441 
Q 2250 441 2565 725 
Q 2881 1009 2881 1497 
Q 2881 1984 2565 2268 
Q 2250 2553 1709 2553 
Q 1456 2553 1204 2497 
Q 953 2441 691 2322 
L 691 4666 
z
" transform="scale(0.015625)"/>
       <path id="DejaVuSans-25" d="M 4653 2053 
Q 4381 2053 4226 1822 
Q 4072 1591 4072 1178 
Q 4072 772 4226 539 
Q 4381 306 4653 306 
Q 4919 306 5073 539 
Q 5228 772 5228 1178 
Q 5228 1588 5073 1820 
Q 4919 2053 4653 2053 
z
M 4653 2450 
Q 5147 2450 5437 2106 
Q 5728 1763 5728 1178 
Q 5728 594 5436 251 
Q 5144 -91 4653 -91 
Q 4153 -91 3862 251 
Q 3572 594 3572 1178 
Q 3572 1766 3864 2108 
Q 4156 2450 4653 2450 
z
M 1428 4353 
Q 1159 4353 1004 4120 
Q 850 3888 850 3481 
Q 850 3069 1003 2837 
Q 1156 2606 1428 2606 
Q 1700 2606 1854 2837 
Q 2009 3069 2009 3481 
Q 2009 3884 1853 4118 
Q 1697 4353 1428 4353 
z
M 4250 4750 
L 4750 4750 
L 1831 -91 
L 1331 -91 
L 4250 4750 
z
M 1428 4750 
Q 1922 4750 2215 4408 
Q 2509 4066 2509 3481 
Q 2509 2891 2217 2550 
Q 1925 2209 1428 2209 
Q 931 2209 642 2551 
Q 353 2894 353 3481 
Q 353 4063 643 4406 
Q 934 4750 1428 4750 
z
" transform="scale(0.015625)"/>
      </defs>
      <use xlink:href="#DejaVuSans-46"/>
      <use xlink:href="#DejaVuSans-75" transform="translate(52.019531 0)"/>
      <use xlink:href="#DejaVuSans-6c" transform="translate(115.398438 0)"/>
      <use xlink:href="#DejaVuSans-6c" transform="translate(143.181641 0)"/>
      <use xlink:href="#DejaVuSans-2d" transform="translate(170.964844 0)"/>
      <use xlink:href="#DejaVuSans-75" transform="translate(207.048828 0)"/>
      <use xlink:href="#DejaVuSans-74" transform="translate(270.427734 0)"/>
      <use xlink:href="#DejaVuSans-76" transform="translate(309.636719 0)"/>
      <use xlink:href="#DejaVuSans-61" transform="translate(368.816406 0)"/>
      <use xlink:href="#DejaVuSans-6c" transform="translate(430.095703 0)"/>
      <use xlink:href="#DejaVuSans-67" transform="translate(457.878906 0)"/>
      <use xlink:href="#DejaVuSans-20" transform="translate(521.355469 0)"/>
      <use xlink:href="#DejaVuSans-39" transform="translate(553.142578 0)"/>
      <use xlink:href="#DejaVuSans-35" transform="translate(616.765625 0)"/>
      <use xlink:href="#DejaVuSans-25" transform="translate(680.388672 0)"/>
      <use xlink:href="#DejaVuSans-20" transform="translate(775.408203 0)"/>
      <use xlink:href="#DejaVuSans-4b" transform="translate(807.195312 0)"/>
      <use xlink:href="#DejaVuSans-49" transform="translate(872.771484 0)"/>
     </g>
    </g>
    <g id="line2d_35">
     <path d="M 517.6225 334.60025 
L 525.6225 334.60025 
L 533.6225 334.60025 
" style="fill: none; stroke-dasharray: 5.55,2.4; stroke-dashoffset: 0; stroke: #003366; stroke-width: 1.5"/>
    </g>
    <g id="text_24">
     <!-- Full: 0.008 -->
     <g transform="translate(540.0225 337.40025) scale(0.08 -0.08)">
      <defs>
       <path id="DejaVuSans-3a" d="M 750 794 
L 1409 794 
L 1409 0 
L 750 0 
L 750 794 
z
M 750 3309 
L 1409 3309 
L 1409 2516 
L 750 2516 
L 750 3309 
z
" transform="scale(0.015625)"/>
       <path id="DejaVuSans-2e" d="M 684 794 
L 1344 794 
L 1344 0 
L 684 0 
L 684 794 
z
" transform="scale(0.015625)"/>
       <path id="DejaVuSans-38" d="M 2034 2216 
Q 1584 2216 1326 1975 
Q 1069 1734 1069 1313 
Q 1069 891 1326 650 
Q 1584 409 2034 409 
Q 2484 409 2743 651 
Q 3003 894 3003 1313 
Q 3003 1734 2745 1975 
Q 2488 2216 2034 2216 
z
M 1403 2484 
Q 997 2584 770 2862 
Q 544 3141 544 3541 
Q 544 4100 942 4425 
Q 1341 4750 2034 4750 
Q 2731 4750 3128 4425 
Q 3525 4100 3525 3541 
Q 3525 3141 3298 2862 
Q 3072 2584 2669 2484 
Q 3125 2378 3379 2068 
Q 3634 1759 3634 1313 
Q 3634 634 3220 271 
Q 2806 -91 2034 -91 
Q 1263 -91 848 271 
Q 434 634 434 1313 
Q 434 1759 690 2068 
Q 947 2378 1403 2484 
z
M 1172 3481 
Q 1172 3119 1398 2916 
Q 1625 2713 2034 2713 
Q 2441 2713 2670 2916 
Q 2900 3119 2900 3481 
Q 2900 3844 2670 4047 
Q 2441 4250 2034 4250 
Q 1625 4250 1398 4047 
Q 1172 3844 1172 3481 
z
" transform="scale(0.015625)"/>
      </defs>
      <use xlink:href="#DejaVuSans-46"/>
      <use xlink:href="#DejaVuSans-75" transform="translate(52.019531 0)"/>
      <use xlink:href="#DejaVuSans-6c" transform="translate(115.398438 0)"/>
      <use xlink:href="#DejaVuSans-6c" transform="translate(143.181641 0)"/>
      <use xlink:href="#DejaVuSans-3a" transform="translate(170.964844 0)"/>
      <use xlink:href="#DejaVuSans-20" transform="translate(204.65625 0)"/>
      <use xlink:href="#DejaVuSans-30" transform="translate(236.443359 0)"/>
      <use xlink:href="#DejaVuSans-2e" transform="translate(300.066406 0)"/>
      <use xlink:href="#DejaVuSans-30" transform="translate(331.853516 0)"/>
      <use xlink:href="#DejaVuSans-30" transform="translate(395.476562 0)"/>
      <use xlink:href="#DejaVuSans-38" transform="translate(459.099609 0)"/>
     </g>
    </g>
   </g>
  </g>
  <g id="axes_2">
   <g id="patch_7">
    <path d="M 633.7025 346.264 
L 1137.38 346.264 
L 1137.38 47.544 
L 633.7025 47.544 
z
" style="fill: #ffffff"/>
   </g>
   <g id="patch_8">
    <path d="M 727.014357 346.264 
L 975.772893 346.264 
L 975.772893 47.544 
L 727.014357 47.544 
z
" clip-path="url(#pcaf758ac5b)" style="fill: #66a3c8; opacity: 0.2; stroke: #66a3c8; stroke-linejoin: miter"/>
   </g>
   <g id="matplotlib.axis_3">
    <g id="xtick_9">
     <g id="line2d_36">
      <g>
       <use xlink:href="#m4969dff272" x="659.589688" y="346.264" style="stroke: #000000; stroke-width: 0.8"/>
      </g>
     </g>
     <g id="text_25">
      <!-- −3 -->
      <g transform="translate(652.218595 360.862437) scale(0.1 -0.1)">
       <use xlink:href="#DejaVuSans-2212"/>
       <use xlink:href="#DejaVuSans-33" transform="translate(83.789062 0)"/>
      </g>
     </g>
    </g>
    <g id="xtick_10">
     <g id="line2d_37">
      <g>
       <use xlink:href="#m4969dff272" x="722.849491" y="346.264" style="stroke: #000000; stroke-width: 0.8"/>
      </g>
     </g>
     <g id="text_26">
      <!-- −2 -->
      <g transform="translate(715.478397 360.862437) scale(0.1 -0.1)">
       <use xlink:href="#DejaVuSans-2212"/>
       <use xlink:href="#DejaVuSans-32" transform="translate(83.789062 0)"/>
      </g>
     </g>
    </g>
    <g id="xtick_11">
     <g id="line2d_38">
      <g>
       <use xlink:href="#m4969dff272" x="786.109294" y="346.264" style="stroke: #000000; stroke-width: 0.8"/>
      </g>
     </g>
     <g id="text_27">
      <!-- −1 -->
      <g transform="translate(778.7382 360.862437) scale(0.1 -0.1)">
       <use xlink:href="#DejaVuSans-2212"/>
       <use xlink:href="#DejaVuSans-31" transform="translate(83.789062 0)"/>
      </g>
     </g>
    </g>
    <g id="xtick_12">
     <g id="line2d_39">
      <g>
       <use xlink:href="#m4969dff272" x="849.369097" y="346.264" style="stroke: #000000; stroke-width: 0.8"/>
      </g>
     </g>
     <g id="text_28">
      <!-- 0 -->
      <g transform="translate(846.187847 360.862437) scale(0.1 -0.1)">
       <use xlink:href="#DejaVuSans-30"/>
      </g>
     </g>
    </g>
    <g id="xtick_13">
     <g id="line2d_40">
      <g>
       <use xlink:href="#m4969dff272" x="912.6289" y="346.264" style="stroke: #000000; stroke-width: 0.8"/>
      </g>
     </g>
     <g id="text_29">
      <!-- 1 -->
      <g transform="translate(909.44765 360.862437) scale(0.1 -0.1)">
       <use xlink:href="#DejaVuSans-31"/>
      </g>
     </g>
    </g>
    <g id="xtick_14">
     <g id="line2d_41">
      <g>
       <use xlink:href="#m4969dff272" x="975.888702" y="346.264" style="stroke: #000000; stroke-width: 0.8"/>
      </g>
     </g>
     <g id="text_30">
      <!-- 2 -->
      <g transform="translate(972.707452 360.862437) scale(0.1 -0.1)">
       <use xlink:href="#DejaVuSans-32"/>
      </g>
     </g>
    </g>
    <g id="xtick_15">
     <g id="line2d_42">
      <g>
       <use xlink:href="#m4969dff272" x="1039.148505" y="346.264" style="stroke: #000000; stroke-width: 0.8"/>
      </g>
     </g>
     <g id="text_31">
      <!-- 3 -->
      <g transform="translate(1035.967255 360.862437) scale(0.1 -0.1)">
       <use xlink:href="#DejaVuSans-33"/>
      </g>
     </g>
    </g>
    <g id="xtick_16">
     <g id="line2d_43">
      <g>
       <use xlink:href="#m4969dff272" x="1102.408308" y="346.264" style="stroke: #000000; stroke-width: 0.8"/>
      </g>
     </g>
     <g id="text_32">
      <!-- 4 -->
      <g transform="translate(1099.227058 360.862437) scale(0.1 -0.1)">
       <use xlink:href="#DejaVuSans-34"/>
      </g>
     </g>
    </g>
    <g id="text_33">
     <!-- Koeffisient (prosentpoeng) -->
     <g transform="translate(819.137344 374.540562) scale(0.1 -0.1)">
      <use xlink:href="#DejaVuSans-4b"/>
      <use xlink:href="#DejaVuSans-6f" transform="translate(60.576172 0)"/>
      <use xlink:href="#DejaVuSans-65" transform="translate(121.757812 0)"/>
      <use xlink:href="#DejaVuSans-66" transform="translate(183.28125 0)"/>
      <use xlink:href="#DejaVuSans-66" transform="translate(218.486328 0)"/>
      <use xlink:href="#DejaVuSans-69" transform="translate(253.691406 0)"/>
      <use xlink:href="#DejaVuSans-73" transform="translate(281.474609 0)"/>
      <use xlink:href="#DejaVuSans-69" transform="translate(333.574219 0)"/>
      <use xlink:href="#DejaVuSans-65" transform="translate(361.357422 0)"/>
      <use xlink:href="#DejaVuSans-6e" transform="translate(422.880859 0)"/>
      <use xlink:href="#DejaVuSans-74" transform="translate(486.259766 0)"/>
      <use xlink:href="#DejaVuSans-20" transform="translate(525.46875 0)"/>
      <use xlink:href="#DejaVuSans-28" transform="translate(557.255859 0)"/>
      <use xlink:href="#DejaVuSans-70" transform="translate(596.269531 0)"/>
      <use xlink:href="#DejaVuSans-72" transform="translate(659.746094 0)"/>
      <use xlink:href="#DejaVuSans-6f" transform="translate(698.609375 0)"/>
      <use xlink:href="#DejaVuSans-73" transform="translate(759.791016 0)"/>
      <use xlink:href="#DejaVuSans-65" transform="translate(811.890625 0)"/>
      <use xlink:href="#DejaVuSans-6e" transform="translate(873.414062 0)"/>
      <use xlink:href="#DejaVuSans-74" transform="translate(936.792969 0)"/>
      <use xlink:href="#DejaVuSans-70" transform="translate(976.001953 0)"/>
      <use xlink:href="#DejaVuSans-6f" transform="translate(1039.478516 0)"/>
      <use xlink:href="#DejaVuSans-65" transform="translate(1100.660156 0)"/>
      <use xlink:href="#DejaVuSans-6e" transform="translate(1162.183594 0)"/>
      <use xlink:href="#DejaVuSans-67" transform="translate(1225.5625 0)"/>
      <use xlink:href="#DejaVuSans-29" transform="translate(1289.039062 0)"/>
     </g>
    </g>
   </g>
   <g id="matplotlib.axis_4">
    <g id="ytick_13">
     <g id="line2d_44">
      <g>
       <use xlink:href="#m10d8137672" x="633.7025" y="332.685818" style="stroke: #000000; stroke-width: 0.8"/>
      </g>
     </g>
    </g>
    <g id="ytick_14">
     <g id="line2d_45">
      <g>
       <use xlink:href="#m10d8137672" x="633.7025" y="307.998215" style="stroke: #000000; stroke-width: 0.8"/>
      </g>
     </g>
    </g>
    <g id="ytick_15">
     <g id="line2d_46">
      <g>
       <use xlink:href="#m10d8137672" x="633.7025" y="283.310612" style="stroke: #000000; stroke-width: 0.8"/>
      </g>
     </g>
    </g>
    <g id="ytick_16">
     <g id="line2d_47">
      <g>
       <use xlink:href="#m10d8137672" x="633.7025" y="258.623008" style="stroke: #000000; stroke-width: 0.8"/>
      </g>
     </g>
    </g>
    <g id="ytick_17">
     <g id="line2d_48">
      <g>
       <use xlink:href="#m10d8137672" x="633.7025" y="233.935405" style="stroke: #000000; stroke-width: 0.8"/>
      </g>
     </g>
    </g>
    <g id="ytick_18">
     <g id="line2d_49">
      <g>
       <use xlink:href="#m10d8137672" x="633.7025" y="209.247802" style="stroke: #000000; stroke-width: 0.8"/>
      </g>
     </g>
    </g>
    <g id="ytick_19">
     <g id="line2d_50">
      <g>
       <use xlink:href="#m10d8137672" x="633.7025" y="184.560198" style="stroke: #000000; stroke-width: 0.8"/>
      </g>
     </g>
    </g>
    <g id="ytick_20">
     <g id="line2d_51">
      <g>
       <use xlink:href="#m10d8137672" x="633.7025" y="159.872595" style="stroke: #000000; stroke-width: 0.8"/>
      </g>
     </g>
    </g>
    <g id="ytick_21">
     <g id="line2d_52">
      <g>
       <use xlink:href="#m10d8137672" x="633.7025" y="135.184992" style="stroke: #000000; stroke-width: 0.8"/>
      </g>
     </g>
    </g>
    <g id="ytick_22">
     <g id="line2d_53">
      <g>
       <use xlink:href="#m10d8137672" x="633.7025" y="110.497388" style="stroke: #000000; stroke-width: 0.8"/>
      </g>
     </g>
    </g>
    <g id="ytick_23">
     <g id="line2d_54">
      <g>
       <use xlink:href="#m10d8137672" x="633.7025" y="85.809785" style="stroke: #000000; stroke-width: 0.8"/>
      </g>
     </g>
    </g>
    <g id="ytick_24">
     <g id="line2d_55">
      <g>
       <use xlink:href="#m10d8137672" x="633.7025" y="61.122182" style="stroke: #000000; stroke-width: 0.8"/>
      </g>
     </g>
    </g>
   </g>
   <g id="line2d_56">
    <path d="M 851.393625 346.264 
L 851.393625 47.544 
" clip-path="url(#pcaf758ac5b)" style="fill: none; stroke-dasharray: 5.55,2.4; stroke-dashoffset: 0; stroke: #003366; stroke-width: 1.5"/>
   </g>
   <g id="line2d_57">
    <path d="M 849.369097 346.264 
L 849.369097 47.544 
" clip-path="url(#pcaf758ac5b)" style="fill: none; stroke: #000000; stroke-width: 0.8; stroke-linecap: square"/>
   </g>
   <g id="line2d_58">
    <path d="M 696.044199 332.685818 
L 958.420594 332.685818 
" clip-path="url(#pcaf758ac5b)" style="fill: none; stroke: #66a3c8; stroke-width: 1.5; stroke-linecap: square"/>
   </g>
   <g id="line2d_59">
    <path d="M 700.548552 307.998215 
L 955.155168 307.998215 
" clip-path="url(#pcaf758ac5b)" style="fill: none; stroke: #66a3c8; stroke-width: 1.5; stroke-linecap: square"/>
   </g>
   <g id="line2d_60">
    <path d="M 703.946413 283.310612 
L 966.424038 283.310612 
" clip-path="url(#pcaf758ac5b)" style="fill: none; stroke: #66a3c8; stroke-width: 1.5; stroke-linecap: square"/>
   </g>
   <g id="line2d_61">
    <path d="M 720.490669 258.623008 
L 963.585348 258.623008 
" clip-path="url(#pcaf758ac5b)" style="fill: none; stroke: #66a3c8; stroke-width: 1.5; stroke-linecap: square"/>
   </g>
   <g id="line2d_62">
    <path d="M 707.762273 233.935405 
L 984.810296 233.935405 
" clip-path="url(#pcaf758ac5b)" style="fill: none; stroke: #66a3c8; stroke-width: 1.5; stroke-linecap: square"/>
   </g>
   <g id="line2d_63">
    <path d="M 736.802901 209.247802 
L 962.855352 209.247802 
" clip-path="url(#pcaf758ac5b)" style="fill: none; stroke: #66a3c8; stroke-width: 1.5; stroke-linecap: square"/>
   </g>
   <g id="line2d_64">
    <path d="M 724.525676 184.560198 
L 977.340799 184.560198 
" clip-path="url(#pcaf758ac5b)" style="fill: none; stroke: #66a3c8; stroke-width: 1.5; stroke-linecap: square"/>
   </g>
   <g id="line2d_65">
    <path d="M 738.704745 159.872595 
L 965.198387 159.872595 
" clip-path="url(#pcaf758ac5b)" style="fill: none; stroke: #66a3c8; stroke-width: 1.5; stroke-linecap: square"/>
   </g>
   <g id="line2d_66">
    <path d="M 731.340669 135.184992 
L 981.405805 135.184992 
" clip-path="url(#pcaf758ac5b)" style="fill: none; stroke: #66a3c8; stroke-width: 1.5; stroke-linecap: square"/>
   </g>
   <g id="line2d_67">
    <path d="M 734.59216 110.497388 
L 999.654739 110.497388 
" clip-path="url(#pcaf758ac5b)" style="fill: none; stroke: #66a3c8; stroke-width: 1.5; stroke-linecap: square"/>
   </g>
   <g id="line2d_68">
    <path d="M 656.596932 85.809785 
L 1114.485568 85.809785 
" clip-path="url(#pcaf758ac5b)" style="fill: none; stroke: #66a3c8; stroke-width: 1.5; stroke-linecap: square"/>
   </g>
   <g id="line2d_69">
    <path d="M 732.285009 61.122182 
L 1058.703117 61.122182 
" clip-path="url(#pcaf758ac5b)" style="fill: none; stroke: #66a3c8; stroke-width: 1.5; stroke-linecap: square"/>
   </g>
   <g id="patch_9">
    <path d="M 633.7025 346.264 
L 633.7025 47.544 
" style="fill: none; stroke: #000000; stroke-width: 0.8; stroke-linejoin: miter; stroke-linecap: square"/>
   </g>
   <g id="patch_10">
    <path d="M 633.7025 346.264 
L 1137.38 346.264 
" style="fill: none; stroke: #000000; stroke-width: 0.8; stroke-linejoin: miter; stroke-linecap: square"/>
   </g>
   <g id="PathCollection_13">
    <g clip-path="url(#pcaf758ac5b)">
     <use xlink:href="#m1b473ebf0c" x="827.232397" y="332.685818" style="fill: #66a3c8; stroke: #66a3c8"/>
    </g>
   </g>
   <g id="PathCollection_14">
    <g clip-path="url(#pcaf758ac5b)">
     <use xlink:href="#m1b473ebf0c" x="827.85186" y="307.998215" style="fill: #66a3c8; stroke: #66a3c8"/>
    </g>
   </g>
   <g id="PathCollection_15">
    <g clip-path="url(#pcaf758ac5b)">
     <use xlink:href="#m1b473ebf0c" x="835.185225" y="283.310612" style="fill: #66a3c8; stroke: #66a3c8"/>
    </g>
   </g>
   <g id="PathCollection_16">
    <g clip-path="url(#pcaf758ac5b)">
     <use xlink:href="#m1b473ebf0c" x="842.038009" y="258.623008" style="fill: #66a3c8; stroke: #66a3c8"/>
    </g>
   </g>
   <g id="PathCollection_17">
    <g clip-path="url(#pcaf758ac5b)">
     <use xlink:href="#m1b473ebf0c" x="846.286285" y="233.935405" style="fill: #66a3c8; stroke: #66a3c8"/>
    </g>
   </g>
   <g id="PathCollection_18">
    <g clip-path="url(#pcaf758ac5b)">
     <use xlink:href="#m1b473ebf0c" x="849.829127" y="209.247802" style="fill: #66a3c8; stroke: #66a3c8"/>
    </g>
   </g>
   <g id="PathCollection_19">
    <g clip-path="url(#pcaf758ac5b)">
     <use xlink:href="#m1b473ebf0c" x="850.933237" y="184.560198" style="fill: #66a3c8; stroke: #66a3c8"/>
    </g>
   </g>
   <g id="PathCollection_20">
    <g clip-path="url(#pcaf758ac5b)">
     <use xlink:href="#m1b473ebf0c" x="851.951566" y="159.872595" style="fill: #66a3c8; stroke: #66a3c8"/>
    </g>
   </g>
   <g id="PathCollection_21">
    <g clip-path="url(#pcaf758ac5b)">
     <use xlink:href="#m1b473ebf0c" x="856.373237" y="135.184992" style="fill: #66a3c8; stroke: #66a3c8"/>
    </g>
   </g>
   <g id="PathCollection_22">
    <g clip-path="url(#pcaf758ac5b)">
     <use xlink:href="#m1b473ebf0c" x="867.12345" y="110.497388" style="fill: #66a3c8; stroke: #66a3c8"/>
    </g>
   </g>
   <g id="PathCollection_23">
    <g clip-path="url(#pcaf758ac5b)">
     <use xlink:href="#m1b473ebf0c" x="885.54125" y="85.809785" style="fill: #66a3c8; stroke: #66a3c8"/>
    </g>
   </g>
   <g id="PathCollection_24">
    <g clip-path="url(#pcaf758ac5b)">
     <use xlink:href="#m1b473ebf0c" x="895.494063" y="61.122182" style="fill: #66a3c8; stroke: #66a3c8"/>
    </g>
   </g>
   <g id="text_34">
    <!-- Sesongjustert -->
    <g transform="translate(847.621328 41.544) scale(0.11 -0.11)">
     <defs>
      <path id="DejaVuSans-53" d="M 3425 4513 
L 3425 3897 
Q 3066 4069 2747 4153 
Q 2428 4238 2131 4238 
Q 1616 4238 1336 4038 
Q 1056 3838 1056 3469 
Q 1056 3159 1242 3001 
Q 1428 2844 1947 2747 
L 2328 2669 
Q 3034 2534 3370 2195 
Q 3706 1856 3706 1288 
Q 3706 609 3251 259 
Q 2797 -91 1919 -91 
Q 1588 -91 1214 -16 
Q 841 59 441 206 
L 441 856 
Q 825 641 1194 531 
Q 1563 422 1919 422 
Q 2459 422 2753 634 
Q 3047 847 3047 1241 
Q 3047 1584 2836 1778 
Q 2625 1972 2144 2069 
L 1759 2144 
Q 1053 2284 737 2584 
Q 422 2884 422 3419 
Q 422 4038 858 4394 
Q 1294 4750 2059 4750 
Q 2388 4750 2728 4690 
Q 3069 4631 3425 4513 
z
" transform="scale(0.015625)"/>
      <path id="DejaVuSans-6a" d="M 603 3500 
L 1178 3500 
L 1178 -63 
Q 1178 -731 923 -1031 
Q 669 -1331 103 -1331 
L -116 -1331 
L -116 -844 
L 38 -844 
Q 366 -844 484 -692 
Q 603 -541 603 -63 
L 603 3500 
z
M 603 4863 
L 1178 4863 
L 1178 4134 
L 603 4134 
L 603 4863 
z
" transform="scale(0.015625)"/>
     </defs>
     <use xlink:href="#DejaVuSans-53"/>
     <use xlink:href="#DejaVuSans-65" transform="translate(63.476562 0)"/>
     <use xlink:href="#DejaVuSans-73" transform="translate(125 0)"/>
     <use xlink:href="#DejaVuSans-6f" transform="translate(177.099609 0)"/>
     <use xlink:href="#DejaVuSans-6e" transform="translate(238.28125 0)"/>
     <use xlink:href="#DejaVuSans-67" transform="translate(301.660156 0)"/>
     <use xlink:href="#DejaVuSans-6a" transform="translate(365.136719 0)"/>
     <use xlink:href="#DejaVuSans-75" transform="translate(392.919922 0)"/>
     <use xlink:href="#DejaVuSans-73" transform="translate(456.298828 0)"/>
     <use xlink:href="#DejaVuSans-74" transform="translate(508.398438 0)"/>
     <use xlink:href="#DejaVuSans-65" transform="translate(547.607422 0)"/>
     <use xlink:href="#DejaVuSans-72" transform="translate(609.130859 0)"/>
     <use xlink:href="#DejaVuSans-74" transform="translate(650.244141 0)"/>
    </g>
   </g>
   <g id="legend_2">
    <g id="patch_11">
     <path d="M 1035.6 325.65775 
L 1051.6 325.65775 
L 1051.6 320.05775 
L 1035.6 320.05775 
z
" style="fill: #66a3c8; opacity: 0.2; stroke: #66a3c8; stroke-linejoin: miter"/>
    </g>
    <g id="text_35">
     <!-- Full-utvalg 95% KI -->
     <g transform="translate(1058 325.65775) scale(0.08 -0.08)">
      <use xlink:href="#DejaVuSans-46"/>
      <use xlink:href="#DejaVuSans-75" transform="translate(52.019531 0)"/>
      <use xlink:href="#DejaVuSans-6c" transform="translate(115.398438 0)"/>
      <use xlink:href="#DejaVuSans-6c" transform="translate(143.181641 0)"/>
      <use xlink:href="#DejaVuSans-2d" transform="translate(170.964844 0)"/>
      <use xlink:href="#DejaVuSans-75" transform="translate(207.048828 0)"/>
      <use xlink:href="#DejaVuSans-74" transform="translate(270.427734 0)"/>
      <use xlink:href="#DejaVuSans-76" transform="translate(309.636719 0)"/>
      <use xlink:href="#DejaVuSans-61" transform="translate(368.816406 0)"/>
      <use xlink:href="#DejaVuSans-6c" transform="translate(430.095703 0)"/>
      <use xlink:href="#DejaVuSans-67" transform="translate(457.878906 0)"/>
      <use xlink:href="#DejaVuSans-20" transform="translate(521.355469 0)"/>
      <use xlink:href="#DejaVuSans-39" transform="translate(553.142578 0)"/>
      <use xlink:href="#DejaVuSans-35" transform="translate(616.765625 0)"/>
      <use xlink:href="#DejaVuSans-25" transform="translate(680.388672 0)"/>
      <use xlink:href="#DejaVuSans-20" transform="translate(775.408203 0)"/>
      <use xlink:href="#DejaVuSans-4b" transform="translate(807.195312 0)"/>
      <use xlink:href="#DejaVuSans-49" transform="translate(872.771484 0)"/>
     </g>
    </g>
    <g id="line2d_70">
     <path d="M 1035.6 334.60025 
L 1043.6 334.60025 
L 1051.6 334.60025 
" style="fill: none; stroke-dasharray: 5.55,2.4; stroke-dashoffset: 0; stroke: #003366; stroke-width: 1.5"/>
    </g>
    <g id="text_36">
     <!-- Full: 0.032 -->
     <g transform="translate(1058 337.40025) scale(0.08 -0.08)">
      <use xlink:href="#DejaVuSans-46"/>
      <use xlink:href="#DejaVuSans-75" transform="translate(52.019531 0)"/>
      <use xlink:href="#DejaVuSans-6c" transform="translate(115.398438 0)"/>
      <use xlink:href="#DejaVuSans-6c" transform="translate(143.181641 0)"/>
      <use xlink:href="#DejaVuSans-3a" transform="translate(170.964844 0)"/>
      <use xlink:href="#DejaVuSans-20" transform="translate(204.65625 0)"/>
      <use xlink:href="#DejaVuSans-30" transform="translate(236.443359 0)"/>
      <use xlink:href="#DejaVuSans-2e" transform="translate(300.066406 0)"/>
      <use xlink:href="#DejaVuSans-30" transform="translate(331.853516 0)"/>
      <use xlink:href="#DejaVuSans-33" transform="translate(395.476562 0)"/>
      <use xlink:href="#DejaVuSans-32" transform="translate(459.099609 0)"/>
     </g>
    </g>
   </g>
  </g>
  <g id="text_37">
   <!-- Leave-one-out robusthet — Arbeidstid neste tre måneder -->
   <g transform="translate(385.521328 17.077969) scale(0.13 -0.13)">
    <defs>
     <path id="DejaVuSans-4c" d="M 628 4666 
L 1259 4666 
L 1259 531 
L 3531 531 
L 3531 0 
L 628 0 
L 628 4666 
z
" transform="scale(0.015625)"/>
     <path id="DejaVuSans-62" d="M 3116 1747 
Q 3116 2381 2855 2742 
Q 2594 3103 2138 3103 
Q 1681 3103 1420 2742 
Q 1159 2381 1159 1747 
Q 1159 1113 1420 752 
Q 1681 391 2138 391 
Q 2594 391 2855 752 
Q 3116 1113 3116 1747 
z
M 1159 2969 
Q 1341 3281 1617 3432 
Q 1894 3584 2278 3584 
Q 2916 3584 3314 3078 
Q 3713 2572 3713 1747 
Q 3713 922 3314 415 
Q 2916 -91 2278 -91 
Q 1894 -91 1617 61 
Q 1341 213 1159 525 
L 1159 0 
L 581 0 
L 581 4863 
L 1159 4863 
L 1159 2969 
z
" transform="scale(0.015625)"/>
     <path id="DejaVuSans-68" d="M 3513 2113 
L 3513 0 
L 2938 0 
L 2938 2094 
Q 2938 2591 2744 2837 
Q 2550 3084 2163 3084 
Q 1697 3084 1428 2787 
Q 1159 2491 1159 1978 
L 1159 0 
L 581 0 
L 581 4863 
L 1159 4863 
L 1159 2956 
Q 1366 3272 1645 3428 
Q 1925 3584 2291 3584 
Q 2894 3584 3203 3211 
Q 3513 2838 3513 2113 
z
" transform="scale(0.015625)"/>
     <path id="DejaVuSans-2014" d="M 313 1978 
L 6088 1978 
L 6088 1528 
L 313 1528 
L 313 1978 
z
" transform="scale(0.015625)"/>
     <path id="DejaVuSans-e5" d="M 2194 1759 
Q 1497 1759 1228 1600 
Q 959 1441 959 1056 
Q 959 750 1161 570 
Q 1363 391 1709 391 
Q 2188 391 2477 730 
Q 2766 1069 2766 1631 
L 2766 1759 
L 2194 1759 
z
M 3341 1997 
L 3341 0 
L 2766 0 
L 2766 531 
Q 2569 213 2275 61 
Q 1981 -91 1556 -91 
Q 1019 -91 701 211 
Q 384 513 384 1019 
Q 384 1609 779 1909 
Q 1175 2209 1959 2209 
L 2766 2209 
L 2766 2266 
Q 2766 2663 2505 2880 
Q 2244 3097 1772 3097 
Q 1472 3097 1187 3025 
Q 903 2953 641 2809 
L 641 3341 
Q 956 3463 1253 3523 
Q 1550 3584 1831 3584 
Q 2591 3584 2966 3190 
Q 3341 2797 3341 1997 
z
M 2331 4763 
Q 2331 4959 2193 5096 
Q 2056 5234 1856 5234 
Q 1653 5234 1517 5098 
Q 1381 4963 1381 4763 
Q 1381 4559 1517 4423 
Q 1653 4288 1856 4288 
Q 2056 4288 2193 4425 
Q 2331 4563 2331 4763 
z
M 2712 4763 
Q 2712 4403 2463 4153 
Q 2215 3903 1856 3903 
Q 1497 3903 1248 4153 
Q 1000 4403 1000 4763 
Q 1000 5122 1248 5370 
Q 1497 5619 1856 5619 
Q 2215 5619 2463 5370 
Q 2712 5122 2712 4763 
z
" transform="scale(0.015625)"/>
    </defs>
    <use xlink:href="#DejaVuSans-4c"/>
    <use xlink:href="#DejaVuSans-65" transform="translate(53.962891 0)"/>
    <use xlink:href="#DejaVuSans-61" transform="translate(115.486328 0)"/>
    <use xlink:href="#DejaVuSans-76" transform="translate(176.765625 0)"/>
    <use xlink:href="#DejaVuSans-65" transform="translate(235.945312 0)"/>
    <use xlink:href="#DejaVuSans-2d" transform="translate(297.46875 0)"/>
    <use xlink:href="#DejaVuSans-6f" transform="translate(335.427734 0)"/>
    <use xlink:href="#DejaVuSans-6e" transform="translate(396.609375 0)"/>
    <use xlink:href="#DejaVuSans-65" transform="translate(459.988281 0)"/>
    <use xlink:href="#DejaVuSans-2d" transform="translate(521.511719 0)"/>
    <use xlink:href="#DejaVuSans-6f" transform="translate(559.470703 0)"/>
    <use xlink:href="#DejaVuSans-75" transform="translate(620.652344 0)"/>
    <use xlink:href="#DejaVuSans-74" transform="translate(684.03125 0)"/>
    <use xlink:href="#DejaVuSans-20" transform="translate(723.240234 0)"/>
    <use xlink:href="#DejaVuSans-72" transform="translate(755.027344 0)"/>
    <use xlink:href="#DejaVuSans-6f" transform="translate(793.890625 0)"/>
    <use xlink:href="#DejaVuSans-62" transform="translate(855.072266 0)"/>
    <use xlink:href="#DejaVuSans-75" transform="translate(918.548828 0)"/>
    <use xlink:href="#DejaVuSans-73" transform="translate(981.927734 0)"/>
    <use xlink:href="#DejaVuSans-74" transform="translate(1034.027344 0)"/>
    <use xlink:href="#DejaVuSans-68" transform="translate(1073.236328 0)"/>
    <use xlink:href="#DejaVuSans-65" transform="translate(1136.615234 0)"/>
    <use xlink:href="#DejaVuSans-74" transform="translate(1198.138672 0)"/>
    <use xlink:href="#DejaVuSans-20" transform="translate(1237.347656 0)"/>
    <use xlink:href="#DejaVuSans-2014" transform="translate(1269.134766 0)"/>
    <use xlink:href="#DejaVuSans-20" transform="translate(1369.134766 0)"/>
    <use xlink:href="#DejaVuSans-41" transform="translate(1400.921875 0)"/>
    <use xlink:href="#DejaVuSans-72" transform="translate(1469.330078 0)"/>
    <use xlink:href="#DejaVuSans-62" transform="translate(1510.443359 0)"/>
    <use xlink:href="#DejaVuSans-65" transform="translate(1573.919922 0)"/>
    <use xlink:href="#DejaVuSans-69" transform="translate(1635.443359 0)"/>
    <use xlink:href="#DejaVuSans-64" transform="translate(1663.226562 0)"/>
    <use xlink:href="#DejaVuSans-73" transform="translate(1726.703125 0)"/>
    <use xlink:href="#DejaVuSans-74" transform="translate(1778.802734 0)"/>
    <use xlink:href="#DejaVuSans-69" transform="translate(1818.011719 0)"/>
    <use xlink:href="#DejaVuSans-64" transform="translate(1845.794922 0)"/>
    <use xlink:href="#DejaVuSans-20" transform="translate(1909.271484 0)"/>
    <use xlink:href="#DejaVuSans-6e" transform="translate(1941.058594 0)"/>
    <use xlink:href="#DejaVuSans-65" transform="translate(2004.4375 0)"/>
    <use xlink:href="#DejaVuSans-73" transform="translate(2065.960938 0)"/>
    <use xlink:href="#DejaVuSans-74" transform="translate(2118.060547 0)"/>
    <use xlink:href="#DejaVuSans-65" transform="translate(2157.269531 0)"/>
    <use xlink:href="#DejaVuSans-20" transform="translate(2218.792969 0)"/>
    <use xlink:href="#DejaVuSans-74" transform="translate(2250.580078 0)"/>
    <use xlink:href="#DejaVuSans-72" transform="translate(2289.789062 0)"/>
    <use xlink:href="#DejaVuSans-65" transform="translate(2328.652344 0)"/>
    <use xlink:href="#DejaVuSans-20" transform="translate(2390.175781 0)"/>
    <use xlink:href="#DejaVuSans-6d" transform="translate(2421.962891 0)"/>
    <use xlink:href="#DejaVuSans-e5" transform="translate(2519.375 0)"/>
    <use xlink:href="#DejaVuSans-6e" transform="translate(2580.654297 0)"/>
    <use xlink:href="#DejaVuSans-65" transform="translate(2644.033203 0)"/>
    <use xlink:href="#DejaVuSans-64" transform="translate(2705.556641 0)"/>
    <use xlink:href="#DejaVuSans-65" transform="translate(2769.033203 0)"/>
    <use xlink:href="#DejaVuSans-72" transform="translate(2830.556641 0)"/>
   </g>
  </g>
 </g>
 <defs>
  <clipPath id="p57943eba0d">
   <rect x="115.725" y="47.544" width="503.6775" height="298.72"/>
  </clipPath>
  <clipPath id="pcaf758ac5b">
   <rect x="633.7025" y="47.544" width="503.6775" height="298.72"/>
  </clipPath>
 </defs>
</svg>
