<?xml version="1.0" encoding="utf-8" standalone="no"?>
<!DOCTYPE svg PUBLIC "-//W3C//DTD SVG 1.1//EN"
  "http://www.w3.org/Graphics/SVG/1.1/DTD/svg11.dtd">
<svg xmlns:xlink="http://www.w3.org/1999/xlink" width="614.505469pt" height="338.900156pt" viewBox="0 0 614.505469 338.900156" xmlns="http://www.w3.org/2000/svg" version="1.1">
 <metadata>
  <rdf:RDF xmlns:dc="http://purl.org/dc/elements/1.1/" xmlns:cc="http://creativecommons.org/ns#" xmlns:rdf="http://www.w3.org/1999/02/22-rdf-syntax-ns#">
   <cc:Work>
    <dc:type rdf:resource="http://purl.org/dc/dcmitype/StillImage"/>
    <dc:date>2026-07-30T11:09:59.552582</dc:date>
    <dc:format>image/svg+xml</dc:format>
    <dc:creator>
     <cc:Agent>
      <dc:title>Matplotlib v3.11.1, https://matplotlib.org/</dc:title>
     </cc:Agent>
    </dc:creator>
   </cc:Work>
  </rdf:RDF>
 </metadata>
 <defs>
  <style type="text/css">*{stroke-linejoin: round; stroke-linecap: butt}</style>
 </defs>
 <g id="figure_1">
  <g id="patch_1">
   <path d="M 0 338.900156 
L 614.505469 338.900156 
L 614.505469 0 
L 0 0 
z
" style="fill: #ffffff"/>
  </g>
  <g id="axes_1">
   <g id="patch_2">
    <path d="M 49.305469 299.518125 
L 607.305469 299.518125 
L 607.305469 22.318125 
L 49.305469 22.318125 
z
" style="fill: #ffffff"/>
   </g>
   <g id="FillBetweenPolyCollection_1">
    <defs>
     <path id="mbe8e038b41" d="M 74.669105 -248.662094 
L 74.669105 -121.029184 
L 92.785988 -62.714593 
L 110.902871 -51.982031 
L 129.019754 -91.913672 
L 147.136638 -96.365923 
L 165.253521 -109.063349 
L 183.370404 -143.564262 
L 201.487287 -98.372312 
L 219.60417 -122.591256 
L 237.721053 -79.8376 
L 255.837936 -56.442487 
L 273.954819 -111.77169 
L 292.071703 -63.745565 
L 310.188586 -64.437664 
L 328.305469 -139.846974 
L 346.422352 -130.473399 
L 364.539235 -119.73261 
L 382.656118 -145.144725 
L 400.773001 -130.966538 
L 418.889884 -102.606388 
L 437.006767 -132.5587 
L 455.123651 -105.822497 
L 473.240534 -149.750351 
L 509.4743 -88.544183 
L 527.591183 -75.695862 
L 545.708066 -116.134526 
L 563.824949 -88.099166 
L 581.941832 -119.599518 
L 581.941832 -227.685169 
L 581.941832 -227.685169 
L 563.824949 -240.342485 
L 545.708066 -240.124311 
L 527.591183 -213.103503 
L 509.4743 -235.521778 
L 473.240534 -251.791378 
L 455.123651 -239.085144 
L 437.006767 -234.147735 
L 418.889884 -239.643099 
L 400.773001 -303.982031 
L 382.656118 -281.328537 
L 364.539235 -273.353902 
L 346.422352 -212.165263 
L 328.305469 -265.834862 
L 310.188586 -207.513078 
L 292.071703 -235.180409 
L 273.954819 -277.922515 
L 255.837936 -247.461711 
L 237.721053 -233.140107 
L 219.60417 -268.052502 
L 201.487287 -270.144386 
L 183.370404 -243.236383 
L 165.253521 -185.475123 
L 147.136638 -256.073981 
L 129.019754 -283.498922 
L 110.902871 -229.172971 
L 92.785988 -251.528629 
L 74.669105 -248.662094 
z
" style="stroke: #254b6d; stroke-opacity: 0.2"/>
    </defs>
    <g clip-path="url(#pf9fb1e5bb1)">
     <use xlink:href="#mbe8e038b41" x="0" y="338.900156" style="fill: #254b6d; fill-opacity: 0.2; stroke: #254b6d; stroke-opacity: 0.2"/>
    </g>
   </g>
   <g id="matplotlib.axis_1">
    <g id="xtick_1">
     <g id="line2d_1">
      <defs>
       <path id="md6d49f7a6a" d="M 0 0 
L 0 3.5 
" style="stroke: #000000; stroke-width: 0.8"/>
      </defs>
      <g>
       <use xlink:href="#md6d49f7a6a" x="56.552222" y="299.518125" style="stroke: #000000; stroke-width: 0.8"/>
      </g>
     </g>
     <g id="text_1">
      <!-- −25 -->
      <g transform="translate(45.999878 314.115781) scale(0.1 -0.1)">
       <defs>
        <path id="DejaVuSans-c9c" d="M 678 2272 
L 4684 2272 
L 4684 1741 
L 678 1741 
L 678 2272 
z
" transform="scale(0.015625)"/>
        <path id="DejaVuSans-15" d="M 1228 531 
L 3431 531 
L 3431 0 
L 469 0 
L 469 531 
Q 828 903 1448 1529 
Q 2069 2156 2228 2338 
Q 2531 2678 2651 2914 
Q 2772 3150 2772 3378 
Q 2772 3750 2511 3984 
Q 2250 4219 1831 4219 
Q 1534 4219 1204 4116 
Q 875 4013 500 3803 
L 500 4441 
Q 881 4594 1212 4672 
Q 1544 4750 1819 4750 
Q 2544 4750 2975 4387 
Q 3406 4025 3406 3419 
Q 3406 3131 3298 2873 
Q 3191 2616 2906 2266 
Q 2828 2175 2409 1742 
Q 1991 1309 1228 531 
z
" transform="scale(0.015625)"/>
        <path id="DejaVuSans-18" d="M 691 4666 
L 3169 4666 
L 3169 4134 
L 1269 4134 
L 1269 2991 
Q 1406 3038 1543 3061 
Q 1681 3084 1819 3084 
Q 2600 3084 3056 2656 
Q 3513 2228 3513 1497 
Q 3513 744 3044 326 
Q 2575 -91 1722 -91 
Q 1428 -91 1123 -41 
Q 819 9 494 109 
L 494 744 
Q 775 591 1075 516 
Q 1375 441 1709 441 
Q 2250 441 2565 725 
Q 2881 1009 2881 1497 
Q 2881 1984 2565 2268 
Q 2250 2553 1709 2553 
Q 1456 2553 1204 2497 
Q 953 2441 691 2322 
L 691 4666 
z
" transform="scale(0.015625)"/>
       </defs>
       <use xlink:href="#DejaVuSans-c9c"/>
       <use xlink:href="#DejaVuSans-15" transform="translate(83.796875 0)"/>
       <use xlink:href="#DejaVuSans-18" transform="translate(147.421875 0)"/>
      </g>
     </g>
    </g>
    <g id="xtick_2">
     <g id="line2d_2">
      <g>
       <use xlink:href="#md6d49f7a6a" x="147.136638" y="299.518125" style="stroke: #000000; stroke-width: 0.8"/>
      </g>
     </g>
     <g id="text_2">
      <!-- −20 -->
      <g transform="translate(136.584294 314.115781) scale(0.1 -0.1)">
       <defs>
        <path id="DejaVuSans-13" d="M 2034 4250 
Q 1547 4250 1301 3770 
Q 1056 3291 1056 2328 
Q 1056 1369 1301 889 
Q 1547 409 2034 409 
Q 2525 409 2770 889 
Q 3016 1369 3016 2328 
Q 3016 3291 2770 3770 
Q 2525 4250 2034 4250 
z
M 2034 4750 
Q 2819 4750 3233 4129 
Q 3647 3509 3647 2328 
Q 3647 1150 3233 529 
Q 2819 -91 2034 -91 
Q 1250 -91 836 529 
Q 422 1150 422 2328 
Q 422 3509 836 4129 
Q 1250 4750 2034 4750 
z
" transform="scale(0.015625)"/>
       </defs>
       <use xlink:href="#DejaVuSans-c9c"/>
       <use xlink:href="#DejaVuSans-15" transform="translate(83.796875 0)"/>
       <use xlink:href="#DejaVuSans-13" transform="translate(147.421875 0)"/>
      </g>
     </g>
    </g>
    <g id="xtick_3">
     <g id="line2d_3">
      <g>
       <use xlink:href="#md6d49f7a6a" x="237.721053" y="299.518125" style="stroke: #000000; stroke-width: 0.8"/>
      </g>
     </g>
     <g id="text_3">
      <!-- −15 -->
      <g transform="translate(227.168709 314.115781) scale(0.1 -0.1)">
       <defs>
        <path id="DejaVuSans-14" d="M 794 531 
L 1825 531 
L 1825 4091 
L 703 3866 
L 703 4441 
L 1819 4666 
L 2450 4666 
L 2450 531 
L 3481 531 
L 3481 0 
L 794 0 
L 794 531 
z
" transform="scale(0.015625)"/>
       </defs>
       <use xlink:href="#DejaVuSans-c9c"/>
       <use xlink:href="#DejaVuSans-14" transform="translate(83.796875 0)"/>
       <use xlink:href="#DejaVuSans-18" transform="translate(147.421875 0)"/>
      </g>
     </g>
    </g>
    <g id="xtick_4">
     <g id="line2d_4">
      <g>
       <use xlink:href="#md6d49f7a6a" x="328.305469" y="299.518125" style="stroke: #000000; stroke-width: 0.8"/>
      </g>
     </g>
     <g id="text_4">
      <!-- −10 -->
      <g transform="translate(317.753125 314.115781) scale(0.1 -0.1)">
       <use xlink:href="#DejaVuSans-c9c"/>
       <use xlink:href="#DejaVuSans-14" transform="translate(83.796875 0)"/>
       <use xlink:href="#DejaVuSans-13" transform="translate(147.421875 0)"/>
      </g>
     </g>
    </g>
    <g id="xtick_5">
     <g id="line2d_5">
      <g>
       <use xlink:href="#md6d49f7a6a" x="418.889884" y="299.518125" style="stroke: #000000; stroke-width: 0.8"/>
      </g>
     </g>
     <g id="text_5">
      <!-- −5 -->
      <g transform="translate(411.518791 314.115781) scale(0.1 -0.1)">
       <use xlink:href="#DejaVuSans-c9c"/>
       <use xlink:href="#DejaVuSans-18" transform="translate(83.796875 0)"/>
      </g>
     </g>
    </g>
    <g id="xtick_6">
     <g id="line2d_6">
      <g>
       <use xlink:href="#md6d49f7a6a" x="509.4743" y="299.518125" style="stroke: #000000; stroke-width: 0.8"/>
      </g>
     </g>
     <g id="text_6">
      <!-- 0 -->
      <g transform="translate(506.29305 314.115781) scale(0.1 -0.1)">
       <use xlink:href="#DejaVuSans-13"/>
      </g>
     </g>
    </g>
    <g id="xtick_7">
     <g id="line2d_7">
      <g>
       <use xlink:href="#md6d49f7a6a" x="600.058716" y="299.518125" style="stroke: #000000; stroke-width: 0.8"/>
      </g>
     </g>
     <g id="text_7">
      <!-- 5 -->
      <g transform="translate(596.877466 314.115781) scale(0.1 -0.1)">
       <use xlink:href="#DejaVuSans-18"/>
      </g>
     </g>
    </g>
    <g id="text_8">
     <!-- Relativ måned (τ) -->
     <g transform="translate(283.773438 329.297813) scale(0.1 -0.1)">
      <defs>
       <path id="DejaVuSans-35" d="M 2841 2188 
Q 3044 2119 3236 1894 
Q 3428 1669 3622 1275 
L 4263 0 
L 3584 0 
L 2988 1197 
Q 2756 1666 2539 1819 
Q 2322 1972 1947 1972 
L 1259 1972 
L 1259 0 
L 628 0 
L 628 4666 
L 2053 4666 
Q 2853 4666 3247 4331 
Q 3641 3997 3641 3322 
Q 3641 2881 3436 2590 
Q 3231 2300 2841 2188 
z
M 1259 4147 
L 1259 2491 
L 2053 2491 
Q 2509 2491 2742 2702 
Q 2975 2913 2975 3322 
Q 2975 3731 2742 3939 
Q 2509 4147 2053 4147 
L 1259 4147 
z
" transform="scale(0.015625)"/>
       <path id="DejaVuSans-48" d="M 3597 1894 
L 3597 1613 
L 953 1613 
Q 991 1019 1311 708 
Q 1631 397 2203 397 
Q 2534 397 2845 478 
Q 3156 559 3463 722 
L 3463 178 
Q 3153 47 2828 -22 
Q 2503 -91 2169 -91 
Q 1331 -91 842 396 
Q 353 884 353 1716 
Q 353 2575 817 3079 
Q 1281 3584 2069 3584 
Q 2775 3584 3186 3129 
Q 3597 2675 3597 1894 
z
M 3022 2063 
Q 3016 2534 2758 2815 
Q 2500 3097 2075 3097 
Q 1594 3097 1305 2825 
Q 1016 2553 972 2059 
L 3022 2063 
z
" transform="scale(0.015625)"/>
       <path id="DejaVuSans-4f" d="M 603 4863 
L 1178 4863 
L 1178 0 
L 603 0 
L 603 4863 
z
" transform="scale(0.015625)"/>
       <path id="DejaVuSans-44" d="M 2194 1759 
Q 1497 1759 1228 1600 
Q 959 1441 959 1056 
Q 959 750 1161 570 
Q 1363 391 1709 391 
Q 2188 391 2477 730 
Q 2766 1069 2766 1631 
L 2766 1759 
L 2194 1759 
z
M 3341 1997 
L 3341 0 
L 2766 0 
L 2766 531 
Q 2569 213 2275 61 
Q 1981 -91 1556 -91 
Q 1019 -91 701 211 
Q 384 513 384 1019 
Q 384 1609 779 1909 
Q 1175 2209 1959 2209 
L 2766 2209 
L 2766 2266 
Q 2766 2663 2505 2880 
Q 2244 3097 1772 3097 
Q 1472 3097 1187 3025 
Q 903 2953 641 2809 
L 641 3341 
Q 956 3463 1253 3523 
Q 1550 3584 1831 3584 
Q 2591 3584 2966 3190 
Q 3341 2797 3341 1997 
z
" transform="scale(0.015625)"/>
       <path id="DejaVuSans-57" d="M 1172 4494 
L 1172 3500 
L 2356 3500 
L 2356 3053 
L 1172 3053 
L 1172 1153 
Q 1172 725 1289 603 
Q 1406 481 1766 481 
L 2356 481 
L 2356 0 
L 1766 0 
Q 1100 0 847 248 
Q 594 497 594 1153 
L 594 3053 
L 172 3053 
L 172 3500 
L 594 3500 
L 594 4494 
L 1172 4494 
z
" transform="scale(0.015625)"/>
       <path id="DejaVuSans-4c" d="M 603 3500 
L 1178 3500 
L 1178 0 
L 603 0 
L 603 3500 
z
M 603 4863 
L 1178 4863 
L 1178 4134 
L 603 4134 
L 603 4863 
z
" transform="scale(0.015625)"/>
       <path id="DejaVuSans-59" d="M 191 3500 
L 800 3500 
L 1894 563 
L 2988 3500 
L 3597 3500 
L 2284 0 
L 1503 0 
L 191 3500 
z
" transform="scale(0.015625)"/>
       <path id="DejaVuSans-3" transform="scale(0.015625)"/>
       <path id="DejaVuSans-50" d="M 3328 2828 
Q 3544 3216 3844 3400 
Q 4144 3584 4550 3584 
Q 5097 3584 5394 3201 
Q 5691 2819 5691 2113 
L 5691 0 
L 5113 0 
L 5113 2094 
Q 5113 2597 4934 2840 
Q 4756 3084 4391 3084 
Q 3944 3084 3684 2787 
Q 3425 2491 3425 1978 
L 3425 0 
L 2847 0 
L 2847 2094 
Q 2847 2600 2669 2842 
Q 2491 3084 2119 3084 
Q 1678 3084 1418 2786 
Q 1159 2488 1159 1978 
L 1159 0 
L 581 0 
L 581 3500 
L 1159 3500 
L 1159 2956 
Q 1356 3278 1631 3431 
Q 1906 3584 2284 3584 
Q 2666 3584 2933 3390 
Q 3200 3197 3328 2828 
z
" transform="scale(0.015625)"/>
       <path id="DejaVuSans-a7" d="M 2194 1759 
Q 1497 1759 1228 1600 
Q 959 1441 959 1056 
Q 959 750 1161 570 
Q 1363 391 1709 391 
Q 2188 391 2477 730 
Q 2766 1069 2766 1631 
L 2766 1759 
L 2194 1759 
z
M 3341 1997 
L 3341 0 
L 2766 0 
L 2766 531 
Q 2569 213 2275 61 
Q 1981 -91 1556 -91 
Q 1019 -91 701 211 
Q 384 513 384 1019 
Q 384 1609 779 1909 
Q 1175 2209 1959 2209 
L 2766 2209 
L 2766 2266 
Q 2766 2663 2505 2880 
Q 2244 3097 1772 3097 
Q 1472 3097 1187 3025 
Q 903 2953 641 2809 
L 641 3341 
Q 956 3463 1253 3523 
Q 1550 3584 1831 3584 
Q 2591 3584 2966 3190 
Q 3341 2797 3341 1997 
z
M 2331 4763 
Q 2331 4959 2193 5096 
Q 2056 5234 1856 5234 
Q 1653 5234 1517 5098 
Q 1381 4963 1381 4763 
Q 1381 4559 1517 4423 
Q 1653 4288 1856 4288 
Q 2056 4288 2193 4425 
Q 2331 4563 2331 4763 
z
M 2712 4763 
Q 2712 4403 2463 4153 
Q 2215 3903 1856 3903 
Q 1497 3903 1248 4153 
Q 1000 4403 1000 4763 
Q 1000 5122 1248 5370 
Q 1497 5619 1856 5619 
Q 2215 5619 2463 5370 
Q 2712 5122 2712 4763 
z
" transform="scale(0.015625)"/>
       <path id="DejaVuSans-51" d="M 3513 2113 
L 3513 0 
L 2938 0 
L 2938 2094 
Q 2938 2591 2744 2837 
Q 2550 3084 2163 3084 
Q 1697 3084 1428 2787 
Q 1159 2491 1159 1978 
L 1159 0 
L 581 0 
L 581 3500 
L 1159 3500 
L 1159 2956 
Q 1366 3272 1645 3428 
Q 1925 3584 2291 3584 
Q 2894 3584 3203 3211 
Q 3513 2838 3513 2113 
z
" transform="scale(0.015625)"/>
       <path id="DejaVuSans-47" d="M 2906 2969 
L 2906 4863 
L 3481 4863 
L 3481 0 
L 2906 0 
L 2906 525 
Q 2725 213 2448 61 
Q 2172 -91 1784 -91 
Q 1150 -91 751 415 
Q 353 922 353 1747 
Q 353 2572 751 3078 
Q 1150 3584 1784 3584 
Q 2172 3584 2448 3432 
Q 2725 3281 2906 2969 
z
M 947 1747 
Q 947 1113 1208 752 
Q 1469 391 1925 391 
Q 2381 391 2643 752 
Q 2906 1113 2906 1747 
Q 2906 2381 2643 2742 
Q 2381 3103 1925 3103 
Q 1469 3103 1208 2742 
Q 947 2381 947 1747 
z
" transform="scale(0.015625)"/>
       <path id="DejaVuSans-b" d="M 1984 4856 
Q 1566 4138 1362 3434 
Q 1159 2731 1159 2009 
Q 1159 1288 1364 580 
Q 1569 -128 1984 -844 
L 1484 -844 
Q 1016 -109 783 600 
Q 550 1309 550 2009 
Q 550 2706 781 3412 
Q 1013 4119 1484 4856 
L 1984 4856 
z
" transform="scale(0.015625)"/>
       <path id="DejaVuSans-358" d="M 2319 638 
Q 2431 488 2769 488 
L 3047 488 
L 3047 0 
L 2700 0 
Q 2138 0 1881 300 
Q 1625 606 1625 1269 
L 1625 2925 
L 313 2925 
L 313 3500 
L 3541 3500 
L 3541 2925 
L 2213 2925 
L 2213 1234 
Q 2213 781 2319 638 
z
" transform="scale(0.015625)"/>
       <path id="DejaVuSans-c" d="M 513 4856 
L 1013 4856 
Q 1481 4119 1714 3412 
Q 1947 2706 1947 2009 
Q 1947 1309 1714 600 
Q 1481 -109 1013 -844 
L 513 -844 
Q 928 -128 1133 580 
Q 1338 1288 1338 2009 
Q 1338 2731 1133 3434 
Q 928 4138 513 4856 
z
" transform="scale(0.015625)"/>
      </defs>
      <use xlink:href="#DejaVuSans-35"/>
      <use xlink:href="#DejaVuSans-48" transform="translate(65 0)"/>
      <use xlink:href="#DejaVuSans-4f" transform="translate(126.53125 0)"/>
      <use xlink:href="#DejaVuSans-44" transform="translate(154.3125 0)"/>
      <use xlink:href="#DejaVuSans-57" transform="translate(215.59375 0)"/>
      <use xlink:href="#DejaVuSans-4c" transform="translate(254.796875 0)"/>
      <use xlink:href="#DejaVuSans-59" transform="translate(282.578125 0)"/>
      <use xlink:href="#DejaVuSans-3" transform="translate(341.765625 0)"/>
      <use xlink:href="#DejaVuSans-50" transform="translate(373.546875 0)"/>
      <use xlink:href="#DejaVuSans-a7" transform="translate(470.953125 0)"/>
      <use xlink:href="#DejaVuSans-51" transform="translate(532.234375 0)"/>
      <use xlink:href="#DejaVuSans-48" transform="translate(595.609375 0)"/>
      <use xlink:href="#DejaVuSans-47" transform="translate(657.140625 0)"/>
      <use xlink:href="#DejaVuSans-3" transform="translate(720.625 0)"/>
      <use xlink:href="#DejaVuSans-b" transform="translate(752.40625 0)"/>
      <use xlink:href="#DejaVuSans-358" transform="translate(791.421875 0)"/>
      <use xlink:href="#DejaVuSans-c" transform="translate(851.625 0)"/>
     </g>
    </g>
   </g>
   <g id="matplotlib.axis_2">
    <g id="ytick_1">
     <g id="line2d_8">
      <path d="M 49.305469 276.524864 
L 607.305469 276.524864 
" clip-path="url(#pf9fb1e5bb1)" style="fill: none; stroke: #b0b0b0; stroke-opacity: 0.3; stroke-width: 0.8; stroke-linecap: square"/>
     </g>
     <g id="line2d_9">
      <defs>
       <path id="mf0964d0dea" d="M 0 0 
L -3.5 0 
" style="stroke: #000000; stroke-width: 0.8"/>
      </defs>
      <g>
       <use xlink:href="#mf0964d0dea" x="49.305469" y="276.524864" style="stroke: #000000; stroke-width: 0.8"/>
      </g>
     </g>
     <g id="text_9">
      <!-- −10 -->
      <g transform="translate(21.200781 280.323692) scale(0.1 -0.1)">
       <use xlink:href="#DejaVuSans-c9c"/>
       <use xlink:href="#DejaVuSans-14" transform="translate(83.796875 0)"/>
       <use xlink:href="#DejaVuSans-13" transform="translate(147.421875 0)"/>
      </g>
     </g>
    </g>
    <g id="ytick_2">
     <g id="line2d_10">
      <path d="M 49.305469 222.915617 
L 607.305469 222.915617 
" clip-path="url(#pf9fb1e5bb1)" style="fill: none; stroke: #b0b0b0; stroke-opacity: 0.3; stroke-width: 0.8; stroke-linecap: square"/>
     </g>
     <g id="line2d_11">
      <g>
       <use xlink:href="#mf0964d0dea" x="49.305469" y="222.915617" style="stroke: #000000; stroke-width: 0.8"/>
      </g>
     </g>
     <g id="text_10">
      <!-- −5 -->
      <g transform="translate(27.563281 226.714445) scale(0.1 -0.1)">
       <use xlink:href="#DejaVuSans-c9c"/>
       <use xlink:href="#DejaVuSans-18" transform="translate(83.796875 0)"/>
      </g>
     </g>
    </g>
    <g id="ytick_3">
     <g id="line2d_12">
      <path d="M 49.305469 169.30637 
L 607.305469 169.30637 
" clip-path="url(#pf9fb1e5bb1)" style="fill: none; stroke: #b0b0b0; stroke-opacity: 0.3; stroke-width: 0.8; stroke-linecap: square"/>
     </g>
     <g id="line2d_13">
      <g>
       <use xlink:href="#mf0964d0dea" x="49.305469" y="169.30637" style="stroke: #000000; stroke-width: 0.8"/>
      </g>
     </g>
     <g id="text_11">
      <!-- 0 -->
      <g transform="translate(35.942969 173.105198) scale(0.1 -0.1)">
       <use xlink:href="#DejaVuSans-13"/>
      </g>
     </g>
    </g>
    <g id="ytick_4">
     <g id="line2d_14">
      <path d="M 49.305469 115.697123 
L 607.305469 115.697123 
" clip-path="url(#pf9fb1e5bb1)" style="fill: none; stroke: #b0b0b0; stroke-opacity: 0.3; stroke-width: 0.8; stroke-linecap: square"/>
     </g>
     <g id="line2d_15">
      <g>
       <use xlink:href="#mf0964d0dea" x="49.305469" y="115.697123" style="stroke: #000000; stroke-width: 0.8"/>
      </g>
     </g>
     <g id="text_12">
      <!-- 5 -->
      <g transform="translate(35.942969 119.495951) scale(0.1 -0.1)">
       <use xlink:href="#DejaVuSans-18"/>
      </g>
     </g>
    </g>
    <g id="ytick_5">
     <g id="line2d_16">
      <path d="M 49.305469 62.087876 
L 607.305469 62.087876 
" clip-path="url(#pf9fb1e5bb1)" style="fill: none; stroke: #b0b0b0; stroke-opacity: 0.3; stroke-width: 0.8; stroke-linecap: square"/>
     </g>
     <g id="line2d_17">
      <g>
       <use xlink:href="#mf0964d0dea" x="49.305469" y="62.087876" style="stroke: #000000; stroke-width: 0.8"/>
      </g>
     </g>
     <g id="text_13">
      <!-- 10 -->
      <g transform="translate(29.580469 65.886704) scale(0.1 -0.1)">
       <use xlink:href="#DejaVuSans-14"/>
       <use xlink:href="#DejaVuSans-13" transform="translate(63.625 0)"/>
      </g>
     </g>
    </g>
    <g id="text_14">
     <!-- Koeffisient -->
     <g transform="translate(14.798438 187.117344) rotate(-90) scale(0.1 -0.1)">
      <defs>
       <path id="DejaVuSans-2e" d="M 628 4666 
L 1259 4666 
L 1259 2694 
L 3353 4666 
L 4166 4666 
L 1850 2491 
L 4331 0 
L 3500 0 
L 1259 2247 
L 1259 0 
L 628 0 
L 628 4666 
z
" transform="scale(0.015625)"/>
       <path id="DejaVuSans-52" d="M 1959 3097 
Q 1497 3097 1228 2736 
Q 959 2375 959 1747 
Q 959 1119 1226 758 
Q 1494 397 1959 397 
Q 2419 397 2687 759 
Q 2956 1122 2956 1747 
Q 2956 2369 2687 2733 
Q 2419 3097 1959 3097 
z
M 1959 3584 
Q 2709 3584 3137 3096 
Q 3566 2609 3566 1747 
Q 3566 888 3137 398 
Q 2709 -91 1959 -91 
Q 1206 -91 779 398 
Q 353 888 353 1747 
Q 353 2609 779 3096 
Q 1206 3584 1959 3584 
z
" transform="scale(0.015625)"/>
       <path id="DejaVuSans-13b1" d="M 2375 4863 
L 2375 4384 
L 1825 4384 
Q 1516 4384 1394 4259 
Q 1275 4134 1275 3809 
L 1275 3500 
L 2853 3500 
L 2853 3744 
Q 2853 4328 3125 4594 
Q 3213 4681 3334 4741 
Q 3578 4863 3988 4863 
L 4531 4863 
L 4531 4384 
L 3981 4384 
Q 3672 4384 3551 4259 
Q 3431 4134 3431 3809 
L 3431 3500 
L 5588 3500 
L 5588 0 
L 5009 0 
L 5009 3053 
L 3431 3053 
L 3431 0 
L 2853 0 
L 2853 3053 
L 1275 3053 
L 1275 0 
L 697 0 
L 697 3053 
L 147 3053 
L 147 3500 
L 697 3500 
L 697 3744 
Q 697 4328 969 4595 
Q 1241 4863 1831 4863 
L 2375 4863 
z
M 5009 4856 
L 5588 4856 
L 5588 4128 
L 5009 4128 
L 5009 4856 
z
" transform="scale(0.015625)"/>
       <path id="DejaVuSans-56" d="M 2834 3397 
L 2834 2853 
Q 2591 2978 2328 3040 
Q 2066 3103 1784 3103 
Q 1356 3103 1142 2972 
Q 928 2841 928 2578 
Q 928 2378 1081 2264 
Q 1234 2150 1697 2047 
L 1894 2003 
Q 2506 1872 2764 1633 
Q 3022 1394 3022 966 
Q 3022 478 2636 193 
Q 2250 -91 1575 -91 
Q 1294 -91 989 -36 
Q 684 19 347 128 
L 347 722 
Q 666 556 975 473 
Q 1284 391 1588 391 
Q 1994 391 2212 530 
Q 2431 669 2431 922 
Q 2431 1156 2273 1281 
Q 2116 1406 1581 1522 
L 1381 1569 
Q 847 1681 609 1914 
Q 372 2147 372 2553 
Q 372 3047 722 3315 
Q 1072 3584 1716 3584 
Q 2034 3584 2315 3537 
Q 2597 3491 2834 3397 
z
" transform="scale(0.015625)"/>
      </defs>
      <use xlink:href="#DejaVuSans-2e"/>
      <use xlink:href="#DejaVuSans-52" transform="translate(60.59375 0)"/>
      <use xlink:href="#DejaVuSans-48" transform="translate(121.78125 0)"/>
      <use xlink:href="#DejaVuSans-13b1" transform="translate(183.3125 0)"/>
      <use xlink:href="#DejaVuSans-56" transform="translate(280 0)"/>
      <use xlink:href="#DejaVuSans-4c" transform="translate(332.09375 0)"/>
      <use xlink:href="#DejaVuSans-48" transform="translate(359.875 0)"/>
      <use xlink:href="#DejaVuSans-51" transform="translate(421.40625 0)"/>
      <use xlink:href="#DejaVuSans-57" transform="translate(484.78125 0)"/>
     </g>
    </g>
   </g>
   <g id="line2d_18">
    <path d="M 74.669105 154.054517 
L 92.785988 181.778545 
L 110.902871 198.322655 
L 129.019754 151.193859 
L 147.136638 162.680204 
L 165.253521 191.63092 
L 183.370404 145.499833 
L 201.487287 154.641807 
L 219.60417 143.578278 
L 237.721053 182.411303 
L 255.837936 186.948057 
L 273.954819 144.053054 
L 292.071703 189.437169 
L 310.188586 202.924785 
L 328.305469 136.059238 
L 346.422352 167.580825 
L 364.539235 142.3569 
L 382.656118 125.663525 
L 400.773001 121.425872 
L 418.889884 167.775413 
L 437.006767 155.546939 
L 455.123651 166.446336 
L 473.240534 138.129292 
L 509.4743 176.867176 
L 527.591183 194.500474 
L 545.708066 160.770738 
L 563.824949 174.67933 
L 581.941832 165.257813 
" clip-path="url(#pf9fb1e5bb1)" style="fill: none; stroke: #254b6d; stroke-width: 1.2; stroke-linecap: square"/>
    <defs>
     <path id="md16d08b43b" d="M 0 1.5 
C 0.397805 1.5 0.77937 1.341951 1.06066 1.06066 
C 1.341951 0.77937 1.5 0.397805 1.5 0 
C 1.5 -0.397805 1.341951 -0.77937 1.06066 -1.06066 
C 0.77937 -1.341951 0.397805 -1.5 0 -1.5 
C -0.397805 -1.5 -0.77937 -1.341951 -1.06066 -1.06066 
C -1.341951 -0.77937 -1.5 -0.397805 -1.5 0 
C -1.5 0.397805 -1.341951 0.77937 -1.06066 1.06066 
C -0.77937 1.341951 -0.397805 1.5 0 1.5 
z
" style="stroke: #254b6d"/>
    </defs>
    <g clip-path="url(#pf9fb1e5bb1)">
     <use xlink:href="#md16d08b43b" x="74.669105" y="154.054517" style="fill: #254b6d; stroke: #254b6d"/>
     <use xlink:href="#md16d08b43b" x="92.785988" y="181.778545" style="fill: #254b6d; stroke: #254b6d"/>
     <use xlink:href="#md16d08b43b" x="110.902871" y="198.322655" style="fill: #254b6d; stroke: #254b6d"/>
     <use xlink:href="#md16d08b43b" x="129.019754" y="151.193859" style="fill: #254b6d; stroke: #254b6d"/>
     <use xlink:href="#md16d08b43b" x="147.136638" y="162.680204" style="fill: #254b6d; stroke: #254b6d"/>
     <use xlink:href="#md16d08b43b" x="165.253521" y="191.63092" style="fill: #254b6d; stroke: #254b6d"/>
     <use xlink:href="#md16d08b43b" x="183.370404" y="145.499833" style="fill: #254b6d; stroke: #254b6d"/>
     <use xlink:href="#md16d08b43b" x="201.487287" y="154.641807" style="fill: #254b6d; stroke: #254b6d"/>
     <use xlink:href="#md16d08b43b" x="219.60417" y="143.578278" style="fill: #254b6d; stroke: #254b6d"/>
     <use xlink:href="#md16d08b43b" x="237.721053" y="182.411303" style="fill: #254b6d; stroke: #254b6d"/>
     <use xlink:href="#md16d08b43b" x="255.837936" y="186.948057" style="fill: #254b6d; stroke: #254b6d"/>
     <use xlink:href="#md16d08b43b" x="273.954819" y="144.053054" style="fill: #254b6d; stroke: #254b6d"/>
     <use xlink:href="#md16d08b43b" x="292.071703" y="189.437169" style="fill: #254b6d; stroke: #254b6d"/>
     <use xlink:href="#md16d08b43b" x="310.188586" y="202.924785" style="fill: #254b6d; stroke: #254b6d"/>
     <use xlink:href="#md16d08b43b" x="328.305469" y="136.059238" style="fill: #254b6d; stroke: #254b6d"/>
     <use xlink:href="#md16d08b43b" x="346.422352" y="167.580825" style="fill: #254b6d; stroke: #254b6d"/>
     <use xlink:href="#md16d08b43b" x="364.539235" y="142.3569" style="fill: #254b6d; stroke: #254b6d"/>
     <use xlink:href="#md16d08b43b" x="382.656118" y="125.663525" style="fill: #254b6d; stroke: #254b6d"/>
     <use xlink:href="#md16d08b43b" x="400.773001" y="121.425872" style="fill: #254b6d; stroke: #254b6d"/>
     <use xlink:href="#md16d08b43b" x="418.889884" y="167.775413" style="fill: #254b6d; stroke: #254b6d"/>
     <use xlink:href="#md16d08b43b" x="437.006767" y="155.546939" style="fill: #254b6d; stroke: #254b6d"/>
     <use xlink:href="#md16d08b43b" x="455.123651" y="166.446336" style="fill: #254b6d; stroke: #254b6d"/>
     <use xlink:href="#md16d08b43b" x="473.240534" y="138.129292" style="fill: #254b6d; stroke: #254b6d"/>
     <use xlink:href="#md16d08b43b" x="509.4743" y="176.867176" style="fill: #254b6d; stroke: #254b6d"/>
     <use xlink:href="#md16d08b43b" x="527.591183" y="194.500474" style="fill: #254b6d; stroke: #254b6d"/>
     <use xlink:href="#md16d08b43b" x="545.708066" y="160.770738" style="fill: #254b6d; stroke: #254b6d"/>
     <use xlink:href="#md16d08b43b" x="563.824949" y="174.67933" style="fill: #254b6d; stroke: #254b6d"/>
     <use xlink:href="#md16d08b43b" x="581.941832" y="165.257813" style="fill: #254b6d; stroke: #254b6d"/>
    </g>
   </g>
   <g id="line2d_19">
    <path d="M 49.305469 169.30637 
L 607.305469 169.30637 
" clip-path="url(#pf9fb1e5bb1)" style="fill: none; stroke: #808080; stroke-width: 0.8; stroke-linecap: square"/>
   </g>
   <g id="line2d_20">
    <path d="M 500.415858 299.518125 
L 500.415858 22.318125 
" clip-path="url(#pf9fb1e5bb1)" style="fill: none; stroke-dasharray: 5.55,2.4; stroke-dashoffset: 0; stroke: #b90000; stroke-opacity: 0.6; stroke-width: 1.5"/>
   </g>
   <g id="patch_3">
    <path d="M 49.305469 299.518125 
L 49.305469 22.318125 
" style="fill: none; stroke: #000000; stroke-width: 0.8; stroke-linejoin: miter; stroke-linecap: square"/>
   </g>
   <g id="patch_4">
    <path d="M 607.305469 299.518125 
L 607.305469 22.318125 
" style="fill: none; stroke: #000000; stroke-width: 0.8; stroke-linejoin: miter; stroke-linecap: square"/>
   </g>
   <g id="patch_5">
    <path d="M 49.305469 299.518125 
L 607.305469 299.518125 
" style="fill: none; stroke: #000000; stroke-width: 0.8; stroke-linejoin: miter; stroke-linecap: square"/>
   </g>
   <g id="patch_6">
    <path d="M 49.305469 22.318125 
L 607.305469 22.318125 
" style="fill: none; stroke: #000000; stroke-width: 0.8; stroke-linejoin: miter; stroke-linecap: square"/>
   </g>
   <g id="text_15">
    <!-- Hendelsesstudie — atid3 (sesongjustert) -->
    <g transform="translate(206.331094 16.318125) scale(0.12 -0.12)">
     <defs>
      <path id="DejaVuSans-2b" d="M 628 4666 
L 1259 4666 
L 1259 2753 
L 3553 2753 
L 3553 4666 
L 4184 4666 
L 4184 0 
L 3553 0 
L 3553 2222 
L 1259 2222 
L 1259 0 
L 628 0 
L 628 4666 
z
" transform="scale(0.015625)"/>
      <path id="DejaVuSans-58" d="M 544 1381 
L 544 3500 
L 1119 3500 
L 1119 1403 
Q 1119 906 1312 657 
Q 1506 409 1894 409 
Q 2359 409 2629 706 
Q 2900 1003 2900 1516 
L 2900 3500 
L 3475 3500 
L 3475 0 
L 2900 0 
L 2900 538 
Q 2691 219 2414 64 
Q 2138 -91 1772 -91 
Q 1169 -91 856 284 
Q 544 659 544 1381 
z
M 1991 3584 
L 1991 3584 
z
" transform="scale(0.015625)"/>
      <path id="DejaVuSans-af6" d="M 313 1978 
L 6088 1978 
L 6088 1528 
L 313 1528 
L 313 1978 
z
" transform="scale(0.015625)"/>
      <path id="DejaVuSans-16" d="M 2597 2516 
Q 3050 2419 3304 2112 
Q 3559 1806 3559 1356 
Q 3559 666 3084 287 
Q 2609 -91 1734 -91 
Q 1441 -91 1130 -33 
Q 819 25 488 141 
L 488 750 
Q 750 597 1062 519 
Q 1375 441 1716 441 
Q 2309 441 2620 675 
Q 2931 909 2931 1356 
Q 2931 1769 2642 2001 
Q 2353 2234 1838 2234 
L 1294 2234 
L 1294 2753 
L 1863 2753 
Q 2328 2753 2575 2939 
Q 2822 3125 2822 3475 
Q 2822 3834 2567 4026 
Q 2313 4219 1838 4219 
Q 1578 4219 1281 4162 
Q 984 4106 628 3988 
L 628 4550 
Q 988 4650 1302 4700 
Q 1616 4750 1894 4750 
Q 2613 4750 3031 4423 
Q 3450 4097 3450 3541 
Q 3450 3153 3228 2886 
Q 3006 2619 2597 2516 
z
" transform="scale(0.015625)"/>
      <path id="DejaVuSans-4a" d="M 2906 1791 
Q 2906 2416 2648 2759 
Q 2391 3103 1925 3103 
Q 1463 3103 1205 2759 
Q 947 2416 947 1791 
Q 947 1169 1205 825 
Q 1463 481 1925 481 
Q 2391 481 2648 825 
Q 2906 1169 2906 1791 
z
M 3481 434 
Q 3481 -459 3084 -895 
Q 2688 -1331 1869 -1331 
Q 1566 -1331 1297 -1286 
Q 1028 -1241 775 -1147 
L 775 -588 
Q 1028 -725 1275 -790 
Q 1522 -856 1778 -856 
Q 2344 -856 2625 -561 
Q 2906 -266 2906 331 
L 2906 616 
Q 2728 306 2450 153 
Q 2172 0 1784 0 
Q 1141 0 747 490 
Q 353 981 353 1791 
Q 353 2603 747 3093 
Q 1141 3584 1784 3584 
Q 2172 3584 2450 3431 
Q 2728 3278 2906 2969 
L 2906 3500 
L 3481 3500 
L 3481 434 
z
" transform="scale(0.015625)"/>
      <path id="DejaVuSans-4d" d="M 603 3500 
L 1178 3500 
L 1178 -63 
Q 1178 -731 923 -1031 
Q 669 -1331 103 -1331 
L -116 -1331 
L -116 -844 
L 38 -844 
Q 366 -844 484 -692 
Q 603 -541 603 -63 
L 603 3500 
z
M 603 4863 
L 1178 4863 
L 1178 4134 
L 603 4134 
L 603 4863 
z
" transform="scale(0.015625)"/>
      <path id="DejaVuSans-55" d="M 2631 2963 
Q 2534 3019 2420 3045 
Q 2306 3072 2169 3072 
Q 1681 3072 1420 2755 
Q 1159 2438 1159 1844 
L 1159 0 
L 581 0 
L 581 3500 
L 1159 3500 
L 1159 2956 
Q 1341 3275 1631 3429 
Q 1922 3584 2338 3584 
Q 2397 3584 2469 3576 
Q 2541 3569 2628 3553 
L 2631 2963 
z
" transform="scale(0.015625)"/>
     </defs>
     <use xlink:href="#DejaVuSans-2b"/>
     <use xlink:href="#DejaVuSans-48" transform="translate(75.203125 0)"/>
     <use xlink:href="#DejaVuSans-51" transform="translate(136.734375 0)"/>
     <use xlink:href="#DejaVuSans-47" transform="translate(200.109375 0)"/>
     <use xlink:href="#DejaVuSans-48" transform="translate(263.59375 0)"/>
     <use xlink:href="#DejaVuSans-4f" transform="translate(325.125 0)"/>
     <use xlink:href="#DejaVuSans-56" transform="translate(352.90625 0)"/>
     <use xlink:href="#DejaVuSans-48" transform="translate(405 0)"/>
     <use xlink:href="#DejaVuSans-56" transform="translate(466.53125 0)"/>
     <use xlink:href="#DejaVuSans-56" transform="translate(518.625 0)"/>
     <use xlink:href="#DejaVuSans-57" transform="translate(570.71875 0)"/>
     <use xlink:href="#DejaVuSans-58" transform="translate(609.921875 0)"/>
     <use xlink:href="#DejaVuSans-47" transform="translate(673.296875 0)"/>
     <use xlink:href="#DejaVuSans-4c" transform="translate(736.78125 0)"/>
     <use xlink:href="#DejaVuSans-48" transform="translate(764.5625 0)"/>
     <use xlink:href="#DejaVuSans-3" transform="translate(826.09375 0)"/>
     <use xlink:href="#DejaVuSans-af6" transform="translate(857.875 0)"/>
     <use xlink:href="#DejaVuSans-3" transform="translate(957.875 0)"/>
     <use xlink:href="#DejaVuSans-44" transform="translate(989.65625 0)"/>
     <use xlink:href="#DejaVuSans-57" transform="translate(1050.9375 0)"/>
     <use xlink:href="#DejaVuSans-4c" transform="translate(1090.140625 0)"/>
     <use xlink:href="#DejaVuSans-47" transform="translate(1117.921875 0)"/>
     <use xlink:href="#DejaVuSans-16" transform="translate(1181.40625 0)"/>
     <use xlink:href="#DejaVuSans-3" transform="translate(1245.03125 0)"/>
     <use xlink:href="#DejaVuSans-b" transform="translate(1276.8125 0)"/>
     <use xlink:href="#DejaVuSans-56" transform="translate(1315.828125 0)"/>
     <use xlink:href="#DejaVuSans-48" transform="translate(1367.921875 0)"/>
     <use xlink:href="#DejaVuSans-56" transform="translate(1429.453125 0)"/>
     <use xlink:href="#DejaVuSans-52" transform="translate(1481.546875 0)"/>
     <use xlink:href="#DejaVuSans-51" transform="translate(1542.734375 0)"/>
     <use xlink:href="#DejaVuSans-4a" transform="translate(1606.109375 0)"/>
     <use xlink:href="#DejaVuSans-4d" transform="translate(1669.59375 0)"/>
     <use xlink:href="#DejaVuSans-58" transform="translate(1697.375 0)"/>
     <use xlink:href="#DejaVuSans-56" transform="translate(1760.75 0)"/>
     <use xlink:href="#DejaVuSans-57" transform="translate(1812.84375 0)"/>
     <use xlink:href="#DejaVuSans-48" transform="translate(1852.046875 0)"/>
     <use xlink:href="#DejaVuSans-55" transform="translate(1913.578125 0)"/>
     <use xlink:href="#DejaVuSans-57" transform="translate(1954.6875 0)"/>
     <use xlink:href="#DejaVuSans-c" transform="translate(1993.890625 0)"/>
    </g>
   </g>
  </g>
 </g>
 <defs>
  <clipPath id="pf9fb1e5bb1">
   <rect x="49.305469" y="22.318125" width="558" height="277.2"/>
  </clipPath>
 </defs>
</svg>
