<?xml version="1.0" encoding="utf-8" standalone="no"?>
<!DOCTYPE svg PUBLIC "-//W3C//DTD SVG 1.1//EN"
  "http://www.w3.org/Graphics/SVG/1.1/DTD/svg11.dtd">
<svg xmlns:xlink="http://www.w3.org/1999/xlink" width="616.311563pt" height="324.156094pt" viewBox="0 0 616.311563 324.156094" xmlns="http://www.w3.org/2000/svg" version="1.1">
 <metadata>
  <rdf:RDF xmlns:dc="http://purl.org/dc/elements/1.1/" xmlns:cc="http://creativecommons.org/ns#" xmlns:rdf="http://www.w3.org/1999/02/22-rdf-syntax-ns#">
   <cc:Work>
    <dc:type rdf:resource="http://purl.org/dc/dcmitype/StillImage"/>
    <dc:date>2026-04-15T12:45:35.046386</dc:date>
    <dc:format>image/svg+xml</dc:format>
    <dc:creator>
     <cc:Agent>
      <dc:title>Matplotlib v3.10.8, https://matplotlib.org/</dc:title>
     </cc:Agent>
    </dc:creator>
   </cc:Work>
  </rdf:RDF>
 </metadata>
 <defs>
  <style type="text/css">*{stroke-linejoin: round; stroke-linecap: butt}</style>
 </defs>
 <g id="figure_1">
  <g id="patch_1">
   <path d="M 0 324.156094 
L 616.311563 324.156094 
L 616.311563 0 
L 0 0 
z
" style="fill: #ffffff"/>
  </g>
  <g id="axes_1">
   <g id="patch_2">
    <path d="M 51.111563 300.277969 
L 609.111562 300.277969 
L 609.111562 23.077969 
L 51.111563 23.077969 
z
" style="fill: #ffffff"/>
   </g>
   <g id="matplotlib.axis_1">
    <g id="xtick_1">
     <g id="line2d_1">
      <defs>
       <path id="m79e485e795" d="M 0 0 
L 0 3.5 
" style="stroke: #000000; stroke-width: 0.8"/>
      </defs>
      <g>
       <use xlink:href="#m79e485e795" x="102.460216" y="300.277969" style="stroke: #000000; stroke-width: 0.8"/>
      </g>
     </g>
     <g id="text_1">
      <!-- 2021 -->
      <g transform="translate(89.735216 314.876406) scale(0.1 -0.1)">
       <defs>
        <path id="DejaVuSans-32" d="M 1228 531 
L 3431 531 
L 3431 0 
L 469 0 
L 469 531 
Q 828 903 1448 1529 
Q 2069 2156 2228 2338 
Q 2531 2678 2651 2914 
Q 2772 3150 2772 3378 
Q 2772 3750 2511 3984 
Q 2250 4219 1831 4219 
Q 1534 4219 1204 4116 
Q 875 4013 500 3803 
L 500 4441 
Q 881 4594 1212 4672 
Q 1544 4750 1819 4750 
Q 2544 4750 2975 4387 
Q 3406 4025 3406 3419 
Q 3406 3131 3298 2873 
Q 3191 2616 2906 2266 
Q 2828 2175 2409 1742 
Q 1991 1309 1228 531 
z
" transform="scale(0.015625)"/>
        <path id="DejaVuSans-30" d="M 2034 4250 
Q 1547 4250 1301 3770 
Q 1056 3291 1056 2328 
Q 1056 1369 1301 889 
Q 1547 409 2034 409 
Q 2525 409 2770 889 
Q 3016 1369 3016 2328 
Q 3016 3291 2770 3770 
Q 2525 4250 2034 4250 
z
M 2034 4750 
Q 2819 4750 3233 4129 
Q 3647 3509 3647 2328 
Q 3647 1150 3233 529 
Q 2819 -91 2034 -91 
Q 1250 -91 836 529 
Q 422 1150 422 2328 
Q 422 3509 836 4129 
Q 1250 4750 2034 4750 
z
" transform="scale(0.015625)"/>
        <path id="DejaVuSans-31" d="M 794 531 
L 1825 531 
L 1825 4091 
L 703 3866 
L 703 4441 
L 1819 4666 
L 2450 4666 
L 2450 531 
L 3481 531 
L 3481 0 
L 794 0 
L 794 531 
z
" transform="scale(0.015625)"/>
       </defs>
       <use xlink:href="#DejaVuSans-32"/>
       <use xlink:href="#DejaVuSans-30" transform="translate(63.623047 0)"/>
       <use xlink:href="#DejaVuSans-32" transform="translate(127.246094 0)"/>
       <use xlink:href="#DejaVuSans-31" transform="translate(190.869141 0)"/>
      </g>
     </g>
    </g>
    <g id="xtick_2">
     <g id="line2d_2">
      <g>
       <use xlink:href="#m79e485e795" x="205.552947" y="300.277969" style="stroke: #000000; stroke-width: 0.8"/>
      </g>
     </g>
     <g id="text_2">
      <!-- 2022 -->
      <g transform="translate(192.827947 314.876406) scale(0.1 -0.1)">
       <use xlink:href="#DejaVuSans-32"/>
       <use xlink:href="#DejaVuSans-30" transform="translate(63.623047 0)"/>
       <use xlink:href="#DejaVuSans-32" transform="translate(127.246094 0)"/>
       <use xlink:href="#DejaVuSans-32" transform="translate(190.869141 0)"/>
      </g>
     </g>
    </g>
    <g id="xtick_3">
     <g id="line2d_3">
      <g>
       <use xlink:href="#m79e485e795" x="308.645679" y="300.277969" style="stroke: #000000; stroke-width: 0.8"/>
      </g>
     </g>
     <g id="text_3">
      <!-- 2023 -->
      <g transform="translate(295.920679 314.876406) scale(0.1 -0.1)">
       <defs>
        <path id="DejaVuSans-33" d="M 2597 2516 
Q 3050 2419 3304 2112 
Q 3559 1806 3559 1356 
Q 3559 666 3084 287 
Q 2609 -91 1734 -91 
Q 1441 -91 1130 -33 
Q 819 25 488 141 
L 488 750 
Q 750 597 1062 519 
Q 1375 441 1716 441 
Q 2309 441 2620 675 
Q 2931 909 2931 1356 
Q 2931 1769 2642 2001 
Q 2353 2234 1838 2234 
L 1294 2234 
L 1294 2753 
L 1863 2753 
Q 2328 2753 2575 2939 
Q 2822 3125 2822 3475 
Q 2822 3834 2567 4026 
Q 2313 4219 1838 4219 
Q 1578 4219 1281 4162 
Q 984 4106 628 3988 
L 628 4550 
Q 988 4650 1302 4700 
Q 1616 4750 1894 4750 
Q 2613 4750 3031 4423 
Q 3450 4097 3450 3541 
Q 3450 3153 3228 2886 
Q 3006 2619 2597 2516 
z
" transform="scale(0.015625)"/>
       </defs>
       <use xlink:href="#DejaVuSans-32"/>
       <use xlink:href="#DejaVuSans-30" transform="translate(63.623047 0)"/>
       <use xlink:href="#DejaVuSans-32" transform="translate(127.246094 0)"/>
       <use xlink:href="#DejaVuSans-33" transform="translate(190.869141 0)"/>
      </g>
     </g>
    </g>
    <g id="xtick_4">
     <g id="line2d_4">
      <g>
       <use xlink:href="#m79e485e795" x="411.73841" y="300.277969" style="stroke: #000000; stroke-width: 0.8"/>
      </g>
     </g>
     <g id="text_4">
      <!-- 2024 -->
      <g transform="translate(399.01341 314.876406) scale(0.1 -0.1)">
       <defs>
        <path id="DejaVuSans-34" d="M 2419 4116 
L 825 1625 
L 2419 1625 
L 2419 4116 
z
M 2253 4666 
L 3047 4666 
L 3047 1625 
L 3713 1625 
L 3713 1100 
L 3047 1100 
L 3047 0 
L 2419 0 
L 2419 1100 
L 313 1100 
L 313 1709 
L 2253 4666 
z
" transform="scale(0.015625)"/>
       </defs>
       <use xlink:href="#DejaVuSans-32"/>
       <use xlink:href="#DejaVuSans-30" transform="translate(63.623047 0)"/>
       <use xlink:href="#DejaVuSans-32" transform="translate(127.246094 0)"/>
       <use xlink:href="#DejaVuSans-34" transform="translate(190.869141 0)"/>
      </g>
     </g>
    </g>
    <g id="xtick_5">
     <g id="line2d_5">
      <g>
       <use xlink:href="#m79e485e795" x="515.113587" y="300.277969" style="stroke: #000000; stroke-width: 0.8"/>
      </g>
     </g>
     <g id="text_5">
      <!-- 2025 -->
      <g transform="translate(502.388587 314.876406) scale(0.1 -0.1)">
       <defs>
        <path id="DejaVuSans-35" d="M 691 4666 
L 3169 4666 
L 3169 4134 
L 1269 4134 
L 1269 2991 
Q 1406 3038 1543 3061 
Q 1681 3084 1819 3084 
Q 2600 3084 3056 2656 
Q 3513 2228 3513 1497 
Q 3513 744 3044 326 
Q 2575 -91 1722 -91 
Q 1428 -91 1123 -41 
Q 819 9 494 109 
L 494 744 
Q 775 591 1075 516 
Q 1375 441 1709 441 
Q 2250 441 2565 725 
Q 2881 1009 2881 1497 
Q 2881 1984 2565 2268 
Q 2250 2553 1709 2553 
Q 1456 2553 1204 2497 
Q 953 2441 691 2322 
L 691 4666 
z
" transform="scale(0.015625)"/>
       </defs>
       <use xlink:href="#DejaVuSans-32"/>
       <use xlink:href="#DejaVuSans-30" transform="translate(63.623047 0)"/>
       <use xlink:href="#DejaVuSans-32" transform="translate(127.246094 0)"/>
       <use xlink:href="#DejaVuSans-35" transform="translate(190.869141 0)"/>
      </g>
     </g>
    </g>
   </g>
   <g id="matplotlib.axis_2">
    <g id="ytick_1">
     <g id="line2d_6">
      <defs>
       <path id="m11f4c312b6" d="M 0 0 
L -3.5 0 
" style="stroke: #000000; stroke-width: 0.8"/>
      </defs>
      <g>
       <use xlink:href="#m11f4c312b6" x="51.111563" y="250.351797" style="stroke: #000000; stroke-width: 0.8"/>
      </g>
     </g>
     <g id="text_6">
      <!-- 8.0 -->
      <g transform="translate(28.208438 254.151016) scale(0.1 -0.1)">
       <defs>
        <path id="DejaVuSans-38" d="M 2034 2216 
Q 1584 2216 1326 1975 
Q 1069 1734 1069 1313 
Q 1069 891 1326 650 
Q 1584 409 2034 409 
Q 2484 409 2743 651 
Q 3003 894 3003 1313 
Q 3003 1734 2745 1975 
Q 2488 2216 2034 2216 
z
M 1403 2484 
Q 997 2584 770 2862 
Q 544 3141 544 3541 
Q 544 4100 942 4425 
Q 1341 4750 2034 4750 
Q 2731 4750 3128 4425 
Q 3525 4100 3525 3541 
Q 3525 3141 3298 2862 
Q 3072 2584 2669 2484 
Q 3125 2378 3379 2068 
Q 3634 1759 3634 1313 
Q 3634 634 3220 271 
Q 2806 -91 2034 -91 
Q 1263 -91 848 271 
Q 434 634 434 1313 
Q 434 1759 690 2068 
Q 947 2378 1403 2484 
z
M 1172 3481 
Q 1172 3119 1398 2916 
Q 1625 2713 2034 2713 
Q 2441 2713 2670 2916 
Q 2900 3119 2900 3481 
Q 2900 3844 2670 4047 
Q 2441 4250 2034 4250 
Q 1625 4250 1398 4047 
Q 1172 3844 1172 3481 
z
" transform="scale(0.015625)"/>
        <path id="DejaVuSans-2e" d="M 684 794 
L 1344 794 
L 1344 0 
L 684 0 
L 684 794 
z
" transform="scale(0.015625)"/>
       </defs>
       <use xlink:href="#DejaVuSans-38"/>
       <use xlink:href="#DejaVuSans-2e" transform="translate(63.623047 0)"/>
       <use xlink:href="#DejaVuSans-30" transform="translate(95.410156 0)"/>
      </g>
     </g>
    </g>
    <g id="ytick_2">
     <g id="line2d_7">
      <g>
       <use xlink:href="#m11f4c312b6" x="51.111563" y="199.225808" style="stroke: #000000; stroke-width: 0.8"/>
      </g>
     </g>
     <g id="text_7">
      <!-- 8.5 -->
      <g transform="translate(28.208438 203.025027) scale(0.1 -0.1)">
       <use xlink:href="#DejaVuSans-38"/>
       <use xlink:href="#DejaVuSans-2e" transform="translate(63.623047 0)"/>
       <use xlink:href="#DejaVuSans-35" transform="translate(95.410156 0)"/>
      </g>
     </g>
    </g>
    <g id="ytick_3">
     <g id="line2d_8">
      <g>
       <use xlink:href="#m11f4c312b6" x="51.111563" y="148.099819" style="stroke: #000000; stroke-width: 0.8"/>
      </g>
     </g>
     <g id="text_8">
      <!-- 9.0 -->
      <g transform="translate(28.208438 151.899038) scale(0.1 -0.1)">
       <defs>
        <path id="DejaVuSans-39" d="M 703 97 
L 703 672 
Q 941 559 1184 500 
Q 1428 441 1663 441 
Q 2288 441 2617 861 
Q 2947 1281 2994 2138 
Q 2813 1869 2534 1725 
Q 2256 1581 1919 1581 
Q 1219 1581 811 2004 
Q 403 2428 403 3163 
Q 403 3881 828 4315 
Q 1253 4750 1959 4750 
Q 2769 4750 3195 4129 
Q 3622 3509 3622 2328 
Q 3622 1225 3098 567 
Q 2575 -91 1691 -91 
Q 1453 -91 1209 -44 
Q 966 3 703 97 
z
M 1959 2075 
Q 2384 2075 2632 2365 
Q 2881 2656 2881 3163 
Q 2881 3666 2632 3958 
Q 2384 4250 1959 4250 
Q 1534 4250 1286 3958 
Q 1038 3666 1038 3163 
Q 1038 2656 1286 2365 
Q 1534 2075 1959 2075 
z
" transform="scale(0.015625)"/>
       </defs>
       <use xlink:href="#DejaVuSans-39"/>
       <use xlink:href="#DejaVuSans-2e" transform="translate(63.623047 0)"/>
       <use xlink:href="#DejaVuSans-30" transform="translate(95.410156 0)"/>
      </g>
     </g>
    </g>
    <g id="ytick_4">
     <g id="line2d_9">
      <g>
       <use xlink:href="#m11f4c312b6" x="51.111563" y="96.97383" style="stroke: #000000; stroke-width: 0.8"/>
      </g>
     </g>
     <g id="text_9">
      <!-- 9.5 -->
      <g transform="translate(28.208438 100.773049) scale(0.1 -0.1)">
       <use xlink:href="#DejaVuSans-39"/>
       <use xlink:href="#DejaVuSans-2e" transform="translate(63.623047 0)"/>
       <use xlink:href="#DejaVuSans-35" transform="translate(95.410156 0)"/>
      </g>
     </g>
    </g>
    <g id="ytick_5">
     <g id="line2d_10">
      <g>
       <use xlink:href="#m11f4c312b6" x="51.111563" y="45.847841" style="stroke: #000000; stroke-width: 0.8"/>
      </g>
     </g>
     <g id="text_10">
      <!-- 10.0 -->
      <g transform="translate(21.845938 49.64706) scale(0.1 -0.1)">
       <use xlink:href="#DejaVuSans-31"/>
       <use xlink:href="#DejaVuSans-30" transform="translate(63.623047 0)"/>
       <use xlink:href="#DejaVuSans-2e" transform="translate(127.246094 0)"/>
       <use xlink:href="#DejaVuSans-30" transform="translate(159.033203 0)"/>
      </g>
     </g>
    </g>
    <g id="text_11">
     <!-- Gjennomsnitt (%) -->
     <g transform="translate(15.558281 210.002344) rotate(-90) scale(0.11 -0.11)">
      <defs>
       <path id="DejaVuSans-47" d="M 3809 666 
L 3809 1919 
L 2778 1919 
L 2778 2438 
L 4434 2438 
L 4434 434 
Q 4069 175 3628 42 
Q 3188 -91 2688 -91 
Q 1594 -91 976 548 
Q 359 1188 359 2328 
Q 359 3472 976 4111 
Q 1594 4750 2688 4750 
Q 3144 4750 3555 4637 
Q 3966 4525 4313 4306 
L 4313 3634 
Q 3963 3931 3569 4081 
Q 3175 4231 2741 4231 
Q 1884 4231 1454 3753 
Q 1025 3275 1025 2328 
Q 1025 1384 1454 906 
Q 1884 428 2741 428 
Q 3075 428 3337 486 
Q 3600 544 3809 666 
z
" transform="scale(0.015625)"/>
       <path id="DejaVuSans-6a" d="M 603 3500 
L 1178 3500 
L 1178 -63 
Q 1178 -731 923 -1031 
Q 669 -1331 103 -1331 
L -116 -1331 
L -116 -844 
L 38 -844 
Q 366 -844 484 -692 
Q 603 -541 603 -63 
L 603 3500 
z
M 603 4863 
L 1178 4863 
L 1178 4134 
L 603 4134 
L 603 4863 
z
" transform="scale(0.015625)"/>
       <path id="DejaVuSans-65" d="M 3597 1894 
L 3597 1613 
L 953 1613 
Q 991 1019 1311 708 
Q 1631 397 2203 397 
Q 2534 397 2845 478 
Q 3156 559 3463 722 
L 3463 178 
Q 3153 47 2828 -22 
Q 2503 -91 2169 -91 
Q 1331 -91 842 396 
Q 353 884 353 1716 
Q 353 2575 817 3079 
Q 1281 3584 2069 3584 
Q 2775 3584 3186 3129 
Q 3597 2675 3597 1894 
z
M 3022 2063 
Q 3016 2534 2758 2815 
Q 2500 3097 2075 3097 
Q 1594 3097 1305 2825 
Q 1016 2553 972 2059 
L 3022 2063 
z
" transform="scale(0.015625)"/>
       <path id="DejaVuSans-6e" d="M 3513 2113 
L 3513 0 
L 2938 0 
L 2938 2094 
Q 2938 2591 2744 2837 
Q 2550 3084 2163 3084 
Q 1697 3084 1428 2787 
Q 1159 2491 1159 1978 
L 1159 0 
L 581 0 
L 581 3500 
L 1159 3500 
L 1159 2956 
Q 1366 3272 1645 3428 
Q 1925 3584 2291 3584 
Q 2894 3584 3203 3211 
Q 3513 2838 3513 2113 
z
" transform="scale(0.015625)"/>
       <path id="DejaVuSans-6f" d="M 1959 3097 
Q 1497 3097 1228 2736 
Q 959 2375 959 1747 
Q 959 1119 1226 758 
Q 1494 397 1959 397 
Q 2419 397 2687 759 
Q 2956 1122 2956 1747 
Q 2956 2369 2687 2733 
Q 2419 3097 1959 3097 
z
M 1959 3584 
Q 2709 3584 3137 3096 
Q 3566 2609 3566 1747 
Q 3566 888 3137 398 
Q 2709 -91 1959 -91 
Q 1206 -91 779 398 
Q 353 888 353 1747 
Q 353 2609 779 3096 
Q 1206 3584 1959 3584 
z
" transform="scale(0.015625)"/>
       <path id="DejaVuSans-6d" d="M 3328 2828 
Q 3544 3216 3844 3400 
Q 4144 3584 4550 3584 
Q 5097 3584 5394 3201 
Q 5691 2819 5691 2113 
L 5691 0 
L 5113 0 
L 5113 2094 
Q 5113 2597 4934 2840 
Q 4756 3084 4391 3084 
Q 3944 3084 3684 2787 
Q 3425 2491 3425 1978 
L 3425 0 
L 2847 0 
L 2847 2094 
Q 2847 2600 2669 2842 
Q 2491 3084 2119 3084 
Q 1678 3084 1418 2786 
Q 1159 2488 1159 1978 
L 1159 0 
L 581 0 
L 581 3500 
L 1159 3500 
L 1159 2956 
Q 1356 3278 1631 3431 
Q 1906 3584 2284 3584 
Q 2666 3584 2933 3390 
Q 3200 3197 3328 2828 
z
" transform="scale(0.015625)"/>
       <path id="DejaVuSans-73" d="M 2834 3397 
L 2834 2853 
Q 2591 2978 2328 3040 
Q 2066 3103 1784 3103 
Q 1356 3103 1142 2972 
Q 928 2841 928 2578 
Q 928 2378 1081 2264 
Q 1234 2150 1697 2047 
L 1894 2003 
Q 2506 1872 2764 1633 
Q 3022 1394 3022 966 
Q 3022 478 2636 193 
Q 2250 -91 1575 -91 
Q 1294 -91 989 -36 
Q 684 19 347 128 
L 347 722 
Q 666 556 975 473 
Q 1284 391 1588 391 
Q 1994 391 2212 530 
Q 2431 669 2431 922 
Q 2431 1156 2273 1281 
Q 2116 1406 1581 1522 
L 1381 1569 
Q 847 1681 609 1914 
Q 372 2147 372 2553 
Q 372 3047 722 3315 
Q 1072 3584 1716 3584 
Q 2034 3584 2315 3537 
Q 2597 3491 2834 3397 
z
" transform="scale(0.015625)"/>
       <path id="DejaVuSans-69" d="M 603 3500 
L 1178 3500 
L 1178 0 
L 603 0 
L 603 3500 
z
M 603 4863 
L 1178 4863 
L 1178 4134 
L 603 4134 
L 603 4863 
z
" transform="scale(0.015625)"/>
       <path id="DejaVuSans-74" d="M 1172 4494 
L 1172 3500 
L 2356 3500 
L 2356 3053 
L 1172 3053 
L 1172 1153 
Q 1172 725 1289 603 
Q 1406 481 1766 481 
L 2356 481 
L 2356 0 
L 1766 0 
Q 1100 0 847 248 
Q 594 497 594 1153 
L 594 3053 
L 172 3053 
L 172 3500 
L 594 3500 
L 594 4494 
L 1172 4494 
z
" transform="scale(0.015625)"/>
       <path id="DejaVuSans-20" transform="scale(0.015625)"/>
       <path id="DejaVuSans-28" d="M 1984 4856 
Q 1566 4138 1362 3434 
Q 1159 2731 1159 2009 
Q 1159 1288 1364 580 
Q 1569 -128 1984 -844 
L 1484 -844 
Q 1016 -109 783 600 
Q 550 1309 550 2009 
Q 550 2706 781 3412 
Q 1013 4119 1484 4856 
L 1984 4856 
z
" transform="scale(0.015625)"/>
       <path id="DejaVuSans-25" d="M 4653 2053 
Q 4381 2053 4226 1822 
Q 4072 1591 4072 1178 
Q 4072 772 4226 539 
Q 4381 306 4653 306 
Q 4919 306 5073 539 
Q 5228 772 5228 1178 
Q 5228 1588 5073 1820 
Q 4919 2053 4653 2053 
z
M 4653 2450 
Q 5147 2450 5437 2106 
Q 5728 1763 5728 1178 
Q 5728 594 5436 251 
Q 5144 -91 4653 -91 
Q 4153 -91 3862 251 
Q 3572 594 3572 1178 
Q 3572 1766 3864 2108 
Q 4156 2450 4653 2450 
z
M 1428 4353 
Q 1159 4353 1004 4120 
Q 850 3888 850 3481 
Q 850 3069 1003 2837 
Q 1156 2606 1428 2606 
Q 1700 2606 1854 2837 
Q 2009 3069 2009 3481 
Q 2009 3884 1853 4118 
Q 1697 4353 1428 4353 
z
M 4250 4750 
L 4750 4750 
L 1831 -91 
L 1331 -91 
L 4250 4750 
z
M 1428 4750 
Q 1922 4750 2215 4408 
Q 2509 4066 2509 3481 
Q 2509 2891 2217 2550 
Q 1925 2209 1428 2209 
Q 931 2209 642 2551 
Q 353 2894 353 3481 
Q 353 4063 643 4406 
Q 934 4750 1428 4750 
z
" transform="scale(0.015625)"/>
       <path id="DejaVuSans-29" d="M 513 4856 
L 1013 4856 
Q 1481 4119 1714 3412 
Q 1947 2706 1947 2009 
Q 1947 1309 1714 600 
Q 1481 -109 1013 -844 
L 513 -844 
Q 928 -128 1133 580 
Q 1338 1288 1338 2009 
Q 1338 2731 1133 3434 
Q 928 4138 513 4856 
z
" transform="scale(0.015625)"/>
      </defs>
      <use xlink:href="#DejaVuSans-47"/>
      <use xlink:href="#DejaVuSans-6a" transform="translate(77.490234 0)"/>
      <use xlink:href="#DejaVuSans-65" transform="translate(105.273438 0)"/>
      <use xlink:href="#DejaVuSans-6e" transform="translate(166.796875 0)"/>
      <use xlink:href="#DejaVuSans-6e" transform="translate(230.175781 0)"/>
      <use xlink:href="#DejaVuSans-6f" transform="translate(293.554688 0)"/>
      <use xlink:href="#DejaVuSans-6d" transform="translate(354.736328 0)"/>
      <use xlink:href="#DejaVuSans-73" transform="translate(452.148438 0)"/>
      <use xlink:href="#DejaVuSans-6e" transform="translate(504.248047 0)"/>
      <use xlink:href="#DejaVuSans-69" transform="translate(567.626953 0)"/>
      <use xlink:href="#DejaVuSans-74" transform="translate(595.410156 0)"/>
      <use xlink:href="#DejaVuSans-74" transform="translate(634.619141 0)"/>
      <use xlink:href="#DejaVuSans-20" transform="translate(673.828125 0)"/>
      <use xlink:href="#DejaVuSans-28" transform="translate(705.615234 0)"/>
      <use xlink:href="#DejaVuSans-25" transform="translate(744.628906 0)"/>
      <use xlink:href="#DejaVuSans-29" transform="translate(839.648438 0)"/>
     </g>
    </g>
   </g>
   <g id="line2d_11">
    <path d="M 76.475199 97.955875 
L 85.23102 80.709375 
L 93.704395 93.207975 
L 102.460216 112.414305 
L 111.216037 116.0238 
L 119.124521 84.710835 
L 127.880342 58.902436 
L 136.353717 73.388133 
L 145.109538 92.093428 
L 153.582913 81.932138 
L 162.338734 92.187159 
L 171.094555 94.769022 
L 179.56793 153.632077 
L 188.323751 168.25411 
L 196.797126 171.737494 
L 205.552947 111.221365 
L 214.308768 138.996411 
L 222.217252 148.396776 
L 230.973073 170.885394 
L 239.446448 172.828182 
L 248.202269 169.27663 
L 256.675644 177.980829 
L 265.431465 184.009436 
L 274.187286 175.156118 
L 282.660662 205.81467 
L 291.416483 208.200549 
L 299.889858 199.669326 
L 308.645679 235.525686 
L 317.4015 218.326904 
L 325.309983 235.975595 
L 334.065804 237.724104 
L 342.539179 253.317531 
L 351.295 251.214548 
L 359.768376 257.140902 
L 368.524197 251.018565 
L 377.280018 247.073343 
L 385.753393 253.856058 
L 394.509214 261.541998 
L 402.982589 247.318748 
L 411.73841 259.094767 
L 420.494231 242.117531 
L 428.68516 252.029156 
L 437.440981 253.010775 
L 445.914357 237.110592 
L 454.670178 238.075169 
L 463.143553 233.605905 
L 471.899374 223.444615 
L 480.655195 233.661292 
L 489.12857 227.066039 
L 497.884391 219.618687 
L 506.357766 226.391176 
L 515.113587 220.068596 
L 523.869408 222.860075 
L 531.777892 217.212357 
L 540.533713 217.80201 
L 549.007088 201.680282 
L 557.762909 216.022826 
L 566.236284 200.305845 
L 574.992105 194.149423 
L 583.747926 186.2675 
" clip-path="url(#p7a75b20917)" style="fill: none; stroke: #c8102e; stroke-width: 2; stroke-linecap: square"/>
   </g>
   <g id="line2d_12">
    <path d="M 76.475199 97.946015 
L 85.23102 79.625869 
L 93.704395 100.505723 
L 102.460216 108.522278 
L 111.216037 114.684664 
L 119.124521 59.022095 
L 127.880342 35.677969 
L 136.353717 57.880282 
L 145.109538 78.865796 
L 153.582913 80.276021 
L 162.338734 92.2182 
L 171.094555 92.652771 
L 179.56793 167.56257 
L 188.323751 190.484055 
L 196.797126 185.852041 
L 205.552947 121.951371 
L 214.308768 168.554414 
L 222.217252 175.07809 
L 230.973073 197.849606 
L 239.446448 200.896715 
L 248.202269 203.630251 
L 256.675644 210.272369 
L 265.431465 213.932138 
L 274.187286 212.304627 
L 282.660662 244.456058 
L 291.416483 249.244859 
L 299.889858 244.033416 
L 308.645679 266.450458 
L 317.4015 239.432077 
L 325.309983 270.359892 
L 334.065804 269.443033 
L 342.539179 275.932625 
L 351.295 285.465918 
L 359.768376 285.206027 
L 368.524197 277.106818 
L 377.280018 273.11047 
L 385.753393 279.341024 
L 394.509214 278.096958 
L 402.982589 260.001767 
L 411.73841 283.509496 
L 420.494231 262.08089 
L 428.68516 285.084177 
L 437.440981 287.677969 
L 445.914357 272.626478 
L 454.670178 276.825625 
L 463.143553 269.033173 
L 471.899374 261.530434 
L 480.655195 266.719722 
L 489.12857 266.678821 
L 497.884391 258.532747 
L 506.357766 265.591541 
L 515.113587 275.550884 
L 523.869408 271.232442 
L 531.777892 266.440233 
L 540.533713 265.335912 
L 549.007088 248.648389 
L 557.762909 269.565735 
L 566.236284 245.208462 
L 574.992105 238.796411 
L 583.747926 218.38862 
" clip-path="url(#p7a75b20917)" style="fill: none; stroke: #003366; stroke-width: 2; stroke-linecap: square"/>
   </g>
   <g id="line2d_13">
    <path d="M 557.762909 300.277969 
L 557.762909 23.077969 
" clip-path="url(#p7a75b20917)" style="fill: none; stroke-dasharray: 3.7,1.6; stroke-dashoffset: 0; stroke: #000000"/>
   </g>
   <g id="patch_3">
    <path d="M 51.111563 300.277969 
L 51.111563 23.077969 
" style="fill: none; stroke: #000000; stroke-width: 0.8; stroke-linejoin: miter; stroke-linecap: square"/>
   </g>
   <g id="patch_4">
    <path d="M 51.111563 300.277969 
L 609.111563 300.277969 
" style="fill: none; stroke: #000000; stroke-width: 0.8; stroke-linejoin: miter; stroke-linecap: square"/>
   </g>
   <g id="text_12">
    <!-- Trender over tid — Arbeidstid neste tre måneder -->
    <g transform="translate(172.318984 17.077969) scale(0.13 -0.13)">
     <defs>
      <path id="DejaVuSans-54" d="M -19 4666 
L 3928 4666 
L 3928 4134 
L 2272 4134 
L 2272 0 
L 1638 0 
L 1638 4134 
L -19 4134 
L -19 4666 
z
" transform="scale(0.015625)"/>
      <path id="DejaVuSans-72" d="M 2631 2963 
Q 2534 3019 2420 3045 
Q 2306 3072 2169 3072 
Q 1681 3072 1420 2755 
Q 1159 2438 1159 1844 
L 1159 0 
L 581 0 
L 581 3500 
L 1159 3500 
L 1159 2956 
Q 1341 3275 1631 3429 
Q 1922 3584 2338 3584 
Q 2397 3584 2469 3576 
Q 2541 3569 2628 3553 
L 2631 2963 
z
" transform="scale(0.015625)"/>
      <path id="DejaVuSans-64" d="M 2906 2969 
L 2906 4863 
L 3481 4863 
L 3481 0 
L 2906 0 
L 2906 525 
Q 2725 213 2448 61 
Q 2172 -91 1784 -91 
Q 1150 -91 751 415 
Q 353 922 353 1747 
Q 353 2572 751 3078 
Q 1150 3584 1784 3584 
Q 2172 3584 2448 3432 
Q 2725 3281 2906 2969 
z
M 947 1747 
Q 947 1113 1208 752 
Q 1469 391 1925 391 
Q 2381 391 2643 752 
Q 2906 1113 2906 1747 
Q 2906 2381 2643 2742 
Q 2381 3103 1925 3103 
Q 1469 3103 1208 2742 
Q 947 2381 947 1747 
z
" transform="scale(0.015625)"/>
      <path id="DejaVuSans-76" d="M 191 3500 
L 800 3500 
L 1894 563 
L 2988 3500 
L 3597 3500 
L 2284 0 
L 1503 0 
L 191 3500 
z
" transform="scale(0.015625)"/>
      <path id="DejaVuSans-2014" d="M 313 1978 
L 6088 1978 
L 6088 1528 
L 313 1528 
L 313 1978 
z
" transform="scale(0.015625)"/>
      <path id="DejaVuSans-41" d="M 2188 4044 
L 1331 1722 
L 3047 1722 
L 2188 4044 
z
M 1831 4666 
L 2547 4666 
L 4325 0 
L 3669 0 
L 3244 1197 
L 1141 1197 
L 716 0 
L 50 0 
L 1831 4666 
z
" transform="scale(0.015625)"/>
      <path id="DejaVuSans-62" d="M 3116 1747 
Q 3116 2381 2855 2742 
Q 2594 3103 2138 3103 
Q 1681 3103 1420 2742 
Q 1159 2381 1159 1747 
Q 1159 1113 1420 752 
Q 1681 391 2138 391 
Q 2594 391 2855 752 
Q 3116 1113 3116 1747 
z
M 1159 2969 
Q 1341 3281 1617 3432 
Q 1894 3584 2278 3584 
Q 2916 3584 3314 3078 
Q 3713 2572 3713 1747 
Q 3713 922 3314 415 
Q 2916 -91 2278 -91 
Q 1894 -91 1617 61 
Q 1341 213 1159 525 
L 1159 0 
L 581 0 
L 581 4863 
L 1159 4863 
L 1159 2969 
z
" transform="scale(0.015625)"/>
      <path id="DejaVuSans-e5" d="M 2194 1759 
Q 1497 1759 1228 1600 
Q 959 1441 959 1056 
Q 959 750 1161 570 
Q 1363 391 1709 391 
Q 2188 391 2477 730 
Q 2766 1069 2766 1631 
L 2766 1759 
L 2194 1759 
z
M 3341 1997 
L 3341 0 
L 2766 0 
L 2766 531 
Q 2569 213 2275 61 
Q 1981 -91 1556 -91 
Q 1019 -91 701 211 
Q 384 513 384 1019 
Q 384 1609 779 1909 
Q 1175 2209 1959 2209 
L 2766 2209 
L 2766 2266 
Q 2766 2663 2505 2880 
Q 2244 3097 1772 3097 
Q 1472 3097 1187 3025 
Q 903 2953 641 2809 
L 641 3341 
Q 956 3463 1253 3523 
Q 1550 3584 1831 3584 
Q 2591 3584 2966 3190 
Q 3341 2797 3341 1997 
z
M 2331 4763 
Q 2331 4959 2193 5096 
Q 2056 5234 1856 5234 
Q 1653 5234 1517 5098 
Q 1381 4963 1381 4763 
Q 1381 4559 1517 4423 
Q 1653 4288 1856 4288 
Q 2056 4288 2193 4425 
Q 2331 4563 2331 4763 
z
M 2712 4763 
Q 2712 4403 2463 4153 
Q 2215 3903 1856 3903 
Q 1497 3903 1248 4153 
Q 1000 4403 1000 4763 
Q 1000 5122 1248 5370 
Q 1497 5619 1856 5619 
Q 2215 5619 2463 5370 
Q 2712 5122 2712 4763 
z
" transform="scale(0.015625)"/>
     </defs>
     <use xlink:href="#DejaVuSans-54"/>
     <use xlink:href="#DejaVuSans-72" transform="translate(46.333984 0)"/>
     <use xlink:href="#DejaVuSans-65" transform="translate(85.197266 0)"/>
     <use xlink:href="#DejaVuSans-6e" transform="translate(146.720703 0)"/>
     <use xlink:href="#DejaVuSans-64" transform="translate(210.099609 0)"/>
     <use xlink:href="#DejaVuSans-65" transform="translate(273.576172 0)"/>
     <use xlink:href="#DejaVuSans-72" transform="translate(335.099609 0)"/>
     <use xlink:href="#DejaVuSans-20" transform="translate(376.212891 0)"/>
     <use xlink:href="#DejaVuSans-6f" transform="translate(408 0)"/>
     <use xlink:href="#DejaVuSans-76" transform="translate(469.181641 0)"/>
     <use xlink:href="#DejaVuSans-65" transform="translate(528.361328 0)"/>
     <use xlink:href="#DejaVuSans-72" transform="translate(589.884766 0)"/>
     <use xlink:href="#DejaVuSans-20" transform="translate(630.998047 0)"/>
     <use xlink:href="#DejaVuSans-74" transform="translate(662.785156 0)"/>
     <use xlink:href="#DejaVuSans-69" transform="translate(701.994141 0)"/>
     <use xlink:href="#DejaVuSans-64" transform="translate(729.777344 0)"/>
     <use xlink:href="#DejaVuSans-20" transform="translate(793.253906 0)"/>
     <use xlink:href="#DejaVuSans-2014" transform="translate(825.041016 0)"/>
     <use xlink:href="#DejaVuSans-20" transform="translate(925.041016 0)"/>
     <use xlink:href="#DejaVuSans-41" transform="translate(956.828125 0)"/>
     <use xlink:href="#DejaVuSans-72" transform="translate(1025.236328 0)"/>
     <use xlink:href="#DejaVuSans-62" transform="translate(1066.349609 0)"/>
     <use xlink:href="#DejaVuSans-65" transform="translate(1129.826172 0)"/>
     <use xlink:href="#DejaVuSans-69" transform="translate(1191.349609 0)"/>
     <use xlink:href="#DejaVuSans-64" transform="translate(1219.132812 0)"/>
     <use xlink:href="#DejaVuSans-73" transform="translate(1282.609375 0)"/>
     <use xlink:href="#DejaVuSans-74" transform="translate(1334.708984 0)"/>
     <use xlink:href="#DejaVuSans-69" transform="translate(1373.917969 0)"/>
     <use xlink:href="#DejaVuSans-64" transform="translate(1401.701172 0)"/>
     <use xlink:href="#DejaVuSans-20" transform="translate(1465.177734 0)"/>
     <use xlink:href="#DejaVuSans-6e" transform="translate(1496.964844 0)"/>
     <use xlink:href="#DejaVuSans-65" transform="translate(1560.34375 0)"/>
     <use xlink:href="#DejaVuSans-73" transform="translate(1621.867188 0)"/>
     <use xlink:href="#DejaVuSans-74" transform="translate(1673.966797 0)"/>
     <use xlink:href="#DejaVuSans-65" transform="translate(1713.175781 0)"/>
     <use xlink:href="#DejaVuSans-20" transform="translate(1774.699219 0)"/>
     <use xlink:href="#DejaVuSans-74" transform="translate(1806.486328 0)"/>
     <use xlink:href="#DejaVuSans-72" transform="translate(1845.695312 0)"/>
     <use xlink:href="#DejaVuSans-65" transform="translate(1884.558594 0)"/>
     <use xlink:href="#DejaVuSans-20" transform="translate(1946.082031 0)"/>
     <use xlink:href="#DejaVuSans-6d" transform="translate(1977.869141 0)"/>
     <use xlink:href="#DejaVuSans-e5" transform="translate(2075.28125 0)"/>
     <use xlink:href="#DejaVuSans-6e" transform="translate(2136.560547 0)"/>
     <use xlink:href="#DejaVuSans-65" transform="translate(2199.939453 0)"/>
     <use xlink:href="#DejaVuSans-64" transform="translate(2261.462891 0)"/>
     <use xlink:href="#DejaVuSans-65" transform="translate(2324.939453 0)"/>
     <use xlink:href="#DejaVuSans-72" transform="translate(2386.462891 0)"/>
    </g>
   </g>
   <g id="legend_1">
    <g id="line2d_14">
     <path d="M 60.111563 256.342031 
L 70.111563 256.342031 
L 80.111563 256.342031 
" style="fill: none; stroke: #c8102e; stroke-width: 2; stroke-linecap: square"/>
    </g>
    <g id="text_13">
     <!-- Høy nedgang -->
     <g transform="translate(88.111563 259.842031) scale(0.1 -0.1)">
      <defs>
       <path id="DejaVuSans-48" d="M 628 4666 
L 1259 4666 
L 1259 2753 
L 3553 2753 
L 3553 4666 
L 4184 4666 
L 4184 0 
L 3553 0 
L 3553 2222 
L 1259 2222 
L 1259 0 
L 628 0 
L 628 4666 
z
" transform="scale(0.015625)"/>
       <path id="DejaVuSans-f8" d="M 2828 2503 
L 1306 653 
Q 1434 522 1595 459 
Q 1756 397 1959 397 
Q 2419 397 2687 759 
Q 2956 1122 2956 1747 
Q 2956 1994 2925 2176 
Q 2894 2359 2828 2503 
z
M 2606 2841 
Q 2475 2969 2314 3033 
Q 2153 3097 1959 3097 
Q 1488 3097 1223 2730 
Q 959 2363 959 1703 
Q 959 1478 989 1306 
Q 1019 1134 1081 991 
L 2606 2841 
z
M 691 519 
Q 522 759 437 1067 
Q 353 1375 353 1747 
Q 353 2609 779 3096 
Q 1206 3584 1959 3584 
Q 2250 3584 2498 3504 
Q 2747 3425 2956 3263 
L 3391 3788 
L 3688 3541 
L 3231 2981 
Q 3397 2741 3481 2431 
Q 3566 2122 3566 1747 
Q 3566 888 3137 398 
Q 2709 -91 1959 -91 
Q 1659 -91 1407 -9 
Q 1156 72 959 231 
L 525 -294 
L 225 -50 
L 691 519 
z
" transform="scale(0.015625)"/>
       <path id="DejaVuSans-79" d="M 2059 -325 
Q 1816 -950 1584 -1140 
Q 1353 -1331 966 -1331 
L 506 -1331 
L 506 -850 
L 844 -850 
Q 1081 -850 1212 -737 
Q 1344 -625 1503 -206 
L 1606 56 
L 191 3500 
L 800 3500 
L 1894 763 
L 2988 3500 
L 3597 3500 
L 2059 -325 
z
" transform="scale(0.015625)"/>
       <path id="DejaVuSans-67" d="M 2906 1791 
Q 2906 2416 2648 2759 
Q 2391 3103 1925 3103 
Q 1463 3103 1205 2759 
Q 947 2416 947 1791 
Q 947 1169 1205 825 
Q 1463 481 1925 481 
Q 2391 481 2648 825 
Q 2906 1169 2906 1791 
z
M 3481 434 
Q 3481 -459 3084 -895 
Q 2688 -1331 1869 -1331 
Q 1566 -1331 1297 -1286 
Q 1028 -1241 775 -1147 
L 775 -588 
Q 1028 -725 1275 -790 
Q 1522 -856 1778 -856 
Q 2344 -856 2625 -561 
Q 2906 -266 2906 331 
L 2906 616 
Q 2728 306 2450 153 
Q 2172 0 1784 0 
Q 1141 0 747 490 
Q 353 981 353 1791 
Q 353 2603 747 3093 
Q 1141 3584 1784 3584 
Q 2172 3584 2450 3431 
Q 2728 3278 2906 2969 
L 2906 3500 
L 3481 3500 
L 3481 434 
z
" transform="scale(0.015625)"/>
       <path id="DejaVuSans-61" d="M 2194 1759 
Q 1497 1759 1228 1600 
Q 959 1441 959 1056 
Q 959 750 1161 570 
Q 1363 391 1709 391 
Q 2188 391 2477 730 
Q 2766 1069 2766 1631 
L 2766 1759 
L 2194 1759 
z
M 3341 1997 
L 3341 0 
L 2766 0 
L 2766 531 
Q 2569 213 2275 61 
Q 1981 -91 1556 -91 
Q 1019 -91 701 211 
Q 384 513 384 1019 
Q 384 1609 779 1909 
Q 1175 2209 1959 2209 
L 2766 2209 
L 2766 2266 
Q 2766 2663 2505 2880 
Q 2244 3097 1772 3097 
Q 1472 3097 1187 3025 
Q 903 2953 641 2809 
L 641 3341 
Q 956 3463 1253 3523 
Q 1550 3584 1831 3584 
Q 2591 3584 2966 3190 
Q 3341 2797 3341 1997 
z
" transform="scale(0.015625)"/>
      </defs>
      <use xlink:href="#DejaVuSans-48"/>
      <use xlink:href="#DejaVuSans-f8" transform="translate(75.195312 0)"/>
      <use xlink:href="#DejaVuSans-79" transform="translate(136.376953 0)"/>
      <use xlink:href="#DejaVuSans-20" transform="translate(195.556641 0)"/>
      <use xlink:href="#DejaVuSans-6e" transform="translate(227.34375 0)"/>
      <use xlink:href="#DejaVuSans-65" transform="translate(290.722656 0)"/>
      <use xlink:href="#DejaVuSans-64" transform="translate(352.246094 0)"/>
      <use xlink:href="#DejaVuSans-67" transform="translate(415.722656 0)"/>
      <use xlink:href="#DejaVuSans-61" transform="translate(479.199219 0)"/>
      <use xlink:href="#DejaVuSans-6e" transform="translate(540.478516 0)"/>
      <use xlink:href="#DejaVuSans-67" transform="translate(603.857422 0)"/>
     </g>
    </g>
    <g id="line2d_15">
     <path d="M 60.111563 271.020156 
L 70.111563 271.020156 
L 80.111563 271.020156 
" style="fill: none; stroke: #003366; stroke-width: 2; stroke-linecap: square"/>
    </g>
    <g id="text_14">
     <!-- Lav nedgang -->
     <g transform="translate(88.111563 274.520156) scale(0.1 -0.1)">
      <defs>
       <path id="DejaVuSans-4c" d="M 628 4666 
L 1259 4666 
L 1259 531 
L 3531 531 
L 3531 0 
L 628 0 
L 628 4666 
z
" transform="scale(0.015625)"/>
      </defs>
      <use xlink:href="#DejaVuSans-4c"/>
      <use xlink:href="#DejaVuSans-61" transform="translate(55.712891 0)"/>
      <use xlink:href="#DejaVuSans-76" transform="translate(116.992188 0)"/>
      <use xlink:href="#DejaVuSans-20" transform="translate(176.171875 0)"/>
      <use xlink:href="#DejaVuSans-6e" transform="translate(207.958984 0)"/>
      <use xlink:href="#DejaVuSans-65" transform="translate(271.337891 0)"/>
      <use xlink:href="#DejaVuSans-64" transform="translate(332.861328 0)"/>
      <use xlink:href="#DejaVuSans-67" transform="translate(396.337891 0)"/>
      <use xlink:href="#DejaVuSans-61" transform="translate(459.814453 0)"/>
      <use xlink:href="#DejaVuSans-6e" transform="translate(521.09375 0)"/>
      <use xlink:href="#DejaVuSans-67" transform="translate(584.472656 0)"/>
     </g>
    </g>
    <g id="line2d_16">
     <path d="M 60.111563 285.698281 
L 70.111563 285.698281 
L 80.111563 285.698281 
" style="fill: none; stroke-dasharray: 3.7,1.6; stroke-dashoffset: 0; stroke: #000000"/>
    </g>
    <g id="text_15">
     <!-- Behandlingsstart -->
     <g transform="translate(88.111563 289.198281) scale(0.1 -0.1)">
      <defs>
       <path id="DejaVuSans-42" d="M 1259 2228 
L 1259 519 
L 2272 519 
Q 2781 519 3026 730 
Q 3272 941 3272 1375 
Q 3272 1813 3026 2020 
Q 2781 2228 2272 2228 
L 1259 2228 
z
M 1259 4147 
L 1259 2741 
L 2194 2741 
Q 2656 2741 2882 2914 
Q 3109 3088 3109 3444 
Q 3109 3797 2882 3972 
Q 2656 4147 2194 4147 
L 1259 4147 
z
M 628 4666 
L 2241 4666 
Q 2963 4666 3353 4366 
Q 3744 4066 3744 3513 
Q 3744 3084 3544 2831 
Q 3344 2578 2956 2516 
Q 3422 2416 3680 2098 
Q 3938 1781 3938 1306 
Q 3938 681 3513 340 
Q 3088 0 2303 0 
L 628 0 
L 628 4666 
z
" transform="scale(0.015625)"/>
       <path id="DejaVuSans-68" d="M 3513 2113 
L 3513 0 
L 2938 0 
L 2938 2094 
Q 2938 2591 2744 2837 
Q 2550 3084 2163 3084 
Q 1697 3084 1428 2787 
Q 1159 2491 1159 1978 
L 1159 0 
L 581 0 
L 581 4863 
L 1159 4863 
L 1159 2956 
Q 1366 3272 1645 3428 
Q 1925 3584 2291 3584 
Q 2894 3584 3203 3211 
Q 3513 2838 3513 2113 
z
" transform="scale(0.015625)"/>
       <path id="DejaVuSans-6c" d="M 603 4863 
L 1178 4863 
L 1178 0 
L 603 0 
L 603 4863 
z
" transform="scale(0.015625)"/>
      </defs>
      <use xlink:href="#DejaVuSans-42"/>
      <use xlink:href="#DejaVuSans-65" transform="translate(68.603516 0)"/>
      <use xlink:href="#DejaVuSans-68" transform="translate(130.126953 0)"/>
      <use xlink:href="#DejaVuSans-61" transform="translate(193.505859 0)"/>
      <use xlink:href="#DejaVuSans-6e" transform="translate(254.785156 0)"/>
      <use xlink:href="#DejaVuSans-64" transform="translate(318.164062 0)"/>
      <use xlink:href="#DejaVuSans-6c" transform="translate(381.640625 0)"/>
      <use xlink:href="#DejaVuSans-69" transform="translate(409.423828 0)"/>
      <use xlink:href="#DejaVuSans-6e" transform="translate(437.207031 0)"/>
      <use xlink:href="#DejaVuSans-67" transform="translate(500.585938 0)"/>
      <use xlink:href="#DejaVuSans-73" transform="translate(564.0625 0)"/>
      <use xlink:href="#DejaVuSans-73" transform="translate(616.162109 0)"/>
      <use xlink:href="#DejaVuSans-74" transform="translate(668.261719 0)"/>
      <use xlink:href="#DejaVuSans-61" transform="translate(707.470703 0)"/>
      <use xlink:href="#DejaVuSans-72" transform="translate(768.75 0)"/>
      <use xlink:href="#DejaVuSans-74" transform="translate(809.863281 0)"/>
     </g>
    </g>
   </g>
  </g>
 </g>
 <defs>
  <clipPath id="p7a75b20917">
   <rect x="51.111563" y="23.077969" width="558" height="277.2"/>
  </clipPath>
 </defs>
</svg>
