<?xml version="1.0" encoding="utf-8" standalone="no"?>
<!DOCTYPE svg PUBLIC "-//W3C//DTD SVG 1.1//EN"
  "http://www.w3.org/Graphics/SVG/1.1/DTD/svg11.dtd">
<svg xmlns:xlink="http://www.w3.org/1999/xlink" width="727.174297pt" height="342.313828pt" viewBox="0 0 727.174297 342.313828" xmlns="http://www.w3.org/2000/svg" version="1.1">
 <metadata>
  <rdf:RDF xmlns:dc="http://purl.org/dc/elements/1.1/" xmlns:cc="http://creativecommons.org/ns#" xmlns:rdf="http://www.w3.org/1999/02/22-rdf-syntax-ns#">
   <cc:Work>
    <dc:type rdf:resource="http://purl.org/dc/dcmitype/StillImage"/>
    <dc:date>2026-07-30T13:02:15.631453</dc:date>
    <dc:format>image/svg+xml</dc:format>
    <dc:creator>
     <cc:Agent>
      <dc:title>Matplotlib v3.11.1, https://matplotlib.org/</dc:title>
     </cc:Agent>
    </dc:creator>
   </cc:Work>
  </rdf:RDF>
 </metadata>
 <defs>
  <style type="text/css">*{stroke-linejoin: round; stroke-linecap: butt}</style>
 </defs>
 <g id="figure_1">
  <g id="patch_1">
   <path d="M 0 342.313828 
L 727.174297 342.313828 
L 727.174297 0 
L 0 0 
z
" style="fill: #ffffff"/>
  </g>
  <g id="axes_1">
   <g id="patch_2">
    <path d="M 50.374297 301.813594 
L 719.974297 301.813594 
L 719.974297 24.613594 
L 50.374297 24.613594 
z
" style="fill: #ffffff"/>
   </g>
   <g id="matplotlib.axis_1">
    <g id="xtick_1">
     <g id="line2d_1">
      <defs>
       <path id="ma3c0a29c86" d="M 0 0 
L 0 3.5 
" style="stroke: #000000; stroke-width: 0.8"/>
      </defs>
      <g>
       <use xlink:href="#ma3c0a29c86" x="59.070401" y="301.813594" style="stroke: #000000; stroke-width: 0.8"/>
      </g>
     </g>
     <g id="text_1">
      <!-- −25 -->
      <g transform="translate(48.518057 316.41125) scale(0.1 -0.1)">
       <defs>
        <path id="DejaVuSans-c9c" d="M 678 2272 
L 4684 2272 
L 4684 1741 
L 678 1741 
L 678 2272 
z
" transform="scale(0.015625)"/>
        <path id="DejaVuSans-15" d="M 1228 531 
L 3431 531 
L 3431 0 
L 469 0 
L 469 531 
Q 828 903 1448 1529 
Q 2069 2156 2228 2338 
Q 2531 2678 2651 2914 
Q 2772 3150 2772 3378 
Q 2772 3750 2511 3984 
Q 2250 4219 1831 4219 
Q 1534 4219 1204 4116 
Q 875 4013 500 3803 
L 500 4441 
Q 881 4594 1212 4672 
Q 1544 4750 1819 4750 
Q 2544 4750 2975 4387 
Q 3406 4025 3406 3419 
Q 3406 3131 3298 2873 
Q 3191 2616 2906 2266 
Q 2828 2175 2409 1742 
Q 1991 1309 1228 531 
z
" transform="scale(0.015625)"/>
        <path id="DejaVuSans-18" d="M 691 4666 
L 3169 4666 
L 3169 4134 
L 1269 4134 
L 1269 2991 
Q 1406 3038 1543 3061 
Q 1681 3084 1819 3084 
Q 2600 3084 3056 2656 
Q 3513 2228 3513 1497 
Q 3513 744 3044 326 
Q 2575 -91 1722 -91 
Q 1428 -91 1123 -41 
Q 819 9 494 109 
L 494 744 
Q 775 591 1075 516 
Q 1375 441 1709 441 
Q 2250 441 2565 725 
Q 2881 1009 2881 1497 
Q 2881 1984 2565 2268 
Q 2250 2553 1709 2553 
Q 1456 2553 1204 2497 
Q 953 2441 691 2322 
L 691 4666 
z
" transform="scale(0.015625)"/>
       </defs>
       <use xlink:href="#DejaVuSans-c9c"/>
       <use xlink:href="#DejaVuSans-15" transform="translate(83.796875 0)"/>
       <use xlink:href="#DejaVuSans-18" transform="translate(147.421875 0)"/>
      </g>
     </g>
    </g>
    <g id="xtick_2">
     <g id="line2d_2">
      <g>
       <use xlink:href="#ma3c0a29c86" x="167.771699" y="301.813594" style="stroke: #000000; stroke-width: 0.8"/>
      </g>
     </g>
     <g id="text_2">
      <!-- −20 -->
      <g transform="translate(157.219356 316.41125) scale(0.1 -0.1)">
       <defs>
        <path id="DejaVuSans-13" d="M 2034 4250 
Q 1547 4250 1301 3770 
Q 1056 3291 1056 2328 
Q 1056 1369 1301 889 
Q 1547 409 2034 409 
Q 2525 409 2770 889 
Q 3016 1369 3016 2328 
Q 3016 3291 2770 3770 
Q 2525 4250 2034 4250 
z
M 2034 4750 
Q 2819 4750 3233 4129 
Q 3647 3509 3647 2328 
Q 3647 1150 3233 529 
Q 2819 -91 2034 -91 
Q 1250 -91 836 529 
Q 422 1150 422 2328 
Q 422 3509 836 4129 
Q 1250 4750 2034 4750 
z
" transform="scale(0.015625)"/>
       </defs>
       <use xlink:href="#DejaVuSans-c9c"/>
       <use xlink:href="#DejaVuSans-15" transform="translate(83.796875 0)"/>
       <use xlink:href="#DejaVuSans-13" transform="translate(147.421875 0)"/>
      </g>
     </g>
    </g>
    <g id="xtick_3">
     <g id="line2d_3">
      <g>
       <use xlink:href="#ma3c0a29c86" x="276.472998" y="301.813594" style="stroke: #000000; stroke-width: 0.8"/>
      </g>
     </g>
     <g id="text_3">
      <!-- −15 -->
      <g transform="translate(265.920654 316.41125) scale(0.1 -0.1)">
       <defs>
        <path id="DejaVuSans-14" d="M 794 531 
L 1825 531 
L 1825 4091 
L 703 3866 
L 703 4441 
L 1819 4666 
L 2450 4666 
L 2450 531 
L 3481 531 
L 3481 0 
L 794 0 
L 794 531 
z
" transform="scale(0.015625)"/>
       </defs>
       <use xlink:href="#DejaVuSans-c9c"/>
       <use xlink:href="#DejaVuSans-14" transform="translate(83.796875 0)"/>
       <use xlink:href="#DejaVuSans-18" transform="translate(147.421875 0)"/>
      </g>
     </g>
    </g>
    <g id="xtick_4">
     <g id="line2d_4">
      <g>
       <use xlink:href="#ma3c0a29c86" x="385.174297" y="301.813594" style="stroke: #000000; stroke-width: 0.8"/>
      </g>
     </g>
     <g id="text_4">
      <!-- −10 -->
      <g transform="translate(374.621953 316.41125) scale(0.1 -0.1)">
       <use xlink:href="#DejaVuSans-c9c"/>
       <use xlink:href="#DejaVuSans-14" transform="translate(83.796875 0)"/>
       <use xlink:href="#DejaVuSans-13" transform="translate(147.421875 0)"/>
      </g>
     </g>
    </g>
    <g id="xtick_5">
     <g id="line2d_5">
      <g>
       <use xlink:href="#ma3c0a29c86" x="493.875596" y="301.813594" style="stroke: #000000; stroke-width: 0.8"/>
      </g>
     </g>
     <g id="text_5">
      <!-- −5 -->
      <g transform="translate(486.504502 316.41125) scale(0.1 -0.1)">
       <use xlink:href="#DejaVuSans-c9c"/>
       <use xlink:href="#DejaVuSans-18" transform="translate(83.796875 0)"/>
      </g>
     </g>
    </g>
    <g id="xtick_6">
     <g id="line2d_6">
      <g>
       <use xlink:href="#ma3c0a29c86" x="602.576894" y="301.813594" style="stroke: #000000; stroke-width: 0.8"/>
      </g>
     </g>
     <g id="text_6">
      <!-- 0 -->
      <g transform="translate(599.395644 316.41125) scale(0.1 -0.1)">
       <use xlink:href="#DejaVuSans-13"/>
      </g>
     </g>
    </g>
    <g id="xtick_7">
     <g id="line2d_7">
      <g>
       <use xlink:href="#ma3c0a29c86" x="711.278193" y="301.813594" style="stroke: #000000; stroke-width: 0.8"/>
      </g>
     </g>
     <g id="text_7">
      <!-- 5 -->
      <g transform="translate(708.096943 316.41125) scale(0.1 -0.1)">
       <use xlink:href="#DejaVuSans-18"/>
      </g>
     </g>
    </g>
    <g id="text_8">
     <!-- Måneder relativt til behandlingsstart (τ) -->
     <g transform="translate(275.310078 332.47125) scale(0.11 -0.11)">
      <defs>
       <path id="DejaVuSans-30" d="M 628 4666 
L 1569 4666 
L 2759 1491 
L 3956 4666 
L 4897 4666 
L 4897 0 
L 4281 0 
L 4281 4097 
L 3078 897 
L 2444 897 
L 1241 4097 
L 1241 0 
L 628 0 
L 628 4666 
z
" transform="scale(0.015625)"/>
       <path id="DejaVuSans-a7" d="M 2194 1759 
Q 1497 1759 1228 1600 
Q 959 1441 959 1056 
Q 959 750 1161 570 
Q 1363 391 1709 391 
Q 2188 391 2477 730 
Q 2766 1069 2766 1631 
L 2766 1759 
L 2194 1759 
z
M 3341 1997 
L 3341 0 
L 2766 0 
L 2766 531 
Q 2569 213 2275 61 
Q 1981 -91 1556 -91 
Q 1019 -91 701 211 
Q 384 513 384 1019 
Q 384 1609 779 1909 
Q 1175 2209 1959 2209 
L 2766 2209 
L 2766 2266 
Q 2766 2663 2505 2880 
Q 2244 3097 1772 3097 
Q 1472 3097 1187 3025 
Q 903 2953 641 2809 
L 641 3341 
Q 956 3463 1253 3523 
Q 1550 3584 1831 3584 
Q 2591 3584 2966 3190 
Q 3341 2797 3341 1997 
z
M 2331 4763 
Q 2331 4959 2193 5096 
Q 2056 5234 1856 5234 
Q 1653 5234 1517 5098 
Q 1381 4963 1381 4763 
Q 1381 4559 1517 4423 
Q 1653 4288 1856 4288 
Q 2056 4288 2193 4425 
Q 2331 4563 2331 4763 
z
M 2712 4763 
Q 2712 4403 2463 4153 
Q 2215 3903 1856 3903 
Q 1497 3903 1248 4153 
Q 1000 4403 1000 4763 
Q 1000 5122 1248 5370 
Q 1497 5619 1856 5619 
Q 2215 5619 2463 5370 
Q 2712 5122 2712 4763 
z
" transform="scale(0.015625)"/>
       <path id="DejaVuSans-51" d="M 3513 2113 
L 3513 0 
L 2938 0 
L 2938 2094 
Q 2938 2591 2744 2837 
Q 2550 3084 2163 3084 
Q 1697 3084 1428 2787 
Q 1159 2491 1159 1978 
L 1159 0 
L 581 0 
L 581 3500 
L 1159 3500 
L 1159 2956 
Q 1366 3272 1645 3428 
Q 1925 3584 2291 3584 
Q 2894 3584 3203 3211 
Q 3513 2838 3513 2113 
z
" transform="scale(0.015625)"/>
       <path id="DejaVuSans-48" d="M 3597 1894 
L 3597 1613 
L 953 1613 
Q 991 1019 1311 708 
Q 1631 397 2203 397 
Q 2534 397 2845 478 
Q 3156 559 3463 722 
L 3463 178 
Q 3153 47 2828 -22 
Q 2503 -91 2169 -91 
Q 1331 -91 842 396 
Q 353 884 353 1716 
Q 353 2575 817 3079 
Q 1281 3584 2069 3584 
Q 2775 3584 3186 3129 
Q 3597 2675 3597 1894 
z
M 3022 2063 
Q 3016 2534 2758 2815 
Q 2500 3097 2075 3097 
Q 1594 3097 1305 2825 
Q 1016 2553 972 2059 
L 3022 2063 
z
" transform="scale(0.015625)"/>
       <path id="DejaVuSans-47" d="M 2906 2969 
L 2906 4863 
L 3481 4863 
L 3481 0 
L 2906 0 
L 2906 525 
Q 2725 213 2448 61 
Q 2172 -91 1784 -91 
Q 1150 -91 751 415 
Q 353 922 353 1747 
Q 353 2572 751 3078 
Q 1150 3584 1784 3584 
Q 2172 3584 2448 3432 
Q 2725 3281 2906 2969 
z
M 947 1747 
Q 947 1113 1208 752 
Q 1469 391 1925 391 
Q 2381 391 2643 752 
Q 2906 1113 2906 1747 
Q 2906 2381 2643 2742 
Q 2381 3103 1925 3103 
Q 1469 3103 1208 2742 
Q 947 2381 947 1747 
z
" transform="scale(0.015625)"/>
       <path id="DejaVuSans-55" d="M 2631 2963 
Q 2534 3019 2420 3045 
Q 2306 3072 2169 3072 
Q 1681 3072 1420 2755 
Q 1159 2438 1159 1844 
L 1159 0 
L 581 0 
L 581 3500 
L 1159 3500 
L 1159 2956 
Q 1341 3275 1631 3429 
Q 1922 3584 2338 3584 
Q 2397 3584 2469 3576 
Q 2541 3569 2628 3553 
L 2631 2963 
z
" transform="scale(0.015625)"/>
       <path id="DejaVuSans-3" transform="scale(0.015625)"/>
       <path id="DejaVuSans-4f" d="M 603 4863 
L 1178 4863 
L 1178 0 
L 603 0 
L 603 4863 
z
" transform="scale(0.015625)"/>
       <path id="DejaVuSans-44" d="M 2194 1759 
Q 1497 1759 1228 1600 
Q 959 1441 959 1056 
Q 959 750 1161 570 
Q 1363 391 1709 391 
Q 2188 391 2477 730 
Q 2766 1069 2766 1631 
L 2766 1759 
L 2194 1759 
z
M 3341 1997 
L 3341 0 
L 2766 0 
L 2766 531 
Q 2569 213 2275 61 
Q 1981 -91 1556 -91 
Q 1019 -91 701 211 
Q 384 513 384 1019 
Q 384 1609 779 1909 
Q 1175 2209 1959 2209 
L 2766 2209 
L 2766 2266 
Q 2766 2663 2505 2880 
Q 2244 3097 1772 3097 
Q 1472 3097 1187 3025 
Q 903 2953 641 2809 
L 641 3341 
Q 956 3463 1253 3523 
Q 1550 3584 1831 3584 
Q 2591 3584 2966 3190 
Q 3341 2797 3341 1997 
z
" transform="scale(0.015625)"/>
       <path id="DejaVuSans-57" d="M 1172 4494 
L 1172 3500 
L 2356 3500 
L 2356 3053 
L 1172 3053 
L 1172 1153 
Q 1172 725 1289 603 
Q 1406 481 1766 481 
L 2356 481 
L 2356 0 
L 1766 0 
Q 1100 0 847 248 
Q 594 497 594 1153 
L 594 3053 
L 172 3053 
L 172 3500 
L 594 3500 
L 594 4494 
L 1172 4494 
z
" transform="scale(0.015625)"/>
       <path id="DejaVuSans-4c" d="M 603 3500 
L 1178 3500 
L 1178 0 
L 603 0 
L 603 3500 
z
M 603 4863 
L 1178 4863 
L 1178 4134 
L 603 4134 
L 603 4863 
z
" transform="scale(0.015625)"/>
       <path id="DejaVuSans-59" d="M 191 3500 
L 800 3500 
L 1894 563 
L 2988 3500 
L 3597 3500 
L 2284 0 
L 1503 0 
L 191 3500 
z
" transform="scale(0.015625)"/>
       <path id="DejaVuSans-45" d="M 3116 1747 
Q 3116 2381 2855 2742 
Q 2594 3103 2138 3103 
Q 1681 3103 1420 2742 
Q 1159 2381 1159 1747 
Q 1159 1113 1420 752 
Q 1681 391 2138 391 
Q 2594 391 2855 752 
Q 3116 1113 3116 1747 
z
M 1159 2969 
Q 1341 3281 1617 3432 
Q 1894 3584 2278 3584 
Q 2916 3584 3314 3078 
Q 3713 2572 3713 1747 
Q 3713 922 3314 415 
Q 2916 -91 2278 -91 
Q 1894 -91 1617 61 
Q 1341 213 1159 525 
L 1159 0 
L 581 0 
L 581 4863 
L 1159 4863 
L 1159 2969 
z
" transform="scale(0.015625)"/>
       <path id="DejaVuSans-4b" d="M 3513 2113 
L 3513 0 
L 2938 0 
L 2938 2094 
Q 2938 2591 2744 2837 
Q 2550 3084 2163 3084 
Q 1697 3084 1428 2787 
Q 1159 2491 1159 1978 
L 1159 0 
L 581 0 
L 581 4863 
L 1159 4863 
L 1159 2956 
Q 1366 3272 1645 3428 
Q 1925 3584 2291 3584 
Q 2894 3584 3203 3211 
Q 3513 2838 3513 2113 
z
" transform="scale(0.015625)"/>
       <path id="DejaVuSans-4a" d="M 2906 1791 
Q 2906 2416 2648 2759 
Q 2391 3103 1925 3103 
Q 1463 3103 1205 2759 
Q 947 2416 947 1791 
Q 947 1169 1205 825 
Q 1463 481 1925 481 
Q 2391 481 2648 825 
Q 2906 1169 2906 1791 
z
M 3481 434 
Q 3481 -459 3084 -895 
Q 2688 -1331 1869 -1331 
Q 1566 -1331 1297 -1286 
Q 1028 -1241 775 -1147 
L 775 -588 
Q 1028 -725 1275 -790 
Q 1522 -856 1778 -856 
Q 2344 -856 2625 -561 
Q 2906 -266 2906 331 
L 2906 616 
Q 2728 306 2450 153 
Q 2172 0 1784 0 
Q 1141 0 747 490 
Q 353 981 353 1791 
Q 353 2603 747 3093 
Q 1141 3584 1784 3584 
Q 2172 3584 2450 3431 
Q 2728 3278 2906 2969 
L 2906 3500 
L 3481 3500 
L 3481 434 
z
" transform="scale(0.015625)"/>
       <path id="DejaVuSans-56" d="M 2834 3397 
L 2834 2853 
Q 2591 2978 2328 3040 
Q 2066 3103 1784 3103 
Q 1356 3103 1142 2972 
Q 928 2841 928 2578 
Q 928 2378 1081 2264 
Q 1234 2150 1697 2047 
L 1894 2003 
Q 2506 1872 2764 1633 
Q 3022 1394 3022 966 
Q 3022 478 2636 193 
Q 2250 -91 1575 -91 
Q 1294 -91 989 -36 
Q 684 19 347 128 
L 347 722 
Q 666 556 975 473 
Q 1284 391 1588 391 
Q 1994 391 2212 530 
Q 2431 669 2431 922 
Q 2431 1156 2273 1281 
Q 2116 1406 1581 1522 
L 1381 1569 
Q 847 1681 609 1914 
Q 372 2147 372 2553 
Q 372 3047 722 3315 
Q 1072 3584 1716 3584 
Q 2034 3584 2315 3537 
Q 2597 3491 2834 3397 
z
" transform="scale(0.015625)"/>
       <path id="DejaVuSans-b" d="M 1984 4856 
Q 1566 4138 1362 3434 
Q 1159 2731 1159 2009 
Q 1159 1288 1364 580 
Q 1569 -128 1984 -844 
L 1484 -844 
Q 1016 -109 783 600 
Q 550 1309 550 2009 
Q 550 2706 781 3412 
Q 1013 4119 1484 4856 
L 1984 4856 
z
" transform="scale(0.015625)"/>
       <path id="DejaVuSans-358" d="M 2319 638 
Q 2431 488 2769 488 
L 3047 488 
L 3047 0 
L 2700 0 
Q 2138 0 1881 300 
Q 1625 606 1625 1269 
L 1625 2925 
L 313 2925 
L 313 3500 
L 3541 3500 
L 3541 2925 
L 2213 2925 
L 2213 1234 
Q 2213 781 2319 638 
z
" transform="scale(0.015625)"/>
       <path id="DejaVuSans-c" d="M 513 4856 
L 1013 4856 
Q 1481 4119 1714 3412 
Q 1947 2706 1947 2009 
Q 1947 1309 1714 600 
Q 1481 -109 1013 -844 
L 513 -844 
Q 928 -128 1133 580 
Q 1338 1288 1338 2009 
Q 1338 2731 1133 3434 
Q 928 4138 513 4856 
z
" transform="scale(0.015625)"/>
      </defs>
      <use xlink:href="#DejaVuSans-30"/>
      <use xlink:href="#DejaVuSans-a7" transform="translate(86.28125 0)"/>
      <use xlink:href="#DejaVuSans-51" transform="translate(147.5625 0)"/>
      <use xlink:href="#DejaVuSans-48" transform="translate(210.9375 0)"/>
      <use xlink:href="#DejaVuSans-47" transform="translate(272.46875 0)"/>
      <use xlink:href="#DejaVuSans-48" transform="translate(335.953125 0)"/>
      <use xlink:href="#DejaVuSans-55" transform="translate(397.484375 0)"/>
      <use xlink:href="#DejaVuSans-3" transform="translate(438.59375 0)"/>
      <use xlink:href="#DejaVuSans-55" transform="translate(470.375 0)"/>
      <use xlink:href="#DejaVuSans-48" transform="translate(509.28125 0)"/>
      <use xlink:href="#DejaVuSans-4f" transform="translate(570.8125 0)"/>
      <use xlink:href="#DejaVuSans-44" transform="translate(598.59375 0)"/>
      <use xlink:href="#DejaVuSans-57" transform="translate(659.875 0)"/>
      <use xlink:href="#DejaVuSans-4c" transform="translate(699.078125 0)"/>
      <use xlink:href="#DejaVuSans-59" transform="translate(726.859375 0)"/>
      <use xlink:href="#DejaVuSans-57" transform="translate(786.046875 0)"/>
      <use xlink:href="#DejaVuSans-3" transform="translate(825.25 0)"/>
      <use xlink:href="#DejaVuSans-57" transform="translate(857.03125 0)"/>
      <use xlink:href="#DejaVuSans-4c" transform="translate(896.234375 0)"/>
      <use xlink:href="#DejaVuSans-4f" transform="translate(924.015625 0)"/>
      <use xlink:href="#DejaVuSans-3" transform="translate(951.796875 0)"/>
      <use xlink:href="#DejaVuSans-45" transform="translate(983.578125 0)"/>
      <use xlink:href="#DejaVuSans-48" transform="translate(1047.0625 0)"/>
      <use xlink:href="#DejaVuSans-4b" transform="translate(1108.59375 0)"/>
      <use xlink:href="#DejaVuSans-44" transform="translate(1171.96875 0)"/>
      <use xlink:href="#DejaVuSans-51" transform="translate(1233.25 0)"/>
      <use xlink:href="#DejaVuSans-47" transform="translate(1296.625 0)"/>
      <use xlink:href="#DejaVuSans-4f" transform="translate(1360.109375 0)"/>
      <use xlink:href="#DejaVuSans-4c" transform="translate(1387.890625 0)"/>
      <use xlink:href="#DejaVuSans-51" transform="translate(1415.671875 0)"/>
      <use xlink:href="#DejaVuSans-4a" transform="translate(1479.046875 0)"/>
      <use xlink:href="#DejaVuSans-56" transform="translate(1542.53125 0)"/>
      <use xlink:href="#DejaVuSans-56" transform="translate(1594.625 0)"/>
      <use xlink:href="#DejaVuSans-57" transform="translate(1646.71875 0)"/>
      <use xlink:href="#DejaVuSans-44" transform="translate(1685.921875 0)"/>
      <use xlink:href="#DejaVuSans-55" transform="translate(1747.203125 0)"/>
      <use xlink:href="#DejaVuSans-57" transform="translate(1788.3125 0)"/>
      <use xlink:href="#DejaVuSans-3" transform="translate(1827.515625 0)"/>
      <use xlink:href="#DejaVuSans-b" transform="translate(1859.296875 0)"/>
      <use xlink:href="#DejaVuSans-358" transform="translate(1898.3125 0)"/>
      <use xlink:href="#DejaVuSans-c" transform="translate(1958.515625 0)"/>
     </g>
    </g>
   </g>
   <g id="matplotlib.axis_2">
    <g id="ytick_1">
     <g id="line2d_8">
      <defs>
       <path id="m7771193b41" d="M 0 0 
L -3.5 0 
" style="stroke: #000000; stroke-width: 0.8"/>
      </defs>
      <g>
       <use xlink:href="#m7771193b41" x="50.374297" y="243.927087" style="stroke: #000000; stroke-width: 0.8"/>
      </g>
     </g>
     <g id="text_9">
      <!-- −10 -->
      <g transform="translate(22.269609 247.725916) scale(0.1 -0.1)">
       <use xlink:href="#DejaVuSans-c9c"/>
       <use xlink:href="#DejaVuSans-14" transform="translate(83.796875 0)"/>
       <use xlink:href="#DejaVuSans-13" transform="translate(147.421875 0)"/>
      </g>
     </g>
    </g>
    <g id="ytick_2">
     <g id="line2d_9">
      <g>
       <use xlink:href="#m7771193b41" x="50.374297" y="185.977485" style="stroke: #000000; stroke-width: 0.8"/>
      </g>
     </g>
     <g id="text_10">
      <!-- −5 -->
      <g transform="translate(28.632109 189.776313) scale(0.1 -0.1)">
       <use xlink:href="#DejaVuSans-c9c"/>
       <use xlink:href="#DejaVuSans-18" transform="translate(83.796875 0)"/>
      </g>
     </g>
    </g>
    <g id="ytick_3">
     <g id="line2d_10">
      <g>
       <use xlink:href="#m7771193b41" x="50.374297" y="128.027882" style="stroke: #000000; stroke-width: 0.8"/>
      </g>
     </g>
     <g id="text_11">
      <!-- 0 -->
      <g transform="translate(37.011797 131.82671) scale(0.1 -0.1)">
       <use xlink:href="#DejaVuSans-13"/>
      </g>
     </g>
    </g>
    <g id="ytick_4">
     <g id="line2d_11">
      <g>
       <use xlink:href="#m7771193b41" x="50.374297" y="70.078279" style="stroke: #000000; stroke-width: 0.8"/>
      </g>
     </g>
     <g id="text_12">
      <!-- 5 -->
      <g transform="translate(37.011797 73.877108) scale(0.1 -0.1)">
       <use xlink:href="#DejaVuSans-18"/>
      </g>
     </g>
    </g>
    <g id="text_13">
     <!-- Koeffisient (β_τ) -->
     <g transform="translate(15.627031 207.643281) rotate(-90) scale(0.11 -0.11)">
      <defs>
       <path id="DejaVuSans-2e" d="M 628 4666 
L 1259 4666 
L 1259 2694 
L 3353 4666 
L 4166 4666 
L 1850 2491 
L 4331 0 
L 3500 0 
L 1259 2247 
L 1259 0 
L 628 0 
L 628 4666 
z
" transform="scale(0.015625)"/>
       <path id="DejaVuSans-52" d="M 1959 3097 
Q 1497 3097 1228 2736 
Q 959 2375 959 1747 
Q 959 1119 1226 758 
Q 1494 397 1959 397 
Q 2419 397 2687 759 
Q 2956 1122 2956 1747 
Q 2956 2369 2687 2733 
Q 2419 3097 1959 3097 
z
M 1959 3584 
Q 2709 3584 3137 3096 
Q 3566 2609 3566 1747 
Q 3566 888 3137 398 
Q 2709 -91 1959 -91 
Q 1206 -91 779 398 
Q 353 888 353 1747 
Q 353 2609 779 3096 
Q 1206 3584 1959 3584 
z
" transform="scale(0.015625)"/>
       <path id="DejaVuSans-13b1" d="M 2375 4863 
L 2375 4384 
L 1825 4384 
Q 1516 4384 1394 4259 
Q 1275 4134 1275 3809 
L 1275 3500 
L 2853 3500 
L 2853 3744 
Q 2853 4328 3125 4594 
Q 3213 4681 3334 4741 
Q 3578 4863 3988 4863 
L 4531 4863 
L 4531 4384 
L 3981 4384 
Q 3672 4384 3551 4259 
Q 3431 4134 3431 3809 
L 3431 3500 
L 5588 3500 
L 5588 0 
L 5009 0 
L 5009 3053 
L 3431 3053 
L 3431 0 
L 2853 0 
L 2853 3053 
L 1275 3053 
L 1275 0 
L 697 0 
L 697 3053 
L 147 3053 
L 147 3500 
L 697 3500 
L 697 3744 
Q 697 4328 969 4595 
Q 1241 4863 1831 4863 
L 2375 4863 
z
M 5009 4856 
L 5588 4856 
L 5588 4128 
L 5009 4128 
L 5009 4856 
z
" transform="scale(0.015625)"/>
       <path id="DejaVuSans-346" d="M 1178 216 
L 1178 -1331 
L 600 -1331 
L 600 3478 
Q 600 4903 1931 4903 
Q 3288 4903 3288 3700 
Q 3288 2844 2750 2531 
Q 3625 2250 3625 1416 
Q 3625 -66 2119 -66 
Q 1456 -66 1178 216 
z
M 1178 966 
Q 1525 425 2141 425 
Q 3041 425 3041 1406 
Q 3041 2288 1591 2219 
L 1591 2750 
Q 2725 2750 2725 3750 
Q 2725 4434 1994 4434 
Q 1178 4434 1178 3459 
L 1178 966 
z
" transform="scale(0.015625)"/>
       <path id="DejaVuSans-42" d="M 3263 -1063 
L 3263 -1509 
L -63 -1509 
L -63 -1063 
L 3263 -1063 
z
" transform="scale(0.015625)"/>
      </defs>
      <use xlink:href="#DejaVuSans-2e"/>
      <use xlink:href="#DejaVuSans-52" transform="translate(60.59375 0)"/>
      <use xlink:href="#DejaVuSans-48" transform="translate(121.78125 0)"/>
      <use xlink:href="#DejaVuSans-13b1" transform="translate(183.3125 0)"/>
      <use xlink:href="#DejaVuSans-56" transform="translate(280 0)"/>
      <use xlink:href="#DejaVuSans-4c" transform="translate(332.09375 0)"/>
      <use xlink:href="#DejaVuSans-48" transform="translate(359.875 0)"/>
      <use xlink:href="#DejaVuSans-51" transform="translate(421.40625 0)"/>
      <use xlink:href="#DejaVuSans-57" transform="translate(484.78125 0)"/>
      <use xlink:href="#DejaVuSans-3" transform="translate(523.984375 0)"/>
      <use xlink:href="#DejaVuSans-b" transform="translate(555.765625 0)"/>
      <use xlink:href="#DejaVuSans-346" transform="translate(594.78125 0)"/>
      <use xlink:href="#DejaVuSans-42" transform="translate(658.59375 0)"/>
      <use xlink:href="#DejaVuSans-358" transform="translate(708.59375 0)"/>
      <use xlink:href="#DejaVuSans-c" transform="translate(768.796875 0)"/>
     </g>
    </g>
   </g>
   <g id="line2d_12">
    <path d="M 80.810661 206.004908 
L 80.810661 43.3009 
" clip-path="url(#pcbf762774a)" style="fill: none; stroke: #003366; stroke-opacity: 0.5; stroke-width: 1.2; stroke-linecap: square"/>
   </g>
   <g id="line2d_13">
    <path d="M 102.55092 209.714199 
L 102.55092 102.062697 
" clip-path="url(#pcbf762774a)" style="fill: none; stroke: #003366; stroke-opacity: 0.5; stroke-width: 1.2; stroke-linecap: square"/>
   </g>
   <g id="line2d_14">
    <path d="M 124.29118 208.632113 
L 124.29118 53.353299 
" clip-path="url(#pcbf762774a)" style="fill: none; stroke: #003366; stroke-opacity: 0.5; stroke-width: 1.2; stroke-linecap: square"/>
   </g>
   <g id="line2d_15">
    <path d="M 146.03144 200.191069 
L 146.03144 38.15906 
" clip-path="url(#pcbf762774a)" style="fill: none; stroke: #003366; stroke-opacity: 0.5; stroke-width: 1.2; stroke-linecap: square"/>
   </g>
   <g id="line2d_16">
    <path d="M 167.771699 161.900749 
L 167.771699 85.604833 
" clip-path="url(#pcbf762774a)" style="fill: none; stroke: #003366; stroke-opacity: 0.5; stroke-width: 1.2; stroke-linecap: square"/>
   </g>
   <g id="line2d_17">
    <path d="M 189.511959 221.096871 
L 189.511959 120.311079 
" clip-path="url(#pcbf762774a)" style="fill: none; stroke: #003366; stroke-opacity: 0.5; stroke-width: 1.2; stroke-linecap: square"/>
   </g>
   <g id="line2d_18">
    <path d="M 211.252219 248.108192 
L 211.252219 147.066067 
" clip-path="url(#pcbf762774a)" style="fill: none; stroke: #003366; stroke-opacity: 0.5; stroke-width: 1.2; stroke-linecap: square"/>
   </g>
   <g id="line2d_19">
    <path d="M 232.992479 214.075439 
L 232.992479 126.387918 
" clip-path="url(#pcbf762774a)" style="fill: none; stroke: #003366; stroke-opacity: 0.5; stroke-width: 1.2; stroke-linecap: square"/>
   </g>
   <g id="line2d_20">
    <path d="M 254.732738 289.213594 
L 254.732738 148.571193 
" clip-path="url(#pcbf762774a)" style="fill: none; stroke: #003366; stroke-opacity: 0.5; stroke-width: 1.2; stroke-linecap: square"/>
   </g>
   <g id="line2d_21">
    <path d="M 276.472998 263.250269 
L 276.472998 121.391986 
" clip-path="url(#pcbf762774a)" style="fill: none; stroke: #003366; stroke-opacity: 0.5; stroke-width: 1.2; stroke-linecap: square"/>
   </g>
   <g id="line2d_22">
    <path d="M 298.213258 201.175967 
L 298.213258 93.149358 
" clip-path="url(#pcbf762774a)" style="fill: none; stroke: #003366; stroke-opacity: 0.5; stroke-width: 1.2; stroke-linecap: square"/>
   </g>
   <g id="line2d_23">
    <path d="M 319.953518 215.117995 
L 319.953518 61.174525 
" clip-path="url(#pcbf762774a)" style="fill: none; stroke: #003366; stroke-opacity: 0.5; stroke-width: 1.2; stroke-linecap: square"/>
   </g>
   <g id="line2d_24">
    <path d="M 341.693777 239.065798 
L 341.693777 78.388875 
" clip-path="url(#pcbf762774a)" style="fill: none; stroke: #003366; stroke-opacity: 0.5; stroke-width: 1.2; stroke-linecap: square"/>
   </g>
   <g id="line2d_25">
    <path d="M 363.434037 249.434152 
L 363.434037 122.408249 
" clip-path="url(#pcbf762774a)" style="fill: none; stroke: #003366; stroke-opacity: 0.5; stroke-width: 1.2; stroke-linecap: square"/>
   </g>
   <g id="line2d_26">
    <path d="M 385.174297 249.946608 
L 385.174297 102.732886 
" clip-path="url(#pcbf762774a)" style="fill: none; stroke: #003366; stroke-opacity: 0.5; stroke-width: 1.2; stroke-linecap: square"/>
   </g>
   <g id="line2d_27">
    <path d="M 406.914557 225.444707 
L 406.914557 57.415904 
" clip-path="url(#pcbf762774a)" style="fill: none; stroke: #003366; stroke-opacity: 0.5; stroke-width: 1.2; stroke-linecap: square"/>
   </g>
   <g id="line2d_28">
    <path d="M 428.654816 233.337508 
L 428.654816 78.422998 
" clip-path="url(#pcbf762774a)" style="fill: none; stroke: #003366; stroke-opacity: 0.5; stroke-width: 1.2; stroke-linecap: square"/>
   </g>
   <g id="line2d_29">
    <path d="M 450.395076 219.132029 
L 450.395076 95.790975 
" clip-path="url(#pcbf762774a)" style="fill: none; stroke: #003366; stroke-opacity: 0.5; stroke-width: 1.2; stroke-linecap: square"/>
   </g>
   <g id="line2d_30">
    <path d="M 472.135336 195.100432 
L 472.135336 102.456554 
" clip-path="url(#pcbf762774a)" style="fill: none; stroke: #003366; stroke-opacity: 0.5; stroke-width: 1.2; stroke-linecap: square"/>
   </g>
   <g id="line2d_31">
    <path d="M 493.875596 173.153575 
L 493.875596 50.609499 
" clip-path="url(#pcbf762774a)" style="fill: none; stroke: #003366; stroke-opacity: 0.5; stroke-width: 1.2; stroke-linecap: square"/>
   </g>
   <g id="line2d_32">
    <path d="M 515.615855 194.728616 
L 515.615855 73.669134 
" clip-path="url(#pcbf762774a)" style="fill: none; stroke: #003366; stroke-opacity: 0.5; stroke-width: 1.2; stroke-linecap: square"/>
   </g>
   <g id="line2d_33">
    <path d="M 537.356115 201.22608 
L 537.356115 57.520482 
" clip-path="url(#pcbf762774a)" style="fill: none; stroke: #003366; stroke-opacity: 0.5; stroke-width: 1.2; stroke-linecap: square"/>
   </g>
   <g id="line2d_34">
    <path d="M 559.096375 202.680507 
L 559.096375 61.471068 
" clip-path="url(#pcbf762774a)" style="fill: none; stroke: #003366; stroke-opacity: 0.5; stroke-width: 1.2; stroke-linecap: square"/>
   </g>
   <g id="line2d_35">
    <path d="M 602.576894 207.7449 
L 602.576894 67.89692 
" clip-path="url(#pcbf762774a)" style="fill: none; stroke: #003366; stroke-opacity: 0.5; stroke-width: 1.2; stroke-linecap: square"/>
   </g>
   <g id="line2d_36">
    <path d="M 624.317154 210.70346 
L 624.317154 112.58342 
" clip-path="url(#pcbf762774a)" style="fill: none; stroke: #003366; stroke-opacity: 0.5; stroke-width: 1.2; stroke-linecap: square"/>
   </g>
   <g id="line2d_37">
    <path d="M 646.057414 231.040983 
L 646.057414 103.235138 
" clip-path="url(#pcbf762774a)" style="fill: none; stroke: #003366; stroke-opacity: 0.5; stroke-width: 1.2; stroke-linecap: square"/>
   </g>
   <g id="line2d_38">
    <path d="M 667.797673 181.418823 
L 667.797673 88.442594 
" clip-path="url(#pcbf762774a)" style="fill: none; stroke: #003366; stroke-opacity: 0.5; stroke-width: 1.2; stroke-linecap: square"/>
   </g>
   <g id="line2d_39">
    <path d="M 689.537933 172.271743 
L 689.537933 61.715597 
" clip-path="url(#pcbf762774a)" style="fill: none; stroke: #003366; stroke-opacity: 0.5; stroke-width: 1.2; stroke-linecap: square"/>
   </g>
   <g id="line2d_40">
    <path d="M 80.810661 194.933724 
L 80.810661 60.352758 
" clip-path="url(#pcbf762774a)" style="fill: none; stroke: #c8102e; stroke-opacity: 0.5; stroke-width: 1.2; stroke-linecap: square"/>
   </g>
   <g id="line2d_41">
    <path d="M 102.55092 183.615167 
L 102.55092 84.42624 
" clip-path="url(#pcbf762774a)" style="fill: none; stroke: #c8102e; stroke-opacity: 0.5; stroke-width: 1.2; stroke-linecap: square"/>
   </g>
   <g id="line2d_42">
    <path d="M 124.29118 188.155117 
L 124.29118 69.968023 
" clip-path="url(#pcbf762774a)" style="fill: none; stroke: #c8102e; stroke-opacity: 0.5; stroke-width: 1.2; stroke-linecap: square"/>
   </g>
   <g id="line2d_43">
    <path d="M 146.03144 191.504256 
L 146.03144 77.913275 
" clip-path="url(#pcbf762774a)" style="fill: none; stroke: #c8102e; stroke-opacity: 0.5; stroke-width: 1.2; stroke-linecap: square"/>
   </g>
   <g id="line2d_44">
    <path d="M 167.771699 148.151738 
L 167.771699 85.989497 
" clip-path="url(#pcbf762774a)" style="fill: none; stroke: #c8102e; stroke-opacity: 0.5; stroke-width: 1.2; stroke-linecap: square"/>
   </g>
   <g id="line2d_45">
    <path d="M 189.511959 197.089619 
L 189.511959 117.673009 
" clip-path="url(#pcbf762774a)" style="fill: none; stroke: #c8102e; stroke-opacity: 0.5; stroke-width: 1.2; stroke-linecap: square"/>
   </g>
   <g id="line2d_46">
    <path d="M 211.252219 201.871387 
L 211.252219 126.766459 
" clip-path="url(#pcbf762774a)" style="fill: none; stroke: #c8102e; stroke-opacity: 0.5; stroke-width: 1.2; stroke-linecap: square"/>
   </g>
   <g id="line2d_47">
    <path d="M 232.992479 238.288939 
L 232.992479 115.187661 
" clip-path="url(#pcbf762774a)" style="fill: none; stroke: #c8102e; stroke-opacity: 0.5; stroke-width: 1.2; stroke-linecap: square"/>
   </g>
   <g id="line2d_48">
    <path d="M 254.732738 284.826626 
L 254.732738 153.039047 
" clip-path="url(#pcbf762774a)" style="fill: none; stroke: #c8102e; stroke-opacity: 0.5; stroke-width: 1.2; stroke-linecap: square"/>
   </g>
   <g id="line2d_49">
    <path d="M 276.472998 287.049925 
L 276.472998 125.227324 
" clip-path="url(#pcbf762774a)" style="fill: none; stroke: #c8102e; stroke-opacity: 0.5; stroke-width: 1.2; stroke-linecap: square"/>
   </g>
   <g id="line2d_50">
    <path d="M 298.213258 243.914446 
L 298.213258 93.715129 
" clip-path="url(#pcbf762774a)" style="fill: none; stroke: #c8102e; stroke-opacity: 0.5; stroke-width: 1.2; stroke-linecap: square"/>
   </g>
   <g id="line2d_51">
    <path d="M 319.953518 238.053852 
L 319.953518 70.312198 
" clip-path="url(#pcbf762774a)" style="fill: none; stroke: #c8102e; stroke-opacity: 0.5; stroke-width: 1.2; stroke-linecap: square"/>
   </g>
   <g id="line2d_52">
    <path d="M 341.693777 243.411004 
L 341.693777 78.308354 
" clip-path="url(#pcbf762774a)" style="fill: none; stroke: #c8102e; stroke-opacity: 0.5; stroke-width: 1.2; stroke-linecap: square"/>
   </g>
   <g id="line2d_53">
    <path d="M 363.434037 228.366979 
L 363.434037 100.182142 
" clip-path="url(#pcbf762774a)" style="fill: none; stroke: #c8102e; stroke-opacity: 0.5; stroke-width: 1.2; stroke-linecap: square"/>
   </g>
   <g id="line2d_54">
    <path d="M 385.174297 243.1403 
L 385.174297 104.363076 
" clip-path="url(#pcbf762774a)" style="fill: none; stroke: #c8102e; stroke-opacity: 0.5; stroke-width: 1.2; stroke-linecap: square"/>
   </g>
   <g id="line2d_55">
    <path d="M 406.914557 231.455075 
L 406.914557 81.449632 
" clip-path="url(#pcbf762774a)" style="fill: none; stroke: #c8102e; stroke-opacity: 0.5; stroke-width: 1.2; stroke-linecap: square"/>
   </g>
   <g id="line2d_56">
    <path d="M 428.654816 205.405923 
L 428.654816 89.79746 
" clip-path="url(#pcbf762774a)" style="fill: none; stroke: #c8102e; stroke-opacity: 0.5; stroke-width: 1.2; stroke-linecap: square"/>
   </g>
   <g id="line2d_57">
    <path d="M 450.395076 196.745772 
L 450.395076 93.152935 
" clip-path="url(#pcbf762774a)" style="fill: none; stroke: #c8102e; stroke-opacity: 0.5; stroke-width: 1.2; stroke-linecap: square"/>
   </g>
   <g id="line2d_58">
    <path d="M 472.135336 169.890619 
L 472.135336 57.793825 
" clip-path="url(#pcbf762774a)" style="fill: none; stroke: #c8102e; stroke-opacity: 0.5; stroke-width: 1.2; stroke-linecap: square"/>
   </g>
   <g id="line2d_59">
    <path d="M 493.875596 193.531976 
L 493.875596 46.655975 
" clip-path="url(#pcbf762774a)" style="fill: none; stroke: #c8102e; stroke-opacity: 0.5; stroke-width: 1.2; stroke-linecap: square"/>
   </g>
   <g id="line2d_60">
    <path d="M 515.615855 183.39442 
L 515.615855 85.084216 
" clip-path="url(#pcbf762774a)" style="fill: none; stroke: #c8102e; stroke-opacity: 0.5; stroke-width: 1.2; stroke-linecap: square"/>
   </g>
   <g id="line2d_61">
    <path d="M 537.356115 214.013131 
L 537.356115 72.368426 
" clip-path="url(#pcbf762774a)" style="fill: none; stroke: #c8102e; stroke-opacity: 0.5; stroke-width: 1.2; stroke-linecap: square"/>
   </g>
   <g id="line2d_62">
    <path d="M 559.096375 225.046554 
L 559.096375 82.409271 
" clip-path="url(#pcbf762774a)" style="fill: none; stroke: #c8102e; stroke-opacity: 0.5; stroke-width: 1.2; stroke-linecap: square"/>
   </g>
   <g id="line2d_63">
    <path d="M 602.576894 210.597197 
L 602.576894 79.075701 
" clip-path="url(#pcbf762774a)" style="fill: none; stroke: #c8102e; stroke-opacity: 0.5; stroke-width: 1.2; stroke-linecap: square"/>
   </g>
   <g id="line2d_64">
    <path d="M 624.317154 189.879266 
L 624.317154 98.794098 
" clip-path="url(#pcbf762774a)" style="fill: none; stroke: #c8102e; stroke-opacity: 0.5; stroke-width: 1.2; stroke-linecap: square"/>
   </g>
   <g id="line2d_65">
    <path d="M 646.057414 218.400811 
L 646.057414 110.32406 
" clip-path="url(#pcbf762774a)" style="fill: none; stroke: #c8102e; stroke-opacity: 0.5; stroke-width: 1.2; stroke-linecap: square"/>
   </g>
   <g id="line2d_66">
    <path d="M 667.797673 192.277492 
L 667.797673 97.599231 
" clip-path="url(#pcbf762774a)" style="fill: none; stroke: #c8102e; stroke-opacity: 0.5; stroke-width: 1.2; stroke-linecap: square"/>
   </g>
   <g id="line2d_67">
    <path d="M 689.537933 178.25024 
L 689.537933 37.213594 
" clip-path="url(#pcbf762774a)" style="fill: none; stroke: #c8102e; stroke-opacity: 0.5; stroke-width: 1.2; stroke-linecap: square"/>
   </g>
   <g id="line2d_68">
    <path d="M 50.374297 128.027882 
L 719.974297 128.027882 
" clip-path="url(#pcbf762774a)" style="fill: none; stroke: #000000; stroke-width: 0.8; stroke-linecap: square"/>
   </g>
   <g id="line2d_69">
    <path d="M 602.576894 301.813594 
L 602.576894 24.613594 
" clip-path="url(#pcbf762774a)" style="fill: none; stroke-dasharray: 2.96,1.28; stroke-dashoffset: 0; stroke: #000000; stroke-width: 0.8"/>
   </g>
   <g id="patch_3">
    <path d="M 50.374297 301.813594 
L 50.374297 24.613594 
" style="fill: none; stroke: #000000; stroke-width: 0.8; stroke-linejoin: miter; stroke-linecap: square"/>
   </g>
   <g id="patch_4">
    <path d="M 50.374297 301.813594 
L 719.974297 301.813594 
" style="fill: none; stroke: #000000; stroke-width: 0.8; stroke-linejoin: miter; stroke-linecap: square"/>
   </g>
   <g id="PathCollection_1">
    <defs>
     <path id="m3f76e32557" d="M 0 2.12132 
C 0.562581 2.12132 1.102195 1.897805 1.5 1.5 
C 1.897805 1.102195 2.12132 0.562581 2.12132 0 
C 2.12132 -0.562581 1.897805 -1.102195 1.5 -1.5 
C 1.102195 -1.897805 0.562581 -2.12132 0 -2.12132 
C -0.562581 -2.12132 -1.102195 -1.897805 -1.5 -1.5 
C -1.897805 -1.102195 -2.12132 -0.562581 -2.12132 0 
C -2.12132 0.562581 -1.897805 1.102195 -1.5 1.5 
C -1.102195 1.897805 -0.562581 2.12132 0 2.12132 
z
" style="stroke: #003366"/>
    </defs>
    <g clip-path="url(#pcbf762774a)">
     <use xlink:href="#m3f76e32557" x="80.810661" y="124.652904" style="fill: #003366; stroke: #003366"/>
     <use xlink:href="#m3f76e32557" x="102.55092" y="155.888448" style="fill: #003366; stroke: #003366"/>
     <use xlink:href="#m3f76e32557" x="124.29118" y="130.992706" style="fill: #003366; stroke: #003366"/>
     <use xlink:href="#m3f76e32557" x="146.03144" y="119.175065" style="fill: #003366; stroke: #003366"/>
     <use xlink:href="#m3f76e32557" x="167.771699" y="123.752791" style="fill: #003366; stroke: #003366"/>
     <use xlink:href="#m3f76e32557" x="189.511959" y="170.703975" style="fill: #003366; stroke: #003366"/>
     <use xlink:href="#m3f76e32557" x="211.252219" y="197.58713" style="fill: #003366; stroke: #003366"/>
     <use xlink:href="#m3f76e32557" x="232.992479" y="170.231679" style="fill: #003366; stroke: #003366"/>
     <use xlink:href="#m3f76e32557" x="254.732738" y="218.892394" style="fill: #003366; stroke: #003366"/>
     <use xlink:href="#m3f76e32557" x="276.472998" y="192.321128" style="fill: #003366; stroke: #003366"/>
     <use xlink:href="#m3f76e32557" x="298.213258" y="147.162662" style="fill: #003366; stroke: #003366"/>
     <use xlink:href="#m3f76e32557" x="319.953518" y="138.14626" style="fill: #003366; stroke: #003366"/>
     <use xlink:href="#m3f76e32557" x="341.693777" y="158.727336" style="fill: #003366; stroke: #003366"/>
     <use xlink:href="#m3f76e32557" x="363.434037" y="185.921201" style="fill: #003366; stroke: #003366"/>
     <use xlink:href="#m3f76e32557" x="385.174297" y="176.339747" style="fill: #003366; stroke: #003366"/>
     <use xlink:href="#m3f76e32557" x="406.914557" y="141.430306" style="fill: #003366; stroke: #003366"/>
     <use xlink:href="#m3f76e32557" x="428.654816" y="155.880253" style="fill: #003366; stroke: #003366"/>
     <use xlink:href="#m3f76e32557" x="450.395076" y="157.461502" style="fill: #003366; stroke: #003366"/>
     <use xlink:href="#m3f76e32557" x="472.135336" y="148.778493" style="fill: #003366; stroke: #003366"/>
     <use xlink:href="#m3f76e32557" x="493.875596" y="111.881537" style="fill: #003366; stroke: #003366"/>
     <use xlink:href="#m3f76e32557" x="515.615855" y="134.198875" style="fill: #003366; stroke: #003366"/>
     <use xlink:href="#m3f76e32557" x="537.356115" y="129.373281" style="fill: #003366; stroke: #003366"/>
     <use xlink:href="#m3f76e32557" x="559.096375" y="132.075788" style="fill: #003366; stroke: #003366"/>
     <use xlink:href="#m3f76e32557" x="602.576894" y="137.82091" style="fill: #003366; stroke: #003366"/>
     <use xlink:href="#m3f76e32557" x="624.317154" y="161.64344" style="fill: #003366; stroke: #003366"/>
     <use xlink:href="#m3f76e32557" x="646.057414" y="167.13806" style="fill: #003366; stroke: #003366"/>
     <use xlink:href="#m3f76e32557" x="667.797673" y="134.930708" style="fill: #003366; stroke: #003366"/>
     <use xlink:href="#m3f76e32557" x="689.537933" y="116.99367" style="fill: #003366; stroke: #003366"/>
    </g>
   </g>
   <g id="PathCollection_2">
    <defs>
     <path id="m8d98ce0f72" d="M 0 2.12132 
C 0.562581 2.12132 1.102195 1.897805 1.5 1.5 
C 1.897805 1.102195 2.12132 0.562581 2.12132 0 
C 2.12132 -0.562581 1.897805 -1.102195 1.5 -1.5 
C 1.102195 -1.897805 0.562581 -2.12132 0 -2.12132 
C -0.562581 -2.12132 -1.102195 -1.897805 -1.5 -1.5 
C -1.897805 -1.102195 -2.12132 -0.562581 -2.12132 0 
C -2.12132 0.562581 -1.897805 1.102195 -1.5 1.5 
C -1.102195 1.897805 -0.562581 2.12132 0 2.12132 
z
" style="stroke: #c8102e"/>
    </defs>
    <g clip-path="url(#pcbf762774a)">
     <use xlink:href="#m8d98ce0f72" x="80.810661" y="127.643241" style="fill: #c8102e; stroke: #c8102e"/>
     <use xlink:href="#m8d98ce0f72" x="102.55092" y="134.020704" style="fill: #c8102e; stroke: #c8102e"/>
     <use xlink:href="#m8d98ce0f72" x="124.29118" y="129.06157" style="fill: #c8102e; stroke: #c8102e"/>
     <use xlink:href="#m8d98ce0f72" x="146.03144" y="134.708766" style="fill: #c8102e; stroke: #c8102e"/>
     <use xlink:href="#m8d98ce0f72" x="167.771699" y="117.070618" style="fill: #c8102e; stroke: #c8102e"/>
     <use xlink:href="#m8d98ce0f72" x="189.511959" y="157.381314" style="fill: #c8102e; stroke: #c8102e"/>
     <use xlink:href="#m8d98ce0f72" x="211.252219" y="164.318923" style="fill: #c8102e; stroke: #c8102e"/>
     <use xlink:href="#m8d98ce0f72" x="232.992479" y="176.7383" style="fill: #c8102e; stroke: #c8102e"/>
     <use xlink:href="#m8d98ce0f72" x="254.732738" y="218.932837" style="fill: #c8102e; stroke: #c8102e"/>
     <use xlink:href="#m8d98ce0f72" x="276.472998" y="206.138625" style="fill: #c8102e; stroke: #c8102e"/>
     <use xlink:href="#m8d98ce0f72" x="298.213258" y="168.814787" style="fill: #c8102e; stroke: #c8102e"/>
     <use xlink:href="#m8d98ce0f72" x="319.953518" y="154.183025" style="fill: #c8102e; stroke: #c8102e"/>
     <use xlink:href="#m8d98ce0f72" x="341.693777" y="160.859679" style="fill: #c8102e; stroke: #c8102e"/>
     <use xlink:href="#m8d98ce0f72" x="363.434037" y="164.274561" style="fill: #c8102e; stroke: #c8102e"/>
     <use xlink:href="#m8d98ce0f72" x="385.174297" y="173.751688" style="fill: #c8102e; stroke: #c8102e"/>
     <use xlink:href="#m8d98ce0f72" x="406.914557" y="156.452354" style="fill: #c8102e; stroke: #c8102e"/>
     <use xlink:href="#m8d98ce0f72" x="428.654816" y="147.601691" style="fill: #c8102e; stroke: #c8102e"/>
     <use xlink:href="#m8d98ce0f72" x="450.395076" y="144.949354" style="fill: #c8102e; stroke: #c8102e"/>
     <use xlink:href="#m8d98ce0f72" x="472.135336" y="113.842222" style="fill: #c8102e; stroke: #c8102e"/>
     <use xlink:href="#m8d98ce0f72" x="493.875596" y="120.093975" style="fill: #c8102e; stroke: #c8102e"/>
     <use xlink:href="#m8d98ce0f72" x="515.615855" y="134.239318" style="fill: #c8102e; stroke: #c8102e"/>
     <use xlink:href="#m8d98ce0f72" x="537.356115" y="143.190778" style="fill: #c8102e; stroke: #c8102e"/>
     <use xlink:href="#m8d98ce0f72" x="559.096375" y="153.727913" style="fill: #c8102e; stroke: #c8102e"/>
     <use xlink:href="#m8d98ce0f72" x="602.576894" y="144.836449" style="fill: #c8102e; stroke: #c8102e"/>
     <use xlink:href="#m8d98ce0f72" x="624.317154" y="144.336682" style="fill: #c8102e; stroke: #c8102e"/>
     <use xlink:href="#m8d98ce0f72" x="646.057414" y="164.362436" style="fill: #c8102e; stroke: #c8102e"/>
     <use xlink:href="#m8d98ce0f72" x="667.797673" y="144.938362" style="fill: #c8102e; stroke: #c8102e"/>
     <use xlink:href="#m8d98ce0f72" x="689.537933" y="107.731917" style="fill: #c8102e; stroke: #c8102e"/>
    </g>
   </g>
   <g id="text_14">
    <!-- Pre-trend F(11,11) = 47858.44  p = 0.000  (sesongjustert modell) -->
    <g style="fill: #c8102e" transform="translate(63.766297 39.768188) scale(0.09 -0.09)">
     <defs>
      <path id="DejaVuSans-33" d="M 1259 4147 
L 1259 2394 
L 2053 2394 
Q 2494 2394 2734 2622 
Q 2975 2850 2975 3272 
Q 2975 3691 2734 3919 
Q 2494 4147 2053 4147 
L 1259 4147 
z
M 628 4666 
L 2053 4666 
Q 2838 4666 3239 4311 
Q 3641 3956 3641 3272 
Q 3641 2581 3239 2228 
Q 2838 1875 2053 1875 
L 1259 1875 
L 1259 0 
L 628 0 
L 628 4666 
z
" transform="scale(0.015625)"/>
      <path id="DejaVuSans-10" d="M 313 2009 
L 1997 2009 
L 1997 1497 
L 313 1497 
L 313 2009 
z
" transform="scale(0.015625)"/>
      <path id="DejaVuSans-29" d="M 628 4666 
L 3309 4666 
L 3309 4134 
L 1259 4134 
L 1259 2759 
L 3109 2759 
L 3109 2228 
L 1259 2228 
L 1259 0 
L 628 0 
L 628 4666 
z
" transform="scale(0.015625)"/>
      <path id="DejaVuSans-f" d="M 750 794 
L 1409 794 
L 1409 256 
L 897 -744 
L 494 -744 
L 750 256 
L 750 794 
z
" transform="scale(0.015625)"/>
      <path id="DejaVuSans-20" d="M 678 2906 
L 4684 2906 
L 4684 2381 
L 678 2381 
L 678 2906 
z
M 678 1631 
L 4684 1631 
L 4684 1100 
L 678 1100 
L 678 1631 
z
" transform="scale(0.015625)"/>
      <path id="DejaVuSans-17" d="M 2419 4116 
L 825 1625 
L 2419 1625 
L 2419 4116 
z
M 2253 4666 
L 3047 4666 
L 3047 1625 
L 3713 1625 
L 3713 1100 
L 3047 1100 
L 3047 0 
L 2419 0 
L 2419 1100 
L 313 1100 
L 313 1709 
L 2253 4666 
z
" transform="scale(0.015625)"/>
      <path id="DejaVuSans-1a" d="M 525 4666 
L 3525 4666 
L 3525 4397 
L 1831 0 
L 1172 0 
L 2766 4134 
L 525 4134 
L 525 4666 
z
" transform="scale(0.015625)"/>
      <path id="DejaVuSans-1b" d="M 2034 2216 
Q 1584 2216 1326 1975 
Q 1069 1734 1069 1313 
Q 1069 891 1326 650 
Q 1584 409 2034 409 
Q 2484 409 2743 651 
Q 3003 894 3003 1313 
Q 3003 1734 2745 1975 
Q 2488 2216 2034 2216 
z
M 1403 2484 
Q 997 2584 770 2862 
Q 544 3141 544 3541 
Q 544 4100 942 4425 
Q 1341 4750 2034 4750 
Q 2731 4750 3128 4425 
Q 3525 4100 3525 3541 
Q 3525 3141 3298 2862 
Q 3072 2584 2669 2484 
Q 3125 2378 3379 2068 
Q 3634 1759 3634 1313 
Q 3634 634 3220 271 
Q 2806 -91 2034 -91 
Q 1263 -91 848 271 
Q 434 634 434 1313 
Q 434 1759 690 2068 
Q 947 2378 1403 2484 
z
M 1172 3481 
Q 1172 3119 1398 2916 
Q 1625 2713 2034 2713 
Q 2441 2713 2670 2916 
Q 2900 3119 2900 3481 
Q 2900 3844 2670 4047 
Q 2441 4250 2034 4250 
Q 1625 4250 1398 4047 
Q 1172 3844 1172 3481 
z
" transform="scale(0.015625)"/>
      <path id="DejaVuSans-11" d="M 684 794 
L 1344 794 
L 1344 0 
L 684 0 
L 684 794 
z
" transform="scale(0.015625)"/>
      <path id="DejaVuSans-53" d="M 1159 525 
L 1159 -1331 
L 581 -1331 
L 581 3500 
L 1159 3500 
L 1159 2969 
Q 1341 3281 1617 3432 
Q 1894 3584 2278 3584 
Q 2916 3584 3314 3078 
Q 3713 2572 3713 1747 
Q 3713 922 3314 415 
Q 2916 -91 2278 -91 
Q 1894 -91 1617 61 
Q 1341 213 1159 525 
z
M 3116 1747 
Q 3116 2381 2855 2742 
Q 2594 3103 2138 3103 
Q 1681 3103 1420 2742 
Q 1159 2381 1159 1747 
Q 1159 1113 1420 752 
Q 1681 391 2138 391 
Q 2594 391 2855 752 
Q 3116 1113 3116 1747 
z
" transform="scale(0.015625)"/>
      <path id="DejaVuSans-4d" d="M 603 3500 
L 1178 3500 
L 1178 -63 
Q 1178 -731 923 -1031 
Q 669 -1331 103 -1331 
L -116 -1331 
L -116 -844 
L 38 -844 
Q 366 -844 484 -692 
Q 603 -541 603 -63 
L 603 3500 
z
M 603 4863 
L 1178 4863 
L 1178 4134 
L 603 4134 
L 603 4863 
z
" transform="scale(0.015625)"/>
      <path id="DejaVuSans-58" d="M 544 1381 
L 544 3500 
L 1119 3500 
L 1119 1403 
Q 1119 906 1312 657 
Q 1506 409 1894 409 
Q 2359 409 2629 706 
Q 2900 1003 2900 1516 
L 2900 3500 
L 3475 3500 
L 3475 0 
L 2900 0 
L 2900 538 
Q 2691 219 2414 64 
Q 2138 -91 1772 -91 
Q 1169 -91 856 284 
Q 544 659 544 1381 
z
M 1991 3584 
L 1991 3584 
z
" transform="scale(0.015625)"/>
      <path id="DejaVuSans-50" d="M 3328 2828 
Q 3544 3216 3844 3400 
Q 4144 3584 4550 3584 
Q 5097 3584 5394 3201 
Q 5691 2819 5691 2113 
L 5691 0 
L 5113 0 
L 5113 2094 
Q 5113 2597 4934 2840 
Q 4756 3084 4391 3084 
Q 3944 3084 3684 2787 
Q 3425 2491 3425 1978 
L 3425 0 
L 2847 0 
L 2847 2094 
Q 2847 2600 2669 2842 
Q 2491 3084 2119 3084 
Q 1678 3084 1418 2786 
Q 1159 2488 1159 1978 
L 1159 0 
L 581 0 
L 581 3500 
L 1159 3500 
L 1159 2956 
Q 1356 3278 1631 3431 
Q 1906 3584 2284 3584 
Q 2666 3584 2933 3390 
Q 3200 3197 3328 2828 
z
" transform="scale(0.015625)"/>
     </defs>
     <use xlink:href="#DejaVuSans-33"/>
     <use xlink:href="#DejaVuSans-55" transform="translate(58.546875 0)"/>
     <use xlink:href="#DejaVuSans-48" transform="translate(97.453125 0)"/>
     <use xlink:href="#DejaVuSans-10" transform="translate(158.984375 0)"/>
     <use xlink:href="#DejaVuSans-57" transform="translate(195.0625 0)"/>
     <use xlink:href="#DejaVuSans-55" transform="translate(234.265625 0)"/>
     <use xlink:href="#DejaVuSans-48" transform="translate(273.171875 0)"/>
     <use xlink:href="#DejaVuSans-51" transform="translate(334.703125 0)"/>
     <use xlink:href="#DejaVuSans-47" transform="translate(398.078125 0)"/>
     <use xlink:href="#DejaVuSans-3" transform="translate(461.5625 0)"/>
     <use xlink:href="#DejaVuSans-29" transform="translate(493.34375 0)"/>
     <use xlink:href="#DejaVuSans-b" transform="translate(550.859375 0)"/>
     <use xlink:href="#DejaVuSans-14" transform="translate(589.875 0)"/>
     <use xlink:href="#DejaVuSans-14" transform="translate(653.5 0)"/>
     <use xlink:href="#DejaVuSans-f" transform="translate(717.125 0)"/>
     <use xlink:href="#DejaVuSans-14" transform="translate(748.90625 0)"/>
     <use xlink:href="#DejaVuSans-14" transform="translate(812.53125 0)"/>
     <use xlink:href="#DejaVuSans-c" transform="translate(876.15625 0)"/>
     <use xlink:href="#DejaVuSans-3" transform="translate(915.171875 0)"/>
     <use xlink:href="#DejaVuSans-20" transform="translate(946.953125 0)"/>
     <use xlink:href="#DejaVuSans-3" transform="translate(1030.75 0)"/>
     <use xlink:href="#DejaVuSans-17" transform="translate(1062.53125 0)"/>
     <use xlink:href="#DejaVuSans-1a" transform="translate(1126.15625 0)"/>
     <use xlink:href="#DejaVuSans-1b" transform="translate(1189.78125 0)"/>
     <use xlink:href="#DejaVuSans-18" transform="translate(1253.40625 0)"/>
     <use xlink:href="#DejaVuSans-1b" transform="translate(1317.03125 0)"/>
     <use xlink:href="#DejaVuSans-11" transform="translate(1380.65625 0)"/>
     <use xlink:href="#DejaVuSans-17" transform="translate(1412.4375 0)"/>
     <use xlink:href="#DejaVuSans-17" transform="translate(1476.0625 0)"/>
     <use xlink:href="#DejaVuSans-3" transform="translate(1539.6875 0)"/>
     <use xlink:href="#DejaVuSans-3" transform="translate(1571.46875 0)"/>
     <use xlink:href="#DejaVuSans-53" transform="translate(1603.25 0)"/>
     <use xlink:href="#DejaVuSans-3" transform="translate(1666.734375 0)"/>
     <use xlink:href="#DejaVuSans-20" transform="translate(1698.515625 0)"/>
     <use xlink:href="#DejaVuSans-3" transform="translate(1782.3125 0)"/>
     <use xlink:href="#DejaVuSans-13" transform="translate(1814.09375 0)"/>
     <use xlink:href="#DejaVuSans-11" transform="translate(1877.71875 0)"/>
     <use xlink:href="#DejaVuSans-13" transform="translate(1909.5 0)"/>
     <use xlink:href="#DejaVuSans-13" transform="translate(1973.125 0)"/>
     <use xlink:href="#DejaVuSans-13" transform="translate(2036.75 0)"/>
     <use xlink:href="#DejaVuSans-3" transform="translate(2100.375 0)"/>
     <use xlink:href="#DejaVuSans-3" transform="translate(2132.15625 0)"/>
     <use xlink:href="#DejaVuSans-b" transform="translate(2163.9375 0)"/>
     <use xlink:href="#DejaVuSans-56" transform="translate(2202.953125 0)"/>
     <use xlink:href="#DejaVuSans-48" transform="translate(2255.046875 0)"/>
     <use xlink:href="#DejaVuSans-56" transform="translate(2316.578125 0)"/>
     <use xlink:href="#DejaVuSans-52" transform="translate(2368.671875 0)"/>
     <use xlink:href="#DejaVuSans-51" transform="translate(2429.859375 0)"/>
     <use xlink:href="#DejaVuSans-4a" transform="translate(2493.234375 0)"/>
     <use xlink:href="#DejaVuSans-4d" transform="translate(2556.71875 0)"/>
     <use xlink:href="#DejaVuSans-58" transform="translate(2584.5 0)"/>
     <use xlink:href="#DejaVuSans-56" transform="translate(2647.875 0)"/>
     <use xlink:href="#DejaVuSans-57" transform="translate(2699.96875 0)"/>
     <use xlink:href="#DejaVuSans-48" transform="translate(2739.171875 0)"/>
     <use xlink:href="#DejaVuSans-55" transform="translate(2800.703125 0)"/>
     <use xlink:href="#DejaVuSans-57" transform="translate(2841.8125 0)"/>
     <use xlink:href="#DejaVuSans-3" transform="translate(2881.015625 0)"/>
     <use xlink:href="#DejaVuSans-50" transform="translate(2912.796875 0)"/>
     <use xlink:href="#DejaVuSans-52" transform="translate(3010.203125 0)"/>
     <use xlink:href="#DejaVuSans-47" transform="translate(3071.390625 0)"/>
     <use xlink:href="#DejaVuSans-48" transform="translate(3134.875 0)"/>
     <use xlink:href="#DejaVuSans-4f" transform="translate(3196.40625 0)"/>
     <use xlink:href="#DejaVuSans-4f" transform="translate(3224.1875 0)"/>
     <use xlink:href="#DejaVuSans-c" transform="translate(3251.96875 0)"/>
    </g>
   </g>
   <g id="text_15">
    <!-- Pre-trend F(11,11) = 77322.28  p = 0.000  (basis modell) -->
    <g style="fill: #003366" transform="translate(63.766297 61.944187) scale(0.09 -0.09)">
     <defs>
      <path id="DejaVuSans-16" d="M 2597 2516 
Q 3050 2419 3304 2112 
Q 3559 1806 3559 1356 
Q 3559 666 3084 287 
Q 2609 -91 1734 -91 
Q 1441 -91 1130 -33 
Q 819 25 488 141 
L 488 750 
Q 750 597 1062 519 
Q 1375 441 1716 441 
Q 2309 441 2620 675 
Q 2931 909 2931 1356 
Q 2931 1769 2642 2001 
Q 2353 2234 1838 2234 
L 1294 2234 
L 1294 2753 
L 1863 2753 
Q 2328 2753 2575 2939 
Q 2822 3125 2822 3475 
Q 2822 3834 2567 4026 
Q 2313 4219 1838 4219 
Q 1578 4219 1281 4162 
Q 984 4106 628 3988 
L 628 4550 
Q 988 4650 1302 4700 
Q 1616 4750 1894 4750 
Q 2613 4750 3031 4423 
Q 3450 4097 3450 3541 
Q 3450 3153 3228 2886 
Q 3006 2619 2597 2516 
z
" transform="scale(0.015625)"/>
     </defs>
     <use xlink:href="#DejaVuSans-33"/>
     <use xlink:href="#DejaVuSans-55" transform="translate(58.546875 0)"/>
     <use xlink:href="#DejaVuSans-48" transform="translate(97.453125 0)"/>
     <use xlink:href="#DejaVuSans-10" transform="translate(158.984375 0)"/>
     <use xlink:href="#DejaVuSans-57" transform="translate(195.0625 0)"/>
     <use xlink:href="#DejaVuSans-55" transform="translate(234.265625 0)"/>
     <use xlink:href="#DejaVuSans-48" transform="translate(273.171875 0)"/>
     <use xlink:href="#DejaVuSans-51" transform="translate(334.703125 0)"/>
     <use xlink:href="#DejaVuSans-47" transform="translate(398.078125 0)"/>
     <use xlink:href="#DejaVuSans-3" transform="translate(461.5625 0)"/>
     <use xlink:href="#DejaVuSans-29" transform="translate(493.34375 0)"/>
     <use xlink:href="#DejaVuSans-b" transform="translate(550.859375 0)"/>
     <use xlink:href="#DejaVuSans-14" transform="translate(589.875 0)"/>
     <use xlink:href="#DejaVuSans-14" transform="translate(653.5 0)"/>
     <use xlink:href="#DejaVuSans-f" transform="translate(717.125 0)"/>
     <use xlink:href="#DejaVuSans-14" transform="translate(748.90625 0)"/>
     <use xlink:href="#DejaVuSans-14" transform="translate(812.53125 0)"/>
     <use xlink:href="#DejaVuSans-c" transform="translate(876.15625 0)"/>
     <use xlink:href="#DejaVuSans-3" transform="translate(915.171875 0)"/>
     <use xlink:href="#DejaVuSans-20" transform="translate(946.953125 0)"/>
     <use xlink:href="#DejaVuSans-3" transform="translate(1030.75 0)"/>
     <use xlink:href="#DejaVuSans-1a" transform="translate(1062.53125 0)"/>
     <use xlink:href="#DejaVuSans-1a" transform="translate(1126.15625 0)"/>
     <use xlink:href="#DejaVuSans-16" transform="translate(1189.78125 0)"/>
     <use xlink:href="#DejaVuSans-15" transform="translate(1253.40625 0)"/>
     <use xlink:href="#DejaVuSans-15" transform="translate(1317.03125 0)"/>
     <use xlink:href="#DejaVuSans-11" transform="translate(1380.65625 0)"/>
     <use xlink:href="#DejaVuSans-15" transform="translate(1412.4375 0)"/>
     <use xlink:href="#DejaVuSans-1b" transform="translate(1476.0625 0)"/>
     <use xlink:href="#DejaVuSans-3" transform="translate(1539.6875 0)"/>
     <use xlink:href="#DejaVuSans-3" transform="translate(1571.46875 0)"/>
     <use xlink:href="#DejaVuSans-53" transform="translate(1603.25 0)"/>
     <use xlink:href="#DejaVuSans-3" transform="translate(1666.734375 0)"/>
     <use xlink:href="#DejaVuSans-20" transform="translate(1698.515625 0)"/>
     <use xlink:href="#DejaVuSans-3" transform="translate(1782.3125 0)"/>
     <use xlink:href="#DejaVuSans-13" transform="translate(1814.09375 0)"/>
     <use xlink:href="#DejaVuSans-11" transform="translate(1877.71875 0)"/>
     <use xlink:href="#DejaVuSans-13" transform="translate(1909.5 0)"/>
     <use xlink:href="#DejaVuSans-13" transform="translate(1973.125 0)"/>
     <use xlink:href="#DejaVuSans-13" transform="translate(2036.75 0)"/>
     <use xlink:href="#DejaVuSans-3" transform="translate(2100.375 0)"/>
     <use xlink:href="#DejaVuSans-3" transform="translate(2132.15625 0)"/>
     <use xlink:href="#DejaVuSans-b" transform="translate(2163.9375 0)"/>
     <use xlink:href="#DejaVuSans-45" transform="translate(2202.953125 0)"/>
     <use xlink:href="#DejaVuSans-44" transform="translate(2266.4375 0)"/>
     <use xlink:href="#DejaVuSans-56" transform="translate(2327.71875 0)"/>
     <use xlink:href="#DejaVuSans-4c" transform="translate(2379.8125 0)"/>
     <use xlink:href="#DejaVuSans-56" transform="translate(2407.59375 0)"/>
     <use xlink:href="#DejaVuSans-3" transform="translate(2459.6875 0)"/>
     <use xlink:href="#DejaVuSans-50" transform="translate(2491.46875 0)"/>
     <use xlink:href="#DejaVuSans-52" transform="translate(2588.875 0)"/>
     <use xlink:href="#DejaVuSans-47" transform="translate(2650.0625 0)"/>
     <use xlink:href="#DejaVuSans-48" transform="translate(2713.546875 0)"/>
     <use xlink:href="#DejaVuSans-4f" transform="translate(2775.078125 0)"/>
     <use xlink:href="#DejaVuSans-4f" transform="translate(2802.859375 0)"/>
     <use xlink:href="#DejaVuSans-c" transform="translate(2830.640625 0)"/>
    </g>
   </g>
   <g id="text_16">
    <!-- Eventstudie — I jobb etter 3 måneder -->
    <g transform="translate(262.584297 18.613594) scale(0.13 -0.13)">
     <defs>
      <path id="DejaVuSans-28" d="M 628 4666 
L 3578 4666 
L 3578 4134 
L 1259 4134 
L 1259 2753 
L 3481 2753 
L 3481 2222 
L 1259 2222 
L 1259 531 
L 3634 531 
L 3634 0 
L 628 0 
L 628 4666 
z
" transform="scale(0.015625)"/>
      <path id="DejaVuSans-af6" d="M 313 1978 
L 6088 1978 
L 6088 1528 
L 313 1528 
L 313 1978 
z
" transform="scale(0.015625)"/>
      <path id="DejaVuSans-2c" d="M 628 4666 
L 1259 4666 
L 1259 0 
L 628 0 
L 628 4666 
z
" transform="scale(0.015625)"/>
     </defs>
     <use xlink:href="#DejaVuSans-28"/>
     <use xlink:href="#DejaVuSans-59" transform="translate(63.1875 0)"/>
     <use xlink:href="#DejaVuSans-48" transform="translate(122.375 0)"/>
     <use xlink:href="#DejaVuSans-51" transform="translate(183.90625 0)"/>
     <use xlink:href="#DejaVuSans-57" transform="translate(247.28125 0)"/>
     <use xlink:href="#DejaVuSans-56" transform="translate(286.484375 0)"/>
     <use xlink:href="#DejaVuSans-57" transform="translate(338.578125 0)"/>
     <use xlink:href="#DejaVuSans-58" transform="translate(377.78125 0)"/>
     <use xlink:href="#DejaVuSans-47" transform="translate(441.15625 0)"/>
     <use xlink:href="#DejaVuSans-4c" transform="translate(504.640625 0)"/>
     <use xlink:href="#DejaVuSans-48" transform="translate(532.421875 0)"/>
     <use xlink:href="#DejaVuSans-3" transform="translate(593.953125 0)"/>
     <use xlink:href="#DejaVuSans-af6" transform="translate(625.734375 0)"/>
     <use xlink:href="#DejaVuSans-3" transform="translate(725.734375 0)"/>
     <use xlink:href="#DejaVuSans-2c" transform="translate(757.515625 0)"/>
     <use xlink:href="#DejaVuSans-3" transform="translate(787.015625 0)"/>
     <use xlink:href="#DejaVuSans-4d" transform="translate(818.796875 0)"/>
     <use xlink:href="#DejaVuSans-52" transform="translate(846.578125 0)"/>
     <use xlink:href="#DejaVuSans-45" transform="translate(907.765625 0)"/>
     <use xlink:href="#DejaVuSans-45" transform="translate(971.25 0)"/>
     <use xlink:href="#DejaVuSans-3" transform="translate(1034.734375 0)"/>
     <use xlink:href="#DejaVuSans-48" transform="translate(1066.515625 0)"/>
     <use xlink:href="#DejaVuSans-57" transform="translate(1128.046875 0)"/>
     <use xlink:href="#DejaVuSans-57" transform="translate(1167.25 0)"/>
     <use xlink:href="#DejaVuSans-48" transform="translate(1206.453125 0)"/>
     <use xlink:href="#DejaVuSans-55" transform="translate(1267.984375 0)"/>
     <use xlink:href="#DejaVuSans-3" transform="translate(1309.09375 0)"/>
     <use xlink:href="#DejaVuSans-16" transform="translate(1340.875 0)"/>
     <use xlink:href="#DejaVuSans-3" transform="translate(1404.5 0)"/>
     <use xlink:href="#DejaVuSans-50" transform="translate(1436.28125 0)"/>
     <use xlink:href="#DejaVuSans-a7" transform="translate(1533.6875 0)"/>
     <use xlink:href="#DejaVuSans-51" transform="translate(1594.96875 0)"/>
     <use xlink:href="#DejaVuSans-48" transform="translate(1658.34375 0)"/>
     <use xlink:href="#DejaVuSans-47" transform="translate(1719.875 0)"/>
     <use xlink:href="#DejaVuSans-48" transform="translate(1783.359375 0)"/>
     <use xlink:href="#DejaVuSans-55" transform="translate(1844.890625 0)"/>
    </g>
   </g>
   <g id="legend_1">
    <g id="PathCollection_3">
     <g>
      <use xlink:href="#m3f76e32557" x="67.474297" y="262.187578" style="fill: #003366; stroke: #003366"/>
     </g>
    </g>
    <g id="text_17">
     <!-- Basis -->
     <g transform="translate(83.674297 264.550078) scale(0.09 -0.09)">
      <defs>
       <path id="DejaVuSans-25" d="M 1259 2228 
L 1259 519 
L 2272 519 
Q 2781 519 3026 730 
Q 3272 941 3272 1375 
Q 3272 1813 3026 2020 
Q 2781 2228 2272 2228 
L 1259 2228 
z
M 1259 4147 
L 1259 2741 
L 2194 2741 
Q 2656 2741 2882 2914 
Q 3109 3088 3109 3444 
Q 3109 3797 2882 3972 
Q 2656 4147 2194 4147 
L 1259 4147 
z
M 628 4666 
L 2241 4666 
Q 2963 4666 3353 4366 
Q 3744 4066 3744 3513 
Q 3744 3084 3544 2831 
Q 3344 2578 2956 2516 
Q 3422 2416 3680 2098 
Q 3938 1781 3938 1306 
Q 3938 681 3513 340 
Q 3088 0 2303 0 
L 628 0 
L 628 4666 
z
" transform="scale(0.015625)"/>
      </defs>
      <use xlink:href="#DejaVuSans-25"/>
      <use xlink:href="#DejaVuSans-44" transform="translate(68.609375 0)"/>
      <use xlink:href="#DejaVuSans-56" transform="translate(129.890625 0)"/>
      <use xlink:href="#DejaVuSans-4c" transform="translate(181.984375 0)"/>
      <use xlink:href="#DejaVuSans-56" transform="translate(209.765625 0)"/>
     </g>
    </g>
    <g id="PathCollection_4">
     <g>
      <use xlink:href="#m8d98ce0f72" x="67.474297" y="275.688281" style="fill: #c8102e; stroke: #c8102e"/>
     </g>
    </g>
    <g id="text_18">
     <!-- Sesongjustert -->
     <g transform="translate(83.674297 278.050781) scale(0.09 -0.09)">
      <defs>
       <path id="DejaVuSans-36" d="M 3425 4513 
L 3425 3897 
Q 3066 4069 2747 4153 
Q 2428 4238 2131 4238 
Q 1616 4238 1336 4038 
Q 1056 3838 1056 3469 
Q 1056 3159 1242 3001 
Q 1428 2844 1947 2747 
L 2328 2669 
Q 3034 2534 3370 2195 
Q 3706 1856 3706 1288 
Q 3706 609 3251 259 
Q 2797 -91 1919 -91 
Q 1588 -91 1214 -16 
Q 841 59 441 206 
L 441 856 
Q 825 641 1194 531 
Q 1563 422 1919 422 
Q 2459 422 2753 634 
Q 3047 847 3047 1241 
Q 3047 1584 2836 1778 
Q 2625 1972 2144 2069 
L 1759 2144 
Q 1053 2284 737 2584 
Q 422 2884 422 3419 
Q 422 4038 858 4394 
Q 1294 4750 2059 4750 
Q 2388 4750 2728 4690 
Q 3069 4631 3425 4513 
z
" transform="scale(0.015625)"/>
      </defs>
      <use xlink:href="#DejaVuSans-36"/>
      <use xlink:href="#DejaVuSans-48" transform="translate(63.484375 0)"/>
      <use xlink:href="#DejaVuSans-56" transform="translate(125.015625 0)"/>
      <use xlink:href="#DejaVuSans-52" transform="translate(177.109375 0)"/>
      <use xlink:href="#DejaVuSans-51" transform="translate(238.296875 0)"/>
      <use xlink:href="#DejaVuSans-4a" transform="translate(301.671875 0)"/>
      <use xlink:href="#DejaVuSans-4d" transform="translate(365.15625 0)"/>
      <use xlink:href="#DejaVuSans-58" transform="translate(392.9375 0)"/>
      <use xlink:href="#DejaVuSans-56" transform="translate(456.3125 0)"/>
      <use xlink:href="#DejaVuSans-57" transform="translate(508.40625 0)"/>
      <use xlink:href="#DejaVuSans-48" transform="translate(547.609375 0)"/>
      <use xlink:href="#DejaVuSans-55" transform="translate(609.140625 0)"/>
      <use xlink:href="#DejaVuSans-57" transform="translate(650.25 0)"/>
     </g>
    </g>
    <g id="line2d_70">
     <path d="M 58.474297 288.401484 
L 67.474297 288.401484 
L 76.474297 288.401484 
" style="fill: none; stroke-dasharray: 2.96,1.28; stroke-dashoffset: 0; stroke: #000000; stroke-width: 0.8"/>
    </g>
    <g id="text_19">
     <!-- Behandlingsstart -->
     <g transform="translate(83.674297 291.551484) scale(0.09 -0.09)">
      <use xlink:href="#DejaVuSans-25"/>
      <use xlink:href="#DejaVuSans-48" transform="translate(68.609375 0)"/>
      <use xlink:href="#DejaVuSans-4b" transform="translate(130.140625 0)"/>
      <use xlink:href="#DejaVuSans-44" transform="translate(193.515625 0)"/>
      <use xlink:href="#DejaVuSans-51" transform="translate(254.796875 0)"/>
      <use xlink:href="#DejaVuSans-47" transform="translate(318.171875 0)"/>
      <use xlink:href="#DejaVuSans-4f" transform="translate(381.65625 0)"/>
      <use xlink:href="#DejaVuSans-4c" transform="translate(409.4375 0)"/>
      <use xlink:href="#DejaVuSans-51" transform="translate(437.21875 0)"/>
      <use xlink:href="#DejaVuSans-4a" transform="translate(500.59375 0)"/>
      <use xlink:href="#DejaVuSans-56" transform="translate(564.078125 0)"/>
      <use xlink:href="#DejaVuSans-56" transform="translate(616.171875 0)"/>
      <use xlink:href="#DejaVuSans-57" transform="translate(668.265625 0)"/>
      <use xlink:href="#DejaVuSans-44" transform="translate(707.46875 0)"/>
      <use xlink:href="#DejaVuSans-55" transform="translate(768.75 0)"/>
      <use xlink:href="#DejaVuSans-57" transform="translate(809.859375 0)"/>
     </g>
    </g>
   </g>
  </g>
 </g>
 <defs>
  <clipPath id="pcbf762774a">
   <rect x="50.374297" y="24.613594" width="669.6" height="277.2"/>
  </clipPath>
 </defs>
</svg>
