<?xml version="1.0" encoding="utf-8" standalone="no"?>
<!DOCTYPE svg PUBLIC "-//W3C//DTD SVG 1.1//EN"
  "http://www.w3.org/Graphics/SVG/1.1/DTD/svg11.dtd">
<svg xmlns:xlink="http://www.w3.org/1999/xlink" width="720.762813pt" height="341.637031pt" viewBox="0 0 720.762813 341.637031" xmlns="http://www.w3.org/2000/svg" version="1.1">
 <metadata>
  <rdf:RDF xmlns:dc="http://purl.org/dc/elements/1.1/" xmlns:cc="http://creativecommons.org/ns#" xmlns:rdf="http://www.w3.org/1999/02/22-rdf-syntax-ns#">
   <cc:Work>
    <dc:type rdf:resource="http://purl.org/dc/dcmitype/StillImage"/>
    <dc:date>2026-04-15T12:45:33.882096</dc:date>
    <dc:format>image/svg+xml</dc:format>
    <dc:creator>
     <cc:Agent>
      <dc:title>Matplotlib v3.10.8, https://matplotlib.org/</dc:title>
     </cc:Agent>
    </dc:creator>
   </cc:Work>
  </rdf:RDF>
 </metadata>
 <defs>
  <style type="text/css">*{stroke-linejoin: round; stroke-linecap: butt}</style>
 </defs>
 <g id="figure_1">
  <g id="patch_1">
   <path d="M 0 341.637031 
L 720.762813 341.637031 
L 720.762813 0 
L 0 0 
z
" style="fill: #ffffff"/>
  </g>
  <g id="axes_1">
   <g id="patch_2">
    <path d="M 43.962813 301.813594 
L 713.562813 301.813594 
L 713.562813 24.613594 
L 43.962813 24.613594 
z
" style="fill: #ffffff"/>
   </g>
   <g id="matplotlib.axis_1">
    <g id="xtick_1">
     <g id="line2d_1">
      <defs>
       <path id="mf82d6ce77d" d="M 0 0 
L 0 3.5 
" style="stroke: #000000; stroke-width: 0.8"/>
      </defs>
      <g>
       <use xlink:href="#mf82d6ce77d" x="51.853722" y="301.813594" style="stroke: #000000; stroke-width: 0.8"/>
      </g>
     </g>
     <g id="text_1">
      <!-- −25 -->
      <g transform="translate(41.301378 316.412031) scale(0.1 -0.1)">
       <defs>
        <path id="DejaVuSans-2212" d="M 678 2272 
L 4684 2272 
L 4684 1741 
L 678 1741 
L 678 2272 
z
" transform="scale(0.015625)"/>
        <path id="DejaVuSans-32" d="M 1228 531 
L 3431 531 
L 3431 0 
L 469 0 
L 469 531 
Q 828 903 1448 1529 
Q 2069 2156 2228 2338 
Q 2531 2678 2651 2914 
Q 2772 3150 2772 3378 
Q 2772 3750 2511 3984 
Q 2250 4219 1831 4219 
Q 1534 4219 1204 4116 
Q 875 4013 500 3803 
L 500 4441 
Q 881 4594 1212 4672 
Q 1544 4750 1819 4750 
Q 2544 4750 2975 4387 
Q 3406 4025 3406 3419 
Q 3406 3131 3298 2873 
Q 3191 2616 2906 2266 
Q 2828 2175 2409 1742 
Q 1991 1309 1228 531 
z
" transform="scale(0.015625)"/>
        <path id="DejaVuSans-35" d="M 691 4666 
L 3169 4666 
L 3169 4134 
L 1269 4134 
L 1269 2991 
Q 1406 3038 1543 3061 
Q 1681 3084 1819 3084 
Q 2600 3084 3056 2656 
Q 3513 2228 3513 1497 
Q 3513 744 3044 326 
Q 2575 -91 1722 -91 
Q 1428 -91 1123 -41 
Q 819 9 494 109 
L 494 744 
Q 775 591 1075 516 
Q 1375 441 1709 441 
Q 2250 441 2565 725 
Q 2881 1009 2881 1497 
Q 2881 1984 2565 2268 
Q 2250 2553 1709 2553 
Q 1456 2553 1204 2497 
Q 953 2441 691 2322 
L 691 4666 
z
" transform="scale(0.015625)"/>
       </defs>
       <use xlink:href="#DejaVuSans-2212"/>
       <use xlink:href="#DejaVuSans-32" transform="translate(83.789062 0)"/>
       <use xlink:href="#DejaVuSans-35" transform="translate(147.412109 0)"/>
      </g>
     </g>
    </g>
    <g id="xtick_2">
     <g id="line2d_2">
      <g>
       <use xlink:href="#mf82d6ce77d" x="164.580994" y="301.813594" style="stroke: #000000; stroke-width: 0.8"/>
      </g>
     </g>
     <g id="text_2">
      <!-- −20 -->
      <g transform="translate(154.028651 316.412031) scale(0.1 -0.1)">
       <defs>
        <path id="DejaVuSans-30" d="M 2034 4250 
Q 1547 4250 1301 3770 
Q 1056 3291 1056 2328 
Q 1056 1369 1301 889 
Q 1547 409 2034 409 
Q 2525 409 2770 889 
Q 3016 1369 3016 2328 
Q 3016 3291 2770 3770 
Q 2525 4250 2034 4250 
z
M 2034 4750 
Q 2819 4750 3233 4129 
Q 3647 3509 3647 2328 
Q 3647 1150 3233 529 
Q 2819 -91 2034 -91 
Q 1250 -91 836 529 
Q 422 1150 422 2328 
Q 422 3509 836 4129 
Q 1250 4750 2034 4750 
z
" transform="scale(0.015625)"/>
       </defs>
       <use xlink:href="#DejaVuSans-2212"/>
       <use xlink:href="#DejaVuSans-32" transform="translate(83.789062 0)"/>
       <use xlink:href="#DejaVuSans-30" transform="translate(147.412109 0)"/>
      </g>
     </g>
    </g>
    <g id="xtick_3">
     <g id="line2d_3">
      <g>
       <use xlink:href="#mf82d6ce77d" x="277.308267" y="301.813594" style="stroke: #000000; stroke-width: 0.8"/>
      </g>
     </g>
     <g id="text_3">
      <!-- −15 -->
      <g transform="translate(266.755923 316.412031) scale(0.1 -0.1)">
       <defs>
        <path id="DejaVuSans-31" d="M 794 531 
L 1825 531 
L 1825 4091 
L 703 3866 
L 703 4441 
L 1819 4666 
L 2450 4666 
L 2450 531 
L 3481 531 
L 3481 0 
L 794 0 
L 794 531 
z
" transform="scale(0.015625)"/>
       </defs>
       <use xlink:href="#DejaVuSans-2212"/>
       <use xlink:href="#DejaVuSans-31" transform="translate(83.789062 0)"/>
       <use xlink:href="#DejaVuSans-35" transform="translate(147.412109 0)"/>
      </g>
     </g>
    </g>
    <g id="xtick_4">
     <g id="line2d_4">
      <g>
       <use xlink:href="#mf82d6ce77d" x="390.03554" y="301.813594" style="stroke: #000000; stroke-width: 0.8"/>
      </g>
     </g>
     <g id="text_4">
      <!-- −10 -->
      <g transform="translate(379.483196 316.412031) scale(0.1 -0.1)">
       <use xlink:href="#DejaVuSans-2212"/>
       <use xlink:href="#DejaVuSans-31" transform="translate(83.789062 0)"/>
       <use xlink:href="#DejaVuSans-30" transform="translate(147.412109 0)"/>
      </g>
     </g>
    </g>
    <g id="xtick_5">
     <g id="line2d_5">
      <g>
       <use xlink:href="#mf82d6ce77d" x="502.762813" y="301.813594" style="stroke: #000000; stroke-width: 0.8"/>
      </g>
     </g>
     <g id="text_5">
      <!-- −5 -->
      <g transform="translate(495.391719 316.412031) scale(0.1 -0.1)">
       <use xlink:href="#DejaVuSans-2212"/>
       <use xlink:href="#DejaVuSans-35" transform="translate(83.789062 0)"/>
      </g>
     </g>
    </g>
    <g id="xtick_6">
     <g id="line2d_6">
      <g>
       <use xlink:href="#mf82d6ce77d" x="615.490085" y="301.813594" style="stroke: #000000; stroke-width: 0.8"/>
      </g>
     </g>
     <g id="text_6">
      <!-- 0 -->
      <g transform="translate(612.308835 316.412031) scale(0.1 -0.1)">
       <use xlink:href="#DejaVuSans-30"/>
      </g>
     </g>
    </g>
    <g id="text_7">
     <!-- Måneder relativt til behandlingsstart (τ) -->
     <g transform="translate(268.901172 332.149375) scale(0.11 -0.11)">
      <defs>
       <path id="DejaVuSans-4d" d="M 628 4666 
L 1569 4666 
L 2759 1491 
L 3956 4666 
L 4897 4666 
L 4897 0 
L 4281 0 
L 4281 4097 
L 3078 897 
L 2444 897 
L 1241 4097 
L 1241 0 
L 628 0 
L 628 4666 
z
" transform="scale(0.015625)"/>
       <path id="DejaVuSans-e5" d="M 2194 1759 
Q 1497 1759 1228 1600 
Q 959 1441 959 1056 
Q 959 750 1161 570 
Q 1363 391 1709 391 
Q 2188 391 2477 730 
Q 2766 1069 2766 1631 
L 2766 1759 
L 2194 1759 
z
M 3341 1997 
L 3341 0 
L 2766 0 
L 2766 531 
Q 2569 213 2275 61 
Q 1981 -91 1556 -91 
Q 1019 -91 701 211 
Q 384 513 384 1019 
Q 384 1609 779 1909 
Q 1175 2209 1959 2209 
L 2766 2209 
L 2766 2266 
Q 2766 2663 2505 2880 
Q 2244 3097 1772 3097 
Q 1472 3097 1187 3025 
Q 903 2953 641 2809 
L 641 3341 
Q 956 3463 1253 3523 
Q 1550 3584 1831 3584 
Q 2591 3584 2966 3190 
Q 3341 2797 3341 1997 
z
M 2331 4763 
Q 2331 4959 2193 5096 
Q 2056 5234 1856 5234 
Q 1653 5234 1517 5098 
Q 1381 4963 1381 4763 
Q 1381 4559 1517 4423 
Q 1653 4288 1856 4288 
Q 2056 4288 2193 4425 
Q 2331 4563 2331 4763 
z
M 2712 4763 
Q 2712 4403 2463 4153 
Q 2215 3903 1856 3903 
Q 1497 3903 1248 4153 
Q 1000 4403 1000 4763 
Q 1000 5122 1248 5370 
Q 1497 5619 1856 5619 
Q 2215 5619 2463 5370 
Q 2712 5122 2712 4763 
z
" transform="scale(0.015625)"/>
       <path id="DejaVuSans-6e" d="M 3513 2113 
L 3513 0 
L 2938 0 
L 2938 2094 
Q 2938 2591 2744 2837 
Q 2550 3084 2163 3084 
Q 1697 3084 1428 2787 
Q 1159 2491 1159 1978 
L 1159 0 
L 581 0 
L 581 3500 
L 1159 3500 
L 1159 2956 
Q 1366 3272 1645 3428 
Q 1925 3584 2291 3584 
Q 2894 3584 3203 3211 
Q 3513 2838 3513 2113 
z
" transform="scale(0.015625)"/>
       <path id="DejaVuSans-65" d="M 3597 1894 
L 3597 1613 
L 953 1613 
Q 991 1019 1311 708 
Q 1631 397 2203 397 
Q 2534 397 2845 478 
Q 3156 559 3463 722 
L 3463 178 
Q 3153 47 2828 -22 
Q 2503 -91 2169 -91 
Q 1331 -91 842 396 
Q 353 884 353 1716 
Q 353 2575 817 3079 
Q 1281 3584 2069 3584 
Q 2775 3584 3186 3129 
Q 3597 2675 3597 1894 
z
M 3022 2063 
Q 3016 2534 2758 2815 
Q 2500 3097 2075 3097 
Q 1594 3097 1305 2825 
Q 1016 2553 972 2059 
L 3022 2063 
z
" transform="scale(0.015625)"/>
       <path id="DejaVuSans-64" d="M 2906 2969 
L 2906 4863 
L 3481 4863 
L 3481 0 
L 2906 0 
L 2906 525 
Q 2725 213 2448 61 
Q 2172 -91 1784 -91 
Q 1150 -91 751 415 
Q 353 922 353 1747 
Q 353 2572 751 3078 
Q 1150 3584 1784 3584 
Q 2172 3584 2448 3432 
Q 2725 3281 2906 2969 
z
M 947 1747 
Q 947 1113 1208 752 
Q 1469 391 1925 391 
Q 2381 391 2643 752 
Q 2906 1113 2906 1747 
Q 2906 2381 2643 2742 
Q 2381 3103 1925 3103 
Q 1469 3103 1208 2742 
Q 947 2381 947 1747 
z
" transform="scale(0.015625)"/>
       <path id="DejaVuSans-72" d="M 2631 2963 
Q 2534 3019 2420 3045 
Q 2306 3072 2169 3072 
Q 1681 3072 1420 2755 
Q 1159 2438 1159 1844 
L 1159 0 
L 581 0 
L 581 3500 
L 1159 3500 
L 1159 2956 
Q 1341 3275 1631 3429 
Q 1922 3584 2338 3584 
Q 2397 3584 2469 3576 
Q 2541 3569 2628 3553 
L 2631 2963 
z
" transform="scale(0.015625)"/>
       <path id="DejaVuSans-20" transform="scale(0.015625)"/>
       <path id="DejaVuSans-6c" d="M 603 4863 
L 1178 4863 
L 1178 0 
L 603 0 
L 603 4863 
z
" transform="scale(0.015625)"/>
       <path id="DejaVuSans-61" d="M 2194 1759 
Q 1497 1759 1228 1600 
Q 959 1441 959 1056 
Q 959 750 1161 570 
Q 1363 391 1709 391 
Q 2188 391 2477 730 
Q 2766 1069 2766 1631 
L 2766 1759 
L 2194 1759 
z
M 3341 1997 
L 3341 0 
L 2766 0 
L 2766 531 
Q 2569 213 2275 61 
Q 1981 -91 1556 -91 
Q 1019 -91 701 211 
Q 384 513 384 1019 
Q 384 1609 779 1909 
Q 1175 2209 1959 2209 
L 2766 2209 
L 2766 2266 
Q 2766 2663 2505 2880 
Q 2244 3097 1772 3097 
Q 1472 3097 1187 3025 
Q 903 2953 641 2809 
L 641 3341 
Q 956 3463 1253 3523 
Q 1550 3584 1831 3584 
Q 2591 3584 2966 3190 
Q 3341 2797 3341 1997 
z
" transform="scale(0.015625)"/>
       <path id="DejaVuSans-74" d="M 1172 4494 
L 1172 3500 
L 2356 3500 
L 2356 3053 
L 1172 3053 
L 1172 1153 
Q 1172 725 1289 603 
Q 1406 481 1766 481 
L 2356 481 
L 2356 0 
L 1766 0 
Q 1100 0 847 248 
Q 594 497 594 1153 
L 594 3053 
L 172 3053 
L 172 3500 
L 594 3500 
L 594 4494 
L 1172 4494 
z
" transform="scale(0.015625)"/>
       <path id="DejaVuSans-69" d="M 603 3500 
L 1178 3500 
L 1178 0 
L 603 0 
L 603 3500 
z
M 603 4863 
L 1178 4863 
L 1178 4134 
L 603 4134 
L 603 4863 
z
" transform="scale(0.015625)"/>
       <path id="DejaVuSans-76" d="M 191 3500 
L 800 3500 
L 1894 563 
L 2988 3500 
L 3597 3500 
L 2284 0 
L 1503 0 
L 191 3500 
z
" transform="scale(0.015625)"/>
       <path id="DejaVuSans-62" d="M 3116 1747 
Q 3116 2381 2855 2742 
Q 2594 3103 2138 3103 
Q 1681 3103 1420 2742 
Q 1159 2381 1159 1747 
Q 1159 1113 1420 752 
Q 1681 391 2138 391 
Q 2594 391 2855 752 
Q 3116 1113 3116 1747 
z
M 1159 2969 
Q 1341 3281 1617 3432 
Q 1894 3584 2278 3584 
Q 2916 3584 3314 3078 
Q 3713 2572 3713 1747 
Q 3713 922 3314 415 
Q 2916 -91 2278 -91 
Q 1894 -91 1617 61 
Q 1341 213 1159 525 
L 1159 0 
L 581 0 
L 581 4863 
L 1159 4863 
L 1159 2969 
z
" transform="scale(0.015625)"/>
       <path id="DejaVuSans-68" d="M 3513 2113 
L 3513 0 
L 2938 0 
L 2938 2094 
Q 2938 2591 2744 2837 
Q 2550 3084 2163 3084 
Q 1697 3084 1428 2787 
Q 1159 2491 1159 1978 
L 1159 0 
L 581 0 
L 581 4863 
L 1159 4863 
L 1159 2956 
Q 1366 3272 1645 3428 
Q 1925 3584 2291 3584 
Q 2894 3584 3203 3211 
Q 3513 2838 3513 2113 
z
" transform="scale(0.015625)"/>
       <path id="DejaVuSans-67" d="M 2906 1791 
Q 2906 2416 2648 2759 
Q 2391 3103 1925 3103 
Q 1463 3103 1205 2759 
Q 947 2416 947 1791 
Q 947 1169 1205 825 
Q 1463 481 1925 481 
Q 2391 481 2648 825 
Q 2906 1169 2906 1791 
z
M 3481 434 
Q 3481 -459 3084 -895 
Q 2688 -1331 1869 -1331 
Q 1566 -1331 1297 -1286 
Q 1028 -1241 775 -1147 
L 775 -588 
Q 1028 -725 1275 -790 
Q 1522 -856 1778 -856 
Q 2344 -856 2625 -561 
Q 2906 -266 2906 331 
L 2906 616 
Q 2728 306 2450 153 
Q 2172 0 1784 0 
Q 1141 0 747 490 
Q 353 981 353 1791 
Q 353 2603 747 3093 
Q 1141 3584 1784 3584 
Q 2172 3584 2450 3431 
Q 2728 3278 2906 2969 
L 2906 3500 
L 3481 3500 
L 3481 434 
z
" transform="scale(0.015625)"/>
       <path id="DejaVuSans-73" d="M 2834 3397 
L 2834 2853 
Q 2591 2978 2328 3040 
Q 2066 3103 1784 3103 
Q 1356 3103 1142 2972 
Q 928 2841 928 2578 
Q 928 2378 1081 2264 
Q 1234 2150 1697 2047 
L 1894 2003 
Q 2506 1872 2764 1633 
Q 3022 1394 3022 966 
Q 3022 478 2636 193 
Q 2250 -91 1575 -91 
Q 1294 -91 989 -36 
Q 684 19 347 128 
L 347 722 
Q 666 556 975 473 
Q 1284 391 1588 391 
Q 1994 391 2212 530 
Q 2431 669 2431 922 
Q 2431 1156 2273 1281 
Q 2116 1406 1581 1522 
L 1381 1569 
Q 847 1681 609 1914 
Q 372 2147 372 2553 
Q 372 3047 722 3315 
Q 1072 3584 1716 3584 
Q 2034 3584 2315 3537 
Q 2597 3491 2834 3397 
z
" transform="scale(0.015625)"/>
       <path id="DejaVuSans-28" d="M 1984 4856 
Q 1566 4138 1362 3434 
Q 1159 2731 1159 2009 
Q 1159 1288 1364 580 
Q 1569 -128 1984 -844 
L 1484 -844 
Q 1016 -109 783 600 
Q 550 1309 550 2009 
Q 550 2706 781 3412 
Q 1013 4119 1484 4856 
L 1984 4856 
z
" transform="scale(0.015625)"/>
       <path id="DejaVuSans-3c4" d="M 2319 638 
Q 2431 488 2769 488 
L 3047 488 
L 3047 0 
L 2700 0 
Q 2138 0 1881 300 
Q 1625 606 1625 1269 
L 1625 2925 
L 313 2925 
L 313 3500 
L 3541 3500 
L 3541 2925 
L 2213 2925 
L 2213 1234 
Q 2213 781 2319 638 
z
" transform="scale(0.015625)"/>
       <path id="DejaVuSans-29" d="M 513 4856 
L 1013 4856 
Q 1481 4119 1714 3412 
Q 1947 2706 1947 2009 
Q 1947 1309 1714 600 
Q 1481 -109 1013 -844 
L 513 -844 
Q 928 -128 1133 580 
Q 1338 1288 1338 2009 
Q 1338 2731 1133 3434 
Q 928 4138 513 4856 
z
" transform="scale(0.015625)"/>
      </defs>
      <use xlink:href="#DejaVuSans-4d"/>
      <use xlink:href="#DejaVuSans-e5" transform="translate(86.279297 0)"/>
      <use xlink:href="#DejaVuSans-6e" transform="translate(147.558594 0)"/>
      <use xlink:href="#DejaVuSans-65" transform="translate(210.9375 0)"/>
      <use xlink:href="#DejaVuSans-64" transform="translate(272.460938 0)"/>
      <use xlink:href="#DejaVuSans-65" transform="translate(335.9375 0)"/>
      <use xlink:href="#DejaVuSans-72" transform="translate(397.460938 0)"/>
      <use xlink:href="#DejaVuSans-20" transform="translate(438.574219 0)"/>
      <use xlink:href="#DejaVuSans-72" transform="translate(470.361328 0)"/>
      <use xlink:href="#DejaVuSans-65" transform="translate(509.224609 0)"/>
      <use xlink:href="#DejaVuSans-6c" transform="translate(570.748047 0)"/>
      <use xlink:href="#DejaVuSans-61" transform="translate(598.53125 0)"/>
      <use xlink:href="#DejaVuSans-74" transform="translate(659.810547 0)"/>
      <use xlink:href="#DejaVuSans-69" transform="translate(699.019531 0)"/>
      <use xlink:href="#DejaVuSans-76" transform="translate(726.802734 0)"/>
      <use xlink:href="#DejaVuSans-74" transform="translate(785.982422 0)"/>
      <use xlink:href="#DejaVuSans-20" transform="translate(825.191406 0)"/>
      <use xlink:href="#DejaVuSans-74" transform="translate(856.978516 0)"/>
      <use xlink:href="#DejaVuSans-69" transform="translate(896.1875 0)"/>
      <use xlink:href="#DejaVuSans-6c" transform="translate(923.970703 0)"/>
      <use xlink:href="#DejaVuSans-20" transform="translate(951.753906 0)"/>
      <use xlink:href="#DejaVuSans-62" transform="translate(983.541016 0)"/>
      <use xlink:href="#DejaVuSans-65" transform="translate(1047.017578 0)"/>
      <use xlink:href="#DejaVuSans-68" transform="translate(1108.541016 0)"/>
      <use xlink:href="#DejaVuSans-61" transform="translate(1171.919922 0)"/>
      <use xlink:href="#DejaVuSans-6e" transform="translate(1233.199219 0)"/>
      <use xlink:href="#DejaVuSans-64" transform="translate(1296.578125 0)"/>
      <use xlink:href="#DejaVuSans-6c" transform="translate(1360.054688 0)"/>
      <use xlink:href="#DejaVuSans-69" transform="translate(1387.837891 0)"/>
      <use xlink:href="#DejaVuSans-6e" transform="translate(1415.621094 0)"/>
      <use xlink:href="#DejaVuSans-67" transform="translate(1479 0)"/>
      <use xlink:href="#DejaVuSans-73" transform="translate(1542.476562 0)"/>
      <use xlink:href="#DejaVuSans-73" transform="translate(1594.576172 0)"/>
      <use xlink:href="#DejaVuSans-74" transform="translate(1646.675781 0)"/>
      <use xlink:href="#DejaVuSans-61" transform="translate(1685.884766 0)"/>
      <use xlink:href="#DejaVuSans-72" transform="translate(1747.164062 0)"/>
      <use xlink:href="#DejaVuSans-74" transform="translate(1788.277344 0)"/>
      <use xlink:href="#DejaVuSans-20" transform="translate(1827.486328 0)"/>
      <use xlink:href="#DejaVuSans-28" transform="translate(1859.273438 0)"/>
      <use xlink:href="#DejaVuSans-3c4" transform="translate(1898.287109 0)"/>
      <use xlink:href="#DejaVuSans-29" transform="translate(1958.492188 0)"/>
     </g>
    </g>
   </g>
   <g id="matplotlib.axis_2">
    <g id="ytick_1">
     <g id="line2d_7">
      <defs>
       <path id="m76a91e5e02" d="M 0 0 
L -3.5 0 
" style="stroke: #000000; stroke-width: 0.8"/>
      </defs>
      <g>
       <use xlink:href="#m76a91e5e02" x="43.962813" y="270.021767" style="stroke: #000000; stroke-width: 0.8"/>
      </g>
     </g>
     <g id="text_8">
      <!-- −6 -->
      <g transform="translate(22.220625 273.820986) scale(0.1 -0.1)">
       <defs>
        <path id="DejaVuSans-36" d="M 2113 2584 
Q 1688 2584 1439 2293 
Q 1191 2003 1191 1497 
Q 1191 994 1439 701 
Q 1688 409 2113 409 
Q 2538 409 2786 701 
Q 3034 994 3034 1497 
Q 3034 2003 2786 2293 
Q 2538 2584 2113 2584 
z
M 3366 4563 
L 3366 3988 
Q 3128 4100 2886 4159 
Q 2644 4219 2406 4219 
Q 1781 4219 1451 3797 
Q 1122 3375 1075 2522 
Q 1259 2794 1537 2939 
Q 1816 3084 2150 3084 
Q 2853 3084 3261 2657 
Q 3669 2231 3669 1497 
Q 3669 778 3244 343 
Q 2819 -91 2113 -91 
Q 1303 -91 875 529 
Q 447 1150 447 2328 
Q 447 3434 972 4092 
Q 1497 4750 2381 4750 
Q 2619 4750 2861 4703 
Q 3103 4656 3366 4563 
z
" transform="scale(0.015625)"/>
       </defs>
       <use xlink:href="#DejaVuSans-2212"/>
       <use xlink:href="#DejaVuSans-36" transform="translate(83.789062 0)"/>
      </g>
     </g>
    </g>
    <g id="ytick_2">
     <g id="line2d_8">
      <g>
       <use xlink:href="#m76a91e5e02" x="43.962813" y="218.470793" style="stroke: #000000; stroke-width: 0.8"/>
      </g>
     </g>
     <g id="text_9">
      <!-- −4 -->
      <g transform="translate(22.220625 222.270012) scale(0.1 -0.1)">
       <defs>
        <path id="DejaVuSans-34" d="M 2419 4116 
L 825 1625 
L 2419 1625 
L 2419 4116 
z
M 2253 4666 
L 3047 4666 
L 3047 1625 
L 3713 1625 
L 3713 1100 
L 3047 1100 
L 3047 0 
L 2419 0 
L 2419 1100 
L 313 1100 
L 313 1709 
L 2253 4666 
z
" transform="scale(0.015625)"/>
       </defs>
       <use xlink:href="#DejaVuSans-2212"/>
       <use xlink:href="#DejaVuSans-34" transform="translate(83.789062 0)"/>
      </g>
     </g>
    </g>
    <g id="ytick_3">
     <g id="line2d_9">
      <g>
       <use xlink:href="#m76a91e5e02" x="43.962813" y="166.919819" style="stroke: #000000; stroke-width: 0.8"/>
      </g>
     </g>
     <g id="text_10">
      <!-- −2 -->
      <g transform="translate(22.220625 170.719038) scale(0.1 -0.1)">
       <use xlink:href="#DejaVuSans-2212"/>
       <use xlink:href="#DejaVuSans-32" transform="translate(83.789062 0)"/>
      </g>
     </g>
    </g>
    <g id="ytick_4">
     <g id="line2d_10">
      <g>
       <use xlink:href="#m76a91e5e02" x="43.962813" y="115.368845" style="stroke: #000000; stroke-width: 0.8"/>
      </g>
     </g>
     <g id="text_11">
      <!-- 0 -->
      <g transform="translate(30.600313 119.168064) scale(0.1 -0.1)">
       <use xlink:href="#DejaVuSans-30"/>
      </g>
     </g>
    </g>
    <g id="ytick_5">
     <g id="line2d_11">
      <g>
       <use xlink:href="#m76a91e5e02" x="43.962813" y="63.817871" style="stroke: #000000; stroke-width: 0.8"/>
      </g>
     </g>
     <g id="text_12">
      <!-- 2 -->
      <g transform="translate(30.600313 67.61709) scale(0.1 -0.1)">
       <use xlink:href="#DejaVuSans-32"/>
      </g>
     </g>
    </g>
    <g id="text_13">
     <!-- Koeffisient (β_τ) -->
     <g transform="translate(15.627031 207.724922) rotate(-90) scale(0.11 -0.11)">
      <defs>
       <path id="DejaVuSans-4b" d="M 628 4666 
L 1259 4666 
L 1259 2694 
L 3353 4666 
L 4166 4666 
L 1850 2491 
L 4331 0 
L 3500 0 
L 1259 2247 
L 1259 0 
L 628 0 
L 628 4666 
z
" transform="scale(0.015625)"/>
       <path id="DejaVuSans-6f" d="M 1959 3097 
Q 1497 3097 1228 2736 
Q 959 2375 959 1747 
Q 959 1119 1226 758 
Q 1494 397 1959 397 
Q 2419 397 2687 759 
Q 2956 1122 2956 1747 
Q 2956 2369 2687 2733 
Q 2419 3097 1959 3097 
z
M 1959 3584 
Q 2709 3584 3137 3096 
Q 3566 2609 3566 1747 
Q 3566 888 3137 398 
Q 2709 -91 1959 -91 
Q 1206 -91 779 398 
Q 353 888 353 1747 
Q 353 2609 779 3096 
Q 1206 3584 1959 3584 
z
" transform="scale(0.015625)"/>
       <path id="DejaVuSans-66" d="M 2375 4863 
L 2375 4384 
L 1825 4384 
Q 1516 4384 1395 4259 
Q 1275 4134 1275 3809 
L 1275 3500 
L 2222 3500 
L 2222 3053 
L 1275 3053 
L 1275 0 
L 697 0 
L 697 3053 
L 147 3053 
L 147 3500 
L 697 3500 
L 697 3744 
Q 697 4328 969 4595 
Q 1241 4863 1831 4863 
L 2375 4863 
z
" transform="scale(0.015625)"/>
       <path id="DejaVuSans-3b2" d="M 1178 216 
L 1178 -1331 
L 600 -1331 
L 600 3478 
Q 600 4903 1931 4903 
Q 3288 4903 3288 3700 
Q 3288 2844 2750 2531 
Q 3625 2250 3625 1416 
Q 3625 -66 2119 -66 
Q 1456 -66 1178 216 
z
M 1178 966 
Q 1525 425 2141 425 
Q 3041 425 3041 1406 
Q 3041 2288 1591 2219 
L 1591 2750 
Q 2725 2750 2725 3750 
Q 2725 4434 1994 4434 
Q 1178 4434 1178 3459 
L 1178 966 
z
" transform="scale(0.015625)"/>
       <path id="DejaVuSans-5f" d="M 3263 -1063 
L 3263 -1509 
L -63 -1509 
L -63 -1063 
L 3263 -1063 
z
" transform="scale(0.015625)"/>
      </defs>
      <use xlink:href="#DejaVuSans-4b"/>
      <use xlink:href="#DejaVuSans-6f" transform="translate(60.576172 0)"/>
      <use xlink:href="#DejaVuSans-65" transform="translate(121.757812 0)"/>
      <use xlink:href="#DejaVuSans-66" transform="translate(183.28125 0)"/>
      <use xlink:href="#DejaVuSans-66" transform="translate(218.486328 0)"/>
      <use xlink:href="#DejaVuSans-69" transform="translate(253.691406 0)"/>
      <use xlink:href="#DejaVuSans-73" transform="translate(281.474609 0)"/>
      <use xlink:href="#DejaVuSans-69" transform="translate(333.574219 0)"/>
      <use xlink:href="#DejaVuSans-65" transform="translate(361.357422 0)"/>
      <use xlink:href="#DejaVuSans-6e" transform="translate(422.880859 0)"/>
      <use xlink:href="#DejaVuSans-74" transform="translate(486.259766 0)"/>
      <use xlink:href="#DejaVuSans-20" transform="translate(525.46875 0)"/>
      <use xlink:href="#DejaVuSans-28" transform="translate(557.255859 0)"/>
      <use xlink:href="#DejaVuSans-3b2" transform="translate(596.269531 0)"/>
      <use xlink:href="#DejaVuSans-5f" transform="translate(660.087891 0)"/>
      <use xlink:href="#DejaVuSans-3c4" transform="translate(710.087891 0)"/>
      <use xlink:href="#DejaVuSans-29" transform="translate(770.292969 0)"/>
     </g>
    </g>
   </g>
   <g id="line2d_12">
    <path d="M 74.399176 221.886304 
L 74.399176 65.473102 
" clip-path="url(#p8e390c7ad0)" style="fill: none; stroke: #003366; stroke-opacity: 0.5; stroke-width: 1.2; stroke-linecap: square"/>
   </g>
   <g id="line2d_13">
    <path d="M 96.944631 195.683664 
L 96.944631 93.288386 
" clip-path="url(#p8e390c7ad0)" style="fill: none; stroke: #003366; stroke-opacity: 0.5; stroke-width: 1.2; stroke-linecap: square"/>
   </g>
   <g id="line2d_14">
    <path d="M 119.490085 204.743547 
L 119.490085 96.912263 
" clip-path="url(#p8e390c7ad0)" style="fill: none; stroke: #003366; stroke-opacity: 0.5; stroke-width: 1.2; stroke-linecap: square"/>
   </g>
   <g id="line2d_15">
    <path d="M 142.03554 178.633941 
L 142.03554 87.853667 
" clip-path="url(#p8e390c7ad0)" style="fill: none; stroke: #003366; stroke-opacity: 0.5; stroke-width: 1.2; stroke-linecap: square"/>
   </g>
   <g id="line2d_16">
    <path d="M 164.580994 195.915961 
L 164.580994 106.6896 
" clip-path="url(#p8e390c7ad0)" style="fill: none; stroke: #003366; stroke-opacity: 0.5; stroke-width: 1.2; stroke-linecap: square"/>
   </g>
   <g id="line2d_17">
    <path d="M 187.126449 178.791327 
L 187.126449 106.636283 
" clip-path="url(#p8e390c7ad0)" style="fill: none; stroke: #003366; stroke-opacity: 0.5; stroke-width: 1.2; stroke-linecap: square"/>
   </g>
   <g id="line2d_18">
    <path d="M 209.671903 224.68773 
L 209.671903 106.81056 
" clip-path="url(#p8e390c7ad0)" style="fill: none; stroke: #003366; stroke-opacity: 0.5; stroke-width: 1.2; stroke-linecap: square"/>
   </g>
   <g id="line2d_19">
    <path d="M 232.217358 206.085241 
L 232.217358 97.348785 
" clip-path="url(#p8e390c7ad0)" style="fill: none; stroke: #003366; stroke-opacity: 0.5; stroke-width: 1.2; stroke-linecap: square"/>
   </g>
   <g id="line2d_20">
    <path d="M 254.762813 217.222015 
L 254.762813 101.815271 
" clip-path="url(#p8e390c7ad0)" style="fill: none; stroke: #003366; stroke-opacity: 0.5; stroke-width: 1.2; stroke-linecap: square"/>
   </g>
   <g id="line2d_21">
    <path d="M 277.308267 230.726256 
L 277.308267 100.880088 
" clip-path="url(#p8e390c7ad0)" style="fill: none; stroke: #003366; stroke-opacity: 0.5; stroke-width: 1.2; stroke-linecap: square"/>
   </g>
   <g id="line2d_22">
    <path d="M 299.853722 242.866909 
L 299.853722 108.917603 
" clip-path="url(#p8e390c7ad0)" style="fill: none; stroke: #003366; stroke-opacity: 0.5; stroke-width: 1.2; stroke-linecap: square"/>
   </g>
   <g id="line2d_23">
    <path d="M 322.399176 289.213594 
L 322.399176 117.996634 
" clip-path="url(#p8e390c7ad0)" style="fill: none; stroke: #003366; stroke-opacity: 0.5; stroke-width: 1.2; stroke-linecap: square"/>
   </g>
   <g id="line2d_24">
    <path d="M 344.944631 271.620001 
L 344.944631 85.216999 
" clip-path="url(#p8e390c7ad0)" style="fill: none; stroke: #003366; stroke-opacity: 0.5; stroke-width: 1.2; stroke-linecap: square"/>
   </g>
   <g id="line2d_25">
    <path d="M 367.490085 233.269122 
L 367.490085 89.75429 
" clip-path="url(#p8e390c7ad0)" style="fill: none; stroke: #003366; stroke-opacity: 0.5; stroke-width: 1.2; stroke-linecap: square"/>
   </g>
   <g id="line2d_26">
    <path d="M 390.03554 220.904099 
L 390.03554 82.529118 
" clip-path="url(#p8e390c7ad0)" style="fill: none; stroke: #003366; stroke-opacity: 0.5; stroke-width: 1.2; stroke-linecap: square"/>
   </g>
   <g id="line2d_27">
    <path d="M 412.580994 181.100307 
L 412.580994 57.358268 
" clip-path="url(#p8e390c7ad0)" style="fill: none; stroke: #003366; stroke-opacity: 0.5; stroke-width: 1.2; stroke-linecap: square"/>
   </g>
   <g id="line2d_28">
    <path d="M 435.126449 174.068115 
L 435.126449 37.213594 
" clip-path="url(#p8e390c7ad0)" style="fill: none; stroke: #003366; stroke-opacity: 0.5; stroke-width: 1.2; stroke-linecap: square"/>
   </g>
   <g id="line2d_29">
    <path d="M 457.671903 165.505321 
L 457.671903 41.293421 
" clip-path="url(#p8e390c7ad0)" style="fill: none; stroke: #003366; stroke-opacity: 0.5; stroke-width: 1.2; stroke-linecap: square"/>
   </g>
   <g id="line2d_30">
    <path d="M 480.217358 182.543333 
L 480.217358 40.294101 
" clip-path="url(#p8e390c7ad0)" style="fill: none; stroke: #003366; stroke-opacity: 0.5; stroke-width: 1.2; stroke-linecap: square"/>
   </g>
   <g id="line2d_31">
    <path d="M 502.762813 171.457098 
L 502.762813 53.629964 
" clip-path="url(#p8e390c7ad0)" style="fill: none; stroke: #003366; stroke-opacity: 0.5; stroke-width: 1.2; stroke-linecap: square"/>
   </g>
   <g id="line2d_32">
    <path d="M 525.308267 152.264764 
L 525.308267 64.473207 
" clip-path="url(#p8e390c7ad0)" style="fill: none; stroke: #003366; stroke-opacity: 0.5; stroke-width: 1.2; stroke-linecap: square"/>
   </g>
   <g id="line2d_33">
    <path d="M 547.853722 189.505811 
L 547.853722 88.453936 
" clip-path="url(#p8e390c7ad0)" style="fill: none; stroke: #003366; stroke-opacity: 0.5; stroke-width: 1.2; stroke-linecap: square"/>
   </g>
   <g id="line2d_34">
    <path d="M 570.399176 243.812244 
L 570.399176 98.094624 
" clip-path="url(#p8e390c7ad0)" style="fill: none; stroke: #003366; stroke-opacity: 0.5; stroke-width: 1.2; stroke-linecap: square"/>
   </g>
   <g id="line2d_35">
    <path d="M 615.490085 212.753081 
L 615.490085 65.630218 
" clip-path="url(#p8e390c7ad0)" style="fill: none; stroke: #003366; stroke-opacity: 0.5; stroke-width: 1.2; stroke-linecap: square"/>
   </g>
   <g id="line2d_36">
    <path d="M 638.03554 198.959987 
L 638.03554 84.207596 
" clip-path="url(#p8e390c7ad0)" style="fill: none; stroke: #003366; stroke-opacity: 0.5; stroke-width: 1.2; stroke-linecap: square"/>
   </g>
   <g id="line2d_37">
    <path d="M 660.580994 199.989586 
L 660.580994 85.660399 
" clip-path="url(#p8e390c7ad0)" style="fill: none; stroke: #003366; stroke-opacity: 0.5; stroke-width: 1.2; stroke-linecap: square"/>
   </g>
   <g id="line2d_38">
    <path d="M 683.126449 195.445573 
L 683.126449 72.50284 
" clip-path="url(#p8e390c7ad0)" style="fill: none; stroke: #003366; stroke-opacity: 0.5; stroke-width: 1.2; stroke-linecap: square"/>
   </g>
   <g id="line2d_39">
    <path d="M 74.399176 205.086148 
L 74.399176 79.292056 
" clip-path="url(#p8e390c7ad0)" style="fill: none; stroke: #c8102e; stroke-opacity: 0.5; stroke-width: 1.2; stroke-linecap: square"/>
   </g>
   <g id="line2d_40">
    <path d="M 96.944631 200.205944 
L 96.944631 113.231721 
" clip-path="url(#p8e390c7ad0)" style="fill: none; stroke: #c8102e; stroke-opacity: 0.5; stroke-width: 1.2; stroke-linecap: square"/>
   </g>
   <g id="line2d_41">
    <path d="M 119.490085 214.315935 
L 119.490085 126.673248 
" clip-path="url(#p8e390c7ad0)" style="fill: none; stroke: #c8102e; stroke-opacity: 0.5; stroke-width: 1.2; stroke-linecap: square"/>
   </g>
   <g id="line2d_42">
    <path d="M 142.03554 200.738745 
L 142.03554 130.074885 
" clip-path="url(#p8e390c7ad0)" style="fill: none; stroke: #c8102e; stroke-opacity: 0.5; stroke-width: 1.2; stroke-linecap: square"/>
   </g>
   <g id="line2d_43">
    <path d="M 164.580994 212.599684 
L 164.580994 146.845207 
" clip-path="url(#p8e390c7ad0)" style="fill: none; stroke: #c8102e; stroke-opacity: 0.5; stroke-width: 1.2; stroke-linecap: square"/>
   </g>
   <g id="line2d_44">
    <path d="M 187.126449 197.563248 
L 187.126449 131.441797 
" clip-path="url(#p8e390c7ad0)" style="fill: none; stroke: #c8102e; stroke-opacity: 0.5; stroke-width: 1.2; stroke-linecap: square"/>
   </g>
   <g id="line2d_45">
    <path d="M 209.671903 223.802381 
L 209.671903 129.150144 
" clip-path="url(#p8e390c7ad0)" style="fill: none; stroke: #c8102e; stroke-opacity: 0.5; stroke-width: 1.2; stroke-linecap: square"/>
   </g>
   <g id="line2d_46">
    <path d="M 232.217358 211.880862 
L 232.217358 103.421169 
" clip-path="url(#p8e390c7ad0)" style="fill: none; stroke: #c8102e; stroke-opacity: 0.5; stroke-width: 1.2; stroke-linecap: square"/>
   </g>
   <g id="line2d_47">
    <path d="M 254.762813 218.969034 
L 254.762813 100.640957 
" clip-path="url(#p8e390c7ad0)" style="fill: none; stroke: #c8102e; stroke-opacity: 0.5; stroke-width: 1.2; stroke-linecap: square"/>
   </g>
   <g id="line2d_48">
    <path d="M 277.308267 235.207874 
L 277.308267 67.966509 
" clip-path="url(#p8e390c7ad0)" style="fill: none; stroke: #c8102e; stroke-opacity: 0.5; stroke-width: 1.2; stroke-linecap: square"/>
   </g>
   <g id="line2d_49">
    <path d="M 299.853722 209.498615 
L 299.853722 64.698652 
" clip-path="url(#p8e390c7ad0)" style="fill: none; stroke: #c8102e; stroke-opacity: 0.5; stroke-width: 1.2; stroke-linecap: square"/>
   </g>
   <g id="line2d_50">
    <path d="M 322.399176 234.456718 
L 322.399176 88.962227 
" clip-path="url(#p8e390c7ad0)" style="fill: none; stroke: #c8102e; stroke-opacity: 0.5; stroke-width: 1.2; stroke-linecap: square"/>
   </g>
   <g id="line2d_51">
    <path d="M 344.944631 260.290074 
L 344.944631 93.565723 
" clip-path="url(#p8e390c7ad0)" style="fill: none; stroke: #c8102e; stroke-opacity: 0.5; stroke-width: 1.2; stroke-linecap: square"/>
   </g>
   <g id="line2d_52">
    <path d="M 367.490085 243.856538 
L 367.490085 103.632488 
" clip-path="url(#p8e390c7ad0)" style="fill: none; stroke: #c8102e; stroke-opacity: 0.5; stroke-width: 1.2; stroke-linecap: square"/>
   </g>
   <g id="line2d_53">
    <path d="M 390.03554 235.701606 
L 390.03554 107.064984 
" clip-path="url(#p8e390c7ad0)" style="fill: none; stroke: #c8102e; stroke-opacity: 0.5; stroke-width: 1.2; stroke-linecap: square"/>
   </g>
   <g id="line2d_54">
    <path d="M 412.580994 210.449576 
L 412.580994 92.335021 
" clip-path="url(#p8e390c7ad0)" style="fill: none; stroke: #c8102e; stroke-opacity: 0.5; stroke-width: 1.2; stroke-linecap: square"/>
   </g>
   <g id="line2d_55">
    <path d="M 435.126449 202.959889 
L 435.126449 65.16115 
" clip-path="url(#p8e390c7ad0)" style="fill: none; stroke: #c8102e; stroke-opacity: 0.5; stroke-width: 1.2; stroke-linecap: square"/>
   </g>
   <g id="line2d_56">
    <path d="M 457.671903 180.680945 
L 457.671903 69.695233 
" clip-path="url(#p8e390c7ad0)" style="fill: none; stroke: #c8102e; stroke-opacity: 0.5; stroke-width: 1.2; stroke-linecap: square"/>
   </g>
   <g id="line2d_57">
    <path d="M 480.217358 173.735664 
L 480.217358 70.556006 
" clip-path="url(#p8e390c7ad0)" style="fill: none; stroke: #c8102e; stroke-opacity: 0.5; stroke-width: 1.2; stroke-linecap: square"/>
   </g>
   <g id="line2d_58">
    <path d="M 502.762813 163.52111 
L 502.762813 73.433955 
" clip-path="url(#p8e390c7ad0)" style="fill: none; stroke: #c8102e; stroke-opacity: 0.5; stroke-width: 1.2; stroke-linecap: square"/>
   </g>
   <g id="line2d_59">
    <path d="M 525.308267 152.339302 
L 525.308267 64.971373 
" clip-path="url(#p8e390c7ad0)" style="fill: none; stroke: #c8102e; stroke-opacity: 0.5; stroke-width: 1.2; stroke-linecap: square"/>
   </g>
   <g id="line2d_60">
    <path d="M 547.853722 188.436577 
L 547.853722 61.09121 
" clip-path="url(#p8e390c7ad0)" style="fill: none; stroke: #c8102e; stroke-opacity: 0.5; stroke-width: 1.2; stroke-linecap: square"/>
   </g>
   <g id="line2d_61">
    <path d="M 570.399176 204.889011 
L 570.399176 59.430613 
" clip-path="url(#p8e390c7ad0)" style="fill: none; stroke: #c8102e; stroke-opacity: 0.5; stroke-width: 1.2; stroke-linecap: square"/>
   </g>
   <g id="line2d_62">
    <path d="M 615.490085 216.002201 
L 615.490085 59.399894 
" clip-path="url(#p8e390c7ad0)" style="fill: none; stroke: #c8102e; stroke-opacity: 0.5; stroke-width: 1.2; stroke-linecap: square"/>
   </g>
   <g id="line2d_63">
    <path d="M 638.03554 213.235657 
L 638.03554 94.39754 
" clip-path="url(#p8e390c7ad0)" style="fill: none; stroke: #c8102e; stroke-opacity: 0.5; stroke-width: 1.2; stroke-linecap: square"/>
   </g>
   <g id="line2d_64">
    <path d="M 660.580994 212.967335 
L 660.580994 112.016024 
" clip-path="url(#p8e390c7ad0)" style="fill: none; stroke: #c8102e; stroke-opacity: 0.5; stroke-width: 1.2; stroke-linecap: square"/>
   </g>
   <g id="line2d_65">
    <path d="M 683.126449 240.186133 
L 683.126449 92.088302 
" clip-path="url(#p8e390c7ad0)" style="fill: none; stroke: #c8102e; stroke-opacity: 0.5; stroke-width: 1.2; stroke-linecap: square"/>
   </g>
   <g id="line2d_66">
    <path d="M 43.962813 115.368845 
L 713.562813 115.368845 
" clip-path="url(#p8e390c7ad0)" style="fill: none; stroke: #000000; stroke-width: 0.8; stroke-linecap: square"/>
   </g>
   <g id="line2d_67">
    <path d="M 615.490085 301.813594 
L 615.490085 24.613594 
" clip-path="url(#p8e390c7ad0)" style="fill: none; stroke-dasharray: 2.96,1.28; stroke-dashoffset: 0; stroke: #000000; stroke-width: 0.8"/>
   </g>
   <g id="patch_3">
    <path d="M 43.962813 301.813594 
L 43.962813 24.613594 
" style="fill: none; stroke: #000000; stroke-width: 0.8; stroke-linejoin: miter; stroke-linecap: square"/>
   </g>
   <g id="patch_4">
    <path d="M 43.962813 301.813594 
L 713.562813 301.813594 
" style="fill: none; stroke: #000000; stroke-width: 0.8; stroke-linejoin: miter; stroke-linecap: square"/>
   </g>
   <g id="PathCollection_1">
    <defs>
     <path id="me1cc155d6f" d="M 0 2.12132 
C 0.562581 2.12132 1.102195 1.897805 1.5 1.5 
C 1.897805 1.102195 2.12132 0.562581 2.12132 0 
C 2.12132 -0.562581 1.897805 -1.102195 1.5 -1.5 
C 1.102195 -1.897805 0.562581 -2.12132 0 -2.12132 
C -0.562581 -2.12132 -1.102195 -1.897805 -1.5 -1.5 
C -1.897805 -1.102195 -2.12132 -0.562581 -2.12132 0 
C -2.12132 0.562581 -1.897805 1.102195 -1.5 1.5 
C -1.102195 1.897805 -0.562581 2.12132 0 2.12132 
z
" style="stroke: #003366"/>
    </defs>
    <g clip-path="url(#p8e390c7ad0)">
     <use xlink:href="#me1cc155d6f" x="74.399176" y="143.679703" style="fill: #003366; stroke: #003366"/>
     <use xlink:href="#me1cc155d6f" x="96.944631" y="144.486025" style="fill: #003366; stroke: #003366"/>
     <use xlink:href="#me1cc155d6f" x="119.490085" y="150.827905" style="fill: #003366; stroke: #003366"/>
     <use xlink:href="#me1cc155d6f" x="142.03554" y="133.243804" style="fill: #003366; stroke: #003366"/>
     <use xlink:href="#me1cc155d6f" x="164.580994" y="151.30278" style="fill: #003366; stroke: #003366"/>
     <use xlink:href="#me1cc155d6f" x="187.126449" y="142.713805" style="fill: #003366; stroke: #003366"/>
     <use xlink:href="#me1cc155d6f" x="209.671903" y="165.749145" style="fill: #003366; stroke: #003366"/>
     <use xlink:href="#me1cc155d6f" x="232.217358" y="151.717013" style="fill: #003366; stroke: #003366"/>
     <use xlink:href="#me1cc155d6f" x="254.762813" y="159.518643" style="fill: #003366; stroke: #003366"/>
     <use xlink:href="#me1cc155d6f" x="277.308267" y="165.803172" style="fill: #003366; stroke: #003366"/>
     <use xlink:href="#me1cc155d6f" x="299.853722" y="175.892256" style="fill: #003366; stroke: #003366"/>
     <use xlink:href="#me1cc155d6f" x="322.399176" y="203.605114" style="fill: #003366; stroke: #003366"/>
     <use xlink:href="#me1cc155d6f" x="344.944631" y="178.4185" style="fill: #003366; stroke: #003366"/>
     <use xlink:href="#me1cc155d6f" x="367.490085" y="161.511706" style="fill: #003366; stroke: #003366"/>
     <use xlink:href="#me1cc155d6f" x="390.03554" y="151.716609" style="fill: #003366; stroke: #003366"/>
     <use xlink:href="#me1cc155d6f" x="412.580994" y="119.229287" style="fill: #003366; stroke: #003366"/>
     <use xlink:href="#me1cc155d6f" x="435.126449" y="105.640854" style="fill: #003366; stroke: #003366"/>
     <use xlink:href="#me1cc155d6f" x="457.671903" y="103.399371" style="fill: #003366; stroke: #003366"/>
     <use xlink:href="#me1cc155d6f" x="480.217358" y="111.418717" style="fill: #003366; stroke: #003366"/>
     <use xlink:href="#me1cc155d6f" x="502.762813" y="112.543531" style="fill: #003366; stroke: #003366"/>
     <use xlink:href="#me1cc155d6f" x="525.308267" y="108.368985" style="fill: #003366; stroke: #003366"/>
     <use xlink:href="#me1cc155d6f" x="547.853722" y="138.979874" style="fill: #003366; stroke: #003366"/>
     <use xlink:href="#me1cc155d6f" x="570.399176" y="170.953434" style="fill: #003366; stroke: #003366"/>
     <use xlink:href="#me1cc155d6f" x="615.490085" y="139.191649" style="fill: #003366; stroke: #003366"/>
     <use xlink:href="#me1cc155d6f" x="638.03554" y="141.583791" style="fill: #003366; stroke: #003366"/>
     <use xlink:href="#me1cc155d6f" x="660.580994" y="142.824993" style="fill: #003366; stroke: #003366"/>
     <use xlink:href="#me1cc155d6f" x="683.126449" y="133.974207" style="fill: #003366; stroke: #003366"/>
    </g>
   </g>
   <g id="PathCollection_2">
    <defs>
     <path id="m5aba1f5dc3" d="M 0 2.12132 
C 0.562581 2.12132 1.102195 1.897805 1.5 1.5 
C 1.897805 1.102195 2.12132 0.562581 2.12132 0 
C 2.12132 -0.562581 1.897805 -1.102195 1.5 -1.5 
C 1.102195 -1.897805 0.562581 -2.12132 0 -2.12132 
C -0.562581 -2.12132 -1.102195 -1.897805 -1.5 -1.5 
C -1.897805 -1.102195 -2.12132 -0.562581 -2.12132 0 
C -2.12132 0.562581 -1.897805 1.102195 -1.5 1.5 
C -1.102195 1.897805 -0.562581 2.12132 0 2.12132 
z
" style="stroke: #c8102e"/>
    </defs>
    <g clip-path="url(#p8e390c7ad0)">
     <use xlink:href="#m5aba1f5dc3" x="74.399176" y="142.189102" style="fill: #c8102e; stroke: #c8102e"/>
     <use xlink:href="#m5aba1f5dc3" x="96.944631" y="156.718832" style="fill: #c8102e; stroke: #c8102e"/>
     <use xlink:href="#m5aba1f5dc3" x="119.490085" y="170.494591" style="fill: #c8102e; stroke: #c8102e"/>
     <use xlink:href="#m5aba1f5dc3" x="142.03554" y="165.406815" style="fill: #c8102e; stroke: #c8102e"/>
     <use xlink:href="#m5aba1f5dc3" x="164.580994" y="179.722445" style="fill: #c8102e; stroke: #c8102e"/>
     <use xlink:href="#m5aba1f5dc3" x="187.126449" y="164.502522" style="fill: #c8102e; stroke: #c8102e"/>
     <use xlink:href="#m5aba1f5dc3" x="209.671903" y="176.476263" style="fill: #c8102e; stroke: #c8102e"/>
     <use xlink:href="#m5aba1f5dc3" x="232.217358" y="157.651015" style="fill: #c8102e; stroke: #c8102e"/>
     <use xlink:href="#m5aba1f5dc3" x="254.762813" y="159.804996" style="fill: #c8102e; stroke: #c8102e"/>
     <use xlink:href="#m5aba1f5dc3" x="277.308267" y="151.587192" style="fill: #c8102e; stroke: #c8102e"/>
     <use xlink:href="#m5aba1f5dc3" x="299.853722" y="137.098634" style="fill: #c8102e; stroke: #c8102e"/>
     <use xlink:href="#m5aba1f5dc3" x="322.399176" y="161.709472" style="fill: #c8102e; stroke: #c8102e"/>
     <use xlink:href="#m5aba1f5dc3" x="344.944631" y="176.927898" style="fill: #c8102e; stroke: #c8102e"/>
     <use xlink:href="#m5aba1f5dc3" x="367.490085" y="173.744513" style="fill: #c8102e; stroke: #c8102e"/>
     <use xlink:href="#m5aba1f5dc3" x="390.03554" y="171.383295" style="fill: #c8102e; stroke: #c8102e"/>
     <use xlink:href="#m5aba1f5dc3" x="412.580994" y="151.392299" style="fill: #c8102e; stroke: #c8102e"/>
     <use xlink:href="#m5aba1f5dc3" x="435.126449" y="134.06052" style="fill: #c8102e; stroke: #c8102e"/>
     <use xlink:href="#m5aba1f5dc3" x="457.671903" y="125.188089" style="fill: #c8102e; stroke: #c8102e"/>
     <use xlink:href="#m5aba1f5dc3" x="480.217358" y="122.145835" style="fill: #c8102e; stroke: #c8102e"/>
     <use xlink:href="#m5aba1f5dc3" x="502.762813" y="118.477533" style="fill: #c8102e; stroke: #c8102e"/>
     <use xlink:href="#m5aba1f5dc3" x="525.308267" y="108.655338" style="fill: #c8102e; stroke: #c8102e"/>
     <use xlink:href="#m5aba1f5dc3" x="547.853722" y="124.763893" style="fill: #c8102e; stroke: #c8102e"/>
     <use xlink:href="#m5aba1f5dc3" x="570.399176" y="132.159812" style="fill: #c8102e; stroke: #c8102e"/>
     <use xlink:href="#m5aba1f5dc3" x="615.490085" y="137.701048" style="fill: #c8102e; stroke: #c8102e"/>
     <use xlink:href="#m5aba1f5dc3" x="638.03554" y="153.816598" style="fill: #c8102e; stroke: #c8102e"/>
     <use xlink:href="#m5aba1f5dc3" x="660.580994" y="162.491679" style="fill: #c8102e; stroke: #c8102e"/>
     <use xlink:href="#m5aba1f5dc3" x="683.126449" y="166.137218" style="fill: #c8102e; stroke: #c8102e"/>
    </g>
   </g>
   <g id="text_14">
    <!-- Pre-trend F(10,11) = 6.43  p = 0.002  (sesongjustert modell) -->
    <g style="fill: #c8102e" transform="translate(57.354813 39.768188) scale(0.09 -0.09)">
     <defs>
      <path id="DejaVuSans-50" d="M 1259 4147 
L 1259 2394 
L 2053 2394 
Q 2494 2394 2734 2622 
Q 2975 2850 2975 3272 
Q 2975 3691 2734 3919 
Q 2494 4147 2053 4147 
L 1259 4147 
z
M 628 4666 
L 2053 4666 
Q 2838 4666 3239 4311 
Q 3641 3956 3641 3272 
Q 3641 2581 3239 2228 
Q 2838 1875 2053 1875 
L 1259 1875 
L 1259 0 
L 628 0 
L 628 4666 
z
" transform="scale(0.015625)"/>
      <path id="DejaVuSans-2d" d="M 313 2009 
L 1997 2009 
L 1997 1497 
L 313 1497 
L 313 2009 
z
" transform="scale(0.015625)"/>
      <path id="DejaVuSans-46" d="M 628 4666 
L 3309 4666 
L 3309 4134 
L 1259 4134 
L 1259 2759 
L 3109 2759 
L 3109 2228 
L 1259 2228 
L 1259 0 
L 628 0 
L 628 4666 
z
" transform="scale(0.015625)"/>
      <path id="DejaVuSans-2c" d="M 750 794 
L 1409 794 
L 1409 256 
L 897 -744 
L 494 -744 
L 750 256 
L 750 794 
z
" transform="scale(0.015625)"/>
      <path id="DejaVuSans-3d" d="M 678 2906 
L 4684 2906 
L 4684 2381 
L 678 2381 
L 678 2906 
z
M 678 1631 
L 4684 1631 
L 4684 1100 
L 678 1100 
L 678 1631 
z
" transform="scale(0.015625)"/>
      <path id="DejaVuSans-2e" d="M 684 794 
L 1344 794 
L 1344 0 
L 684 0 
L 684 794 
z
" transform="scale(0.015625)"/>
      <path id="DejaVuSans-33" d="M 2597 2516 
Q 3050 2419 3304 2112 
Q 3559 1806 3559 1356 
Q 3559 666 3084 287 
Q 2609 -91 1734 -91 
Q 1441 -91 1130 -33 
Q 819 25 488 141 
L 488 750 
Q 750 597 1062 519 
Q 1375 441 1716 441 
Q 2309 441 2620 675 
Q 2931 909 2931 1356 
Q 2931 1769 2642 2001 
Q 2353 2234 1838 2234 
L 1294 2234 
L 1294 2753 
L 1863 2753 
Q 2328 2753 2575 2939 
Q 2822 3125 2822 3475 
Q 2822 3834 2567 4026 
Q 2313 4219 1838 4219 
Q 1578 4219 1281 4162 
Q 984 4106 628 3988 
L 628 4550 
Q 988 4650 1302 4700 
Q 1616 4750 1894 4750 
Q 2613 4750 3031 4423 
Q 3450 4097 3450 3541 
Q 3450 3153 3228 2886 
Q 3006 2619 2597 2516 
z
" transform="scale(0.015625)"/>
      <path id="DejaVuSans-70" d="M 1159 525 
L 1159 -1331 
L 581 -1331 
L 581 3500 
L 1159 3500 
L 1159 2969 
Q 1341 3281 1617 3432 
Q 1894 3584 2278 3584 
Q 2916 3584 3314 3078 
Q 3713 2572 3713 1747 
Q 3713 922 3314 415 
Q 2916 -91 2278 -91 
Q 1894 -91 1617 61 
Q 1341 213 1159 525 
z
M 3116 1747 
Q 3116 2381 2855 2742 
Q 2594 3103 2138 3103 
Q 1681 3103 1420 2742 
Q 1159 2381 1159 1747 
Q 1159 1113 1420 752 
Q 1681 391 2138 391 
Q 2594 391 2855 752 
Q 3116 1113 3116 1747 
z
" transform="scale(0.015625)"/>
      <path id="DejaVuSans-6a" d="M 603 3500 
L 1178 3500 
L 1178 -63 
Q 1178 -731 923 -1031 
Q 669 -1331 103 -1331 
L -116 -1331 
L -116 -844 
L 38 -844 
Q 366 -844 484 -692 
Q 603 -541 603 -63 
L 603 3500 
z
M 603 4863 
L 1178 4863 
L 1178 4134 
L 603 4134 
L 603 4863 
z
" transform="scale(0.015625)"/>
      <path id="DejaVuSans-75" d="M 544 1381 
L 544 3500 
L 1119 3500 
L 1119 1403 
Q 1119 906 1312 657 
Q 1506 409 1894 409 
Q 2359 409 2629 706 
Q 2900 1003 2900 1516 
L 2900 3500 
L 3475 3500 
L 3475 0 
L 2900 0 
L 2900 538 
Q 2691 219 2414 64 
Q 2138 -91 1772 -91 
Q 1169 -91 856 284 
Q 544 659 544 1381 
z
M 1991 3584 
L 1991 3584 
z
" transform="scale(0.015625)"/>
      <path id="DejaVuSans-6d" d="M 3328 2828 
Q 3544 3216 3844 3400 
Q 4144 3584 4550 3584 
Q 5097 3584 5394 3201 
Q 5691 2819 5691 2113 
L 5691 0 
L 5113 0 
L 5113 2094 
Q 5113 2597 4934 2840 
Q 4756 3084 4391 3084 
Q 3944 3084 3684 2787 
Q 3425 2491 3425 1978 
L 3425 0 
L 2847 0 
L 2847 2094 
Q 2847 2600 2669 2842 
Q 2491 3084 2119 3084 
Q 1678 3084 1418 2786 
Q 1159 2488 1159 1978 
L 1159 0 
L 581 0 
L 581 3500 
L 1159 3500 
L 1159 2956 
Q 1356 3278 1631 3431 
Q 1906 3584 2284 3584 
Q 2666 3584 2933 3390 
Q 3200 3197 3328 2828 
z
" transform="scale(0.015625)"/>
     </defs>
     <use xlink:href="#DejaVuSans-50"/>
     <use xlink:href="#DejaVuSans-72" transform="translate(58.552734 0)"/>
     <use xlink:href="#DejaVuSans-65" transform="translate(97.416016 0)"/>
     <use xlink:href="#DejaVuSans-2d" transform="translate(158.939453 0)"/>
     <use xlink:href="#DejaVuSans-74" transform="translate(195.023438 0)"/>
     <use xlink:href="#DejaVuSans-72" transform="translate(234.232422 0)"/>
     <use xlink:href="#DejaVuSans-65" transform="translate(273.095703 0)"/>
     <use xlink:href="#DejaVuSans-6e" transform="translate(334.619141 0)"/>
     <use xlink:href="#DejaVuSans-64" transform="translate(397.998047 0)"/>
     <use xlink:href="#DejaVuSans-20" transform="translate(461.474609 0)"/>
     <use xlink:href="#DejaVuSans-46" transform="translate(493.261719 0)"/>
     <use xlink:href="#DejaVuSans-28" transform="translate(550.78125 0)"/>
     <use xlink:href="#DejaVuSans-31" transform="translate(589.794922 0)"/>
     <use xlink:href="#DejaVuSans-30" transform="translate(653.417969 0)"/>
     <use xlink:href="#DejaVuSans-2c" transform="translate(717.041016 0)"/>
     <use xlink:href="#DejaVuSans-31" transform="translate(748.828125 0)"/>
     <use xlink:href="#DejaVuSans-31" transform="translate(812.451172 0)"/>
     <use xlink:href="#DejaVuSans-29" transform="translate(876.074219 0)"/>
     <use xlink:href="#DejaVuSans-20" transform="translate(915.087891 0)"/>
     <use xlink:href="#DejaVuSans-3d" transform="translate(946.875 0)"/>
     <use xlink:href="#DejaVuSans-20" transform="translate(1030.664062 0)"/>
     <use xlink:href="#DejaVuSans-36" transform="translate(1062.451172 0)"/>
     <use xlink:href="#DejaVuSans-2e" transform="translate(1126.074219 0)"/>
     <use xlink:href="#DejaVuSans-34" transform="translate(1157.861328 0)"/>
     <use xlink:href="#DejaVuSans-33" transform="translate(1221.484375 0)"/>
     <use xlink:href="#DejaVuSans-20" transform="translate(1285.107422 0)"/>
     <use xlink:href="#DejaVuSans-20" transform="translate(1316.894531 0)"/>
     <use xlink:href="#DejaVuSans-70" transform="translate(1348.681641 0)"/>
     <use xlink:href="#DejaVuSans-20" transform="translate(1412.158203 0)"/>
     <use xlink:href="#DejaVuSans-3d" transform="translate(1443.945312 0)"/>
     <use xlink:href="#DejaVuSans-20" transform="translate(1527.734375 0)"/>
     <use xlink:href="#DejaVuSans-30" transform="translate(1559.521484 0)"/>
     <use xlink:href="#DejaVuSans-2e" transform="translate(1623.144531 0)"/>
     <use xlink:href="#DejaVuSans-30" transform="translate(1654.931641 0)"/>
     <use xlink:href="#DejaVuSans-30" transform="translate(1718.554688 0)"/>
     <use xlink:href="#DejaVuSans-32" transform="translate(1782.177734 0)"/>
     <use xlink:href="#DejaVuSans-20" transform="translate(1845.800781 0)"/>
     <use xlink:href="#DejaVuSans-20" transform="translate(1877.587891 0)"/>
     <use xlink:href="#DejaVuSans-28" transform="translate(1909.375 0)"/>
     <use xlink:href="#DejaVuSans-73" transform="translate(1948.388672 0)"/>
     <use xlink:href="#DejaVuSans-65" transform="translate(2000.488281 0)"/>
     <use xlink:href="#DejaVuSans-73" transform="translate(2062.011719 0)"/>
     <use xlink:href="#DejaVuSans-6f" transform="translate(2114.111328 0)"/>
     <use xlink:href="#DejaVuSans-6e" transform="translate(2175.292969 0)"/>
     <use xlink:href="#DejaVuSans-67" transform="translate(2238.671875 0)"/>
     <use xlink:href="#DejaVuSans-6a" transform="translate(2302.148438 0)"/>
     <use xlink:href="#DejaVuSans-75" transform="translate(2329.931641 0)"/>
     <use xlink:href="#DejaVuSans-73" transform="translate(2393.310547 0)"/>
     <use xlink:href="#DejaVuSans-74" transform="translate(2445.410156 0)"/>
     <use xlink:href="#DejaVuSans-65" transform="translate(2484.619141 0)"/>
     <use xlink:href="#DejaVuSans-72" transform="translate(2546.142578 0)"/>
     <use xlink:href="#DejaVuSans-74" transform="translate(2587.255859 0)"/>
     <use xlink:href="#DejaVuSans-20" transform="translate(2626.464844 0)"/>
     <use xlink:href="#DejaVuSans-6d" transform="translate(2658.251953 0)"/>
     <use xlink:href="#DejaVuSans-6f" transform="translate(2755.664062 0)"/>
     <use xlink:href="#DejaVuSans-64" transform="translate(2816.845703 0)"/>
     <use xlink:href="#DejaVuSans-65" transform="translate(2880.322266 0)"/>
     <use xlink:href="#DejaVuSans-6c" transform="translate(2941.845703 0)"/>
     <use xlink:href="#DejaVuSans-6c" transform="translate(2969.628906 0)"/>
     <use xlink:href="#DejaVuSans-29" transform="translate(2997.412109 0)"/>
    </g>
   </g>
   <g id="text_15">
    <!-- Pre-trend F(10,11) = 3.92  p = 0.017  (basis modell) -->
    <g style="fill: #003366" transform="translate(57.354813 61.944188) scale(0.09 -0.09)">
     <defs>
      <path id="DejaVuSans-39" d="M 703 97 
L 703 672 
Q 941 559 1184 500 
Q 1428 441 1663 441 
Q 2288 441 2617 861 
Q 2947 1281 2994 2138 
Q 2813 1869 2534 1725 
Q 2256 1581 1919 1581 
Q 1219 1581 811 2004 
Q 403 2428 403 3163 
Q 403 3881 828 4315 
Q 1253 4750 1959 4750 
Q 2769 4750 3195 4129 
Q 3622 3509 3622 2328 
Q 3622 1225 3098 567 
Q 2575 -91 1691 -91 
Q 1453 -91 1209 -44 
Q 966 3 703 97 
z
M 1959 2075 
Q 2384 2075 2632 2365 
Q 2881 2656 2881 3163 
Q 2881 3666 2632 3958 
Q 2384 4250 1959 4250 
Q 1534 4250 1286 3958 
Q 1038 3666 1038 3163 
Q 1038 2656 1286 2365 
Q 1534 2075 1959 2075 
z
" transform="scale(0.015625)"/>
      <path id="DejaVuSans-37" d="M 525 4666 
L 3525 4666 
L 3525 4397 
L 1831 0 
L 1172 0 
L 2766 4134 
L 525 4134 
L 525 4666 
z
" transform="scale(0.015625)"/>
     </defs>
     <use xlink:href="#DejaVuSans-50"/>
     <use xlink:href="#DejaVuSans-72" transform="translate(58.552734 0)"/>
     <use xlink:href="#DejaVuSans-65" transform="translate(97.416016 0)"/>
     <use xlink:href="#DejaVuSans-2d" transform="translate(158.939453 0)"/>
     <use xlink:href="#DejaVuSans-74" transform="translate(195.023438 0)"/>
     <use xlink:href="#DejaVuSans-72" transform="translate(234.232422 0)"/>
     <use xlink:href="#DejaVuSans-65" transform="translate(273.095703 0)"/>
     <use xlink:href="#DejaVuSans-6e" transform="translate(334.619141 0)"/>
     <use xlink:href="#DejaVuSans-64" transform="translate(397.998047 0)"/>
     <use xlink:href="#DejaVuSans-20" transform="translate(461.474609 0)"/>
     <use xlink:href="#DejaVuSans-46" transform="translate(493.261719 0)"/>
     <use xlink:href="#DejaVuSans-28" transform="translate(550.78125 0)"/>
     <use xlink:href="#DejaVuSans-31" transform="translate(589.794922 0)"/>
     <use xlink:href="#DejaVuSans-30" transform="translate(653.417969 0)"/>
     <use xlink:href="#DejaVuSans-2c" transform="translate(717.041016 0)"/>
     <use xlink:href="#DejaVuSans-31" transform="translate(748.828125 0)"/>
     <use xlink:href="#DejaVuSans-31" transform="translate(812.451172 0)"/>
     <use xlink:href="#DejaVuSans-29" transform="translate(876.074219 0)"/>
     <use xlink:href="#DejaVuSans-20" transform="translate(915.087891 0)"/>
     <use xlink:href="#DejaVuSans-3d" transform="translate(946.875 0)"/>
     <use xlink:href="#DejaVuSans-20" transform="translate(1030.664062 0)"/>
     <use xlink:href="#DejaVuSans-33" transform="translate(1062.451172 0)"/>
     <use xlink:href="#DejaVuSans-2e" transform="translate(1126.074219 0)"/>
     <use xlink:href="#DejaVuSans-39" transform="translate(1157.861328 0)"/>
     <use xlink:href="#DejaVuSans-32" transform="translate(1221.484375 0)"/>
     <use xlink:href="#DejaVuSans-20" transform="translate(1285.107422 0)"/>
     <use xlink:href="#DejaVuSans-20" transform="translate(1316.894531 0)"/>
     <use xlink:href="#DejaVuSans-70" transform="translate(1348.681641 0)"/>
     <use xlink:href="#DejaVuSans-20" transform="translate(1412.158203 0)"/>
     <use xlink:href="#DejaVuSans-3d" transform="translate(1443.945312 0)"/>
     <use xlink:href="#DejaVuSans-20" transform="translate(1527.734375 0)"/>
     <use xlink:href="#DejaVuSans-30" transform="translate(1559.521484 0)"/>
     <use xlink:href="#DejaVuSans-2e" transform="translate(1623.144531 0)"/>
     <use xlink:href="#DejaVuSans-30" transform="translate(1654.931641 0)"/>
     <use xlink:href="#DejaVuSans-31" transform="translate(1718.554688 0)"/>
     <use xlink:href="#DejaVuSans-37" transform="translate(1782.177734 0)"/>
     <use xlink:href="#DejaVuSans-20" transform="translate(1845.800781 0)"/>
     <use xlink:href="#DejaVuSans-20" transform="translate(1877.587891 0)"/>
     <use xlink:href="#DejaVuSans-28" transform="translate(1909.375 0)"/>
     <use xlink:href="#DejaVuSans-62" transform="translate(1948.388672 0)"/>
     <use xlink:href="#DejaVuSans-61" transform="translate(2011.865234 0)"/>
     <use xlink:href="#DejaVuSans-73" transform="translate(2073.144531 0)"/>
     <use xlink:href="#DejaVuSans-69" transform="translate(2125.244141 0)"/>
     <use xlink:href="#DejaVuSans-73" transform="translate(2153.027344 0)"/>
     <use xlink:href="#DejaVuSans-20" transform="translate(2205.126953 0)"/>
     <use xlink:href="#DejaVuSans-6d" transform="translate(2236.914062 0)"/>
     <use xlink:href="#DejaVuSans-6f" transform="translate(2334.326172 0)"/>
     <use xlink:href="#DejaVuSans-64" transform="translate(2395.507812 0)"/>
     <use xlink:href="#DejaVuSans-65" transform="translate(2458.984375 0)"/>
     <use xlink:href="#DejaVuSans-6c" transform="translate(2520.507812 0)"/>
     <use xlink:href="#DejaVuSans-6c" transform="translate(2548.291016 0)"/>
     <use xlink:href="#DejaVuSans-29" transform="translate(2576.074219 0)"/>
    </g>
   </g>
   <g id="text_16">
    <!-- Eventstudie — I jobb etter 3 måneder -->
    <g transform="translate(256.172812 18.613594) scale(0.13 -0.13)">
     <defs>
      <path id="DejaVuSans-45" d="M 628 4666 
L 3578 4666 
L 3578 4134 
L 1259 4134 
L 1259 2753 
L 3481 2753 
L 3481 2222 
L 1259 2222 
L 1259 531 
L 3634 531 
L 3634 0 
L 628 0 
L 628 4666 
z
" transform="scale(0.015625)"/>
      <path id="DejaVuSans-2014" d="M 313 1978 
L 6088 1978 
L 6088 1528 
L 313 1528 
L 313 1978 
z
" transform="scale(0.015625)"/>
      <path id="DejaVuSans-49" d="M 628 4666 
L 1259 4666 
L 1259 0 
L 628 0 
L 628 4666 
z
" transform="scale(0.015625)"/>
     </defs>
     <use xlink:href="#DejaVuSans-45"/>
     <use xlink:href="#DejaVuSans-76" transform="translate(63.183594 0)"/>
     <use xlink:href="#DejaVuSans-65" transform="translate(122.363281 0)"/>
     <use xlink:href="#DejaVuSans-6e" transform="translate(183.886719 0)"/>
     <use xlink:href="#DejaVuSans-74" transform="translate(247.265625 0)"/>
     <use xlink:href="#DejaVuSans-73" transform="translate(286.474609 0)"/>
     <use xlink:href="#DejaVuSans-74" transform="translate(338.574219 0)"/>
     <use xlink:href="#DejaVuSans-75" transform="translate(377.783203 0)"/>
     <use xlink:href="#DejaVuSans-64" transform="translate(441.162109 0)"/>
     <use xlink:href="#DejaVuSans-69" transform="translate(504.638672 0)"/>
     <use xlink:href="#DejaVuSans-65" transform="translate(532.421875 0)"/>
     <use xlink:href="#DejaVuSans-20" transform="translate(593.945312 0)"/>
     <use xlink:href="#DejaVuSans-2014" transform="translate(625.732422 0)"/>
     <use xlink:href="#DejaVuSans-20" transform="translate(725.732422 0)"/>
     <use xlink:href="#DejaVuSans-49" transform="translate(757.519531 0)"/>
     <use xlink:href="#DejaVuSans-20" transform="translate(787.011719 0)"/>
     <use xlink:href="#DejaVuSans-6a" transform="translate(818.798828 0)"/>
     <use xlink:href="#DejaVuSans-6f" transform="translate(846.582031 0)"/>
     <use xlink:href="#DejaVuSans-62" transform="translate(907.763672 0)"/>
     <use xlink:href="#DejaVuSans-62" transform="translate(971.240234 0)"/>
     <use xlink:href="#DejaVuSans-20" transform="translate(1034.716797 0)"/>
     <use xlink:href="#DejaVuSans-65" transform="translate(1066.503906 0)"/>
     <use xlink:href="#DejaVuSans-74" transform="translate(1128.027344 0)"/>
     <use xlink:href="#DejaVuSans-74" transform="translate(1167.236328 0)"/>
     <use xlink:href="#DejaVuSans-65" transform="translate(1206.445312 0)"/>
     <use xlink:href="#DejaVuSans-72" transform="translate(1267.96875 0)"/>
     <use xlink:href="#DejaVuSans-20" transform="translate(1309.082031 0)"/>
     <use xlink:href="#DejaVuSans-33" transform="translate(1340.869141 0)"/>
     <use xlink:href="#DejaVuSans-20" transform="translate(1404.492188 0)"/>
     <use xlink:href="#DejaVuSans-6d" transform="translate(1436.279297 0)"/>
     <use xlink:href="#DejaVuSans-e5" transform="translate(1533.691406 0)"/>
     <use xlink:href="#DejaVuSans-6e" transform="translate(1594.970703 0)"/>
     <use xlink:href="#DejaVuSans-65" transform="translate(1658.349609 0)"/>
     <use xlink:href="#DejaVuSans-64" transform="translate(1719.873047 0)"/>
     <use xlink:href="#DejaVuSans-65" transform="translate(1783.349609 0)"/>
     <use xlink:href="#DejaVuSans-72" transform="translate(1844.873047 0)"/>
    </g>
   </g>
   <g id="legend_1">
    <g id="PathCollection_3">
     <g>
      <use xlink:href="#me1cc155d6f" x="61.062813" y="263.05875" style="fill: #003366; stroke: #003366"/>
     </g>
    </g>
    <g id="text_17">
     <!-- Basis -->
     <g transform="translate(77.262813 265.42125) scale(0.09 -0.09)">
      <defs>
       <path id="DejaVuSans-42" d="M 1259 2228 
L 1259 519 
L 2272 519 
Q 2781 519 3026 730 
Q 3272 941 3272 1375 
Q 3272 1813 3026 2020 
Q 2781 2228 2272 2228 
L 1259 2228 
z
M 1259 4147 
L 1259 2741 
L 2194 2741 
Q 2656 2741 2882 2914 
Q 3109 3088 3109 3444 
Q 3109 3797 2882 3972 
Q 2656 4147 2194 4147 
L 1259 4147 
z
M 628 4666 
L 2241 4666 
Q 2963 4666 3353 4366 
Q 3744 4066 3744 3513 
Q 3744 3084 3544 2831 
Q 3344 2578 2956 2516 
Q 3422 2416 3680 2098 
Q 3938 1781 3938 1306 
Q 3938 681 3513 340 
Q 3088 0 2303 0 
L 628 0 
L 628 4666 
z
" transform="scale(0.015625)"/>
      </defs>
      <use xlink:href="#DejaVuSans-42"/>
      <use xlink:href="#DejaVuSans-61" transform="translate(68.603516 0)"/>
      <use xlink:href="#DejaVuSans-73" transform="translate(129.882812 0)"/>
      <use xlink:href="#DejaVuSans-69" transform="translate(181.982422 0)"/>
      <use xlink:href="#DejaVuSans-73" transform="translate(209.765625 0)"/>
     </g>
    </g>
    <g id="PathCollection_4">
     <g>
      <use xlink:href="#m5aba1f5dc3" x="61.062813" y="276.269063" style="fill: #c8102e; stroke: #c8102e"/>
     </g>
    </g>
    <g id="text_18">
     <!-- Sesongjustert -->
     <g transform="translate(77.262813 278.631563) scale(0.09 -0.09)">
      <defs>
       <path id="DejaVuSans-53" d="M 3425 4513 
L 3425 3897 
Q 3066 4069 2747 4153 
Q 2428 4238 2131 4238 
Q 1616 4238 1336 4038 
Q 1056 3838 1056 3469 
Q 1056 3159 1242 3001 
Q 1428 2844 1947 2747 
L 2328 2669 
Q 3034 2534 3370 2195 
Q 3706 1856 3706 1288 
Q 3706 609 3251 259 
Q 2797 -91 1919 -91 
Q 1588 -91 1214 -16 
Q 841 59 441 206 
L 441 856 
Q 825 641 1194 531 
Q 1563 422 1919 422 
Q 2459 422 2753 634 
Q 3047 847 3047 1241 
Q 3047 1584 2836 1778 
Q 2625 1972 2144 2069 
L 1759 2144 
Q 1053 2284 737 2584 
Q 422 2884 422 3419 
Q 422 4038 858 4394 
Q 1294 4750 2059 4750 
Q 2388 4750 2728 4690 
Q 3069 4631 3425 4513 
z
" transform="scale(0.015625)"/>
      </defs>
      <use xlink:href="#DejaVuSans-53"/>
      <use xlink:href="#DejaVuSans-65" transform="translate(63.476562 0)"/>
      <use xlink:href="#DejaVuSans-73" transform="translate(125 0)"/>
      <use xlink:href="#DejaVuSans-6f" transform="translate(177.099609 0)"/>
      <use xlink:href="#DejaVuSans-6e" transform="translate(238.28125 0)"/>
      <use xlink:href="#DejaVuSans-67" transform="translate(301.660156 0)"/>
      <use xlink:href="#DejaVuSans-6a" transform="translate(365.136719 0)"/>
      <use xlink:href="#DejaVuSans-75" transform="translate(392.919922 0)"/>
      <use xlink:href="#DejaVuSans-73" transform="translate(456.298828 0)"/>
      <use xlink:href="#DejaVuSans-74" transform="translate(508.398438 0)"/>
      <use xlink:href="#DejaVuSans-65" transform="translate(547.607422 0)"/>
      <use xlink:href="#DejaVuSans-72" transform="translate(609.130859 0)"/>
      <use xlink:href="#DejaVuSans-74" transform="translate(650.244141 0)"/>
     </g>
    </g>
    <g id="line2d_68">
     <path d="M 52.062813 288.691875 
L 61.062813 288.691875 
L 70.062813 288.691875 
" style="fill: none; stroke-dasharray: 2.96,1.28; stroke-dashoffset: 0; stroke: #000000; stroke-width: 0.8"/>
    </g>
    <g id="text_19">
     <!-- Behandlingsstart -->
     <g transform="translate(77.262813 291.841875) scale(0.09 -0.09)">
      <use xlink:href="#DejaVuSans-42"/>
      <use xlink:href="#DejaVuSans-65" transform="translate(68.603516 0)"/>
      <use xlink:href="#DejaVuSans-68" transform="translate(130.126953 0)"/>
      <use xlink:href="#DejaVuSans-61" transform="translate(193.505859 0)"/>
      <use xlink:href="#DejaVuSans-6e" transform="translate(254.785156 0)"/>
      <use xlink:href="#DejaVuSans-64" transform="translate(318.164062 0)"/>
      <use xlink:href="#DejaVuSans-6c" transform="translate(381.640625 0)"/>
      <use xlink:href="#DejaVuSans-69" transform="translate(409.423828 0)"/>
      <use xlink:href="#DejaVuSans-6e" transform="translate(437.207031 0)"/>
      <use xlink:href="#DejaVuSans-67" transform="translate(500.585938 0)"/>
      <use xlink:href="#DejaVuSans-73" transform="translate(564.0625 0)"/>
      <use xlink:href="#DejaVuSans-73" transform="translate(616.162109 0)"/>
      <use xlink:href="#DejaVuSans-74" transform="translate(668.261719 0)"/>
      <use xlink:href="#DejaVuSans-61" transform="translate(707.470703 0)"/>
      <use xlink:href="#DejaVuSans-72" transform="translate(768.75 0)"/>
      <use xlink:href="#DejaVuSans-74" transform="translate(809.863281 0)"/>
     </g>
    </g>
   </g>
  </g>
 </g>
 <defs>
  <clipPath id="p8e390c7ad0">
   <rect x="43.962813" y="24.613594" width="669.6" height="277.2"/>
  </clipPath>
 </defs>
</svg>
