<?xml version="1.0" encoding="utf-8" standalone="no"?>
<!DOCTYPE svg PUBLIC "-//W3C//DTD SVG 1.1//EN"
  "http://www.w3.org/Graphics/SVG/1.1/DTD/svg11.dtd">
<svg xmlns:xlink="http://www.w3.org/1999/xlink" width="731.095938pt" height="324.156094pt" viewBox="0 0 731.095938 324.156094" xmlns="http://www.w3.org/2000/svg" version="1.1">
 <metadata>
  <rdf:RDF xmlns:dc="http://purl.org/dc/elements/1.1/" xmlns:cc="http://creativecommons.org/ns#" xmlns:rdf="http://www.w3.org/1999/02/22-rdf-syntax-ns#">
   <cc:Work>
    <dc:type rdf:resource="http://purl.org/dc/dcmitype/StillImage"/>
    <dc:date>2026-04-15T12:45:32.319513</dc:date>
    <dc:format>image/svg+xml</dc:format>
    <dc:creator>
     <cc:Agent>
      <dc:title>Matplotlib v3.10.8, https://matplotlib.org/</dc:title>
     </cc:Agent>
    </dc:creator>
   </cc:Work>
  </rdf:RDF>
 </metadata>
 <defs>
  <style type="text/css">*{stroke-linejoin: round; stroke-linecap: butt}</style>
 </defs>
 <g id="figure_1">
  <g id="patch_1">
   <path d="M 0 324.156094 
L 731.095938 324.156094 
L 731.095938 0 
L 0 0 
z
" style="fill: #ffffff"/>
  </g>
  <g id="axes_1">
   <g id="patch_2">
    <path d="M 54.295938 300.277969 
L 723.895938 300.277969 
L 723.895938 23.077969 
L 54.295938 23.077969 
z
" style="fill: #ffffff"/>
   </g>
   <g id="matplotlib.axis_1">
    <g id="xtick_1">
     <g id="line2d_1">
      <defs>
       <path id="me6d9d87904" d="M 0 0 
L 0 3.5 
" style="stroke: #000000; stroke-width: 0.8"/>
      </defs>
      <g>
       <use xlink:href="#me6d9d87904" x="115.914322" y="300.277969" style="stroke: #000000; stroke-width: 0.8"/>
      </g>
     </g>
     <g id="text_1">
      <!-- 2021 -->
      <g transform="translate(103.189322 314.876406) scale(0.1 -0.1)">
       <defs>
        <path id="DejaVuSans-32" d="M 1228 531 
L 3431 531 
L 3431 0 
L 469 0 
L 469 531 
Q 828 903 1448 1529 
Q 2069 2156 2228 2338 
Q 2531 2678 2651 2914 
Q 2772 3150 2772 3378 
Q 2772 3750 2511 3984 
Q 2250 4219 1831 4219 
Q 1534 4219 1204 4116 
Q 875 4013 500 3803 
L 500 4441 
Q 881 4594 1212 4672 
Q 1544 4750 1819 4750 
Q 2544 4750 2975 4387 
Q 3406 4025 3406 3419 
Q 3406 3131 3298 2873 
Q 3191 2616 2906 2266 
Q 2828 2175 2409 1742 
Q 1991 1309 1228 531 
z
" transform="scale(0.015625)"/>
        <path id="DejaVuSans-30" d="M 2034 4250 
Q 1547 4250 1301 3770 
Q 1056 3291 1056 2328 
Q 1056 1369 1301 889 
Q 1547 409 2034 409 
Q 2525 409 2770 889 
Q 3016 1369 3016 2328 
Q 3016 3291 2770 3770 
Q 2525 4250 2034 4250 
z
M 2034 4750 
Q 2819 4750 3233 4129 
Q 3647 3509 3647 2328 
Q 3647 1150 3233 529 
Q 2819 -91 2034 -91 
Q 1250 -91 836 529 
Q 422 1150 422 2328 
Q 422 3509 836 4129 
Q 1250 4750 2034 4750 
z
" transform="scale(0.015625)"/>
        <path id="DejaVuSans-31" d="M 794 531 
L 1825 531 
L 1825 4091 
L 703 3866 
L 703 4441 
L 1819 4666 
L 2450 4666 
L 2450 531 
L 3481 531 
L 3481 0 
L 794 0 
L 794 531 
z
" transform="scale(0.015625)"/>
       </defs>
       <use xlink:href="#DejaVuSans-32"/>
       <use xlink:href="#DejaVuSans-30" transform="translate(63.623047 0)"/>
       <use xlink:href="#DejaVuSans-32" transform="translate(127.246094 0)"/>
       <use xlink:href="#DejaVuSans-31" transform="translate(190.869141 0)"/>
      </g>
     </g>
    </g>
    <g id="xtick_2">
     <g id="line2d_2">
      <g>
       <use xlink:href="#me6d9d87904" x="239.625599" y="300.277969" style="stroke: #000000; stroke-width: 0.8"/>
      </g>
     </g>
     <g id="text_2">
      <!-- 2022 -->
      <g transform="translate(226.900599 314.876406) scale(0.1 -0.1)">
       <use xlink:href="#DejaVuSans-32"/>
       <use xlink:href="#DejaVuSans-30" transform="translate(63.623047 0)"/>
       <use xlink:href="#DejaVuSans-32" transform="translate(127.246094 0)"/>
       <use xlink:href="#DejaVuSans-32" transform="translate(190.869141 0)"/>
      </g>
     </g>
    </g>
    <g id="xtick_3">
     <g id="line2d_3">
      <g>
       <use xlink:href="#me6d9d87904" x="363.336877" y="300.277969" style="stroke: #000000; stroke-width: 0.8"/>
      </g>
     </g>
     <g id="text_3">
      <!-- 2023 -->
      <g transform="translate(350.611877 314.876406) scale(0.1 -0.1)">
       <defs>
        <path id="DejaVuSans-33" d="M 2597 2516 
Q 3050 2419 3304 2112 
Q 3559 1806 3559 1356 
Q 3559 666 3084 287 
Q 2609 -91 1734 -91 
Q 1441 -91 1130 -33 
Q 819 25 488 141 
L 488 750 
Q 750 597 1062 519 
Q 1375 441 1716 441 
Q 2309 441 2620 675 
Q 2931 909 2931 1356 
Q 2931 1769 2642 2001 
Q 2353 2234 1838 2234 
L 1294 2234 
L 1294 2753 
L 1863 2753 
Q 2328 2753 2575 2939 
Q 2822 3125 2822 3475 
Q 2822 3834 2567 4026 
Q 2313 4219 1838 4219 
Q 1578 4219 1281 4162 
Q 984 4106 628 3988 
L 628 4550 
Q 988 4650 1302 4700 
Q 1616 4750 1894 4750 
Q 2613 4750 3031 4423 
Q 3450 4097 3450 3541 
Q 3450 3153 3228 2886 
Q 3006 2619 2597 2516 
z
" transform="scale(0.015625)"/>
       </defs>
       <use xlink:href="#DejaVuSans-32"/>
       <use xlink:href="#DejaVuSans-30" transform="translate(63.623047 0)"/>
       <use xlink:href="#DejaVuSans-32" transform="translate(127.246094 0)"/>
       <use xlink:href="#DejaVuSans-33" transform="translate(190.869141 0)"/>
      </g>
     </g>
    </g>
    <g id="xtick_4">
     <g id="line2d_4">
      <g>
       <use xlink:href="#me6d9d87904" x="487.048155" y="300.277969" style="stroke: #000000; stroke-width: 0.8"/>
      </g>
     </g>
     <g id="text_4">
      <!-- 2024 -->
      <g transform="translate(474.323155 314.876406) scale(0.1 -0.1)">
       <defs>
        <path id="DejaVuSans-34" d="M 2419 4116 
L 825 1625 
L 2419 1625 
L 2419 4116 
z
M 2253 4666 
L 3047 4666 
L 3047 1625 
L 3713 1625 
L 3713 1100 
L 3047 1100 
L 3047 0 
L 2419 0 
L 2419 1100 
L 313 1100 
L 313 1709 
L 2253 4666 
z
" transform="scale(0.015625)"/>
       </defs>
       <use xlink:href="#DejaVuSans-32"/>
       <use xlink:href="#DejaVuSans-30" transform="translate(63.623047 0)"/>
       <use xlink:href="#DejaVuSans-32" transform="translate(127.246094 0)"/>
       <use xlink:href="#DejaVuSans-34" transform="translate(190.869141 0)"/>
      </g>
     </g>
    </g>
    <g id="xtick_5">
     <g id="line2d_5">
      <g>
       <use xlink:href="#me6d9d87904" x="611.098367" y="300.277969" style="stroke: #000000; stroke-width: 0.8"/>
      </g>
     </g>
     <g id="text_5">
      <!-- 2025 -->
      <g transform="translate(598.373367 314.876406) scale(0.1 -0.1)">
       <defs>
        <path id="DejaVuSans-35" d="M 691 4666 
L 3169 4666 
L 3169 4134 
L 1269 4134 
L 1269 2991 
Q 1406 3038 1543 3061 
Q 1681 3084 1819 3084 
Q 2600 3084 3056 2656 
Q 3513 2228 3513 1497 
Q 3513 744 3044 326 
Q 2575 -91 1722 -91 
Q 1428 -91 1123 -41 
Q 819 9 494 109 
L 494 744 
Q 775 591 1075 516 
Q 1375 441 1709 441 
Q 2250 441 2565 725 
Q 2881 1009 2881 1497 
Q 2881 1984 2565 2268 
Q 2250 2553 1709 2553 
Q 1456 2553 1204 2497 
Q 953 2441 691 2322 
L 691 4666 
z
" transform="scale(0.015625)"/>
       </defs>
       <use xlink:href="#DejaVuSans-32"/>
       <use xlink:href="#DejaVuSans-30" transform="translate(63.623047 0)"/>
       <use xlink:href="#DejaVuSans-32" transform="translate(127.246094 0)"/>
       <use xlink:href="#DejaVuSans-35" transform="translate(190.869141 0)"/>
      </g>
     </g>
    </g>
   </g>
   <g id="matplotlib.axis_2">
    <g id="ytick_1">
     <g id="line2d_6">
      <defs>
       <path id="m6f9aa01c47" d="M 0 0 
L -3.5 0 
" style="stroke: #000000; stroke-width: 0.8"/>
      </defs>
      <g>
       <use xlink:href="#m6f9aa01c47" x="54.295938" y="272.419253" style="stroke: #000000; stroke-width: 0.8"/>
      </g>
     </g>
     <g id="text_6">
      <!-- 200 -->
      <g transform="translate(28.208438 276.218472) scale(0.1 -0.1)">
       <use xlink:href="#DejaVuSans-32"/>
       <use xlink:href="#DejaVuSans-30" transform="translate(63.623047 0)"/>
       <use xlink:href="#DejaVuSans-30" transform="translate(127.246094 0)"/>
      </g>
     </g>
    </g>
    <g id="ytick_2">
     <g id="line2d_7">
      <g>
       <use xlink:href="#m6f9aa01c47" x="54.295938" y="226.180721" style="stroke: #000000; stroke-width: 0.8"/>
      </g>
     </g>
     <g id="text_7">
      <!-- 400 -->
      <g transform="translate(28.208438 229.97994) scale(0.1 -0.1)">
       <use xlink:href="#DejaVuSans-34"/>
       <use xlink:href="#DejaVuSans-30" transform="translate(63.623047 0)"/>
       <use xlink:href="#DejaVuSans-30" transform="translate(127.246094 0)"/>
      </g>
     </g>
    </g>
    <g id="ytick_3">
     <g id="line2d_8">
      <g>
       <use xlink:href="#m6f9aa01c47" x="54.295938" y="179.942189" style="stroke: #000000; stroke-width: 0.8"/>
      </g>
     </g>
     <g id="text_8">
      <!-- 600 -->
      <g transform="translate(28.208438 183.741408) scale(0.1 -0.1)">
       <defs>
        <path id="DejaVuSans-36" d="M 2113 2584 
Q 1688 2584 1439 2293 
Q 1191 2003 1191 1497 
Q 1191 994 1439 701 
Q 1688 409 2113 409 
Q 2538 409 2786 701 
Q 3034 994 3034 1497 
Q 3034 2003 2786 2293 
Q 2538 2584 2113 2584 
z
M 3366 4563 
L 3366 3988 
Q 3128 4100 2886 4159 
Q 2644 4219 2406 4219 
Q 1781 4219 1451 3797 
Q 1122 3375 1075 2522 
Q 1259 2794 1537 2939 
Q 1816 3084 2150 3084 
Q 2853 3084 3261 2657 
Q 3669 2231 3669 1497 
Q 3669 778 3244 343 
Q 2819 -91 2113 -91 
Q 1303 -91 875 529 
Q 447 1150 447 2328 
Q 447 3434 972 4092 
Q 1497 4750 2381 4750 
Q 2619 4750 2861 4703 
Q 3103 4656 3366 4563 
z
" transform="scale(0.015625)"/>
       </defs>
       <use xlink:href="#DejaVuSans-36"/>
       <use xlink:href="#DejaVuSans-30" transform="translate(63.623047 0)"/>
       <use xlink:href="#DejaVuSans-30" transform="translate(127.246094 0)"/>
      </g>
     </g>
    </g>
    <g id="ytick_4">
     <g id="line2d_9">
      <g>
       <use xlink:href="#m6f9aa01c47" x="54.295938" y="133.703657" style="stroke: #000000; stroke-width: 0.8"/>
      </g>
     </g>
     <g id="text_9">
      <!-- 800 -->
      <g transform="translate(28.208438 137.502876) scale(0.1 -0.1)">
       <defs>
        <path id="DejaVuSans-38" d="M 2034 2216 
Q 1584 2216 1326 1975 
Q 1069 1734 1069 1313 
Q 1069 891 1326 650 
Q 1584 409 2034 409 
Q 2484 409 2743 651 
Q 3003 894 3003 1313 
Q 3003 1734 2745 1975 
Q 2488 2216 2034 2216 
z
M 1403 2484 
Q 997 2584 770 2862 
Q 544 3141 544 3541 
Q 544 4100 942 4425 
Q 1341 4750 2034 4750 
Q 2731 4750 3128 4425 
Q 3525 4100 3525 3541 
Q 3525 3141 3298 2862 
Q 3072 2584 2669 2484 
Q 3125 2378 3379 2068 
Q 3634 1759 3634 1313 
Q 3634 634 3220 271 
Q 2806 -91 2034 -91 
Q 1263 -91 848 271 
Q 434 634 434 1313 
Q 434 1759 690 2068 
Q 947 2378 1403 2484 
z
M 1172 3481 
Q 1172 3119 1398 2916 
Q 1625 2713 2034 2713 
Q 2441 2713 2670 2916 
Q 2900 3119 2900 3481 
Q 2900 3844 2670 4047 
Q 2441 4250 2034 4250 
Q 1625 4250 1398 4047 
Q 1172 3844 1172 3481 
z
" transform="scale(0.015625)"/>
       </defs>
       <use xlink:href="#DejaVuSans-38"/>
       <use xlink:href="#DejaVuSans-30" transform="translate(63.623047 0)"/>
       <use xlink:href="#DejaVuSans-30" transform="translate(127.246094 0)"/>
      </g>
     </g>
    </g>
    <g id="ytick_5">
     <g id="line2d_10">
      <g>
       <use xlink:href="#m6f9aa01c47" x="54.295938" y="87.465125" style="stroke: #000000; stroke-width: 0.8"/>
      </g>
     </g>
     <g id="text_10">
      <!-- 1000 -->
      <g transform="translate(21.845938 91.264343) scale(0.1 -0.1)">
       <use xlink:href="#DejaVuSans-31"/>
       <use xlink:href="#DejaVuSans-30" transform="translate(63.623047 0)"/>
       <use xlink:href="#DejaVuSans-30" transform="translate(127.246094 0)"/>
       <use xlink:href="#DejaVuSans-30" transform="translate(190.869141 0)"/>
      </g>
     </g>
    </g>
    <g id="ytick_6">
     <g id="line2d_11">
      <g>
       <use xlink:href="#m6f9aa01c47" x="54.295938" y="41.226593" style="stroke: #000000; stroke-width: 0.8"/>
      </g>
     </g>
     <g id="text_11">
      <!-- 1200 -->
      <g transform="translate(21.845938 45.025811) scale(0.1 -0.1)">
       <use xlink:href="#DejaVuSans-31"/>
       <use xlink:href="#DejaVuSans-32" transform="translate(63.623047 0)"/>
       <use xlink:href="#DejaVuSans-30" transform="translate(127.246094 0)"/>
       <use xlink:href="#DejaVuSans-30" transform="translate(190.869141 0)"/>
      </g>
     </g>
    </g>
    <g id="text_12">
     <!-- Antall tiltak -->
     <g transform="translate(15.558281 193.180078) rotate(-90) scale(0.11 -0.11)">
      <defs>
       <path id="DejaVuSans-41" d="M 2188 4044 
L 1331 1722 
L 3047 1722 
L 2188 4044 
z
M 1831 4666 
L 2547 4666 
L 4325 0 
L 3669 0 
L 3244 1197 
L 1141 1197 
L 716 0 
L 50 0 
L 1831 4666 
z
" transform="scale(0.015625)"/>
       <path id="DejaVuSans-6e" d="M 3513 2113 
L 3513 0 
L 2938 0 
L 2938 2094 
Q 2938 2591 2744 2837 
Q 2550 3084 2163 3084 
Q 1697 3084 1428 2787 
Q 1159 2491 1159 1978 
L 1159 0 
L 581 0 
L 581 3500 
L 1159 3500 
L 1159 2956 
Q 1366 3272 1645 3428 
Q 1925 3584 2291 3584 
Q 2894 3584 3203 3211 
Q 3513 2838 3513 2113 
z
" transform="scale(0.015625)"/>
       <path id="DejaVuSans-74" d="M 1172 4494 
L 1172 3500 
L 2356 3500 
L 2356 3053 
L 1172 3053 
L 1172 1153 
Q 1172 725 1289 603 
Q 1406 481 1766 481 
L 2356 481 
L 2356 0 
L 1766 0 
Q 1100 0 847 248 
Q 594 497 594 1153 
L 594 3053 
L 172 3053 
L 172 3500 
L 594 3500 
L 594 4494 
L 1172 4494 
z
" transform="scale(0.015625)"/>
       <path id="DejaVuSans-61" d="M 2194 1759 
Q 1497 1759 1228 1600 
Q 959 1441 959 1056 
Q 959 750 1161 570 
Q 1363 391 1709 391 
Q 2188 391 2477 730 
Q 2766 1069 2766 1631 
L 2766 1759 
L 2194 1759 
z
M 3341 1997 
L 3341 0 
L 2766 0 
L 2766 531 
Q 2569 213 2275 61 
Q 1981 -91 1556 -91 
Q 1019 -91 701 211 
Q 384 513 384 1019 
Q 384 1609 779 1909 
Q 1175 2209 1959 2209 
L 2766 2209 
L 2766 2266 
Q 2766 2663 2505 2880 
Q 2244 3097 1772 3097 
Q 1472 3097 1187 3025 
Q 903 2953 641 2809 
L 641 3341 
Q 956 3463 1253 3523 
Q 1550 3584 1831 3584 
Q 2591 3584 2966 3190 
Q 3341 2797 3341 1997 
z
" transform="scale(0.015625)"/>
       <path id="DejaVuSans-6c" d="M 603 4863 
L 1178 4863 
L 1178 0 
L 603 0 
L 603 4863 
z
" transform="scale(0.015625)"/>
       <path id="DejaVuSans-20" transform="scale(0.015625)"/>
       <path id="DejaVuSans-69" d="M 603 3500 
L 1178 3500 
L 1178 0 
L 603 0 
L 603 3500 
z
M 603 4863 
L 1178 4863 
L 1178 4134 
L 603 4134 
L 603 4863 
z
" transform="scale(0.015625)"/>
       <path id="DejaVuSans-6b" d="M 581 4863 
L 1159 4863 
L 1159 1991 
L 2875 3500 
L 3609 3500 
L 1753 1863 
L 3688 0 
L 2938 0 
L 1159 1709 
L 1159 0 
L 581 0 
L 581 4863 
z
" transform="scale(0.015625)"/>
      </defs>
      <use xlink:href="#DejaVuSans-41"/>
      <use xlink:href="#DejaVuSans-6e" transform="translate(68.408203 0)"/>
      <use xlink:href="#DejaVuSans-74" transform="translate(131.787109 0)"/>
      <use xlink:href="#DejaVuSans-61" transform="translate(170.996094 0)"/>
      <use xlink:href="#DejaVuSans-6c" transform="translate(232.275391 0)"/>
      <use xlink:href="#DejaVuSans-6c" transform="translate(260.058594 0)"/>
      <use xlink:href="#DejaVuSans-20" transform="translate(287.841797 0)"/>
      <use xlink:href="#DejaVuSans-74" transform="translate(319.628906 0)"/>
      <use xlink:href="#DejaVuSans-69" transform="translate(358.837891 0)"/>
      <use xlink:href="#DejaVuSans-6c" transform="translate(386.621094 0)"/>
      <use xlink:href="#DejaVuSans-74" transform="translate(414.404297 0)"/>
      <use xlink:href="#DejaVuSans-61" transform="translate(453.613281 0)"/>
      <use xlink:href="#DejaVuSans-6b" transform="translate(514.892578 0)"/>
     </g>
    </g>
   </g>
   <g id="line2d_12">
    <path d="M 84.732301 216.701822 
L 95.239286 204.679804 
L 105.407337 204.679804 
L 115.914322 202.59907 
L 126.421307 197.744024 
L 135.911487 187.802739 
L 146.418472 179.479804 
L 156.586523 170.46329 
L 167.093508 169.769712 
L 177.261558 179.248611 
L 187.768543 170.232097 
L 198.275529 170.925675 
L 208.443579 171.850446 
L 218.950564 172.775216 
L 229.118614 182.947694 
L 239.625599 188.72751 
L 250.132585 186.646776 
L 259.622765 183.410079 
L 270.12975 191.733015 
L 280.2978 185.25962 
L 290.804785 182.022923 
L 300.972836 203.292648 
L 311.479821 210.45962 
L 321.986806 225.024758 
L 332.154856 234.041272 
L 342.661842 237.046776 
L 352.829892 245.138519 
L 363.336877 258.316501 
L 373.843862 257.39173 
L 383.334042 253.92384 
L 393.841028 256.929345 
L 404.009078 255.542189 
L 414.516063 251.380721 
L 424.684113 256.46696 
L 435.191098 250.918336 
L 445.698084 246.294483 
L 455.866134 241.439437 
L 466.373119 232.885308 
L 476.541169 231.729345 
L 487.048155 237.277969 
L 497.55514 233.810079 
L 507.384255 231.960538 
L 517.89124 228.261455 
L 528.05929 221.78806 
L 538.566276 216.933015 
L 548.734326 224.099987 
L 559.241311 225.718336 
L 569.748296 218.551363 
L 579.916346 216.239437 
L 590.423332 212.771547 
L 600.591382 211.153198 
L 611.098367 210.228427 
L 621.605352 197.744024 
L 631.095533 200.05595 
L 641.602518 200.518336 
L 651.770568 194.969712 
L 662.277553 202.830262 
L 672.445603 239.589895 
L 682.952589 254.386226 
L 693.459574 274.962372 
" clip-path="url(#pd4f596edbe)" style="fill: none; stroke: #1f77b4; stroke-width: 1.4; stroke-linecap: square"/>
   </g>
   <g id="line2d_13">
    <path d="M 84.732301 220.86329 
L 95.239286 218.320171 
L 105.407337 217.3954 
L 115.914322 214.158703 
L 126.421307 214.389895 
L 135.911487 207.685308 
L 146.418472 201.905492 
L 156.586523 200.980721 
L 167.093508 190.345859 
L 177.261558 190.808244 
L 187.768543 187.802739 
L 198.275529 185.953198 
L 208.443579 187.571547 
L 218.950564 190.114666 
L 229.118614 191.733015 
L 239.625599 197.744024 
L 250.132585 192.888978 
L 259.622765 189.883473 
L 270.12975 192.657785 
L 280.2978 184.797235 
L 290.804785 184.797235 
L 300.972836 200.749528 
L 311.479821 220.169712 
L 321.986806 243.288978 
L 332.154856 252.305492 
L 342.661842 254.617418 
L 352.829892 257.854116 
L 363.336877 260.166042 
L 373.843862 259.241272 
L 383.334042 256.46696 
L 393.841028 262.477969 
L 404.009078 258.085308 
L 414.516063 252.305492 
L 424.684113 252.536684 
L 435.191098 243.520171 
L 445.698084 240.283473 
L 455.866134 228.955033 
L 466.373119 218.551363 
L 476.541169 220.632097 
L 487.048155 220.86329 
L 497.55514 215.777051 
L 507.384255 213.002739 
L 517.89124 211.153198 
L 528.05929 205.604574 
L 538.566276 203.755033 
L 548.734326 211.846776 
L 559.241311 206.99173 
L 569.748296 209.534849 
L 579.916346 215.314666 
L 590.423332 213.002739 
L 600.591382 215.777051 
L 611.098367 218.088978 
L 621.605352 217.3954 
L 631.095533 214.621088 
L 641.602518 212.077969 
L 651.770568 213.92751 
L 662.277553 217.857785 
L 672.445603 226.643106 
L 682.952589 225.949528 
L 693.459574 227.336684 
" clip-path="url(#pd4f596edbe)" style="fill: none; stroke: #aec7e8; stroke-width: 1.4; stroke-linecap: square"/>
   </g>
   <g id="line2d_14">
    <path d="M 84.732301 195.66329 
L 95.239286 183.178886 
L 105.407337 176.011914 
L 115.914322 181.79173 
L 126.421307 176.011914 
L 135.911487 168.382556 
L 146.418472 159.366042 
L 156.586523 157.054116 
L 167.093508 150.580721 
L 177.261558 165.377051 
L 187.768543 160.05962 
L 198.275529 164.683473 
L 208.443579 163.758703 
L 218.950564 157.054116 
L 229.118614 158.672464 
L 239.625599 164.683473 
L 250.132585 164.452281 
L 259.622765 159.597235 
L 270.12975 162.833932 
L 280.2978 160.984391 
L 290.804785 159.828427 
L 300.972836 172.312831 
L 311.479821 178.555033 
L 321.986806 187.340354 
L 332.154856 201.674299 
L 342.661842 217.3954 
L 352.829892 228.261455 
L 363.336877 238.433932 
L 373.843862 240.283473 
L 383.334042 241.208244 
L 393.841028 244.907327 
L 404.009078 241.670629 
L 414.516063 236.584391 
L 424.684113 240.745859 
L 435.191098 237.509161 
L 445.698084 231.960538 
L 455.866134 223.175216 
L 466.373119 215.777051 
L 476.541169 208.841272 
L 487.048155 203.061455 
L 497.55514 195.66329 
L 507.384255 189.189895 
L 517.89124 177.630262 
L 528.05929 170.925675 
L 538.566276 157.054116 
L 548.734326 159.828427 
L 559.241311 159.597235 
L 569.748296 159.597235 
L 579.916346 155.435767 
L 590.423332 151.274299 
L 600.591382 151.043106 
L 611.098367 157.978886 
L 621.605352 152.661455 
L 631.095533 147.806409 
L 641.602518 157.285308 
L 651.770568 161.677969 
L 662.277553 182.022923 
L 672.445603 220.400905 
L 682.952589 244.676134 
L 693.459574 251.380721 
" clip-path="url(#pd4f596edbe)" style="fill: none; stroke: #ffbb78; stroke-width: 1.4; stroke-linecap: square"/>
   </g>
   <g id="line2d_15">
    <path d="M 84.732301 241.901822 
L 95.239286 238.202739 
L 105.407337 237.277969 
L 115.914322 245.138519 
L 126.421307 239.821088 
L 135.911487 233.116501 
L 146.418472 234.272464 
L 156.586523 230.110996 
L 167.093508 227.105492 
L 177.261558 223.406409 
L 187.768543 222.481638 
L 198.275529 221.325675 
L 208.443579 222.712831 
L 218.950564 213.92751 
L 229.118614 213.696317 
L 239.625599 221.325675 
L 250.132585 218.782556 
L 259.622765 214.389895 
L 270.12975 213.696317 
L 280.2978 207.454116 
L 290.804785 205.373382 
L 300.972836 221.094483 
L 311.479821 229.879804 
L 321.986806 242.826593 
L 332.154856 253.230262 
L 342.661842 263.633932 
L 352.829892 270.800905 
L 363.336877 281.66696 
L 373.843862 282.129345 
L 383.334042 283.285308 
L 393.841028 283.285308 
L 404.009078 282.822923 
L 414.516063 280.973382 
L 424.684113 283.054116 
L 435.191098 283.747694 
L 445.698084 277.736684 
L 455.866134 266.639437 
L 466.373119 248.606409 
L 476.541169 225.718336 
L 487.048155 212.077969 
L 497.55514 210.690813 
L 507.384255 210.228427 
L 517.89124 221.78806 
L 528.05929 222.944024 
L 538.566276 243.520171 
L 548.734326 258.316501 
L 559.241311 258.778886 
L 569.748296 254.617418 
L 579.916346 251.611914 
L 590.423332 246.294483 
L 600.591382 241.670629 
L 611.098367 246.525675 
L 621.605352 243.057785 
L 631.095533 242.133015 
L 641.602518 240.977051 
L 651.770568 237.971547 
L 662.277553 239.358703 
L 672.445603 252.767877 
L 682.952589 254.155033 
L 693.459574 256.46696 
" clip-path="url(#pd4f596edbe)" style="fill: none; stroke: #98df8a; stroke-width: 1.4; stroke-linecap: square"/>
   </g>
   <g id="line2d_16">
    <path d="M 84.732301 166.533015 
L 95.239286 154.742189 
L 105.407337 155.66696 
L 115.914322 158.672464 
L 126.421307 149.193565 
L 135.911487 143.876134 
L 146.418472 146.18806 
L 156.586523 133.934849 
L 167.093508 124.45595 
L 177.261558 130.004574 
L 187.768543 125.611914 
L 198.275529 119.600905 
L 208.443579 109.890813 
L 218.950564 95.556868 
L 229.118614 101.105492 
L 239.625599 101.336684 
L 250.132585 95.78806 
L 259.622765 85.846776 
L 270.12975 80.760538 
L 280.2978 70.819253 
L 290.804785 71.281638 
L 300.972836 103.648611 
L 311.479821 117.057785 
L 321.986806 136.015583 
L 332.154856 154.279804 
L 342.661842 157.285308 
L 352.829892 165.839437 
L 363.336877 185.25962 
L 373.843862 187.571547 
L 383.334042 186.415583 
L 393.841028 190.345859 
L 404.009078 193.582556 
L 414.516063 187.340354 
L 424.684113 198.668794 
L 435.191098 192.1954 
L 445.698084 186.415583 
L 455.866134 175.087143 
L 466.373119 169.538519 
L 476.541169 165.145859 
L 487.048155 173.93118 
L 497.55514 171.156868 
L 507.384255 166.301822 
L 517.89124 159.597235 
L 528.05929 147.344024 
L 538.566276 144.338519 
L 548.734326 152.892648 
L 559.241311 144.569712 
L 569.748296 138.32751 
L 579.916346 133.934849 
L 590.423332 119.600905 
L 600.591382 117.520171 
L 611.098367 124.687143 
L 621.605352 114.977051 
L 631.095533 100.874299 
L 641.602518 93.244941 
L 651.770568 94.86329 
L 662.277553 106.654116 
L 672.445603 149.887143 
L 682.952589 182.485308 
L 693.459574 224.099987 
" clip-path="url(#pd4f596edbe)" style="fill: none; stroke: #ff9896; stroke-width: 1.4; stroke-linecap: square"/>
   </g>
   <g id="line2d_17">
    <path d="M 84.732301 198.899987 
L 95.239286 191.733015 
L 105.407337 191.733015 
L 115.914322 194.507327 
L 126.421307 187.109161 
L 135.911487 180.86696 
L 146.418472 171.38806 
L 156.586523 164.221088 
L 167.093508 159.134849 
L 177.261558 163.52751 
L 187.768543 164.914666 
L 198.275529 160.290813 
L 208.443579 159.366042 
L 218.950564 148.73118 
L 229.118614 148.962372 
L 239.625599 146.650446 
L 250.132585 147.575216 
L 259.622765 144.800905 
L 270.12975 142.488978 
L 280.2978 135.090813 
L 290.804785 134.397235 
L 300.972836 150.118336 
L 311.479821 149.887143 
L 321.986806 168.613749 
L 332.154856 199.824758 
L 342.661842 217.857785 
L 352.829892 225.25595 
L 363.336877 224.793565 
L 373.843862 226.411914 
L 383.334042 217.857785 
L 393.841028 215.314666 
L 404.009078 212.077969 
L 414.516063 214.158703 
L 424.684113 220.169712 
L 435.191098 210.45962 
L 445.698084 207.222923 
L 455.866134 199.362372 
L 466.373119 191.501822 
L 476.541169 188.265125 
L 487.048155 187.340354 
L 497.55514 177.630262 
L 507.384255 168.382556 
L 517.89124 157.054116 
L 528.05929 149.193565 
L 538.566276 143.876134 
L 548.734326 147.806409 
L 559.241311 148.962372 
L 569.748296 142.257785 
L 579.916346 126.074299 
L 590.423332 120.756868 
L 600.591382 120.756868 
L 611.098367 127.692648 
L 621.605352 117.751363 
L 631.095533 113.589895 
L 641.602518 112.433932 
L 651.770568 111.046776 
L 662.277553 127.461455 
L 672.445603 163.758703 
L 682.952589 200.980721 
L 693.459574 235.428427 
" clip-path="url(#pd4f596edbe)" style="fill: none; stroke: #c5b0d5; stroke-width: 1.4; stroke-linecap: square"/>
   </g>
   <g id="line2d_18">
    <path d="M 84.732301 248.144024 
L 95.239286 243.288978 
L 105.407337 241.439437 
L 115.914322 243.057785 
L 126.421307 236.353198 
L 135.911487 233.578886 
L 146.418472 230.573382 
L 156.586523 225.718336 
L 167.093508 225.25595 
L 177.261558 229.417418 
L 187.768543 230.110996 
L 198.275529 231.035767 
L 208.443579 230.804574 
L 218.950564 225.25595 
L 229.118614 227.79907 
L 239.625599 231.035767 
L 250.132585 229.186226 
L 259.622765 222.944024 
L 270.12975 225.024758 
L 280.2978 220.400905 
L 290.804785 222.712831 
L 300.972836 229.186226 
L 311.479821 232.885308 
L 321.986806 241.439437 
L 332.154856 251.843106 
L 342.661842 260.166042 
L 352.829892 265.945859 
L 363.336877 274.037602 
L 373.843862 273.344024 
L 383.334042 274.037602 
L 393.841028 277.967877 
L 404.009078 277.736684 
L 414.516063 281.66696 
L 424.684113 285.597235 
L 435.191098 287.677969 
L 445.698084 286.522005 
L 455.866134 281.204574 
L 466.373119 266.177051 
L 476.541169 250.687143 
L 487.048155 242.5954 
L 497.55514 235.197235 
L 507.384255 229.648611 
L 517.89124 223.175216 
L 528.05929 223.868794 
L 538.566276 218.088978 
L 548.734326 221.094483 
L 559.241311 216.701822 
L 569.748296 212.540354 
L 579.916346 204.217418 
L 590.423332 200.518336 
L 600.591382 206.99173 
L 611.098367 216.933015 
L 621.605352 214.389895 
L 631.095533 216.470629 
L 641.602518 220.169712 
L 651.770568 229.879804 
L 662.277553 238.433932 
L 672.445603 259.934849 
L 682.952589 276.349528 
L 693.459574 283.747694 
" clip-path="url(#pd4f596edbe)" style="fill: none; stroke: #8c564b; stroke-width: 1.4; stroke-linecap: square"/>
   </g>
   <g id="line2d_19">
    <path d="M 84.732301 186.184391 
L 95.239286 169.076134 
L 105.407337 167.457785 
L 115.914322 170.000905 
L 126.421307 160.984391 
L 135.911487 155.898152 
L 146.418472 148.268794 
L 156.586523 142.257785 
L 167.093508 130.698152 
L 177.261558 141.101822 
L 187.768543 132.778886 
L 198.275529 130.46696 
L 208.443579 127.692648 
L 218.950564 127.692648 
L 229.118614 126.536684 
L 239.625599 136.477969 
L 250.132585 137.865125 
L 259.622765 138.558703 
L 270.12975 143.644941 
L 280.2978 132.778886 
L 290.804785 128.155033 
L 300.972836 144.338519 
L 311.479821 148.962372 
L 321.986806 166.070629 
L 332.154856 179.479804 
L 342.661842 191.501822 
L 352.829892 203.755033 
L 363.336877 218.088978 
L 373.843862 224.33118 
L 383.334042 222.019253 
L 393.841028 219.476134 
L 404.009078 213.233932 
L 414.516063 205.835767 
L 424.684113 212.309161 
L 435.191098 209.534849 
L 445.698084 202.830262 
L 455.866134 180.404574 
L 466.373119 160.984391 
L 476.541169 157.285308 
L 487.048155 157.285308 
L 497.55514 146.18806 
L 507.384255 145.725675 
L 517.89124 137.865125 
L 528.05929 137.171547 
L 538.566276 130.46696 
L 548.734326 137.633932 
L 559.241311 138.558703 
L 569.748296 143.413749 
L 579.916346 139.714666 
L 590.423332 133.010079 
L 600.591382 136.246776 
L 611.098367 137.402739 
L 621.605352 140.177051 
L 631.095533 134.85962 
L 641.602518 141.7954 
L 651.770568 149.424758 
L 662.277553 160.05962 
L 672.445603 199.13118 
L 682.952589 216.239437 
L 693.459574 227.105492 
" clip-path="url(#pd4f596edbe)" style="fill: none; stroke: #e377c2; stroke-width: 1.4; stroke-linecap: square"/>
   </g>
   <g id="line2d_20">
    <path d="M 84.732301 206.06696 
L 95.239286 197.512831 
L 105.407337 193.351363 
L 115.914322 197.512831 
L 126.421307 188.958703 
L 135.911487 182.254116 
L 146.418472 175.549528 
L 156.586523 166.533015 
L 167.093508 164.452281 
L 177.261558 175.549528 
L 187.768543 170.694483 
L 198.275529 168.613749 
L 208.443579 168.382556 
L 218.950564 166.301822 
L 229.118614 170.46329 
L 239.625599 173.699987 
L 250.132585 171.38806 
L 259.622765 165.839437 
L 270.12975 173.006409 
L 280.2978 164.221088 
L 290.804785 162.371547 
L 300.972836 172.544024 
L 311.479821 169.538519 
L 321.986806 176.474299 
L 332.154856 173.699987 
L 342.661842 174.85595 
L 352.829892 183.872464 
L 363.336877 195.66329 
L 373.843862 204.910996 
L 383.334042 204.679804 
L 393.841028 212.309161 
L 404.009078 212.077969 
L 414.516063 212.077969 
L 424.684113 216.933015 
L 435.191098 210.228427 
L 445.698084 207.454116 
L 455.866134 204.448611 
L 466.373119 197.975216 
L 476.541169 200.287143 
L 487.048155 197.975216 
L 497.55514 195.66329 
L 507.384255 195.894483 
L 517.89124 185.490813 
L 528.05929 175.549528 
L 538.566276 177.39907 
L 548.734326 183.410079 
L 559.241311 178.555033 
L 569.748296 175.318336 
L 579.916346 177.167877 
L 590.423332 173.006409 
L 600.591382 169.538519 
L 611.098367 162.602739 
L 621.605352 157.978886 
L 631.095533 155.66696 
L 641.602518 151.736684 
L 651.770568 160.05962 
L 662.277553 178.555033 
L 672.445603 218.551363 
L 682.952589 243.520171 
L 693.459574 269.413749 
" clip-path="url(#pd4f596edbe)" style="fill: none; stroke: #7f7f7f; stroke-width: 1.4; stroke-linecap: square"/>
   </g>
   <g id="line2d_21">
    <path d="M 84.732301 190.577051 
L 95.239286 180.173382 
L 105.407337 176.474299 
L 115.914322 173.468794 
L 126.421307 167.920171 
L 135.911487 154.048611 
L 146.418472 139.945859 
L 156.586523 130.004574 
L 167.093508 125.611914 
L 177.261558 138.096317 
L 187.768543 131.39173 
L 198.275529 132.778886 
L 208.443579 147.344024 
L 218.950564 142.951363 
L 229.118614 152.19907 
L 239.625599 162.371547 
L 250.132585 164.221088 
L 259.622765 163.989895 
L 270.12975 171.850446 
L 280.2978 163.52751 
L 290.804785 156.59173 
L 300.972836 181.560538 
L 311.479821 191.501822 
L 321.986806 216.239437 
L 332.154856 227.105492 
L 342.661842 230.110996 
L 352.829892 234.503657 
L 363.336877 241.439437 
L 373.843862 243.057785 
L 383.334042 237.509161 
L 393.841028 234.503657 
L 404.009078 226.180721 
L 414.516063 213.92751 
L 424.684113 217.626593 
L 435.191098 211.153198 
L 445.698084 206.99173 
L 455.866134 203.755033 
L 466.373119 195.894483 
L 476.541169 199.362372 
L 487.048155 203.755033 
L 497.55514 203.292648 
L 507.384255 195.200905 
L 517.89124 190.577051 
L 528.05929 181.098152 
L 538.566276 176.705492 
L 548.734326 187.109161 
L 559.241311 185.028427 
L 569.748296 193.351363 
L 579.916346 188.265125 
L 590.423332 182.254116 
L 600.591382 182.022923 
L 611.098367 182.947694 
L 621.605352 173.468794 
L 631.095533 168.151363 
L 641.602518 166.533015 
L 651.770568 165.839437 
L 662.277553 175.549528 
L 672.445603 200.518336 
L 682.952589 207.916501 
L 693.459574 219.707327 
" clip-path="url(#pd4f596edbe)" style="fill: none; stroke: #bcbd22; stroke-width: 1.4; stroke-linecap: square"/>
   </g>
   <g id="line2d_22">
    <path d="M 84.732301 142.257785 
L 95.239286 131.854116 
L 105.407337 135.553198 
L 115.914322 133.472464 
L 126.421307 125.380721 
L 135.911487 120.525675 
L 146.418472 107.578886 
L 156.586523 97.406409 
L 167.093508 82.841272 
L 177.261558 97.868794 
L 187.768543 89.314666 
L 198.275529 84.922005 
L 208.443579 85.384391 
L 218.950564 81.454116 
L 229.118614 85.153198 
L 239.625599 94.632097 
L 250.132585 91.857785 
L 259.622765 93.707327 
L 270.12975 99.487143 
L 280.2978 83.534849 
L 290.804785 92.551363 
L 300.972836 115.670629 
L 311.479821 125.843106 
L 321.986806 151.505492 
L 332.154856 172.312831 
L 342.661842 185.722005 
L 352.829892 204.448611 
L 363.336877 210.228427 
L 373.843862 209.303657 
L 383.334042 205.604574 
L 393.841028 208.841272 
L 404.009078 201.674299 
L 414.516063 191.501822 
L 424.684113 199.362372 
L 435.191098 196.125675 
L 445.698084 183.178886 
L 455.866134 163.296317 
L 466.373119 150.118336 
L 476.541169 151.736684 
L 487.048155 148.037602 
L 497.55514 136.709161 
L 507.384255 133.241272 
L 517.89124 126.536684 
L 528.05929 119.369712 
L 538.566276 120.294483 
L 548.734326 131.39173 
L 559.241311 130.004574 
L 569.748296 130.235767 
L 579.916346 123.299987 
L 590.423332 113.589895 
L 600.591382 117.751363 
L 611.098367 114.283473 
L 621.605352 103.879804 
L 631.095533 78.217418 
L 641.602518 72.437602 
L 651.770568 67.813749 
L 662.277553 95.094483 
L 672.445603 150.811914 
L 682.952589 185.490813 
L 693.459574 219.476134 
" clip-path="url(#pd4f596edbe)" style="fill: none; stroke: #17becf; stroke-width: 1.4; stroke-linecap: square"/>
   </g>
   <g id="line2d_23">
    <path d="M 84.732301 133.010079 
L 95.239286 120.756868 
L 105.407337 126.536684 
L 115.914322 132.085308 
L 126.421307 116.5954 
L 135.911487 108.041272 
L 146.418472 101.105492 
L 156.586523 90.470629 
L 167.093508 71.281638 
L 177.261558 81.685308 
L 187.768543 82.841272 
L 198.275529 78.679804 
L 208.443579 76.136684 
L 218.950564 78.448611 
L 229.118614 86.309161 
L 239.625599 93.707327 
L 250.132585 95.094483 
L 259.622765 90.701822 
L 270.12975 81.916501 
L 280.2978 69.66329 
L 290.804785 60.646776 
L 300.972836 82.841272 
L 311.479821 88.389895 
L 321.986806 102.030262 
L 332.154856 107.810079 
L 342.661842 112.665125 
L 352.829892 124.45595 
L 363.336877 145.956868 
L 373.843862 152.430262 
L 383.334042 157.516501 
L 393.841028 156.822923 
L 404.009078 148.962372 
L 414.516063 129.079804 
L 424.684113 132.547694 
L 435.191098 126.074299 
L 445.698084 123.068794 
L 455.866134 118.444941 
L 466.373119 112.665125 
L 476.541169 111.740354 
L 487.048155 108.966042 
L 497.55514 98.562372 
L 507.384255 96.019253 
L 517.89124 80.529345 
L 528.05929 65.964207 
L 538.566276 55.329345 
L 548.734326 67.582556 
L 559.241311 73.824758 
L 569.748296 75.211914 
L 579.916346 69.66329 
L 590.423332 61.340354 
L 600.591382 55.329345 
L 611.098367 54.86696 
L 621.605352 49.087143 
L 631.095533 35.677969 
L 641.602518 42.382556 
L 651.770568 44.925675 
L 662.277553 53.017418 
L 672.445603 101.79907 
L 682.952589 139.483473 
L 693.459574 194.507327 
" clip-path="url(#pd4f596edbe)" style="fill: none; stroke: #9edae5; stroke-width: 1.4; stroke-linecap: square"/>
   </g>
   <g id="line2d_24">
    <path d="M 662.277553 300.277969 
L 662.277553 23.077969 
" clip-path="url(#pd4f596edbe)" style="fill: none; stroke-dasharray: 3.7,1.6; stroke-dashoffset: 0; stroke: #000000"/>
   </g>
   <g id="patch_3">
    <path d="M 54.295938 300.277969 
L 54.295938 23.077969 
" style="fill: none; stroke: #000000; stroke-width: 0.8; stroke-linejoin: miter; stroke-linecap: square"/>
   </g>
   <g id="patch_4">
    <path d="M 54.295938 300.277969 
L 723.895938 300.277969 
" style="fill: none; stroke: #000000; stroke-width: 0.8; stroke-linejoin: miter; stroke-linecap: square"/>
   </g>
   <g id="text_13">
    <!-- Tiltaksbruk per region -->
    <g transform="translate(317.870156 17.077969) scale(0.13 -0.13)">
     <defs>
      <path id="DejaVuSans-54" d="M -19 4666 
L 3928 4666 
L 3928 4134 
L 2272 4134 
L 2272 0 
L 1638 0 
L 1638 4134 
L -19 4134 
L -19 4666 
z
" transform="scale(0.015625)"/>
      <path id="DejaVuSans-73" d="M 2834 3397 
L 2834 2853 
Q 2591 2978 2328 3040 
Q 2066 3103 1784 3103 
Q 1356 3103 1142 2972 
Q 928 2841 928 2578 
Q 928 2378 1081 2264 
Q 1234 2150 1697 2047 
L 1894 2003 
Q 2506 1872 2764 1633 
Q 3022 1394 3022 966 
Q 3022 478 2636 193 
Q 2250 -91 1575 -91 
Q 1294 -91 989 -36 
Q 684 19 347 128 
L 347 722 
Q 666 556 975 473 
Q 1284 391 1588 391 
Q 1994 391 2212 530 
Q 2431 669 2431 922 
Q 2431 1156 2273 1281 
Q 2116 1406 1581 1522 
L 1381 1569 
Q 847 1681 609 1914 
Q 372 2147 372 2553 
Q 372 3047 722 3315 
Q 1072 3584 1716 3584 
Q 2034 3584 2315 3537 
Q 2597 3491 2834 3397 
z
" transform="scale(0.015625)"/>
      <path id="DejaVuSans-62" d="M 3116 1747 
Q 3116 2381 2855 2742 
Q 2594 3103 2138 3103 
Q 1681 3103 1420 2742 
Q 1159 2381 1159 1747 
Q 1159 1113 1420 752 
Q 1681 391 2138 391 
Q 2594 391 2855 752 
Q 3116 1113 3116 1747 
z
M 1159 2969 
Q 1341 3281 1617 3432 
Q 1894 3584 2278 3584 
Q 2916 3584 3314 3078 
Q 3713 2572 3713 1747 
Q 3713 922 3314 415 
Q 2916 -91 2278 -91 
Q 1894 -91 1617 61 
Q 1341 213 1159 525 
L 1159 0 
L 581 0 
L 581 4863 
L 1159 4863 
L 1159 2969 
z
" transform="scale(0.015625)"/>
      <path id="DejaVuSans-72" d="M 2631 2963 
Q 2534 3019 2420 3045 
Q 2306 3072 2169 3072 
Q 1681 3072 1420 2755 
Q 1159 2438 1159 1844 
L 1159 0 
L 581 0 
L 581 3500 
L 1159 3500 
L 1159 2956 
Q 1341 3275 1631 3429 
Q 1922 3584 2338 3584 
Q 2397 3584 2469 3576 
Q 2541 3569 2628 3553 
L 2631 2963 
z
" transform="scale(0.015625)"/>
      <path id="DejaVuSans-75" d="M 544 1381 
L 544 3500 
L 1119 3500 
L 1119 1403 
Q 1119 906 1312 657 
Q 1506 409 1894 409 
Q 2359 409 2629 706 
Q 2900 1003 2900 1516 
L 2900 3500 
L 3475 3500 
L 3475 0 
L 2900 0 
L 2900 538 
Q 2691 219 2414 64 
Q 2138 -91 1772 -91 
Q 1169 -91 856 284 
Q 544 659 544 1381 
z
M 1991 3584 
L 1991 3584 
z
" transform="scale(0.015625)"/>
      <path id="DejaVuSans-70" d="M 1159 525 
L 1159 -1331 
L 581 -1331 
L 581 3500 
L 1159 3500 
L 1159 2969 
Q 1341 3281 1617 3432 
Q 1894 3584 2278 3584 
Q 2916 3584 3314 3078 
Q 3713 2572 3713 1747 
Q 3713 922 3314 415 
Q 2916 -91 2278 -91 
Q 1894 -91 1617 61 
Q 1341 213 1159 525 
z
M 3116 1747 
Q 3116 2381 2855 2742 
Q 2594 3103 2138 3103 
Q 1681 3103 1420 2742 
Q 1159 2381 1159 1747 
Q 1159 1113 1420 752 
Q 1681 391 2138 391 
Q 2594 391 2855 752 
Q 3116 1113 3116 1747 
z
" transform="scale(0.015625)"/>
      <path id="DejaVuSans-65" d="M 3597 1894 
L 3597 1613 
L 953 1613 
Q 991 1019 1311 708 
Q 1631 397 2203 397 
Q 2534 397 2845 478 
Q 3156 559 3463 722 
L 3463 178 
Q 3153 47 2828 -22 
Q 2503 -91 2169 -91 
Q 1331 -91 842 396 
Q 353 884 353 1716 
Q 353 2575 817 3079 
Q 1281 3584 2069 3584 
Q 2775 3584 3186 3129 
Q 3597 2675 3597 1894 
z
M 3022 2063 
Q 3016 2534 2758 2815 
Q 2500 3097 2075 3097 
Q 1594 3097 1305 2825 
Q 1016 2553 972 2059 
L 3022 2063 
z
" transform="scale(0.015625)"/>
      <path id="DejaVuSans-67" d="M 2906 1791 
Q 2906 2416 2648 2759 
Q 2391 3103 1925 3103 
Q 1463 3103 1205 2759 
Q 947 2416 947 1791 
Q 947 1169 1205 825 
Q 1463 481 1925 481 
Q 2391 481 2648 825 
Q 2906 1169 2906 1791 
z
M 3481 434 
Q 3481 -459 3084 -895 
Q 2688 -1331 1869 -1331 
Q 1566 -1331 1297 -1286 
Q 1028 -1241 775 -1147 
L 775 -588 
Q 1028 -725 1275 -790 
Q 1522 -856 1778 -856 
Q 2344 -856 2625 -561 
Q 2906 -266 2906 331 
L 2906 616 
Q 2728 306 2450 153 
Q 2172 0 1784 0 
Q 1141 0 747 490 
Q 353 981 353 1791 
Q 353 2603 747 3093 
Q 1141 3584 1784 3584 
Q 2172 3584 2450 3431 
Q 2728 3278 2906 2969 
L 2906 3500 
L 3481 3500 
L 3481 434 
z
" transform="scale(0.015625)"/>
      <path id="DejaVuSans-6f" d="M 1959 3097 
Q 1497 3097 1228 2736 
Q 959 2375 959 1747 
Q 959 1119 1226 758 
Q 1494 397 1959 397 
Q 2419 397 2687 759 
Q 2956 1122 2956 1747 
Q 2956 2369 2687 2733 
Q 2419 3097 1959 3097 
z
M 1959 3584 
Q 2709 3584 3137 3096 
Q 3566 2609 3566 1747 
Q 3566 888 3137 398 
Q 2709 -91 1959 -91 
Q 1206 -91 779 398 
Q 353 888 353 1747 
Q 353 2609 779 3096 
Q 1206 3584 1959 3584 
z
" transform="scale(0.015625)"/>
     </defs>
     <use xlink:href="#DejaVuSans-54"/>
     <use xlink:href="#DejaVuSans-69" transform="translate(57.958984 0)"/>
     <use xlink:href="#DejaVuSans-6c" transform="translate(85.742188 0)"/>
     <use xlink:href="#DejaVuSans-74" transform="translate(113.525391 0)"/>
     <use xlink:href="#DejaVuSans-61" transform="translate(152.734375 0)"/>
     <use xlink:href="#DejaVuSans-6b" transform="translate(214.013672 0)"/>
     <use xlink:href="#DejaVuSans-73" transform="translate(271.923828 0)"/>
     <use xlink:href="#DejaVuSans-62" transform="translate(324.023438 0)"/>
     <use xlink:href="#DejaVuSans-72" transform="translate(387.5 0)"/>
     <use xlink:href="#DejaVuSans-75" transform="translate(428.613281 0)"/>
     <use xlink:href="#DejaVuSans-6b" transform="translate(491.992188 0)"/>
     <use xlink:href="#DejaVuSans-20" transform="translate(549.902344 0)"/>
     <use xlink:href="#DejaVuSans-70" transform="translate(581.689453 0)"/>
     <use xlink:href="#DejaVuSans-65" transform="translate(645.166016 0)"/>
     <use xlink:href="#DejaVuSans-72" transform="translate(706.689453 0)"/>
     <use xlink:href="#DejaVuSans-20" transform="translate(747.802734 0)"/>
     <use xlink:href="#DejaVuSans-72" transform="translate(779.589844 0)"/>
     <use xlink:href="#DejaVuSans-65" transform="translate(818.453125 0)"/>
     <use xlink:href="#DejaVuSans-67" transform="translate(879.976562 0)"/>
     <use xlink:href="#DejaVuSans-69" transform="translate(943.453125 0)"/>
     <use xlink:href="#DejaVuSans-6f" transform="translate(971.236328 0)"/>
     <use xlink:href="#DejaVuSans-6e" transform="translate(1032.417969 0)"/>
    </g>
   </g>
   <g id="legend_1">
    <g id="line2d_25">
     <path d="M 60.595938 32.246875 
L 67.595938 32.246875 
L 74.595938 32.246875 
" style="fill: none; stroke: #1f77b4; stroke-width: 1.4; stroke-linecap: square"/>
    </g>
    <g id="text_14">
     <!-- Nav Agder -->
     <g transform="translate(80.195938 34.696875) scale(0.07 -0.07)">
      <defs>
       <path id="DejaVuSans-4e" d="M 628 4666 
L 1478 4666 
L 3547 763 
L 3547 4666 
L 4159 4666 
L 4159 0 
L 3309 0 
L 1241 3903 
L 1241 0 
L 628 0 
L 628 4666 
z
" transform="scale(0.015625)"/>
       <path id="DejaVuSans-76" d="M 191 3500 
L 800 3500 
L 1894 563 
L 2988 3500 
L 3597 3500 
L 2284 0 
L 1503 0 
L 191 3500 
z
" transform="scale(0.015625)"/>
       <path id="DejaVuSans-64" d="M 2906 2969 
L 2906 4863 
L 3481 4863 
L 3481 0 
L 2906 0 
L 2906 525 
Q 2725 213 2448 61 
Q 2172 -91 1784 -91 
Q 1150 -91 751 415 
Q 353 922 353 1747 
Q 353 2572 751 3078 
Q 1150 3584 1784 3584 
Q 2172 3584 2448 3432 
Q 2725 3281 2906 2969 
z
M 947 1747 
Q 947 1113 1208 752 
Q 1469 391 1925 391 
Q 2381 391 2643 752 
Q 2906 1113 2906 1747 
Q 2906 2381 2643 2742 
Q 2381 3103 1925 3103 
Q 1469 3103 1208 2742 
Q 947 2381 947 1747 
z
" transform="scale(0.015625)"/>
      </defs>
      <use xlink:href="#DejaVuSans-4e"/>
      <use xlink:href="#DejaVuSans-61" transform="translate(74.804688 0)"/>
      <use xlink:href="#DejaVuSans-76" transform="translate(136.083984 0)"/>
      <use xlink:href="#DejaVuSans-20" transform="translate(195.263672 0)"/>
      <use xlink:href="#DejaVuSans-41" transform="translate(227.050781 0)"/>
      <use xlink:href="#DejaVuSans-67" transform="translate(295.458984 0)"/>
      <use xlink:href="#DejaVuSans-64" transform="translate(358.935547 0)"/>
      <use xlink:href="#DejaVuSans-65" transform="translate(422.412109 0)"/>
      <use xlink:href="#DejaVuSans-72" transform="translate(483.935547 0)"/>
     </g>
    </g>
    <g id="line2d_26">
     <path d="M 60.595938 42.521563 
L 67.595938 42.521563 
L 74.595938 42.521563 
" style="fill: none; stroke: #aec7e8; stroke-width: 1.4; stroke-linecap: square"/>
    </g>
    <g id="text_15">
     <!-- Nav Innlandet -->
     <g transform="translate(80.195938 44.971563) scale(0.07 -0.07)">
      <defs>
       <path id="DejaVuSans-49" d="M 628 4666 
L 1259 4666 
L 1259 0 
L 628 0 
L 628 4666 
z
" transform="scale(0.015625)"/>
      </defs>
      <use xlink:href="#DejaVuSans-4e"/>
      <use xlink:href="#DejaVuSans-61" transform="translate(74.804688 0)"/>
      <use xlink:href="#DejaVuSans-76" transform="translate(136.083984 0)"/>
      <use xlink:href="#DejaVuSans-20" transform="translate(195.263672 0)"/>
      <use xlink:href="#DejaVuSans-49" transform="translate(227.050781 0)"/>
      <use xlink:href="#DejaVuSans-6e" transform="translate(256.542969 0)"/>
      <use xlink:href="#DejaVuSans-6e" transform="translate(319.921875 0)"/>
      <use xlink:href="#DejaVuSans-6c" transform="translate(383.300781 0)"/>
      <use xlink:href="#DejaVuSans-61" transform="translate(411.083984 0)"/>
      <use xlink:href="#DejaVuSans-6e" transform="translate(472.363281 0)"/>
      <use xlink:href="#DejaVuSans-64" transform="translate(535.742188 0)"/>
      <use xlink:href="#DejaVuSans-65" transform="translate(599.21875 0)"/>
      <use xlink:href="#DejaVuSans-74" transform="translate(660.742188 0)"/>
     </g>
    </g>
    <g id="line2d_27">
     <path d="M 60.595938 52.79625 
L 67.595938 52.79625 
L 74.595938 52.79625 
" style="fill: none; stroke: #ffbb78; stroke-width: 1.4; stroke-linecap: square"/>
    </g>
    <g id="text_16">
     <!-- Nav Møre og Romsdal -->
     <g transform="translate(80.195938 55.24625) scale(0.07 -0.07)">
      <defs>
       <path id="DejaVuSans-4d" d="M 628 4666 
L 1569 4666 
L 2759 1491 
L 3956 4666 
L 4897 4666 
L 4897 0 
L 4281 0 
L 4281 4097 
L 3078 897 
L 2444 897 
L 1241 4097 
L 1241 0 
L 628 0 
L 628 4666 
z
" transform="scale(0.015625)"/>
       <path id="DejaVuSans-f8" d="M 2828 2503 
L 1306 653 
Q 1434 522 1595 459 
Q 1756 397 1959 397 
Q 2419 397 2687 759 
Q 2956 1122 2956 1747 
Q 2956 1994 2925 2176 
Q 2894 2359 2828 2503 
z
M 2606 2841 
Q 2475 2969 2314 3033 
Q 2153 3097 1959 3097 
Q 1488 3097 1223 2730 
Q 959 2363 959 1703 
Q 959 1478 989 1306 
Q 1019 1134 1081 991 
L 2606 2841 
z
M 691 519 
Q 522 759 437 1067 
Q 353 1375 353 1747 
Q 353 2609 779 3096 
Q 1206 3584 1959 3584 
Q 2250 3584 2498 3504 
Q 2747 3425 2956 3263 
L 3391 3788 
L 3688 3541 
L 3231 2981 
Q 3397 2741 3481 2431 
Q 3566 2122 3566 1747 
Q 3566 888 3137 398 
Q 2709 -91 1959 -91 
Q 1659 -91 1407 -9 
Q 1156 72 959 231 
L 525 -294 
L 225 -50 
L 691 519 
z
" transform="scale(0.015625)"/>
       <path id="DejaVuSans-52" d="M 2841 2188 
Q 3044 2119 3236 1894 
Q 3428 1669 3622 1275 
L 4263 0 
L 3584 0 
L 2988 1197 
Q 2756 1666 2539 1819 
Q 2322 1972 1947 1972 
L 1259 1972 
L 1259 0 
L 628 0 
L 628 4666 
L 2053 4666 
Q 2853 4666 3247 4331 
Q 3641 3997 3641 3322 
Q 3641 2881 3436 2590 
Q 3231 2300 2841 2188 
z
M 1259 4147 
L 1259 2491 
L 2053 2491 
Q 2509 2491 2742 2702 
Q 2975 2913 2975 3322 
Q 2975 3731 2742 3939 
Q 2509 4147 2053 4147 
L 1259 4147 
z
" transform="scale(0.015625)"/>
       <path id="DejaVuSans-6d" d="M 3328 2828 
Q 3544 3216 3844 3400 
Q 4144 3584 4550 3584 
Q 5097 3584 5394 3201 
Q 5691 2819 5691 2113 
L 5691 0 
L 5113 0 
L 5113 2094 
Q 5113 2597 4934 2840 
Q 4756 3084 4391 3084 
Q 3944 3084 3684 2787 
Q 3425 2491 3425 1978 
L 3425 0 
L 2847 0 
L 2847 2094 
Q 2847 2600 2669 2842 
Q 2491 3084 2119 3084 
Q 1678 3084 1418 2786 
Q 1159 2488 1159 1978 
L 1159 0 
L 581 0 
L 581 3500 
L 1159 3500 
L 1159 2956 
Q 1356 3278 1631 3431 
Q 1906 3584 2284 3584 
Q 2666 3584 2933 3390 
Q 3200 3197 3328 2828 
z
" transform="scale(0.015625)"/>
      </defs>
      <use xlink:href="#DejaVuSans-4e"/>
      <use xlink:href="#DejaVuSans-61" transform="translate(74.804688 0)"/>
      <use xlink:href="#DejaVuSans-76" transform="translate(136.083984 0)"/>
      <use xlink:href="#DejaVuSans-20" transform="translate(195.263672 0)"/>
      <use xlink:href="#DejaVuSans-4d" transform="translate(227.050781 0)"/>
      <use xlink:href="#DejaVuSans-f8" transform="translate(313.330078 0)"/>
      <use xlink:href="#DejaVuSans-72" transform="translate(374.511719 0)"/>
      <use xlink:href="#DejaVuSans-65" transform="translate(413.375 0)"/>
      <use xlink:href="#DejaVuSans-20" transform="translate(474.898438 0)"/>
      <use xlink:href="#DejaVuSans-6f" transform="translate(506.685547 0)"/>
      <use xlink:href="#DejaVuSans-67" transform="translate(567.867188 0)"/>
      <use xlink:href="#DejaVuSans-20" transform="translate(631.34375 0)"/>
      <use xlink:href="#DejaVuSans-52" transform="translate(663.130859 0)"/>
      <use xlink:href="#DejaVuSans-6f" transform="translate(728.113281 0)"/>
      <use xlink:href="#DejaVuSans-6d" transform="translate(789.294922 0)"/>
      <use xlink:href="#DejaVuSans-73" transform="translate(886.707031 0)"/>
      <use xlink:href="#DejaVuSans-64" transform="translate(938.806641 0)"/>
      <use xlink:href="#DejaVuSans-61" transform="translate(1002.283203 0)"/>
      <use xlink:href="#DejaVuSans-6c" transform="translate(1063.5625 0)"/>
     </g>
    </g>
    <g id="line2d_28">
     <path d="M 60.595938 63.070938 
L 67.595938 63.070938 
L 74.595938 63.070938 
" style="fill: none; stroke: #98df8a; stroke-width: 1.4; stroke-linecap: square"/>
    </g>
    <g id="text_17">
     <!-- Nav Nordland -->
     <g transform="translate(80.195938 65.520938) scale(0.07 -0.07)">
      <use xlink:href="#DejaVuSans-4e"/>
      <use xlink:href="#DejaVuSans-61" transform="translate(74.804688 0)"/>
      <use xlink:href="#DejaVuSans-76" transform="translate(136.083984 0)"/>
      <use xlink:href="#DejaVuSans-20" transform="translate(195.263672 0)"/>
      <use xlink:href="#DejaVuSans-4e" transform="translate(227.050781 0)"/>
      <use xlink:href="#DejaVuSans-6f" transform="translate(301.855469 0)"/>
      <use xlink:href="#DejaVuSans-72" transform="translate(363.037109 0)"/>
      <use xlink:href="#DejaVuSans-64" transform="translate(402.400391 0)"/>
      <use xlink:href="#DejaVuSans-6c" transform="translate(465.876953 0)"/>
      <use xlink:href="#DejaVuSans-61" transform="translate(493.660156 0)"/>
      <use xlink:href="#DejaVuSans-6e" transform="translate(554.939453 0)"/>
      <use xlink:href="#DejaVuSans-64" transform="translate(618.318359 0)"/>
     </g>
    </g>
    <g id="line2d_29">
     <path d="M 60.595938 73.345625 
L 67.595938 73.345625 
L 74.595938 73.345625 
" style="fill: none; stroke: #ff9896; stroke-width: 1.4; stroke-linecap: square"/>
    </g>
    <g id="text_18">
     <!-- Nav Oslo -->
     <g transform="translate(80.195938 75.795625) scale(0.07 -0.07)">
      <defs>
       <path id="DejaVuSans-4f" d="M 2522 4238 
Q 1834 4238 1429 3725 
Q 1025 3213 1025 2328 
Q 1025 1447 1429 934 
Q 1834 422 2522 422 
Q 3209 422 3611 934 
Q 4013 1447 4013 2328 
Q 4013 3213 3611 3725 
Q 3209 4238 2522 4238 
z
M 2522 4750 
Q 3503 4750 4090 4092 
Q 4678 3434 4678 2328 
Q 4678 1225 4090 567 
Q 3503 -91 2522 -91 
Q 1538 -91 948 565 
Q 359 1222 359 2328 
Q 359 3434 948 4092 
Q 1538 4750 2522 4750 
z
" transform="scale(0.015625)"/>
      </defs>
      <use xlink:href="#DejaVuSans-4e"/>
      <use xlink:href="#DejaVuSans-61" transform="translate(74.804688 0)"/>
      <use xlink:href="#DejaVuSans-76" transform="translate(136.083984 0)"/>
      <use xlink:href="#DejaVuSans-20" transform="translate(195.263672 0)"/>
      <use xlink:href="#DejaVuSans-4f" transform="translate(227.050781 0)"/>
      <use xlink:href="#DejaVuSans-73" transform="translate(305.761719 0)"/>
      <use xlink:href="#DejaVuSans-6c" transform="translate(357.861328 0)"/>
      <use xlink:href="#DejaVuSans-6f" transform="translate(385.644531 0)"/>
     </g>
    </g>
    <g id="line2d_30">
     <path d="M 60.595938 83.620313 
L 67.595938 83.620313 
L 74.595938 83.620313 
" style="fill: none; stroke: #c5b0d5; stroke-width: 1.4; stroke-linecap: square"/>
    </g>
    <g id="text_19">
     <!-- Nav Rogaland -->
     <g transform="translate(80.195938 86.070313) scale(0.07 -0.07)">
      <use xlink:href="#DejaVuSans-4e"/>
      <use xlink:href="#DejaVuSans-61" transform="translate(74.804688 0)"/>
      <use xlink:href="#DejaVuSans-76" transform="translate(136.083984 0)"/>
      <use xlink:href="#DejaVuSans-20" transform="translate(195.263672 0)"/>
      <use xlink:href="#DejaVuSans-52" transform="translate(227.050781 0)"/>
      <use xlink:href="#DejaVuSans-6f" transform="translate(292.033203 0)"/>
      <use xlink:href="#DejaVuSans-67" transform="translate(353.214844 0)"/>
      <use xlink:href="#DejaVuSans-61" transform="translate(416.691406 0)"/>
      <use xlink:href="#DejaVuSans-6c" transform="translate(477.970703 0)"/>
      <use xlink:href="#DejaVuSans-61" transform="translate(505.753906 0)"/>
      <use xlink:href="#DejaVuSans-6e" transform="translate(567.033203 0)"/>
      <use xlink:href="#DejaVuSans-64" transform="translate(630.412109 0)"/>
     </g>
    </g>
    <g id="line2d_31">
     <path d="M 60.595938 93.895 
L 67.595938 93.895 
L 74.595938 93.895 
" style="fill: none; stroke: #8c564b; stroke-width: 1.4; stroke-linecap: square"/>
    </g>
    <g id="text_20">
     <!-- Nav Troms og Finnmark -->
     <g transform="translate(80.195938 96.345) scale(0.07 -0.07)">
      <defs>
       <path id="DejaVuSans-46" d="M 628 4666 
L 3309 4666 
L 3309 4134 
L 1259 4134 
L 1259 2759 
L 3109 2759 
L 3109 2228 
L 1259 2228 
L 1259 0 
L 628 0 
L 628 4666 
z
" transform="scale(0.015625)"/>
      </defs>
      <use xlink:href="#DejaVuSans-4e"/>
      <use xlink:href="#DejaVuSans-61" transform="translate(74.804688 0)"/>
      <use xlink:href="#DejaVuSans-76" transform="translate(136.083984 0)"/>
      <use xlink:href="#DejaVuSans-20" transform="translate(195.263672 0)"/>
      <use xlink:href="#DejaVuSans-54" transform="translate(227.050781 0)"/>
      <use xlink:href="#DejaVuSans-72" transform="translate(273.384766 0)"/>
      <use xlink:href="#DejaVuSans-6f" transform="translate(312.248047 0)"/>
      <use xlink:href="#DejaVuSans-6d" transform="translate(373.429688 0)"/>
      <use xlink:href="#DejaVuSans-73" transform="translate(470.841797 0)"/>
      <use xlink:href="#DejaVuSans-20" transform="translate(522.941406 0)"/>
      <use xlink:href="#DejaVuSans-6f" transform="translate(554.728516 0)"/>
      <use xlink:href="#DejaVuSans-67" transform="translate(615.910156 0)"/>
      <use xlink:href="#DejaVuSans-20" transform="translate(679.386719 0)"/>
      <use xlink:href="#DejaVuSans-46" transform="translate(711.173828 0)"/>
      <use xlink:href="#DejaVuSans-69" transform="translate(761.443359 0)"/>
      <use xlink:href="#DejaVuSans-6e" transform="translate(789.226562 0)"/>
      <use xlink:href="#DejaVuSans-6e" transform="translate(852.605469 0)"/>
      <use xlink:href="#DejaVuSans-6d" transform="translate(915.984375 0)"/>
      <use xlink:href="#DejaVuSans-61" transform="translate(1013.396484 0)"/>
      <use xlink:href="#DejaVuSans-72" transform="translate(1074.675781 0)"/>
      <use xlink:href="#DejaVuSans-6b" transform="translate(1115.789062 0)"/>
     </g>
    </g>
    <g id="line2d_32">
     <path d="M 176.352969 32.246875 
L 183.352969 32.246875 
L 190.352969 32.246875 
" style="fill: none; stroke: #e377c2; stroke-width: 1.4; stroke-linecap: square"/>
    </g>
    <g id="text_21">
     <!-- Nav Trøndelag -->
     <g transform="translate(195.952969 34.696875) scale(0.07 -0.07)">
      <use xlink:href="#DejaVuSans-4e"/>
      <use xlink:href="#DejaVuSans-61" transform="translate(74.804688 0)"/>
      <use xlink:href="#DejaVuSans-76" transform="translate(136.083984 0)"/>
      <use xlink:href="#DejaVuSans-20" transform="translate(195.263672 0)"/>
      <use xlink:href="#DejaVuSans-54" transform="translate(227.050781 0)"/>
      <use xlink:href="#DejaVuSans-72" transform="translate(273.384766 0)"/>
      <use xlink:href="#DejaVuSans-f8" transform="translate(314.498047 0)"/>
      <use xlink:href="#DejaVuSans-6e" transform="translate(375.679688 0)"/>
      <use xlink:href="#DejaVuSans-64" transform="translate(439.058594 0)"/>
      <use xlink:href="#DejaVuSans-65" transform="translate(502.535156 0)"/>
      <use xlink:href="#DejaVuSans-6c" transform="translate(564.058594 0)"/>
      <use xlink:href="#DejaVuSans-61" transform="translate(591.841797 0)"/>
      <use xlink:href="#DejaVuSans-67" transform="translate(653.121094 0)"/>
     </g>
    </g>
    <g id="line2d_33">
     <path d="M 176.352969 42.521563 
L 183.352969 42.521563 
L 190.352969 42.521563 
" style="fill: none; stroke: #7f7f7f; stroke-width: 1.4; stroke-linecap: square"/>
    </g>
    <g id="text_22">
     <!-- Nav Vest-Viken -->
     <g transform="translate(195.952969 44.971563) scale(0.07 -0.07)">
      <defs>
       <path id="DejaVuSans-56" d="M 1831 0 
L 50 4666 
L 709 4666 
L 2188 738 
L 3669 4666 
L 4325 4666 
L 2547 0 
L 1831 0 
z
" transform="scale(0.015625)"/>
       <path id="DejaVuSans-2d" d="M 313 2009 
L 1997 2009 
L 1997 1497 
L 313 1497 
L 313 2009 
z
" transform="scale(0.015625)"/>
      </defs>
      <use xlink:href="#DejaVuSans-4e"/>
      <use xlink:href="#DejaVuSans-61" transform="translate(74.804688 0)"/>
      <use xlink:href="#DejaVuSans-76" transform="translate(136.083984 0)"/>
      <use xlink:href="#DejaVuSans-20" transform="translate(195.263672 0)"/>
      <use xlink:href="#DejaVuSans-56" transform="translate(227.050781 0)"/>
      <use xlink:href="#DejaVuSans-65" transform="translate(287.708984 0)"/>
      <use xlink:href="#DejaVuSans-73" transform="translate(349.232422 0)"/>
      <use xlink:href="#DejaVuSans-74" transform="translate(401.332031 0)"/>
      <use xlink:href="#DejaVuSans-2d" transform="translate(440.541016 0)"/>
      <use xlink:href="#DejaVuSans-56" transform="translate(470.75 0)"/>
      <use xlink:href="#DejaVuSans-69" transform="translate(536.908203 0)"/>
      <use xlink:href="#DejaVuSans-6b" transform="translate(564.691406 0)"/>
      <use xlink:href="#DejaVuSans-65" transform="translate(618.976562 0)"/>
      <use xlink:href="#DejaVuSans-6e" transform="translate(680.5 0)"/>
     </g>
    </g>
    <g id="line2d_34">
     <path d="M 176.352969 52.79625 
L 183.352969 52.79625 
L 190.352969 52.79625 
" style="fill: none; stroke: #bcbd22; stroke-width: 1.4; stroke-linecap: square"/>
    </g>
    <g id="text_23">
     <!-- Nav Vestfold og Telemark -->
     <g transform="translate(195.952969 55.24625) scale(0.07 -0.07)">
      <defs>
       <path id="DejaVuSans-66" d="M 2375 4863 
L 2375 4384 
L 1825 4384 
Q 1516 4384 1395 4259 
Q 1275 4134 1275 3809 
L 1275 3500 
L 2222 3500 
L 2222 3053 
L 1275 3053 
L 1275 0 
L 697 0 
L 697 3053 
L 147 3053 
L 147 3500 
L 697 3500 
L 697 3744 
Q 697 4328 969 4595 
Q 1241 4863 1831 4863 
L 2375 4863 
z
" transform="scale(0.015625)"/>
      </defs>
      <use xlink:href="#DejaVuSans-4e"/>
      <use xlink:href="#DejaVuSans-61" transform="translate(74.804688 0)"/>
      <use xlink:href="#DejaVuSans-76" transform="translate(136.083984 0)"/>
      <use xlink:href="#DejaVuSans-20" transform="translate(195.263672 0)"/>
      <use xlink:href="#DejaVuSans-56" transform="translate(227.050781 0)"/>
      <use xlink:href="#DejaVuSans-65" transform="translate(287.708984 0)"/>
      <use xlink:href="#DejaVuSans-73" transform="translate(349.232422 0)"/>
      <use xlink:href="#DejaVuSans-74" transform="translate(401.332031 0)"/>
      <use xlink:href="#DejaVuSans-66" transform="translate(440.541016 0)"/>
      <use xlink:href="#DejaVuSans-6f" transform="translate(475.746094 0)"/>
      <use xlink:href="#DejaVuSans-6c" transform="translate(536.927734 0)"/>
      <use xlink:href="#DejaVuSans-64" transform="translate(564.710938 0)"/>
      <use xlink:href="#DejaVuSans-20" transform="translate(628.1875 0)"/>
      <use xlink:href="#DejaVuSans-6f" transform="translate(659.974609 0)"/>
      <use xlink:href="#DejaVuSans-67" transform="translate(721.15625 0)"/>
      <use xlink:href="#DejaVuSans-20" transform="translate(784.632812 0)"/>
      <use xlink:href="#DejaVuSans-54" transform="translate(816.419922 0)"/>
      <use xlink:href="#DejaVuSans-65" transform="translate(860.503906 0)"/>
      <use xlink:href="#DejaVuSans-6c" transform="translate(922.027344 0)"/>
      <use xlink:href="#DejaVuSans-65" transform="translate(949.810547 0)"/>
      <use xlink:href="#DejaVuSans-6d" transform="translate(1011.333984 0)"/>
      <use xlink:href="#DejaVuSans-61" transform="translate(1108.746094 0)"/>
      <use xlink:href="#DejaVuSans-72" transform="translate(1170.025391 0)"/>
      <use xlink:href="#DejaVuSans-6b" transform="translate(1211.138672 0)"/>
     </g>
    </g>
    <g id="line2d_35">
     <path d="M 176.352969 63.070938 
L 183.352969 63.070938 
L 190.352969 63.070938 
" style="fill: none; stroke: #17becf; stroke-width: 1.4; stroke-linecap: square"/>
    </g>
    <g id="text_24">
     <!-- Nav Vestland -->
     <g transform="translate(195.952969 65.520938) scale(0.07 -0.07)">
      <use xlink:href="#DejaVuSans-4e"/>
      <use xlink:href="#DejaVuSans-61" transform="translate(74.804688 0)"/>
      <use xlink:href="#DejaVuSans-76" transform="translate(136.083984 0)"/>
      <use xlink:href="#DejaVuSans-20" transform="translate(195.263672 0)"/>
      <use xlink:href="#DejaVuSans-56" transform="translate(227.050781 0)"/>
      <use xlink:href="#DejaVuSans-65" transform="translate(287.708984 0)"/>
      <use xlink:href="#DejaVuSans-73" transform="translate(349.232422 0)"/>
      <use xlink:href="#DejaVuSans-74" transform="translate(401.332031 0)"/>
      <use xlink:href="#DejaVuSans-6c" transform="translate(440.541016 0)"/>
      <use xlink:href="#DejaVuSans-61" transform="translate(468.324219 0)"/>
      <use xlink:href="#DejaVuSans-6e" transform="translate(529.603516 0)"/>
      <use xlink:href="#DejaVuSans-64" transform="translate(592.982422 0)"/>
     </g>
    </g>
    <g id="line2d_36">
     <path d="M 176.352969 73.345625 
L 183.352969 73.345625 
L 190.352969 73.345625 
" style="fill: none; stroke: #9edae5; stroke-width: 1.4; stroke-linecap: square"/>
    </g>
    <g id="text_25">
     <!-- Nav Øst-Viken -->
     <g transform="translate(195.952969 75.795625) scale(0.07 -0.07)">
      <defs>
       <path id="DejaVuSans-d8" d="M 3769 3475 
L 1528 831 
Q 1722 631 1973 526 
Q 2225 422 2522 422 
Q 3209 422 3611 934 
Q 4013 1447 4013 2328 
Q 4013 2678 3952 2965 
Q 3891 3253 3769 3475 
z
M 3513 3828 
Q 3322 4028 3070 4133 
Q 2819 4238 2522 4238 
Q 1834 4238 1429 3725 
Q 1025 3213 1025 2328 
Q 1025 1978 1086 1684 
Q 1147 1391 1269 1178 
L 3513 3828 
z
M 850 684 
Q 606 1003 482 1415 
Q 359 1828 359 2328 
Q 359 3434 948 4092 
Q 1538 4750 2522 4750 
Q 2928 4750 3273 4629 
Q 3619 4509 3891 4275 
L 4397 4872 
L 4716 4594 
L 4184 3975 
Q 4428 3653 4553 3237 
Q 4678 2822 4678 2328 
Q 4678 1225 4090 567 
Q 3503 -91 2522 -91 
Q 2122 -91 1776 26 
Q 1431 144 1147 378 
L 641 -219 
L 319 56 
L 850 684 
z
" transform="scale(0.015625)"/>
      </defs>
      <use xlink:href="#DejaVuSans-4e"/>
      <use xlink:href="#DejaVuSans-61" transform="translate(74.804688 0)"/>
      <use xlink:href="#DejaVuSans-76" transform="translate(136.083984 0)"/>
      <use xlink:href="#DejaVuSans-20" transform="translate(195.263672 0)"/>
      <use xlink:href="#DejaVuSans-d8" transform="translate(227.050781 0)"/>
      <use xlink:href="#DejaVuSans-73" transform="translate(305.761719 0)"/>
      <use xlink:href="#DejaVuSans-74" transform="translate(357.861328 0)"/>
      <use xlink:href="#DejaVuSans-2d" transform="translate(397.070312 0)"/>
      <use xlink:href="#DejaVuSans-56" transform="translate(427.279297 0)"/>
      <use xlink:href="#DejaVuSans-69" transform="translate(493.4375 0)"/>
      <use xlink:href="#DejaVuSans-6b" transform="translate(521.220703 0)"/>
      <use xlink:href="#DejaVuSans-65" transform="translate(575.505859 0)"/>
      <use xlink:href="#DejaVuSans-6e" transform="translate(637.029297 0)"/>
     </g>
    </g>
    <g id="line2d_37">
     <path d="M 176.352969 83.620313 
L 183.352969 83.620313 
L 190.352969 83.620313 
" style="fill: none; stroke-dasharray: 3.7,1.6; stroke-dashoffset: 0; stroke: #000000"/>
    </g>
    <g id="text_26">
     <!-- Behandlingsstart -->
     <g transform="translate(195.952969 86.070313) scale(0.07 -0.07)">
      <defs>
       <path id="DejaVuSans-42" d="M 1259 2228 
L 1259 519 
L 2272 519 
Q 2781 519 3026 730 
Q 3272 941 3272 1375 
Q 3272 1813 3026 2020 
Q 2781 2228 2272 2228 
L 1259 2228 
z
M 1259 4147 
L 1259 2741 
L 2194 2741 
Q 2656 2741 2882 2914 
Q 3109 3088 3109 3444 
Q 3109 3797 2882 3972 
Q 2656 4147 2194 4147 
L 1259 4147 
z
M 628 4666 
L 2241 4666 
Q 2963 4666 3353 4366 
Q 3744 4066 3744 3513 
Q 3744 3084 3544 2831 
Q 3344 2578 2956 2516 
Q 3422 2416 3680 2098 
Q 3938 1781 3938 1306 
Q 3938 681 3513 340 
Q 3088 0 2303 0 
L 628 0 
L 628 4666 
z
" transform="scale(0.015625)"/>
       <path id="DejaVuSans-68" d="M 3513 2113 
L 3513 0 
L 2938 0 
L 2938 2094 
Q 2938 2591 2744 2837 
Q 2550 3084 2163 3084 
Q 1697 3084 1428 2787 
Q 1159 2491 1159 1978 
L 1159 0 
L 581 0 
L 581 4863 
L 1159 4863 
L 1159 2956 
Q 1366 3272 1645 3428 
Q 1925 3584 2291 3584 
Q 2894 3584 3203 3211 
Q 3513 2838 3513 2113 
z
" transform="scale(0.015625)"/>
      </defs>
      <use xlink:href="#DejaVuSans-42"/>
      <use xlink:href="#DejaVuSans-65" transform="translate(68.603516 0)"/>
      <use xlink:href="#DejaVuSans-68" transform="translate(130.126953 0)"/>
      <use xlink:href="#DejaVuSans-61" transform="translate(193.505859 0)"/>
      <use xlink:href="#DejaVuSans-6e" transform="translate(254.785156 0)"/>
      <use xlink:href="#DejaVuSans-64" transform="translate(318.164062 0)"/>
      <use xlink:href="#DejaVuSans-6c" transform="translate(381.640625 0)"/>
      <use xlink:href="#DejaVuSans-69" transform="translate(409.423828 0)"/>
      <use xlink:href="#DejaVuSans-6e" transform="translate(437.207031 0)"/>
      <use xlink:href="#DejaVuSans-67" transform="translate(500.585938 0)"/>
      <use xlink:href="#DejaVuSans-73" transform="translate(564.0625 0)"/>
      <use xlink:href="#DejaVuSans-73" transform="translate(616.162109 0)"/>
      <use xlink:href="#DejaVuSans-74" transform="translate(668.261719 0)"/>
      <use xlink:href="#DejaVuSans-61" transform="translate(707.470703 0)"/>
      <use xlink:href="#DejaVuSans-72" transform="translate(768.75 0)"/>
      <use xlink:href="#DejaVuSans-74" transform="translate(809.863281 0)"/>
     </g>
    </g>
   </g>
  </g>
 </g>
 <defs>
  <clipPath id="pd4f596edbe">
   <rect x="54.295938" y="23.077969" width="669.6" height="277.2"/>
  </clipPath>
 </defs>
</svg>
